%TF.GenerationSoftware,KiCad,Pcbnew,(6.0.7)*%
%TF.CreationDate,2023-06-21T14:43:57+08:00*%
%TF.ProjectId,Elevator_Indicator,456c6576-6174-46f7-925f-496e64696361,rev?*%
%TF.SameCoordinates,Original*%
%TF.FileFunction,Copper,L2,Bot*%
%TF.FilePolarity,Positive*%
%FSLAX46Y46*%
G04 Gerber Fmt 4.6, Leading zero omitted, Abs format (unit mm)*
G04 Created by KiCad (PCBNEW (6.0.7)) date 2023-06-21 14:43:57*
%MOMM*%
%LPD*%
G01*
G04 APERTURE LIST*
%TA.AperFunction,ComponentPad*%
%ADD10R,1.700000X1.700000*%
%TD*%
%TA.AperFunction,ComponentPad*%
%ADD11O,1.700000X1.700000*%
%TD*%
%TA.AperFunction,ComponentPad*%
%ADD12C,1.600000*%
%TD*%
%TA.AperFunction,ComponentPad*%
%ADD13O,1.600000X1.600000*%
%TD*%
%TA.AperFunction,ComponentPad*%
%ADD14C,0.800000*%
%TD*%
%TA.AperFunction,ComponentPad*%
%ADD15C,6.400000*%
%TD*%
%TA.AperFunction,ComponentPad*%
%ADD16R,2.200000X2.200000*%
%TD*%
%TA.AperFunction,ComponentPad*%
%ADD17C,2.200000*%
%TD*%
%TA.AperFunction,ComponentPad*%
%ADD18R,1.600000X1.600000*%
%TD*%
%TA.AperFunction,ComponentPad*%
%ADD19R,2.400000X1.600000*%
%TD*%
%TA.AperFunction,ComponentPad*%
%ADD20O,2.400000X1.600000*%
%TD*%
%TA.AperFunction,Conductor*%
%ADD21C,0.500000*%
%TD*%
%TA.AperFunction,Conductor*%
%ADD22C,0.250000*%
%TD*%
G04 APERTURE END LIST*
D10*
%TO.P,J1,1,Pin_1*%
%TO.N,+5V*%
X86360000Y-85080000D03*
D11*
%TO.P,J1,2,Pin_2*%
%TO.N,GND*%
X86360000Y-82540000D03*
%TO.P,J1,3,Pin_3*%
%TO.N,SCL*%
X86360000Y-80000000D03*
%TO.P,J1,4,Pin_4*%
%TO.N,SDA*%
X86360000Y-77460000D03*
%TD*%
D12*
%TO.P,R2,1*%
%TO.N,Seg_B*%
X105410000Y-93980000D03*
D13*
%TO.P,R2,2*%
%TO.N,Net-(R2-Pad2)*%
X115570000Y-93980000D03*
%TD*%
D14*
%TO.P,H4,1*%
%TO.N,N/C*%
X77042944Y-57577056D03*
X78740000Y-58280000D03*
X78740000Y-53480000D03*
X81140000Y-55880000D03*
D15*
X78740000Y-55880000D03*
D14*
X80437056Y-54182944D03*
X80437056Y-57577056D03*
X77042944Y-54182944D03*
X76340000Y-55880000D03*
%TD*%
D10*
%TO.P,J3,1,Pin_1*%
%TO.N,+12V*%
X95245000Y-76205000D03*
D11*
%TO.P,J3,2,Pin_2*%
%TO.N,Seg_E*%
X95245000Y-78745000D03*
%TO.P,J3,3,Pin_3*%
%TO.N,Seg_D*%
X95245000Y-81285000D03*
%TO.P,J3,4,Pin_4*%
%TO.N,Seg_C*%
X95245000Y-83825000D03*
%TO.P,J3,5,Pin_5*%
%TO.N,unconnected-(J3-Pad5)*%
X95245000Y-86365000D03*
%TO.P,J3,6,Pin_6*%
%TO.N,Seg_B*%
X97785000Y-86365000D03*
%TO.P,J3,7,Pin_7*%
%TO.N,Seg_A*%
X97785000Y-83825000D03*
%TO.P,J3,8,Pin_8*%
%TO.N,+12V*%
X97785000Y-81285000D03*
%TO.P,J3,9,Pin_9*%
%TO.N,Seg_F*%
X97785000Y-78745000D03*
%TO.P,J3,10,Pin_10*%
%TO.N,Seg_G*%
X97785000Y-76205000D03*
%TD*%
D12*
%TO.P,R6,1*%
%TO.N,Seg_F*%
X105410000Y-78740000D03*
D13*
%TO.P,R6,2*%
%TO.N,Net-(R6-Pad2)*%
X115570000Y-78740000D03*
%TD*%
D12*
%TO.P,R5,1*%
%TO.N,Seg_E*%
X105410000Y-82550000D03*
D13*
%TO.P,R5,2*%
%TO.N,Net-(R5-Pad2)*%
X115570000Y-82550000D03*
%TD*%
D12*
%TO.P,R4,1*%
%TO.N,Seg_D*%
X105410000Y-86360000D03*
D13*
%TO.P,R4,2*%
%TO.N,Net-(R4-Pad2)*%
X115570000Y-86360000D03*
%TD*%
D14*
%TO.P,H1,1*%
%TO.N,N/C*%
X136317056Y-57437056D03*
X136317056Y-54042944D03*
X134620000Y-53340000D03*
X132922944Y-57437056D03*
X137020000Y-55740000D03*
X132922944Y-54042944D03*
D15*
X134620000Y-55740000D03*
D14*
X134620000Y-58140000D03*
X132220000Y-55740000D03*
%TD*%
D12*
%TO.P,R1,1*%
%TO.N,Seg_A*%
X105410000Y-97790000D03*
D13*
%TO.P,R1,2*%
%TO.N,Net-(R1-Pad2)*%
X115570000Y-97790000D03*
%TD*%
D16*
%TO.P,J2,1,Pin_1*%
%TO.N,RST*%
X87630000Y-96520000D03*
D17*
%TO.P,J2,2,Pin_2*%
%TO.N,GND*%
X90170000Y-96520000D03*
%TD*%
D16*
%TO.P,J4,1,Pin_1*%
%TO.N,GND*%
X96520000Y-96520000D03*
D17*
%TO.P,J4,2,Pin_2*%
%TO.N,+12V*%
X99060000Y-96520000D03*
%TD*%
D14*
%TO.P,H3,1*%
%TO.N,N/C*%
X77042944Y-98217056D03*
X81140000Y-96520000D03*
X76340000Y-96520000D03*
X77042944Y-94822944D03*
D15*
X78740000Y-96520000D03*
D14*
X80437056Y-94822944D03*
X80437056Y-98217056D03*
X78740000Y-94120000D03*
X78740000Y-98920000D03*
%TD*%
D12*
%TO.P,R3,1*%
%TO.N,Seg_C*%
X105410000Y-90170000D03*
D13*
%TO.P,R3,2*%
%TO.N,Net-(R3-Pad2)*%
X115570000Y-90170000D03*
%TD*%
D18*
%TO.P,A1,1,D1/TX*%
%TO.N,unconnected-(A1-Pad1)*%
X88900000Y-69840000D03*
D13*
%TO.P,A1,2,D0/RX*%
%TO.N,unconnected-(A1-Pad2)*%
X91440000Y-69840000D03*
%TO.P,A1,3,~{RESET}*%
%TO.N,RST*%
X93980000Y-69840000D03*
%TO.P,A1,4,GND*%
%TO.N,GND*%
X96520000Y-69840000D03*
%TO.P,A1,5,D2*%
%TO.N,unconnected-(A1-Pad5)*%
X99060000Y-69840000D03*
%TO.P,A1,6,D3*%
%TO.N,D3*%
X101600000Y-69840000D03*
%TO.P,A1,7,D4*%
%TO.N,D4*%
X104140000Y-69840000D03*
%TO.P,A1,8,D5*%
%TO.N,D5*%
X106680000Y-69840000D03*
%TO.P,A1,9,D6*%
%TO.N,D6*%
X109220000Y-69840000D03*
%TO.P,A1,10,D7*%
%TO.N,D7*%
X111760000Y-69840000D03*
%TO.P,A1,11,D8*%
%TO.N,D8*%
X114300000Y-69840000D03*
%TO.P,A1,12,D9*%
%TO.N,D9*%
X116840000Y-69840000D03*
%TO.P,A1,13,D10*%
%TO.N,unconnected-(A1-Pad13)*%
X119380000Y-69840000D03*
%TO.P,A1,14,D11*%
%TO.N,unconnected-(A1-Pad14)*%
X121920000Y-69840000D03*
%TO.P,A1,15,D12*%
%TO.N,unconnected-(A1-Pad15)*%
X124460000Y-69840000D03*
%TO.P,A1,16,D13*%
%TO.N,unconnected-(A1-Pad16)*%
X124460000Y-54600000D03*
%TO.P,A1,17,3V3*%
%TO.N,unconnected-(A1-Pad17)*%
X121920000Y-54600000D03*
%TO.P,A1,18,AREF*%
%TO.N,unconnected-(A1-Pad18)*%
X119380000Y-54600000D03*
%TO.P,A1,19,A0*%
%TO.N,unconnected-(A1-Pad19)*%
X116840000Y-54600000D03*
%TO.P,A1,20,A1*%
%TO.N,unconnected-(A1-Pad20)*%
X114300000Y-54600000D03*
%TO.P,A1,21,A2*%
%TO.N,unconnected-(A1-Pad21)*%
X111760000Y-54600000D03*
%TO.P,A1,22,A3*%
%TO.N,unconnected-(A1-Pad22)*%
X109220000Y-54600000D03*
%TO.P,A1,23,A4*%
%TO.N,SDA*%
X106680000Y-54600000D03*
%TO.P,A1,24,A5*%
%TO.N,SCL*%
X104140000Y-54600000D03*
%TO.P,A1,25,A6*%
%TO.N,unconnected-(A1-Pad25)*%
X101600000Y-54600000D03*
%TO.P,A1,26,A7*%
%TO.N,unconnected-(A1-Pad26)*%
X99060000Y-54600000D03*
%TO.P,A1,27,+5V*%
%TO.N,+5V*%
X96520000Y-54600000D03*
%TO.P,A1,28,~{RESET}*%
%TO.N,unconnected-(A1-Pad28)*%
X93980000Y-54600000D03*
%TO.P,A1,29,GND*%
%TO.N,GND*%
X91440000Y-54600000D03*
%TO.P,A1,30,VIN*%
%TO.N,+12V*%
X88900000Y-54600000D03*
%TD*%
D12*
%TO.P,R7,1*%
%TO.N,Seg_G*%
X105410000Y-74930000D03*
D13*
%TO.P,R7,2*%
%TO.N,Net-(R7-Pad2)*%
X115570000Y-74930000D03*
%TD*%
D19*
%TO.P,U1,1,I1*%
%TO.N,D3*%
X128285000Y-95235000D03*
D20*
%TO.P,U1,2,I2*%
%TO.N,D4*%
X128285000Y-92695000D03*
%TO.P,U1,3,I3*%
%TO.N,D5*%
X128285000Y-90155000D03*
%TO.P,U1,4,I4*%
%TO.N,D6*%
X128285000Y-87615000D03*
%TO.P,U1,5,I5*%
%TO.N,D7*%
X128285000Y-85075000D03*
%TO.P,U1,6,I6*%
%TO.N,D8*%
X128285000Y-82535000D03*
%TO.P,U1,7,I7*%
%TO.N,D9*%
X128285000Y-79995000D03*
%TO.P,U1,8,GND*%
%TO.N,GND*%
X128285000Y-77455000D03*
%TO.P,U1,9,COM*%
%TO.N,+12V*%
X120665000Y-77455000D03*
%TO.P,U1,10,O7*%
%TO.N,Net-(R7-Pad2)*%
X120665000Y-79995000D03*
%TO.P,U1,11,O6*%
%TO.N,Net-(R6-Pad2)*%
X120665000Y-82535000D03*
%TO.P,U1,12,O5*%
%TO.N,Net-(R5-Pad2)*%
X120665000Y-85075000D03*
%TO.P,U1,13,O4*%
%TO.N,Net-(R4-Pad2)*%
X120665000Y-87615000D03*
%TO.P,U1,14,O3*%
%TO.N,Net-(R3-Pad2)*%
X120665000Y-90155000D03*
%TO.P,U1,15,O2*%
%TO.N,Net-(R2-Pad2)*%
X120665000Y-92695000D03*
%TO.P,U1,16,O1*%
%TO.N,Net-(R1-Pad2)*%
X120665000Y-95235000D03*
%TD*%
D14*
%TO.P,H2,1*%
%TO.N,N/C*%
X136317056Y-98217056D03*
X132922944Y-94822944D03*
X136317056Y-94822944D03*
X134620000Y-98920000D03*
X137020000Y-96520000D03*
X132220000Y-96520000D03*
D15*
X134620000Y-96520000D03*
D14*
X134620000Y-94120000D03*
X132922944Y-98217056D03*
%TD*%
D21*
%TO.N,+12V*%
X91440000Y-86360000D02*
X91440000Y-77470000D01*
X100330000Y-83830000D02*
X97785000Y-81285000D01*
X100330000Y-92710000D02*
X100330000Y-83830000D01*
X86360000Y-57140000D02*
X88900000Y-54600000D01*
X86360000Y-69850000D02*
X86360000Y-57140000D01*
X99060000Y-96520000D02*
X99060000Y-93980000D01*
X92705000Y-76205000D02*
X88900000Y-72400000D01*
X88900000Y-72400000D02*
X88900000Y-72390000D01*
X110490000Y-81280000D02*
X114786727Y-76983273D01*
X120193273Y-76983273D02*
X120665000Y-77455000D01*
X114786727Y-76983273D02*
X120193273Y-76983273D01*
X110490000Y-93980000D02*
X110490000Y-81280000D01*
X99060000Y-96520000D02*
X99736651Y-95843349D01*
X99736651Y-95843349D02*
X108626651Y-95843349D01*
X88900000Y-72390000D02*
X86360000Y-69850000D01*
X91440000Y-77470000D02*
X92705000Y-76205000D01*
X99060000Y-93980000D02*
X100330000Y-92710000D01*
X92705000Y-76205000D02*
X95245000Y-76205000D01*
X108626651Y-95843349D02*
X110490000Y-93980000D01*
X99060000Y-93980000D02*
X91440000Y-86360000D01*
D22*
X95245000Y-76205000D02*
X92715000Y-76205000D01*
%TO.N,Seg_D*%
X99060000Y-80010000D02*
X105410000Y-86360000D01*
X96520000Y-80010000D02*
X99060000Y-80010000D01*
X95245000Y-81285000D02*
X96520000Y-80010000D01*
%TD*%
%TA.AperFunction,Conductor*%
%TO.N,GND*%
G36*
X133220662Y-52090002D02*
G01*
X133267155Y-52143658D01*
X133277259Y-52213932D01*
X133247765Y-52278512D01*
X133197697Y-52313630D01*
X133109547Y-52347468D01*
X133106607Y-52348966D01*
X132766147Y-52522439D01*
X132766140Y-52522443D01*
X132763206Y-52523938D01*
X132760440Y-52525734D01*
X132760437Y-52525736D01*
X132549932Y-52662439D01*
X132437207Y-52735643D01*
X132135124Y-52980266D01*
X131860266Y-53255124D01*
X131858194Y-53257682D01*
X131858191Y-53257686D01*
X131800854Y-53328491D01*
X131615643Y-53557207D01*
X131613848Y-53559970D01*
X131613848Y-53559971D01*
X131489063Y-53752125D01*
X131403938Y-53883206D01*
X131402443Y-53886140D01*
X131402439Y-53886147D01*
X131264908Y-54156067D01*
X131227468Y-54229547D01*
X131088167Y-54592438D01*
X130987562Y-54967901D01*
X130959638Y-55144205D01*
X130941099Y-55261257D01*
X130926754Y-55351824D01*
X130906411Y-55740000D01*
X130926754Y-56128176D01*
X130987562Y-56512099D01*
X131088167Y-56887562D01*
X131227468Y-57250453D01*
X131228966Y-57253393D01*
X131323156Y-57438250D01*
X131403938Y-57596794D01*
X131405734Y-57599560D01*
X131405736Y-57599563D01*
X131496653Y-57739563D01*
X131615643Y-57922793D01*
X131860266Y-58224876D01*
X132135124Y-58499734D01*
X132437207Y-58744357D01*
X132439970Y-58746152D01*
X132439971Y-58746152D01*
X132652789Y-58884357D01*
X132763205Y-58956062D01*
X132766139Y-58957557D01*
X132766146Y-58957561D01*
X133106607Y-59131034D01*
X133109547Y-59132532D01*
X133472438Y-59271833D01*
X133847901Y-59372438D01*
X134051793Y-59404732D01*
X134228576Y-59432732D01*
X134228584Y-59432733D01*
X134231824Y-59433246D01*
X134620000Y-59453589D01*
X135008176Y-59433246D01*
X135011416Y-59432733D01*
X135011424Y-59432732D01*
X135188207Y-59404732D01*
X135392099Y-59372438D01*
X135767562Y-59271833D01*
X136130453Y-59132532D01*
X136133393Y-59131034D01*
X136473854Y-58957561D01*
X136473861Y-58957557D01*
X136476795Y-58956062D01*
X136587212Y-58884357D01*
X136800029Y-58746152D01*
X136800030Y-58746152D01*
X136802793Y-58744357D01*
X137104876Y-58499734D01*
X137379734Y-58224876D01*
X137624357Y-57922793D01*
X137743347Y-57739563D01*
X137834264Y-57599563D01*
X137834266Y-57599560D01*
X137836062Y-57596794D01*
X137916845Y-57438250D01*
X138011034Y-57253393D01*
X138012532Y-57250453D01*
X138151833Y-56887562D01*
X138182293Y-56773884D01*
X138219245Y-56713261D01*
X138283105Y-56682240D01*
X138353600Y-56690668D01*
X138408347Y-56735871D01*
X138430000Y-56806495D01*
X138430000Y-95453505D01*
X138409998Y-95521626D01*
X138356342Y-95568119D01*
X138286068Y-95578223D01*
X138221488Y-95548729D01*
X138182293Y-95486116D01*
X138173555Y-95453505D01*
X138151833Y-95372438D01*
X138150310Y-95368469D01*
X138075389Y-95173295D01*
X138012532Y-95009547D01*
X138011034Y-95006607D01*
X137837561Y-94666147D01*
X137837557Y-94666140D01*
X137836062Y-94663206D01*
X137784131Y-94583238D01*
X137626152Y-94339971D01*
X137626152Y-94339970D01*
X137624357Y-94337207D01*
X137411531Y-94074390D01*
X137381809Y-94037686D01*
X137381806Y-94037682D01*
X137379734Y-94035124D01*
X137104876Y-93760266D01*
X137101329Y-93757393D01*
X136805355Y-93517718D01*
X136802793Y-93515643D01*
X136800029Y-93513848D01*
X136479564Y-93305736D01*
X136479561Y-93305734D01*
X136476795Y-93303938D01*
X136473861Y-93302443D01*
X136473854Y-93302439D01*
X136133393Y-93128966D01*
X136130453Y-93127468D01*
X135767562Y-92988167D01*
X135392099Y-92887562D01*
X135169150Y-92852250D01*
X135011424Y-92827268D01*
X135011416Y-92827267D01*
X135008176Y-92826754D01*
X134620000Y-92806411D01*
X134231824Y-92826754D01*
X134228584Y-92827267D01*
X134228576Y-92827268D01*
X134070850Y-92852250D01*
X133847901Y-92887562D01*
X133472438Y-92988167D01*
X133109547Y-93127468D01*
X133106607Y-93128966D01*
X132766147Y-93302439D01*
X132766140Y-93302443D01*
X132763206Y-93303938D01*
X132437207Y-93515643D01*
X132434645Y-93517718D01*
X132138672Y-93757393D01*
X132135124Y-93760266D01*
X131860266Y-94035124D01*
X131858194Y-94037682D01*
X131858191Y-94037686D01*
X131828469Y-94074390D01*
X131615643Y-94337207D01*
X131613848Y-94339970D01*
X131613848Y-94339971D01*
X131455870Y-94583238D01*
X131403938Y-94663206D01*
X131402443Y-94666140D01*
X131402439Y-94666147D01*
X131228966Y-95006607D01*
X131227468Y-95009547D01*
X131164611Y-95173295D01*
X131089691Y-95368469D01*
X131088167Y-95372438D01*
X130987562Y-95747901D01*
X130955268Y-95951793D01*
X130933928Y-96086531D01*
X130926754Y-96131824D01*
X130906411Y-96520000D01*
X130926754Y-96908176D01*
X130927267Y-96911416D01*
X130927268Y-96911424D01*
X130943455Y-97013624D01*
X130987562Y-97292099D01*
X131088167Y-97667562D01*
X131089352Y-97670650D01*
X131089353Y-97670652D01*
X131109199Y-97722352D01*
X131227468Y-98030453D01*
X131228966Y-98033393D01*
X131381599Y-98332951D01*
X131403938Y-98376794D01*
X131405734Y-98379560D01*
X131405736Y-98379563D01*
X131543077Y-98591051D01*
X131615643Y-98702793D01*
X131691281Y-98796198D01*
X131797627Y-98927523D01*
X131860266Y-99004876D01*
X132135124Y-99279734D01*
X132437207Y-99524357D01*
X132439970Y-99526152D01*
X132439971Y-99526152D01*
X132626371Y-99647201D01*
X132763205Y-99736062D01*
X132766139Y-99737557D01*
X132766146Y-99737561D01*
X132962133Y-99837421D01*
X133109547Y-99912532D01*
X133204052Y-99948809D01*
X133442842Y-100040472D01*
X133472438Y-100051833D01*
X133561697Y-100075750D01*
X133586116Y-100082293D01*
X133646739Y-100119245D01*
X133677760Y-100183105D01*
X133669332Y-100253600D01*
X133624129Y-100308347D01*
X133553505Y-100330000D01*
X99369210Y-100330000D01*
X99301089Y-100309998D01*
X99254596Y-100256342D01*
X99244492Y-100186068D01*
X99273986Y-100121488D01*
X99332793Y-100083378D01*
X99459407Y-100045152D01*
X99459410Y-100045151D01*
X99465315Y-100043368D01*
X99472635Y-100039476D01*
X99643153Y-99948809D01*
X99643155Y-99948808D01*
X99648599Y-99945913D01*
X99781624Y-99837421D01*
X99804689Y-99818610D01*
X99804692Y-99818607D01*
X99809464Y-99814715D01*
X99941783Y-99654770D01*
X99945876Y-99647201D01*
X100037584Y-99477590D01*
X100037586Y-99477585D01*
X100040514Y-99472170D01*
X100101898Y-99273871D01*
X100103429Y-99259303D01*
X100122952Y-99073554D01*
X100122952Y-99073552D01*
X100123596Y-99067425D01*
X100115777Y-98981515D01*
X100105341Y-98866836D01*
X100105340Y-98866833D01*
X100104782Y-98860697D01*
X100102298Y-98852255D01*
X100057495Y-98700029D01*
X100046173Y-98661560D01*
X99950001Y-98477600D01*
X99819929Y-98315823D01*
X99815210Y-98311863D01*
X99815209Y-98311862D01*
X99684119Y-98201864D01*
X99644793Y-98142755D01*
X99643667Y-98071767D01*
X99681098Y-98011439D01*
X99716892Y-97988935D01*
X99743854Y-97977767D01*
X99787928Y-97959511D01*
X99787932Y-97959509D01*
X99792502Y-97957616D01*
X100008376Y-97825328D01*
X100192426Y-97668134D01*
X100197142Y-97664106D01*
X100200898Y-97660898D01*
X100365328Y-97468376D01*
X100497616Y-97252502D01*
X100547012Y-97133251D01*
X100592611Y-97023164D01*
X100592612Y-97023162D01*
X100594505Y-97018591D01*
X100642916Y-96816944D01*
X100652454Y-96777216D01*
X100652455Y-96777210D01*
X100653609Y-96772403D01*
X100653998Y-96767466D01*
X100653999Y-96767457D01*
X100657895Y-96717962D01*
X100683180Y-96651621D01*
X100740319Y-96609482D01*
X100783506Y-96601849D01*
X104443463Y-96601849D01*
X104511584Y-96621851D01*
X104558077Y-96675507D01*
X104568181Y-96745781D01*
X104538687Y-96810361D01*
X104532558Y-96816944D01*
X104403802Y-96945700D01*
X104400645Y-96950208D01*
X104400643Y-96950211D01*
X104349561Y-97023164D01*
X104272477Y-97133251D01*
X104270154Y-97138233D01*
X104270151Y-97138238D01*
X104215008Y-97256494D01*
X104175716Y-97340757D01*
X104174294Y-97346065D01*
X104174293Y-97346067D01*
X104134852Y-97493261D01*
X104116457Y-97561913D01*
X104096502Y-97790000D01*
X104116457Y-98018087D01*
X104117881Y-98023400D01*
X104117881Y-98023402D01*
X104165604Y-98201503D01*
X104175716Y-98239243D01*
X104178039Y-98244224D01*
X104178039Y-98244225D01*
X104270151Y-98441762D01*
X104270154Y-98441767D01*
X104272477Y-98446749D01*
X104345491Y-98551024D01*
X104373519Y-98591051D01*
X104403802Y-98634300D01*
X104565700Y-98796198D01*
X104570208Y-98799355D01*
X104570211Y-98799357D01*
X104628604Y-98840244D01*
X104753251Y-98927523D01*
X104758233Y-98929846D01*
X104758238Y-98929849D01*
X104955775Y-99021961D01*
X104960757Y-99024284D01*
X104966065Y-99025706D01*
X104966067Y-99025707D01*
X105176598Y-99082119D01*
X105176600Y-99082119D01*
X105181913Y-99083543D01*
X105410000Y-99103498D01*
X105638087Y-99083543D01*
X105643400Y-99082119D01*
X105643402Y-99082119D01*
X105853933Y-99025707D01*
X105853935Y-99025706D01*
X105859243Y-99024284D01*
X105864225Y-99021961D01*
X106061762Y-98929849D01*
X106061767Y-98929846D01*
X106066749Y-98927523D01*
X106191396Y-98840244D01*
X106249789Y-98799357D01*
X106249792Y-98799355D01*
X106254300Y-98796198D01*
X106416198Y-98634300D01*
X106446482Y-98591051D01*
X106474509Y-98551024D01*
X106547523Y-98446749D01*
X106549846Y-98441767D01*
X106549849Y-98441762D01*
X106641961Y-98244225D01*
X106641961Y-98244224D01*
X106644284Y-98239243D01*
X106654397Y-98201503D01*
X106702119Y-98023402D01*
X106702119Y-98023400D01*
X106703543Y-98018087D01*
X106723498Y-97790000D01*
X114256502Y-97790000D01*
X114276457Y-98018087D01*
X114277881Y-98023400D01*
X114277881Y-98023402D01*
X114325604Y-98201503D01*
X114335716Y-98239243D01*
X114338039Y-98244224D01*
X114338039Y-98244225D01*
X114430151Y-98441762D01*
X114430154Y-98441767D01*
X114432477Y-98446749D01*
X114505491Y-98551024D01*
X114533519Y-98591051D01*
X114563802Y-98634300D01*
X114725700Y-98796198D01*
X114730208Y-98799355D01*
X114730211Y-98799357D01*
X114788604Y-98840244D01*
X114913251Y-98927523D01*
X114918233Y-98929846D01*
X114918238Y-98929849D01*
X115115775Y-99021961D01*
X115120757Y-99024284D01*
X115126065Y-99025706D01*
X115126067Y-99025707D01*
X115336598Y-99082119D01*
X115336600Y-99082119D01*
X115341913Y-99083543D01*
X115570000Y-99103498D01*
X115798087Y-99083543D01*
X115803400Y-99082119D01*
X115803402Y-99082119D01*
X116013933Y-99025707D01*
X116013935Y-99025706D01*
X116019243Y-99024284D01*
X116024225Y-99021961D01*
X116221762Y-98929849D01*
X116221767Y-98929846D01*
X116226749Y-98927523D01*
X116351396Y-98840244D01*
X116409789Y-98799357D01*
X116409792Y-98799355D01*
X116414300Y-98796198D01*
X116576198Y-98634300D01*
X116606482Y-98591051D01*
X116634509Y-98551024D01*
X116707523Y-98446749D01*
X116709846Y-98441767D01*
X116709849Y-98441762D01*
X116801961Y-98244225D01*
X116801961Y-98244224D01*
X116804284Y-98239243D01*
X116814397Y-98201503D01*
X116862119Y-98023402D01*
X116862119Y-98023400D01*
X116863543Y-98018087D01*
X116883498Y-97790000D01*
X116863543Y-97561913D01*
X116845148Y-97493261D01*
X116805707Y-97346067D01*
X116805706Y-97346065D01*
X116804284Y-97340757D01*
X116764992Y-97256494D01*
X116709849Y-97138238D01*
X116709846Y-97138233D01*
X116707523Y-97133251D01*
X116630439Y-97023164D01*
X116579357Y-96950211D01*
X116579355Y-96950208D01*
X116576198Y-96945700D01*
X116414300Y-96783802D01*
X116409792Y-96780645D01*
X116409789Y-96780643D01*
X116259639Y-96675507D01*
X116226749Y-96652477D01*
X116221767Y-96650154D01*
X116221762Y-96650151D01*
X116024225Y-96558039D01*
X116024224Y-96558039D01*
X116019243Y-96555716D01*
X116013935Y-96554294D01*
X116013933Y-96554293D01*
X115803402Y-96497881D01*
X115803400Y-96497881D01*
X115798087Y-96496457D01*
X115570000Y-96476502D01*
X115341913Y-96496457D01*
X115336600Y-96497881D01*
X115336598Y-96497881D01*
X115126067Y-96554293D01*
X115126065Y-96554294D01*
X115120757Y-96555716D01*
X115115776Y-96558039D01*
X115115775Y-96558039D01*
X114918238Y-96650151D01*
X114918233Y-96650154D01*
X114913251Y-96652477D01*
X114880361Y-96675507D01*
X114730211Y-96780643D01*
X114730208Y-96780645D01*
X114725700Y-96783802D01*
X114563802Y-96945700D01*
X114560645Y-96950208D01*
X114560643Y-96950211D01*
X114509561Y-97023164D01*
X114432477Y-97133251D01*
X114430154Y-97138233D01*
X114430151Y-97138238D01*
X114375008Y-97256494D01*
X114335716Y-97340757D01*
X114334294Y-97346065D01*
X114334293Y-97346067D01*
X114294852Y-97493261D01*
X114276457Y-97561913D01*
X114256502Y-97790000D01*
X106723498Y-97790000D01*
X106703543Y-97561913D01*
X106685148Y-97493261D01*
X106645707Y-97346067D01*
X106645706Y-97346065D01*
X106644284Y-97340757D01*
X106604992Y-97256494D01*
X106549849Y-97138238D01*
X106549846Y-97138233D01*
X106547523Y-97133251D01*
X106470439Y-97023164D01*
X106419357Y-96950211D01*
X106419355Y-96950208D01*
X106416198Y-96945700D01*
X106287442Y-96816944D01*
X106253416Y-96754632D01*
X106258481Y-96683817D01*
X106301028Y-96626981D01*
X106367548Y-96602170D01*
X106376537Y-96601849D01*
X108559581Y-96601849D01*
X108578531Y-96603282D01*
X108592766Y-96605448D01*
X108592770Y-96605448D01*
X108600000Y-96606548D01*
X108607292Y-96605955D01*
X108607295Y-96605955D01*
X108652669Y-96602264D01*
X108662884Y-96601849D01*
X108670944Y-96601849D01*
X108684234Y-96600300D01*
X108699158Y-96598560D01*
X108703533Y-96598127D01*
X108768990Y-96592803D01*
X108768993Y-96592802D01*
X108776288Y-96592209D01*
X108783252Y-96589953D01*
X108789211Y-96588762D01*
X108795066Y-96587378D01*
X108802332Y-96586531D01*
X108870978Y-96561614D01*
X108875106Y-96560197D01*
X108937587Y-96539956D01*
X108937589Y-96539955D01*
X108944550Y-96537700D01*
X108950805Y-96533904D01*
X108956279Y-96531398D01*
X108961709Y-96528679D01*
X108968588Y-96526182D01*
X108974709Y-96522169D01*
X109029627Y-96486163D01*
X109033331Y-96483826D01*
X109095758Y-96445944D01*
X109104135Y-96438546D01*
X109104159Y-96438573D01*
X109107151Y-96435920D01*
X109110384Y-96433217D01*
X109116503Y-96429205D01*
X109169779Y-96372966D01*
X109172157Y-96370524D01*
X110978911Y-94563770D01*
X110993323Y-94551384D01*
X111004918Y-94542851D01*
X111004923Y-94542846D01*
X111010818Y-94538508D01*
X111015557Y-94532930D01*
X111015560Y-94532927D01*
X111045035Y-94498232D01*
X111051965Y-94490716D01*
X111057660Y-94485021D01*
X111075281Y-94462749D01*
X111078072Y-94459345D01*
X111120591Y-94409297D01*
X111120592Y-94409295D01*
X111125333Y-94403715D01*
X111128661Y-94397199D01*
X111132028Y-94392150D01*
X111135195Y-94387021D01*
X111139734Y-94381284D01*
X111170655Y-94315125D01*
X111172561Y-94311225D01*
X111200109Y-94257276D01*
X111205769Y-94246192D01*
X111207508Y-94239084D01*
X111209607Y-94233441D01*
X111211524Y-94227678D01*
X111214622Y-94221050D01*
X111229487Y-94149583D01*
X111230457Y-94145299D01*
X111246473Y-94079845D01*
X111247808Y-94074390D01*
X111248500Y-94063236D01*
X111248536Y-94063238D01*
X111248775Y-94059245D01*
X111249149Y-94055053D01*
X111250640Y-94047885D01*
X111248804Y-93980000D01*
X114256502Y-93980000D01*
X114276457Y-94208087D01*
X114277881Y-94213400D01*
X114277881Y-94213402D01*
X114325277Y-94390283D01*
X114335716Y-94429243D01*
X114338039Y-94434224D01*
X114338039Y-94434225D01*
X114430151Y-94631762D01*
X114430154Y-94631767D01*
X114432477Y-94636749D01*
X114563802Y-94824300D01*
X114725700Y-94986198D01*
X114730208Y-94989355D01*
X114730211Y-94989357D01*
X114785045Y-95027752D01*
X114913251Y-95117523D01*
X114918233Y-95119846D01*
X114918238Y-95119849D01*
X115115775Y-95211961D01*
X115120757Y-95214284D01*
X115126065Y-95215706D01*
X115126067Y-95215707D01*
X115336598Y-95272119D01*
X115336600Y-95272119D01*
X115341913Y-95273543D01*
X115570000Y-95293498D01*
X115798087Y-95273543D01*
X115803400Y-95272119D01*
X115803402Y-95272119D01*
X116013933Y-95215707D01*
X116013935Y-95215706D01*
X116019243Y-95214284D01*
X116024225Y-95211961D01*
X116221762Y-95119849D01*
X116221767Y-95119846D01*
X116226749Y-95117523D01*
X116354955Y-95027752D01*
X116409789Y-94989357D01*
X116409792Y-94989355D01*
X116414300Y-94986198D01*
X116576198Y-94824300D01*
X116707523Y-94636749D01*
X116709846Y-94631767D01*
X116709849Y-94631762D01*
X116801961Y-94434225D01*
X116801961Y-94434224D01*
X116804284Y-94429243D01*
X116814724Y-94390283D01*
X116862119Y-94213402D01*
X116862119Y-94213400D01*
X116863543Y-94208087D01*
X116883498Y-93980000D01*
X116863543Y-93751913D01*
X116853521Y-93714510D01*
X116805707Y-93536067D01*
X116805706Y-93536065D01*
X116804284Y-93530757D01*
X116720812Y-93351749D01*
X116709849Y-93328238D01*
X116709846Y-93328233D01*
X116707523Y-93323251D01*
X116613761Y-93189345D01*
X116579357Y-93140211D01*
X116579355Y-93140208D01*
X116576198Y-93135700D01*
X116414300Y-92973802D01*
X116409792Y-92970645D01*
X116409789Y-92970643D01*
X116276694Y-92877449D01*
X116226749Y-92842477D01*
X116221767Y-92840154D01*
X116221762Y-92840151D01*
X116024225Y-92748039D01*
X116024224Y-92748039D01*
X116019243Y-92745716D01*
X116013935Y-92744294D01*
X116013933Y-92744293D01*
X115803402Y-92687881D01*
X115803400Y-92687881D01*
X115798087Y-92686457D01*
X115570000Y-92666502D01*
X115341913Y-92686457D01*
X115336600Y-92687881D01*
X115336598Y-92687881D01*
X115126067Y-92744293D01*
X115126065Y-92744294D01*
X115120757Y-92745716D01*
X115115776Y-92748039D01*
X115115775Y-92748039D01*
X114918238Y-92840151D01*
X114918233Y-92840154D01*
X114913251Y-92842477D01*
X114863306Y-92877449D01*
X114730211Y-92970643D01*
X114730208Y-92970645D01*
X114725700Y-92973802D01*
X114563802Y-93135700D01*
X114560645Y-93140208D01*
X114560643Y-93140211D01*
X114526239Y-93189345D01*
X114432477Y-93323251D01*
X114430154Y-93328233D01*
X114430151Y-93328238D01*
X114419188Y-93351749D01*
X114335716Y-93530757D01*
X114334294Y-93536065D01*
X114334293Y-93536067D01*
X114286479Y-93714510D01*
X114276457Y-93751913D01*
X114256502Y-93980000D01*
X111248804Y-93980000D01*
X111248546Y-93970479D01*
X111248500Y-93967072D01*
X111248500Y-90170000D01*
X114256502Y-90170000D01*
X114276457Y-90398087D01*
X114277881Y-90403400D01*
X114277881Y-90403402D01*
X114333032Y-90609225D01*
X114335716Y-90619243D01*
X114338039Y-90624224D01*
X114338039Y-90624225D01*
X114430151Y-90821762D01*
X114430154Y-90821767D01*
X114432477Y-90826749D01*
X114435634Y-90831257D01*
X114556028Y-91003197D01*
X114563802Y-91014300D01*
X114725700Y-91176198D01*
X114730208Y-91179355D01*
X114730211Y-91179357D01*
X114808389Y-91234098D01*
X114913251Y-91307523D01*
X114918233Y-91309846D01*
X114918238Y-91309849D01*
X115088589Y-91389284D01*
X115120757Y-91404284D01*
X115126065Y-91405706D01*
X115126067Y-91405707D01*
X115336598Y-91462119D01*
X115336600Y-91462119D01*
X115341913Y-91463543D01*
X115570000Y-91483498D01*
X115798087Y-91463543D01*
X115803400Y-91462119D01*
X115803402Y-91462119D01*
X116013933Y-91405707D01*
X116013935Y-91405706D01*
X116019243Y-91404284D01*
X116051411Y-91389284D01*
X116221762Y-91309849D01*
X116221767Y-91309846D01*
X116226749Y-91307523D01*
X116331611Y-91234098D01*
X116409789Y-91179357D01*
X116409792Y-91179355D01*
X116414300Y-91176198D01*
X116576198Y-91014300D01*
X116583973Y-91003197D01*
X116704366Y-90831257D01*
X116707523Y-90826749D01*
X116709846Y-90821767D01*
X116709849Y-90821762D01*
X116801961Y-90624225D01*
X116801961Y-90624224D01*
X116804284Y-90619243D01*
X116806969Y-90609225D01*
X116862119Y-90403402D01*
X116862119Y-90403400D01*
X116863543Y-90398087D01*
X116883498Y-90170000D01*
X116863543Y-89941913D01*
X116804284Y-89720757D01*
X116799766Y-89711067D01*
X116709849Y-89518238D01*
X116709846Y-89518233D01*
X116707523Y-89513251D01*
X116576198Y-89325700D01*
X116414300Y-89163802D01*
X116409792Y-89160645D01*
X116409789Y-89160643D01*
X116331611Y-89105902D01*
X116226749Y-89032477D01*
X116221767Y-89030154D01*
X116221762Y-89030151D01*
X116024225Y-88938039D01*
X116024224Y-88938039D01*
X116019243Y-88935716D01*
X116013935Y-88934294D01*
X116013933Y-88934293D01*
X115803402Y-88877881D01*
X115803400Y-88877881D01*
X115798087Y-88876457D01*
X115570000Y-88856502D01*
X115341913Y-88876457D01*
X115336600Y-88877881D01*
X115336598Y-88877881D01*
X115126067Y-88934293D01*
X115126065Y-88934294D01*
X115120757Y-88935716D01*
X115115776Y-88938039D01*
X115115775Y-88938039D01*
X114918238Y-89030151D01*
X114918233Y-89030154D01*
X114913251Y-89032477D01*
X114808389Y-89105902D01*
X114730211Y-89160643D01*
X114730208Y-89160645D01*
X114725700Y-89163802D01*
X114563802Y-89325700D01*
X114432477Y-89513251D01*
X114430154Y-89518233D01*
X114430151Y-89518238D01*
X114340234Y-89711067D01*
X114335716Y-89720757D01*
X114276457Y-89941913D01*
X114256502Y-90170000D01*
X111248500Y-90170000D01*
X111248500Y-86360000D01*
X114256502Y-86360000D01*
X114276457Y-86588087D01*
X114277881Y-86593400D01*
X114277881Y-86593402D01*
X114324557Y-86767596D01*
X114335716Y-86809243D01*
X114338039Y-86814224D01*
X114338039Y-86814225D01*
X114430151Y-87011762D01*
X114430154Y-87011767D01*
X114432477Y-87016749D01*
X114464469Y-87062438D01*
X114542579Y-87173990D01*
X114563802Y-87204300D01*
X114725700Y-87366198D01*
X114730208Y-87369355D01*
X114730211Y-87369357D01*
X114808389Y-87424098D01*
X114913251Y-87497523D01*
X114918233Y-87499846D01*
X114918238Y-87499849D01*
X115115282Y-87591731D01*
X115120757Y-87594284D01*
X115126065Y-87595706D01*
X115126067Y-87595707D01*
X115336598Y-87652119D01*
X115336600Y-87652119D01*
X115341913Y-87653543D01*
X115570000Y-87673498D01*
X115798087Y-87653543D01*
X115803400Y-87652119D01*
X115803402Y-87652119D01*
X116013933Y-87595707D01*
X116013935Y-87595706D01*
X116019243Y-87594284D01*
X116024718Y-87591731D01*
X116221762Y-87499849D01*
X116221767Y-87499846D01*
X116226749Y-87497523D01*
X116331611Y-87424098D01*
X116409789Y-87369357D01*
X116409792Y-87369355D01*
X116414300Y-87366198D01*
X116576198Y-87204300D01*
X116597422Y-87173990D01*
X116675531Y-87062438D01*
X116707523Y-87016749D01*
X116709846Y-87011767D01*
X116709849Y-87011762D01*
X116801961Y-86814225D01*
X116801961Y-86814224D01*
X116804284Y-86809243D01*
X116815444Y-86767596D01*
X116862119Y-86593402D01*
X116862119Y-86593400D01*
X116863543Y-86588087D01*
X116883498Y-86360000D01*
X116863543Y-86131913D01*
X116848910Y-86077301D01*
X116805707Y-85916067D01*
X116805706Y-85916065D01*
X116804284Y-85910757D01*
X116798940Y-85899297D01*
X116709849Y-85708238D01*
X116709846Y-85708233D01*
X116707523Y-85703251D01*
X116634098Y-85598389D01*
X116579357Y-85520211D01*
X116579355Y-85520208D01*
X116576198Y-85515700D01*
X116414300Y-85353802D01*
X116409792Y-85350645D01*
X116409789Y-85350643D01*
X116331611Y-85295902D01*
X116226749Y-85222477D01*
X116221767Y-85220154D01*
X116221762Y-85220151D01*
X116024225Y-85128039D01*
X116024224Y-85128039D01*
X116019243Y-85125716D01*
X116013935Y-85124294D01*
X116013933Y-85124293D01*
X115803402Y-85067881D01*
X115803400Y-85067881D01*
X115798087Y-85066457D01*
X115570000Y-85046502D01*
X115341913Y-85066457D01*
X115336600Y-85067881D01*
X115336598Y-85067881D01*
X115126067Y-85124293D01*
X115126065Y-85124294D01*
X115120757Y-85125716D01*
X115115776Y-85128039D01*
X115115775Y-85128039D01*
X114918238Y-85220151D01*
X114918233Y-85220154D01*
X114913251Y-85222477D01*
X114808389Y-85295902D01*
X114730211Y-85350643D01*
X114730208Y-85350645D01*
X114725700Y-85353802D01*
X114563802Y-85515700D01*
X114560645Y-85520208D01*
X114560643Y-85520211D01*
X114505902Y-85598389D01*
X114432477Y-85703251D01*
X114430154Y-85708233D01*
X114430151Y-85708238D01*
X114341060Y-85899297D01*
X114335716Y-85910757D01*
X114334294Y-85916065D01*
X114334293Y-85916067D01*
X114291090Y-86077301D01*
X114276457Y-86131913D01*
X114256502Y-86360000D01*
X111248500Y-86360000D01*
X111248500Y-82550000D01*
X114256502Y-82550000D01*
X114276457Y-82778087D01*
X114277881Y-82783400D01*
X114277881Y-82783402D01*
X114333032Y-82989225D01*
X114335716Y-82999243D01*
X114338039Y-83004224D01*
X114338039Y-83004225D01*
X114430151Y-83201762D01*
X114430154Y-83201767D01*
X114432477Y-83206749D01*
X114459975Y-83246020D01*
X114556028Y-83383197D01*
X114563802Y-83394300D01*
X114725700Y-83556198D01*
X114730208Y-83559355D01*
X114730211Y-83559357D01*
X114764905Y-83583650D01*
X114913251Y-83687523D01*
X114918233Y-83689846D01*
X114918238Y-83689849D01*
X115088589Y-83769284D01*
X115120757Y-83784284D01*
X115126065Y-83785706D01*
X115126067Y-83785707D01*
X115336598Y-83842119D01*
X115336600Y-83842119D01*
X115341913Y-83843543D01*
X115570000Y-83863498D01*
X115798087Y-83843543D01*
X115803400Y-83842119D01*
X115803402Y-83842119D01*
X116013933Y-83785707D01*
X116013935Y-83785706D01*
X116019243Y-83784284D01*
X116051411Y-83769284D01*
X116221762Y-83689849D01*
X116221767Y-83689846D01*
X116226749Y-83687523D01*
X116375095Y-83583650D01*
X116409789Y-83559357D01*
X116409792Y-83559355D01*
X116414300Y-83556198D01*
X116576198Y-83394300D01*
X116583973Y-83383197D01*
X116680025Y-83246020D01*
X116707523Y-83206749D01*
X116709846Y-83201767D01*
X116709849Y-83201762D01*
X116801961Y-83004225D01*
X116801961Y-83004224D01*
X116804284Y-82999243D01*
X116806969Y-82989225D01*
X116862119Y-82783402D01*
X116862119Y-82783400D01*
X116863543Y-82778087D01*
X116883498Y-82550000D01*
X116863543Y-82321913D01*
X116845622Y-82255031D01*
X116805707Y-82106067D01*
X116805706Y-82106065D01*
X116804284Y-82100757D01*
X116799309Y-82090088D01*
X116709849Y-81898238D01*
X116709846Y-81898233D01*
X116707523Y-81893251D01*
X116576198Y-81705700D01*
X116414300Y-81543802D01*
X116409792Y-81540645D01*
X116409789Y-81540643D01*
X116308253Y-81469547D01*
X116226749Y-81412477D01*
X116221767Y-81410154D01*
X116221762Y-81410151D01*
X116024225Y-81318039D01*
X116024224Y-81318039D01*
X116019243Y-81315716D01*
X116013935Y-81314294D01*
X116013933Y-81314293D01*
X115803402Y-81257881D01*
X115803400Y-81257881D01*
X115798087Y-81256457D01*
X115570000Y-81236502D01*
X115341913Y-81256457D01*
X115336600Y-81257881D01*
X115336598Y-81257881D01*
X115126067Y-81314293D01*
X115126065Y-81314294D01*
X115120757Y-81315716D01*
X115115776Y-81318039D01*
X115115775Y-81318039D01*
X114918238Y-81410151D01*
X114918233Y-81410154D01*
X114913251Y-81412477D01*
X114831747Y-81469547D01*
X114730211Y-81540643D01*
X114730208Y-81540645D01*
X114725700Y-81543802D01*
X114563802Y-81705700D01*
X114432477Y-81893251D01*
X114430154Y-81898233D01*
X114430151Y-81898238D01*
X114340691Y-82090088D01*
X114335716Y-82100757D01*
X114334294Y-82106065D01*
X114334293Y-82106067D01*
X114294378Y-82255031D01*
X114276457Y-82321913D01*
X114256502Y-82550000D01*
X111248500Y-82550000D01*
X111248500Y-81646371D01*
X111268502Y-81578250D01*
X111285405Y-81557276D01*
X114053061Y-78789620D01*
X114115373Y-78755594D01*
X114186188Y-78760659D01*
X114243024Y-78803206D01*
X114267677Y-78867733D01*
X114276457Y-78968087D01*
X114277881Y-78973400D01*
X114277881Y-78973402D01*
X114329075Y-79164457D01*
X114335716Y-79189243D01*
X114338039Y-79194224D01*
X114338039Y-79194225D01*
X114430151Y-79391762D01*
X114430154Y-79391767D01*
X114432477Y-79396749D01*
X114485729Y-79472801D01*
X114542579Y-79553990D01*
X114563802Y-79584300D01*
X114725700Y-79746198D01*
X114730208Y-79749355D01*
X114730211Y-79749357D01*
X114730711Y-79749707D01*
X114913251Y-79877523D01*
X114918233Y-79879846D01*
X114918238Y-79879849D01*
X115081791Y-79956114D01*
X115120757Y-79974284D01*
X115126065Y-79975706D01*
X115126067Y-79975707D01*
X115336598Y-80032119D01*
X115336600Y-80032119D01*
X115341913Y-80033543D01*
X115570000Y-80053498D01*
X115798087Y-80033543D01*
X115803400Y-80032119D01*
X115803402Y-80032119D01*
X116013933Y-79975707D01*
X116013935Y-79975706D01*
X116019243Y-79974284D01*
X116058209Y-79956114D01*
X116221762Y-79879849D01*
X116221767Y-79879846D01*
X116226749Y-79877523D01*
X116409289Y-79749707D01*
X116409789Y-79749357D01*
X116409792Y-79749355D01*
X116414300Y-79746198D01*
X116576198Y-79584300D01*
X116597422Y-79553990D01*
X116654271Y-79472801D01*
X116707523Y-79396749D01*
X116709846Y-79391767D01*
X116709849Y-79391762D01*
X116801961Y-79194225D01*
X116801961Y-79194224D01*
X116804284Y-79189243D01*
X116810926Y-79164457D01*
X116862119Y-78973402D01*
X116862119Y-78973400D01*
X116863543Y-78968087D01*
X116883498Y-78740000D01*
X116863543Y-78511913D01*
X116848910Y-78457301D01*
X116805707Y-78296067D01*
X116805706Y-78296065D01*
X116804284Y-78290757D01*
X116798940Y-78279297D01*
X116709849Y-78088238D01*
X116709846Y-78088233D01*
X116707523Y-78083251D01*
X116607248Y-77940044D01*
X116584560Y-77872770D01*
X116601845Y-77803910D01*
X116653615Y-77755325D01*
X116710461Y-77741773D01*
X118890499Y-77741773D01*
X118958620Y-77761775D01*
X119005113Y-77815431D01*
X119012206Y-77835162D01*
X119027276Y-77891403D01*
X119030716Y-77904243D01*
X119033039Y-77909224D01*
X119033039Y-77909225D01*
X119125151Y-78106762D01*
X119125154Y-78106767D01*
X119127477Y-78111749D01*
X119130634Y-78116257D01*
X119249332Y-78285775D01*
X119258802Y-78299300D01*
X119420700Y-78461198D01*
X119425208Y-78464355D01*
X119425211Y-78464357D01*
X119485538Y-78506598D01*
X119608251Y-78592523D01*
X119613233Y-78594846D01*
X119613238Y-78594849D01*
X119647457Y-78610805D01*
X119700742Y-78657722D01*
X119720203Y-78725999D01*
X119699661Y-78793959D01*
X119647457Y-78839195D01*
X119613238Y-78855151D01*
X119613233Y-78855154D01*
X119608251Y-78857477D01*
X119505325Y-78929547D01*
X119425211Y-78985643D01*
X119425208Y-78985645D01*
X119420700Y-78988802D01*
X119258802Y-79150700D01*
X119255645Y-79155208D01*
X119255643Y-79155211D01*
X119235532Y-79183933D01*
X119127477Y-79338251D01*
X119125154Y-79343233D01*
X119125151Y-79343238D01*
X119036261Y-79533865D01*
X119030716Y-79545757D01*
X119029294Y-79551065D01*
X119029293Y-79551067D01*
X118976161Y-79749357D01*
X118971457Y-79766913D01*
X118951502Y-79995000D01*
X118971457Y-80223087D01*
X118972881Y-80228400D01*
X118972881Y-80228402D01*
X119027278Y-80431411D01*
X119030716Y-80444243D01*
X119033039Y-80449224D01*
X119033039Y-80449225D01*
X119125151Y-80646762D01*
X119125154Y-80646767D01*
X119127477Y-80651749D01*
X119130634Y-80656257D01*
X119244796Y-80819297D01*
X119258802Y-80839300D01*
X119420700Y-81001198D01*
X119425208Y-81004355D01*
X119425211Y-81004357D01*
X119484845Y-81046113D01*
X119608251Y-81132523D01*
X119613233Y-81134846D01*
X119613238Y-81134849D01*
X119647457Y-81150805D01*
X119700742Y-81197722D01*
X119720203Y-81265999D01*
X119699661Y-81333959D01*
X119647457Y-81379195D01*
X119613238Y-81395151D01*
X119613233Y-81395154D01*
X119608251Y-81397477D01*
X119505325Y-81469547D01*
X119425211Y-81525643D01*
X119425208Y-81525645D01*
X119420700Y-81528802D01*
X119258802Y-81690700D01*
X119255645Y-81695208D01*
X119255643Y-81695211D01*
X119248959Y-81704757D01*
X119127477Y-81878251D01*
X119125154Y-81883233D01*
X119125151Y-81883238D01*
X119102122Y-81932625D01*
X119030716Y-82085757D01*
X119029294Y-82091065D01*
X119029293Y-82091067D01*
X119027938Y-82096124D01*
X118971457Y-82306913D01*
X118951502Y-82535000D01*
X118971457Y-82763087D01*
X118972881Y-82768400D01*
X118972881Y-82768402D01*
X119027278Y-82971411D01*
X119030716Y-82984243D01*
X119033039Y-82989224D01*
X119033039Y-82989225D01*
X119125151Y-83186762D01*
X119125154Y-83186767D01*
X119127477Y-83191749D01*
X119165478Y-83246020D01*
X119244796Y-83359297D01*
X119258802Y-83379300D01*
X119420700Y-83541198D01*
X119425208Y-83544355D01*
X119425211Y-83544357D01*
X119484258Y-83585702D01*
X119608251Y-83672523D01*
X119613233Y-83674846D01*
X119613238Y-83674849D01*
X119647457Y-83690805D01*
X119700742Y-83737722D01*
X119720203Y-83805999D01*
X119699661Y-83873959D01*
X119647457Y-83919195D01*
X119613238Y-83935151D01*
X119613233Y-83935154D01*
X119608251Y-83937477D01*
X119529556Y-83992580D01*
X119425211Y-84065643D01*
X119425208Y-84065645D01*
X119420700Y-84068802D01*
X119258802Y-84230700D01*
X119127477Y-84418251D01*
X119125154Y-84423233D01*
X119125151Y-84423238D01*
X119102122Y-84472625D01*
X119030716Y-84625757D01*
X118971457Y-84846913D01*
X118951502Y-85075000D01*
X118971457Y-85303087D01*
X118972881Y-85308400D01*
X118972881Y-85308402D01*
X119027278Y-85511411D01*
X119030716Y-85524243D01*
X119033039Y-85529224D01*
X119033039Y-85529225D01*
X119125151Y-85726762D01*
X119125154Y-85726767D01*
X119127477Y-85731749D01*
X119130634Y-85736257D01*
X119249332Y-85905775D01*
X119258802Y-85919300D01*
X119420700Y-86081198D01*
X119425208Y-86084355D01*
X119425211Y-86084357D01*
X119485528Y-86126591D01*
X119608251Y-86212523D01*
X119613233Y-86214846D01*
X119613238Y-86214849D01*
X119647457Y-86230805D01*
X119700742Y-86277722D01*
X119720203Y-86345999D01*
X119699661Y-86413959D01*
X119647457Y-86459195D01*
X119613238Y-86475151D01*
X119613233Y-86475154D01*
X119608251Y-86477477D01*
X119562322Y-86509637D01*
X119425211Y-86605643D01*
X119425208Y-86605645D01*
X119420700Y-86608802D01*
X119258802Y-86770700D01*
X119127477Y-86958251D01*
X119125154Y-86963233D01*
X119125151Y-86963238D01*
X119102122Y-87012625D01*
X119030716Y-87165757D01*
X119029294Y-87171065D01*
X119029293Y-87171067D01*
X118976161Y-87369357D01*
X118971457Y-87386913D01*
X118951502Y-87615000D01*
X118971457Y-87843087D01*
X119030716Y-88064243D01*
X119033039Y-88069224D01*
X119033039Y-88069225D01*
X119125151Y-88266762D01*
X119125154Y-88266767D01*
X119127477Y-88271749D01*
X119258802Y-88459300D01*
X119420700Y-88621198D01*
X119425208Y-88624355D01*
X119425211Y-88624357D01*
X119503389Y-88679098D01*
X119608251Y-88752523D01*
X119613233Y-88754846D01*
X119613238Y-88754849D01*
X119647457Y-88770805D01*
X119700742Y-88817722D01*
X119720203Y-88885999D01*
X119699661Y-88953959D01*
X119647457Y-88999195D01*
X119613238Y-89015151D01*
X119613233Y-89015154D01*
X119608251Y-89017477D01*
X119503389Y-89090902D01*
X119425211Y-89145643D01*
X119425208Y-89145645D01*
X119420700Y-89148802D01*
X119258802Y-89310700D01*
X119255645Y-89315208D01*
X119255643Y-89315211D01*
X119248299Y-89325700D01*
X119127477Y-89498251D01*
X119125154Y-89503233D01*
X119125151Y-89503238D01*
X119033039Y-89700775D01*
X119030716Y-89705757D01*
X119029294Y-89711065D01*
X119029293Y-89711067D01*
X119026697Y-89720757D01*
X118971457Y-89926913D01*
X118951502Y-90155000D01*
X118971457Y-90383087D01*
X119030716Y-90604243D01*
X119033039Y-90609224D01*
X119033039Y-90609225D01*
X119125151Y-90806762D01*
X119125154Y-90806767D01*
X119127477Y-90811749D01*
X119258802Y-90999300D01*
X119420700Y-91161198D01*
X119425208Y-91164355D01*
X119425211Y-91164357D01*
X119503389Y-91219098D01*
X119608251Y-91292523D01*
X119613233Y-91294846D01*
X119613238Y-91294849D01*
X119647457Y-91310805D01*
X119700742Y-91357722D01*
X119720203Y-91425999D01*
X119699661Y-91493959D01*
X119647457Y-91539195D01*
X119613238Y-91555151D01*
X119613233Y-91555154D01*
X119608251Y-91557477D01*
X119503389Y-91630902D01*
X119425211Y-91685643D01*
X119425208Y-91685645D01*
X119420700Y-91688802D01*
X119258802Y-91850700D01*
X119127477Y-92038251D01*
X119125154Y-92043233D01*
X119125151Y-92043238D01*
X119033039Y-92240775D01*
X119030716Y-92245757D01*
X118971457Y-92466913D01*
X118951502Y-92695000D01*
X118971457Y-92923087D01*
X118972881Y-92928400D01*
X118972881Y-92928402D01*
X119026623Y-93128966D01*
X119030716Y-93144243D01*
X119033039Y-93149224D01*
X119033039Y-93149225D01*
X119125151Y-93346762D01*
X119125154Y-93346767D01*
X119127477Y-93351749D01*
X119130634Y-93356257D01*
X119249332Y-93525775D01*
X119258802Y-93539300D01*
X119420700Y-93701198D01*
X119425208Y-93704355D01*
X119425211Y-93704357D01*
X119439711Y-93714510D01*
X119608251Y-93832523D01*
X119613233Y-93834846D01*
X119613238Y-93834849D01*
X119647457Y-93850805D01*
X119700742Y-93897722D01*
X119720203Y-93965999D01*
X119699661Y-94033959D01*
X119647457Y-94079195D01*
X119613238Y-94095151D01*
X119613233Y-94095154D01*
X119608251Y-94097477D01*
X119536884Y-94147449D01*
X119425211Y-94225643D01*
X119425208Y-94225645D01*
X119420700Y-94228802D01*
X119258802Y-94390700D01*
X119255645Y-94395208D01*
X119255643Y-94395211D01*
X119245780Y-94409297D01*
X119127477Y-94578251D01*
X119125154Y-94583233D01*
X119125151Y-94583238D01*
X119033039Y-94780775D01*
X119030716Y-94785757D01*
X119029294Y-94791065D01*
X119029293Y-94791067D01*
X118976561Y-94987866D01*
X118971457Y-95006913D01*
X118951502Y-95235000D01*
X118971457Y-95463087D01*
X118972881Y-95468400D01*
X118972881Y-95468402D01*
X119003630Y-95583156D01*
X119030716Y-95684243D01*
X119033039Y-95689224D01*
X119033039Y-95689225D01*
X119125151Y-95886762D01*
X119125154Y-95886767D01*
X119127477Y-95891749D01*
X119258802Y-96079300D01*
X119420700Y-96241198D01*
X119425208Y-96244355D01*
X119425211Y-96244357D01*
X119465561Y-96272610D01*
X119608251Y-96372523D01*
X119613233Y-96374846D01*
X119613238Y-96374849D01*
X119771944Y-96448854D01*
X119815757Y-96469284D01*
X119821065Y-96470706D01*
X119821067Y-96470707D01*
X120031598Y-96527119D01*
X120031600Y-96527119D01*
X120036913Y-96528543D01*
X120130663Y-96536745D01*
X120205149Y-96543262D01*
X120205156Y-96543262D01*
X120207873Y-96543500D01*
X121122127Y-96543500D01*
X121124844Y-96543262D01*
X121124851Y-96543262D01*
X121199337Y-96536745D01*
X121293087Y-96528543D01*
X121298400Y-96527119D01*
X121298402Y-96527119D01*
X121508933Y-96470707D01*
X121508935Y-96470706D01*
X121514243Y-96469284D01*
X121558056Y-96448854D01*
X121716762Y-96374849D01*
X121716767Y-96374846D01*
X121721749Y-96372523D01*
X121864439Y-96272610D01*
X121904789Y-96244357D01*
X121904792Y-96244355D01*
X121909300Y-96241198D01*
X122071198Y-96079300D01*
X122202523Y-95891749D01*
X122204846Y-95886767D01*
X122204849Y-95886762D01*
X122296961Y-95689225D01*
X122296961Y-95689224D01*
X122299284Y-95684243D01*
X122326371Y-95583156D01*
X122357119Y-95468402D01*
X122357119Y-95468400D01*
X122358543Y-95463087D01*
X122378498Y-95235000D01*
X122358543Y-95006913D01*
X122353439Y-94987866D01*
X122300707Y-94791067D01*
X122300706Y-94791065D01*
X122299284Y-94785757D01*
X122296961Y-94780775D01*
X122204849Y-94583238D01*
X122204846Y-94583233D01*
X122202523Y-94578251D01*
X122084220Y-94409297D01*
X122074357Y-94395211D01*
X122074355Y-94395208D01*
X122071198Y-94390700D01*
X121909300Y-94228802D01*
X121904792Y-94225645D01*
X121904789Y-94225643D01*
X121793116Y-94147449D01*
X121721749Y-94097477D01*
X121716767Y-94095154D01*
X121716762Y-94095151D01*
X121682543Y-94079195D01*
X121629258Y-94032278D01*
X121609797Y-93964001D01*
X121630339Y-93896041D01*
X121682543Y-93850805D01*
X121716762Y-93834849D01*
X121716767Y-93834846D01*
X121721749Y-93832523D01*
X121890289Y-93714510D01*
X121904789Y-93704357D01*
X121904792Y-93704355D01*
X121909300Y-93701198D01*
X122071198Y-93539300D01*
X122080669Y-93525775D01*
X122199366Y-93356257D01*
X122202523Y-93351749D01*
X122204846Y-93346767D01*
X122204849Y-93346762D01*
X122296961Y-93149225D01*
X122296961Y-93149224D01*
X122299284Y-93144243D01*
X122303378Y-93128966D01*
X122357119Y-92928402D01*
X122357119Y-92928400D01*
X122358543Y-92923087D01*
X122378498Y-92695000D01*
X126571502Y-92695000D01*
X126591457Y-92923087D01*
X126592881Y-92928400D01*
X126592881Y-92928402D01*
X126646623Y-93128966D01*
X126650716Y-93144243D01*
X126653039Y-93149224D01*
X126653039Y-93149225D01*
X126745151Y-93346762D01*
X126745154Y-93346767D01*
X126747477Y-93351749D01*
X126750634Y-93356257D01*
X126869332Y-93525775D01*
X126878802Y-93539300D01*
X127040700Y-93701198D01*
X127045211Y-93704357D01*
X127049424Y-93707892D01*
X127048473Y-93709026D01*
X127088471Y-93759071D01*
X127095776Y-93829690D01*
X127063742Y-93893049D01*
X127002538Y-93929030D01*
X126985483Y-93932082D01*
X126974684Y-93933255D01*
X126838295Y-93984385D01*
X126721739Y-94071739D01*
X126634385Y-94188295D01*
X126583255Y-94324684D01*
X126576500Y-94386866D01*
X126576500Y-96083134D01*
X126583255Y-96145316D01*
X126634385Y-96281705D01*
X126721739Y-96398261D01*
X126838295Y-96485615D01*
X126974684Y-96536745D01*
X127036866Y-96543500D01*
X129533134Y-96543500D01*
X129595316Y-96536745D01*
X129731705Y-96485615D01*
X129848261Y-96398261D01*
X129935615Y-96281705D01*
X129986745Y-96145316D01*
X129993500Y-96083134D01*
X129993500Y-94386866D01*
X129986745Y-94324684D01*
X129935615Y-94188295D01*
X129848261Y-94071739D01*
X129731705Y-93984385D01*
X129595316Y-93933255D01*
X129584526Y-93932083D01*
X129582394Y-93931197D01*
X129579778Y-93930575D01*
X129579879Y-93930152D01*
X129518965Y-93904845D01*
X129478537Y-93846483D01*
X129476078Y-93775529D01*
X129512371Y-93714510D01*
X129521031Y-93707511D01*
X129524793Y-93704354D01*
X129529300Y-93701198D01*
X129691198Y-93539300D01*
X129700669Y-93525775D01*
X129819366Y-93356257D01*
X129822523Y-93351749D01*
X129824846Y-93346767D01*
X129824849Y-93346762D01*
X129916961Y-93149225D01*
X129916961Y-93149224D01*
X129919284Y-93144243D01*
X129923378Y-93128966D01*
X129977119Y-92928402D01*
X129977119Y-92928400D01*
X129978543Y-92923087D01*
X129998498Y-92695000D01*
X129978543Y-92466913D01*
X129919284Y-92245757D01*
X129916961Y-92240775D01*
X129824849Y-92043238D01*
X129824846Y-92043233D01*
X129822523Y-92038251D01*
X129691198Y-91850700D01*
X129529300Y-91688802D01*
X129524792Y-91685645D01*
X129524789Y-91685643D01*
X129446611Y-91630902D01*
X129341749Y-91557477D01*
X129336767Y-91555154D01*
X129336762Y-91555151D01*
X129302543Y-91539195D01*
X129249258Y-91492278D01*
X129229797Y-91424001D01*
X129250339Y-91356041D01*
X129302543Y-91310805D01*
X129336762Y-91294849D01*
X129336767Y-91294846D01*
X129341749Y-91292523D01*
X129446611Y-91219098D01*
X129524789Y-91164357D01*
X129524792Y-91164355D01*
X129529300Y-91161198D01*
X129691198Y-90999300D01*
X129822523Y-90811749D01*
X129824846Y-90806767D01*
X129824849Y-90806762D01*
X129916961Y-90609225D01*
X129916961Y-90609224D01*
X129919284Y-90604243D01*
X129978543Y-90383087D01*
X129998498Y-90155000D01*
X129978543Y-89926913D01*
X129923303Y-89720757D01*
X129920707Y-89711067D01*
X129920706Y-89711065D01*
X129919284Y-89705757D01*
X129916961Y-89700775D01*
X129824849Y-89503238D01*
X129824846Y-89503233D01*
X129822523Y-89498251D01*
X129701701Y-89325700D01*
X129694357Y-89315211D01*
X129694355Y-89315208D01*
X129691198Y-89310700D01*
X129529300Y-89148802D01*
X129524792Y-89145645D01*
X129524789Y-89145643D01*
X129446611Y-89090902D01*
X129341749Y-89017477D01*
X129336767Y-89015154D01*
X129336762Y-89015151D01*
X129302543Y-88999195D01*
X129249258Y-88952278D01*
X129229797Y-88884001D01*
X129250339Y-88816041D01*
X129302543Y-88770805D01*
X129336762Y-88754849D01*
X129336767Y-88754846D01*
X129341749Y-88752523D01*
X129446611Y-88679098D01*
X129524789Y-88624357D01*
X129524792Y-88624355D01*
X129529300Y-88621198D01*
X129691198Y-88459300D01*
X129822523Y-88271749D01*
X129824846Y-88266767D01*
X129824849Y-88266762D01*
X129916961Y-88069225D01*
X129916961Y-88069224D01*
X129919284Y-88064243D01*
X129978543Y-87843087D01*
X129998498Y-87615000D01*
X129978543Y-87386913D01*
X129973839Y-87369357D01*
X129920707Y-87171067D01*
X129920706Y-87171065D01*
X129919284Y-87165757D01*
X129847878Y-87012625D01*
X129824849Y-86963238D01*
X129824846Y-86963233D01*
X129822523Y-86958251D01*
X129691198Y-86770700D01*
X129529300Y-86608802D01*
X129524792Y-86605645D01*
X129524789Y-86605643D01*
X129387678Y-86509637D01*
X129341749Y-86477477D01*
X129336767Y-86475154D01*
X129336762Y-86475151D01*
X129302543Y-86459195D01*
X129249258Y-86412278D01*
X129229797Y-86344001D01*
X129250339Y-86276041D01*
X129302543Y-86230805D01*
X129336762Y-86214849D01*
X129336767Y-86214846D01*
X129341749Y-86212523D01*
X129464472Y-86126591D01*
X129524789Y-86084357D01*
X129524792Y-86084355D01*
X129529300Y-86081198D01*
X129691198Y-85919300D01*
X129700669Y-85905775D01*
X129819366Y-85736257D01*
X129822523Y-85731749D01*
X129824846Y-85726767D01*
X129824849Y-85726762D01*
X129916961Y-85529225D01*
X129916961Y-85529224D01*
X129919284Y-85524243D01*
X129922723Y-85511411D01*
X129977119Y-85308402D01*
X129977119Y-85308400D01*
X129978543Y-85303087D01*
X129998498Y-85075000D01*
X129978543Y-84846913D01*
X129919284Y-84625757D01*
X129847878Y-84472625D01*
X129824849Y-84423238D01*
X129824846Y-84423233D01*
X129822523Y-84418251D01*
X129691198Y-84230700D01*
X129529300Y-84068802D01*
X129524792Y-84065645D01*
X129524789Y-84065643D01*
X129420444Y-83992580D01*
X129341749Y-83937477D01*
X129336767Y-83935154D01*
X129336762Y-83935151D01*
X129302543Y-83919195D01*
X129249258Y-83872278D01*
X129229797Y-83804001D01*
X129250339Y-83736041D01*
X129302543Y-83690805D01*
X129336762Y-83674849D01*
X129336767Y-83674846D01*
X129341749Y-83672523D01*
X129465742Y-83585702D01*
X129524789Y-83544357D01*
X129524792Y-83544355D01*
X129529300Y-83541198D01*
X129691198Y-83379300D01*
X129705205Y-83359297D01*
X129784522Y-83246020D01*
X129822523Y-83191749D01*
X129824846Y-83186767D01*
X129824849Y-83186762D01*
X129916961Y-82989225D01*
X129916961Y-82989224D01*
X129919284Y-82984243D01*
X129922723Y-82971411D01*
X129977119Y-82768402D01*
X129977119Y-82768400D01*
X129978543Y-82763087D01*
X129998498Y-82535000D01*
X129978543Y-82306913D01*
X129922062Y-82096124D01*
X129920707Y-82091067D01*
X129920706Y-82091065D01*
X129919284Y-82085757D01*
X129847878Y-81932625D01*
X129824849Y-81883238D01*
X129824846Y-81883233D01*
X129822523Y-81878251D01*
X129701041Y-81704757D01*
X129694357Y-81695211D01*
X129694355Y-81695208D01*
X129691198Y-81690700D01*
X129529300Y-81528802D01*
X129524792Y-81525645D01*
X129524789Y-81525643D01*
X129444675Y-81469547D01*
X129341749Y-81397477D01*
X129336767Y-81395154D01*
X129336762Y-81395151D01*
X129302543Y-81379195D01*
X129249258Y-81332278D01*
X129229797Y-81264001D01*
X129250339Y-81196041D01*
X129302543Y-81150805D01*
X129336762Y-81134849D01*
X129336767Y-81134846D01*
X129341749Y-81132523D01*
X129465155Y-81046113D01*
X129524789Y-81004357D01*
X129524792Y-81004355D01*
X129529300Y-81001198D01*
X129691198Y-80839300D01*
X129705205Y-80819297D01*
X129819366Y-80656257D01*
X129822523Y-80651749D01*
X129824846Y-80646767D01*
X129824849Y-80646762D01*
X129916961Y-80449225D01*
X129916961Y-80449224D01*
X129919284Y-80444243D01*
X129922723Y-80431411D01*
X129977119Y-80228402D01*
X129977119Y-80228400D01*
X129978543Y-80223087D01*
X129998498Y-79995000D01*
X129978543Y-79766913D01*
X129973839Y-79749357D01*
X129920707Y-79551067D01*
X129920706Y-79551065D01*
X129919284Y-79545757D01*
X129913739Y-79533865D01*
X129824849Y-79343238D01*
X129824846Y-79343233D01*
X129822523Y-79338251D01*
X129714468Y-79183933D01*
X129694357Y-79155211D01*
X129694355Y-79155208D01*
X129691198Y-79150700D01*
X129529300Y-78988802D01*
X129524792Y-78985645D01*
X129524789Y-78985643D01*
X129444675Y-78929547D01*
X129341749Y-78857477D01*
X129336767Y-78855154D01*
X129336762Y-78855151D01*
X129301951Y-78838919D01*
X129248666Y-78792002D01*
X129229205Y-78723725D01*
X129249747Y-78655765D01*
X129301951Y-78610529D01*
X129336511Y-78594414D01*
X129346007Y-78588931D01*
X129524467Y-78463972D01*
X129532875Y-78456916D01*
X129686916Y-78302875D01*
X129693972Y-78294467D01*
X129818931Y-78116007D01*
X129824414Y-78106511D01*
X129916490Y-77909053D01*
X129920236Y-77898761D01*
X129966394Y-77726497D01*
X129966058Y-77712401D01*
X129958116Y-77709000D01*
X126617033Y-77709000D01*
X126603502Y-77712973D01*
X126602273Y-77721522D01*
X126649764Y-77898761D01*
X126653510Y-77909053D01*
X126745586Y-78106511D01*
X126751069Y-78116007D01*
X126876028Y-78294467D01*
X126883084Y-78302875D01*
X127037125Y-78456916D01*
X127045533Y-78463972D01*
X127223993Y-78588931D01*
X127233489Y-78594414D01*
X127268049Y-78610529D01*
X127321334Y-78657446D01*
X127340795Y-78725723D01*
X127320253Y-78793683D01*
X127268049Y-78838919D01*
X127233238Y-78855151D01*
X127233233Y-78855154D01*
X127228251Y-78857477D01*
X127125325Y-78929547D01*
X127045211Y-78985643D01*
X127045208Y-78985645D01*
X127040700Y-78988802D01*
X126878802Y-79150700D01*
X126875645Y-79155208D01*
X126875643Y-79155211D01*
X126855532Y-79183933D01*
X126747477Y-79338251D01*
X126745154Y-79343233D01*
X126745151Y-79343238D01*
X126656261Y-79533865D01*
X126650716Y-79545757D01*
X126649294Y-79551065D01*
X126649293Y-79551067D01*
X126596161Y-79749357D01*
X126591457Y-79766913D01*
X126571502Y-79995000D01*
X126591457Y-80223087D01*
X126592881Y-80228400D01*
X126592881Y-80228402D01*
X126647278Y-80431411D01*
X126650716Y-80444243D01*
X126653039Y-80449224D01*
X126653039Y-80449225D01*
X126745151Y-80646762D01*
X126745154Y-80646767D01*
X126747477Y-80651749D01*
X126750634Y-80656257D01*
X126864796Y-80819297D01*
X126878802Y-80839300D01*
X127040700Y-81001198D01*
X127045208Y-81004355D01*
X127045211Y-81004357D01*
X127104845Y-81046113D01*
X127228251Y-81132523D01*
X127233233Y-81134846D01*
X127233238Y-81134849D01*
X127267457Y-81150805D01*
X127320742Y-81197722D01*
X127340203Y-81265999D01*
X127319661Y-81333959D01*
X127267457Y-81379195D01*
X127233238Y-81395151D01*
X127233233Y-81395154D01*
X127228251Y-81397477D01*
X127125325Y-81469547D01*
X127045211Y-81525643D01*
X127045208Y-81525645D01*
X127040700Y-81528802D01*
X126878802Y-81690700D01*
X126875645Y-81695208D01*
X126875643Y-81695211D01*
X126868959Y-81704757D01*
X126747477Y-81878251D01*
X126745154Y-81883233D01*
X126745151Y-81883238D01*
X126722122Y-81932625D01*
X126650716Y-82085757D01*
X126649294Y-82091065D01*
X126649293Y-82091067D01*
X126647938Y-82096124D01*
X126591457Y-82306913D01*
X126571502Y-82535000D01*
X126591457Y-82763087D01*
X126592881Y-82768400D01*
X126592881Y-82768402D01*
X126647278Y-82971411D01*
X126650716Y-82984243D01*
X126653039Y-82989224D01*
X126653039Y-82989225D01*
X126745151Y-83186762D01*
X126745154Y-83186767D01*
X126747477Y-83191749D01*
X126785478Y-83246020D01*
X126864796Y-83359297D01*
X126878802Y-83379300D01*
X127040700Y-83541198D01*
X127045208Y-83544355D01*
X127045211Y-83544357D01*
X127104258Y-83585702D01*
X127228251Y-83672523D01*
X127233233Y-83674846D01*
X127233238Y-83674849D01*
X127267457Y-83690805D01*
X127320742Y-83737722D01*
X127340203Y-83805999D01*
X127319661Y-83873959D01*
X127267457Y-83919195D01*
X127233238Y-83935151D01*
X127233233Y-83935154D01*
X127228251Y-83937477D01*
X127149556Y-83992580D01*
X127045211Y-84065643D01*
X127045208Y-84065645D01*
X127040700Y-84068802D01*
X126878802Y-84230700D01*
X126747477Y-84418251D01*
X126745154Y-84423233D01*
X126745151Y-84423238D01*
X126722122Y-84472625D01*
X126650716Y-84625757D01*
X126591457Y-84846913D01*
X126571502Y-85075000D01*
X126591457Y-85303087D01*
X126592881Y-85308400D01*
X126592881Y-85308402D01*
X126647278Y-85511411D01*
X126650716Y-85524243D01*
X126653039Y-85529224D01*
X126653039Y-85529225D01*
X126745151Y-85726762D01*
X126745154Y-85726767D01*
X126747477Y-85731749D01*
X126750634Y-85736257D01*
X126869332Y-85905775D01*
X126878802Y-85919300D01*
X127040700Y-86081198D01*
X127045208Y-86084355D01*
X127045211Y-86084357D01*
X127105528Y-86126591D01*
X127228251Y-86212523D01*
X127233233Y-86214846D01*
X127233238Y-86214849D01*
X127267457Y-86230805D01*
X127320742Y-86277722D01*
X127340203Y-86345999D01*
X127319661Y-86413959D01*
X127267457Y-86459195D01*
X127233238Y-86475151D01*
X127233233Y-86475154D01*
X127228251Y-86477477D01*
X127182322Y-86509637D01*
X127045211Y-86605643D01*
X127045208Y-86605645D01*
X127040700Y-86608802D01*
X126878802Y-86770700D01*
X126747477Y-86958251D01*
X126745154Y-86963233D01*
X126745151Y-86963238D01*
X126722122Y-87012625D01*
X126650716Y-87165757D01*
X126649294Y-87171065D01*
X126649293Y-87171067D01*
X126596161Y-87369357D01*
X126591457Y-87386913D01*
X126571502Y-87615000D01*
X126591457Y-87843087D01*
X126650716Y-88064243D01*
X126653039Y-88069224D01*
X126653039Y-88069225D01*
X126745151Y-88266762D01*
X126745154Y-88266767D01*
X126747477Y-88271749D01*
X126878802Y-88459300D01*
X127040700Y-88621198D01*
X127045208Y-88624355D01*
X127045211Y-88624357D01*
X127123389Y-88679098D01*
X127228251Y-88752523D01*
X127233233Y-88754846D01*
X127233238Y-88754849D01*
X127267457Y-88770805D01*
X127320742Y-88817722D01*
X127340203Y-88885999D01*
X127319661Y-88953959D01*
X127267457Y-88999195D01*
X127233238Y-89015151D01*
X127233233Y-89015154D01*
X127228251Y-89017477D01*
X127123389Y-89090902D01*
X127045211Y-89145643D01*
X127045208Y-89145645D01*
X127040700Y-89148802D01*
X126878802Y-89310700D01*
X126875645Y-89315208D01*
X126875643Y-89315211D01*
X126868299Y-89325700D01*
X126747477Y-89498251D01*
X126745154Y-89503233D01*
X126745151Y-89503238D01*
X126653039Y-89700775D01*
X126650716Y-89705757D01*
X126649294Y-89711065D01*
X126649293Y-89711067D01*
X126646697Y-89720757D01*
X126591457Y-89926913D01*
X126571502Y-90155000D01*
X126591457Y-90383087D01*
X126650716Y-90604243D01*
X126653039Y-90609224D01*
X126653039Y-90609225D01*
X126745151Y-90806762D01*
X126745154Y-90806767D01*
X126747477Y-90811749D01*
X126878802Y-90999300D01*
X127040700Y-91161198D01*
X127045208Y-91164355D01*
X127045211Y-91164357D01*
X127123389Y-91219098D01*
X127228251Y-91292523D01*
X127233233Y-91294846D01*
X127233238Y-91294849D01*
X127267457Y-91310805D01*
X127320742Y-91357722D01*
X127340203Y-91425999D01*
X127319661Y-91493959D01*
X127267457Y-91539195D01*
X127233238Y-91555151D01*
X127233233Y-91555154D01*
X127228251Y-91557477D01*
X127123389Y-91630902D01*
X127045211Y-91685643D01*
X127045208Y-91685645D01*
X127040700Y-91688802D01*
X126878802Y-91850700D01*
X126747477Y-92038251D01*
X126745154Y-92043233D01*
X126745151Y-92043238D01*
X126653039Y-92240775D01*
X126650716Y-92245757D01*
X126591457Y-92466913D01*
X126571502Y-92695000D01*
X122378498Y-92695000D01*
X122358543Y-92466913D01*
X122299284Y-92245757D01*
X122296961Y-92240775D01*
X122204849Y-92043238D01*
X122204846Y-92043233D01*
X122202523Y-92038251D01*
X122071198Y-91850700D01*
X121909300Y-91688802D01*
X121904792Y-91685645D01*
X121904789Y-91685643D01*
X121826611Y-91630902D01*
X121721749Y-91557477D01*
X121716767Y-91555154D01*
X121716762Y-91555151D01*
X121682543Y-91539195D01*
X121629258Y-91492278D01*
X121609797Y-91424001D01*
X121630339Y-91356041D01*
X121682543Y-91310805D01*
X121716762Y-91294849D01*
X121716767Y-91294846D01*
X121721749Y-91292523D01*
X121826611Y-91219098D01*
X121904789Y-91164357D01*
X121904792Y-91164355D01*
X121909300Y-91161198D01*
X122071198Y-90999300D01*
X122202523Y-90811749D01*
X122204846Y-90806767D01*
X122204849Y-90806762D01*
X122296961Y-90609225D01*
X122296961Y-90609224D01*
X122299284Y-90604243D01*
X122358543Y-90383087D01*
X122378498Y-90155000D01*
X122358543Y-89926913D01*
X122303303Y-89720757D01*
X122300707Y-89711067D01*
X122300706Y-89711065D01*
X122299284Y-89705757D01*
X122296961Y-89700775D01*
X122204849Y-89503238D01*
X122204846Y-89503233D01*
X122202523Y-89498251D01*
X122081701Y-89325700D01*
X122074357Y-89315211D01*
X122074355Y-89315208D01*
X122071198Y-89310700D01*
X121909300Y-89148802D01*
X121904792Y-89145645D01*
X121904789Y-89145643D01*
X121826611Y-89090902D01*
X121721749Y-89017477D01*
X121716767Y-89015154D01*
X121716762Y-89015151D01*
X121682543Y-88999195D01*
X121629258Y-88952278D01*
X121609797Y-88884001D01*
X121630339Y-88816041D01*
X121682543Y-88770805D01*
X121716762Y-88754849D01*
X121716767Y-88754846D01*
X121721749Y-88752523D01*
X121826611Y-88679098D01*
X121904789Y-88624357D01*
X121904792Y-88624355D01*
X121909300Y-88621198D01*
X122071198Y-88459300D01*
X122202523Y-88271749D01*
X122204846Y-88266767D01*
X122204849Y-88266762D01*
X122296961Y-88069225D01*
X122296961Y-88069224D01*
X122299284Y-88064243D01*
X122358543Y-87843087D01*
X122378498Y-87615000D01*
X122358543Y-87386913D01*
X122353839Y-87369357D01*
X122300707Y-87171067D01*
X122300706Y-87171065D01*
X122299284Y-87165757D01*
X122227878Y-87012625D01*
X122204849Y-86963238D01*
X122204846Y-86963233D01*
X122202523Y-86958251D01*
X122071198Y-86770700D01*
X121909300Y-86608802D01*
X121904792Y-86605645D01*
X121904789Y-86605643D01*
X121767678Y-86509637D01*
X121721749Y-86477477D01*
X121716767Y-86475154D01*
X121716762Y-86475151D01*
X121682543Y-86459195D01*
X121629258Y-86412278D01*
X121609797Y-86344001D01*
X121630339Y-86276041D01*
X121682543Y-86230805D01*
X121716762Y-86214849D01*
X121716767Y-86214846D01*
X121721749Y-86212523D01*
X121844472Y-86126591D01*
X121904789Y-86084357D01*
X121904792Y-86084355D01*
X121909300Y-86081198D01*
X122071198Y-85919300D01*
X122080669Y-85905775D01*
X122199366Y-85736257D01*
X122202523Y-85731749D01*
X122204846Y-85726767D01*
X122204849Y-85726762D01*
X122296961Y-85529225D01*
X122296961Y-85529224D01*
X122299284Y-85524243D01*
X122302723Y-85511411D01*
X122357119Y-85308402D01*
X122357119Y-85308400D01*
X122358543Y-85303087D01*
X122378498Y-85075000D01*
X122358543Y-84846913D01*
X122299284Y-84625757D01*
X122227878Y-84472625D01*
X122204849Y-84423238D01*
X122204846Y-84423233D01*
X122202523Y-84418251D01*
X122071198Y-84230700D01*
X121909300Y-84068802D01*
X121904792Y-84065645D01*
X121904789Y-84065643D01*
X121800444Y-83992580D01*
X121721749Y-83937477D01*
X121716767Y-83935154D01*
X121716762Y-83935151D01*
X121682543Y-83919195D01*
X121629258Y-83872278D01*
X121609797Y-83804001D01*
X121630339Y-83736041D01*
X121682543Y-83690805D01*
X121716762Y-83674849D01*
X121716767Y-83674846D01*
X121721749Y-83672523D01*
X121845742Y-83585702D01*
X121904789Y-83544357D01*
X121904792Y-83544355D01*
X121909300Y-83541198D01*
X122071198Y-83379300D01*
X122085205Y-83359297D01*
X122164522Y-83246020D01*
X122202523Y-83191749D01*
X122204846Y-83186767D01*
X122204849Y-83186762D01*
X122296961Y-82989225D01*
X122296961Y-82989224D01*
X122299284Y-82984243D01*
X122302723Y-82971411D01*
X122357119Y-82768402D01*
X122357119Y-82768400D01*
X122358543Y-82763087D01*
X122378498Y-82535000D01*
X122358543Y-82306913D01*
X122302062Y-82096124D01*
X122300707Y-82091067D01*
X122300706Y-82091065D01*
X122299284Y-82085757D01*
X122227878Y-81932625D01*
X122204849Y-81883238D01*
X122204846Y-81883233D01*
X122202523Y-81878251D01*
X122081041Y-81704757D01*
X122074357Y-81695211D01*
X122074355Y-81695208D01*
X122071198Y-81690700D01*
X121909300Y-81528802D01*
X121904792Y-81525645D01*
X121904789Y-81525643D01*
X121824675Y-81469547D01*
X121721749Y-81397477D01*
X121716767Y-81395154D01*
X121716762Y-81395151D01*
X121682543Y-81379195D01*
X121629258Y-81332278D01*
X121609797Y-81264001D01*
X121630339Y-81196041D01*
X121682543Y-81150805D01*
X121716762Y-81134849D01*
X121716767Y-81134846D01*
X121721749Y-81132523D01*
X121845155Y-81046113D01*
X121904789Y-81004357D01*
X121904792Y-81004355D01*
X121909300Y-81001198D01*
X122071198Y-80839300D01*
X122085205Y-80819297D01*
X122199366Y-80656257D01*
X122202523Y-80651749D01*
X122204846Y-80646767D01*
X122204849Y-80646762D01*
X122296961Y-80449225D01*
X122296961Y-80449224D01*
X122299284Y-80444243D01*
X122302723Y-80431411D01*
X122357119Y-80228402D01*
X122357119Y-80228400D01*
X122358543Y-80223087D01*
X122378498Y-79995000D01*
X122358543Y-79766913D01*
X122353839Y-79749357D01*
X122300707Y-79551067D01*
X122300706Y-79551065D01*
X122299284Y-79545757D01*
X122293739Y-79533865D01*
X122204849Y-79343238D01*
X122204846Y-79343233D01*
X122202523Y-79338251D01*
X122094468Y-79183933D01*
X122074357Y-79155211D01*
X122074355Y-79155208D01*
X122071198Y-79150700D01*
X121909300Y-78988802D01*
X121904792Y-78985645D01*
X121904789Y-78985643D01*
X121824675Y-78929547D01*
X121721749Y-78857477D01*
X121716767Y-78855154D01*
X121716762Y-78855151D01*
X121682543Y-78839195D01*
X121629258Y-78792278D01*
X121609797Y-78724001D01*
X121630339Y-78656041D01*
X121682543Y-78610805D01*
X121716762Y-78594849D01*
X121716767Y-78594846D01*
X121721749Y-78592523D01*
X121844462Y-78506598D01*
X121904789Y-78464357D01*
X121904792Y-78464355D01*
X121909300Y-78461198D01*
X122071198Y-78299300D01*
X122080669Y-78285775D01*
X122199366Y-78116257D01*
X122202523Y-78111749D01*
X122204846Y-78106767D01*
X122204849Y-78106762D01*
X122296961Y-77909225D01*
X122296961Y-77909224D01*
X122299284Y-77904243D01*
X122302723Y-77891411D01*
X122357119Y-77688402D01*
X122357119Y-77688400D01*
X122358543Y-77683087D01*
X122378498Y-77455000D01*
X122358543Y-77226913D01*
X122350688Y-77197599D01*
X122346911Y-77183503D01*
X126603606Y-77183503D01*
X126603942Y-77197599D01*
X126611884Y-77201000D01*
X128012885Y-77201000D01*
X128028124Y-77196525D01*
X128029329Y-77195135D01*
X128031000Y-77187452D01*
X128031000Y-77182885D01*
X128539000Y-77182885D01*
X128543475Y-77198124D01*
X128544865Y-77199329D01*
X128552548Y-77201000D01*
X129952967Y-77201000D01*
X129966498Y-77197027D01*
X129967727Y-77188478D01*
X129920236Y-77011239D01*
X129916490Y-77000947D01*
X129824414Y-76803489D01*
X129818931Y-76793993D01*
X129693972Y-76615533D01*
X129686916Y-76607125D01*
X129532875Y-76453084D01*
X129524467Y-76446028D01*
X129346007Y-76321069D01*
X129336511Y-76315586D01*
X129139053Y-76223510D01*
X129128761Y-76219764D01*
X128918312Y-76163375D01*
X128907519Y-76161472D01*
X128744830Y-76147238D01*
X128739365Y-76147000D01*
X128557115Y-76147000D01*
X128541876Y-76151475D01*
X128540671Y-76152865D01*
X128539000Y-76160548D01*
X128539000Y-77182885D01*
X128031000Y-77182885D01*
X128031000Y-76165115D01*
X128026525Y-76149876D01*
X128025135Y-76148671D01*
X128017452Y-76147000D01*
X127830635Y-76147000D01*
X127825170Y-76147238D01*
X127662481Y-76161472D01*
X127651688Y-76163375D01*
X127441239Y-76219764D01*
X127430947Y-76223510D01*
X127233489Y-76315586D01*
X127223993Y-76321069D01*
X127045533Y-76446028D01*
X127037125Y-76453084D01*
X126883084Y-76607125D01*
X126876028Y-76615533D01*
X126751069Y-76793993D01*
X126745586Y-76803489D01*
X126653510Y-77000947D01*
X126649764Y-77011239D01*
X126603606Y-77183503D01*
X122346911Y-77183503D01*
X122300707Y-77011067D01*
X122300706Y-77011065D01*
X122299284Y-77005757D01*
X122292242Y-76990655D01*
X122204849Y-76803238D01*
X122204846Y-76803233D01*
X122202523Y-76798251D01*
X122129098Y-76693389D01*
X122074357Y-76615211D01*
X122074355Y-76615208D01*
X122071198Y-76610700D01*
X121909300Y-76448802D01*
X121904792Y-76445645D01*
X121904789Y-76445643D01*
X121757902Y-76342792D01*
X121721749Y-76317477D01*
X121716767Y-76315154D01*
X121716762Y-76315151D01*
X121519225Y-76223039D01*
X121519224Y-76223039D01*
X121514243Y-76220716D01*
X121508935Y-76219294D01*
X121508933Y-76219293D01*
X121298402Y-76162881D01*
X121298400Y-76162881D01*
X121293087Y-76161457D01*
X121193520Y-76152746D01*
X121124851Y-76146738D01*
X121124844Y-76146738D01*
X121122127Y-76146500D01*
X120207873Y-76146500D01*
X120205156Y-76146738D01*
X120205149Y-76146738D01*
X120136480Y-76152746D01*
X120036913Y-76161457D01*
X120031600Y-76162881D01*
X120031598Y-76162881D01*
X119974364Y-76178217D01*
X119874410Y-76205000D01*
X119816638Y-76220480D01*
X119784027Y-76224773D01*
X116401794Y-76224773D01*
X116333673Y-76204771D01*
X116287180Y-76151115D01*
X116277076Y-76080841D01*
X116306570Y-76016261D01*
X116329523Y-75995560D01*
X116409789Y-75939357D01*
X116409792Y-75939355D01*
X116414300Y-75936198D01*
X116576198Y-75774300D01*
X116582219Y-75765702D01*
X116704366Y-75591257D01*
X116707523Y-75586749D01*
X116709846Y-75581767D01*
X116709849Y-75581762D01*
X116801961Y-75384225D01*
X116801961Y-75384224D01*
X116804284Y-75379243D01*
X116823678Y-75306866D01*
X116862119Y-75163402D01*
X116862119Y-75163400D01*
X116863543Y-75158087D01*
X116883498Y-74930000D01*
X116863543Y-74701913D01*
X116804284Y-74480757D01*
X116801961Y-74475775D01*
X116709849Y-74278238D01*
X116709846Y-74278233D01*
X116707523Y-74273251D01*
X116576198Y-74085700D01*
X116414300Y-73923802D01*
X116409792Y-73920645D01*
X116409789Y-73920643D01*
X116331611Y-73865902D01*
X116226749Y-73792477D01*
X116221767Y-73790154D01*
X116221762Y-73790151D01*
X116024225Y-73698039D01*
X116024224Y-73698039D01*
X116019243Y-73695716D01*
X116013935Y-73694294D01*
X116013933Y-73694293D01*
X115803402Y-73637881D01*
X115803400Y-73637881D01*
X115798087Y-73636457D01*
X115570000Y-73616502D01*
X115341913Y-73636457D01*
X115336600Y-73637881D01*
X115336598Y-73637881D01*
X115126067Y-73694293D01*
X115126065Y-73694294D01*
X115120757Y-73695716D01*
X115115776Y-73698039D01*
X115115775Y-73698039D01*
X114918238Y-73790151D01*
X114918233Y-73790154D01*
X114913251Y-73792477D01*
X114808389Y-73865902D01*
X114730211Y-73920643D01*
X114730208Y-73920645D01*
X114725700Y-73923802D01*
X114563802Y-74085700D01*
X114432477Y-74273251D01*
X114430154Y-74278233D01*
X114430151Y-74278238D01*
X114338039Y-74475775D01*
X114335716Y-74480757D01*
X114276457Y-74701913D01*
X114256502Y-74930000D01*
X114276457Y-75158087D01*
X114277881Y-75163400D01*
X114277881Y-75163402D01*
X114316323Y-75306866D01*
X114335716Y-75379243D01*
X114338039Y-75384224D01*
X114338039Y-75384225D01*
X114430151Y-75581762D01*
X114430154Y-75581767D01*
X114432477Y-75586749D01*
X114435634Y-75591257D01*
X114557782Y-75765702D01*
X114563802Y-75774300D01*
X114725700Y-75936198D01*
X114730208Y-75939355D01*
X114730211Y-75939357D01*
X114810801Y-75995787D01*
X114855129Y-76051245D01*
X114862438Y-76121864D01*
X114830407Y-76185224D01*
X114769205Y-76221209D01*
X114745938Y-76224773D01*
X114742434Y-76224773D01*
X114738800Y-76225197D01*
X114738794Y-76225197D01*
X114725769Y-76226716D01*
X114714207Y-76228064D01*
X114709859Y-76228494D01*
X114687786Y-76230289D01*
X114644389Y-76233819D01*
X114644386Y-76233820D01*
X114637091Y-76234413D01*
X114630127Y-76236669D01*
X114624188Y-76237856D01*
X114618317Y-76239243D01*
X114611046Y-76240091D01*
X114604170Y-76242587D01*
X114604161Y-76242589D01*
X114542429Y-76264998D01*
X114538325Y-76266408D01*
X114468828Y-76288921D01*
X114462573Y-76292717D01*
X114457114Y-76295216D01*
X114451666Y-76297944D01*
X114444790Y-76300440D01*
X114383737Y-76340468D01*
X114380064Y-76342786D01*
X114317620Y-76380678D01*
X114309244Y-76388075D01*
X114309220Y-76388048D01*
X114306226Y-76390703D01*
X114302995Y-76393405D01*
X114296875Y-76397417D01*
X114291843Y-76402729D01*
X114243599Y-76453656D01*
X114241221Y-76456098D01*
X110001089Y-80696230D01*
X109986677Y-80708616D01*
X109975082Y-80717149D01*
X109975077Y-80717154D01*
X109969182Y-80721492D01*
X109964443Y-80727070D01*
X109964440Y-80727073D01*
X109934965Y-80761768D01*
X109928035Y-80769284D01*
X109922340Y-80774979D01*
X109920060Y-80777861D01*
X109904719Y-80797251D01*
X109901928Y-80800655D01*
X109872929Y-80834789D01*
X109854667Y-80856285D01*
X109851339Y-80862801D01*
X109847972Y-80867850D01*
X109844805Y-80872979D01*
X109840266Y-80878716D01*
X109809345Y-80944875D01*
X109807442Y-80948769D01*
X109774231Y-81013808D01*
X109772492Y-81020916D01*
X109770393Y-81026559D01*
X109768476Y-81032322D01*
X109765378Y-81038950D01*
X109763888Y-81046112D01*
X109763888Y-81046113D01*
X109750514Y-81110412D01*
X109749544Y-81114696D01*
X109732192Y-81185610D01*
X109731500Y-81196764D01*
X109731464Y-81196762D01*
X109731225Y-81200755D01*
X109730851Y-81204947D01*
X109729360Y-81212115D01*
X109729826Y-81229338D01*
X109731454Y-81289521D01*
X109731500Y-81292928D01*
X109731500Y-93613629D01*
X109711498Y-93681750D01*
X109694595Y-93702724D01*
X108349375Y-95047944D01*
X108287063Y-95081970D01*
X108260280Y-95084849D01*
X106459839Y-95084849D01*
X106391718Y-95064847D01*
X106345225Y-95011191D01*
X106335121Y-94940917D01*
X106364615Y-94876337D01*
X106370744Y-94869754D01*
X106416198Y-94824300D01*
X106547523Y-94636749D01*
X106549846Y-94631767D01*
X106549849Y-94631762D01*
X106641961Y-94434225D01*
X106641961Y-94434224D01*
X106644284Y-94429243D01*
X106654724Y-94390283D01*
X106702119Y-94213402D01*
X106702119Y-94213400D01*
X106703543Y-94208087D01*
X106723498Y-93980000D01*
X106703543Y-93751913D01*
X106693521Y-93714510D01*
X106645707Y-93536067D01*
X106645706Y-93536065D01*
X106644284Y-93530757D01*
X106560812Y-93351749D01*
X106549849Y-93328238D01*
X106549846Y-93328233D01*
X106547523Y-93323251D01*
X106453761Y-93189345D01*
X106419357Y-93140211D01*
X106419355Y-93140208D01*
X106416198Y-93135700D01*
X106254300Y-92973802D01*
X106249792Y-92970645D01*
X106249789Y-92970643D01*
X106116694Y-92877449D01*
X106066749Y-92842477D01*
X106061767Y-92840154D01*
X106061762Y-92840151D01*
X105864225Y-92748039D01*
X105864224Y-92748039D01*
X105859243Y-92745716D01*
X105853935Y-92744294D01*
X105853933Y-92744293D01*
X105643402Y-92687881D01*
X105643400Y-92687881D01*
X105638087Y-92686457D01*
X105410000Y-92666502D01*
X105181913Y-92686457D01*
X105176600Y-92687881D01*
X105176598Y-92687881D01*
X104966067Y-92744293D01*
X104966065Y-92744294D01*
X104960757Y-92745716D01*
X104955776Y-92748039D01*
X104955775Y-92748039D01*
X104758238Y-92840151D01*
X104758233Y-92840154D01*
X104753251Y-92842477D01*
X104703306Y-92877449D01*
X104570211Y-92970643D01*
X104570208Y-92970645D01*
X104565700Y-92973802D01*
X104403802Y-93135700D01*
X104400645Y-93140208D01*
X104400643Y-93140211D01*
X104366239Y-93189345D01*
X104272477Y-93323251D01*
X104270154Y-93328233D01*
X104270151Y-93328238D01*
X104259188Y-93351749D01*
X104175716Y-93530757D01*
X104174294Y-93536065D01*
X104174293Y-93536067D01*
X104126479Y-93714510D01*
X104116457Y-93751913D01*
X104096502Y-93980000D01*
X104116457Y-94208087D01*
X104117881Y-94213400D01*
X104117881Y-94213402D01*
X104165277Y-94390283D01*
X104175716Y-94429243D01*
X104178039Y-94434224D01*
X104178039Y-94434225D01*
X104270151Y-94631762D01*
X104270154Y-94631767D01*
X104272477Y-94636749D01*
X104403802Y-94824300D01*
X104449256Y-94869754D01*
X104483282Y-94932066D01*
X104478217Y-95002881D01*
X104435670Y-95059717D01*
X104369150Y-95084528D01*
X104360161Y-95084849D01*
X99944500Y-95084849D01*
X99876379Y-95064847D01*
X99829886Y-95011191D01*
X99818500Y-94958849D01*
X99818500Y-94346371D01*
X99838502Y-94278250D01*
X99855405Y-94257276D01*
X100818911Y-93293770D01*
X100833323Y-93281384D01*
X100844918Y-93272851D01*
X100844923Y-93272846D01*
X100850818Y-93268508D01*
X100855557Y-93262930D01*
X100855560Y-93262927D01*
X100885035Y-93228232D01*
X100891965Y-93220716D01*
X100897660Y-93215021D01*
X100915281Y-93192749D01*
X100918072Y-93189345D01*
X100960591Y-93139297D01*
X100960592Y-93139295D01*
X100965333Y-93133715D01*
X100968661Y-93127199D01*
X100972028Y-93122150D01*
X100975195Y-93117021D01*
X100979734Y-93111284D01*
X101010655Y-93045125D01*
X101012561Y-93041225D01*
X101045769Y-92976192D01*
X101047508Y-92969084D01*
X101049607Y-92963441D01*
X101051524Y-92957678D01*
X101054622Y-92951050D01*
X101069487Y-92879583D01*
X101070457Y-92875299D01*
X101078488Y-92842477D01*
X101087808Y-92804390D01*
X101088500Y-92793236D01*
X101088536Y-92793238D01*
X101088775Y-92789245D01*
X101089149Y-92785053D01*
X101090640Y-92777885D01*
X101088546Y-92700475D01*
X101088500Y-92697072D01*
X101088500Y-90170000D01*
X104096502Y-90170000D01*
X104116457Y-90398087D01*
X104117881Y-90403400D01*
X104117881Y-90403402D01*
X104173032Y-90609225D01*
X104175716Y-90619243D01*
X104178039Y-90624224D01*
X104178039Y-90624225D01*
X104270151Y-90821762D01*
X104270154Y-90821767D01*
X104272477Y-90826749D01*
X104275634Y-90831257D01*
X104396028Y-91003197D01*
X104403802Y-91014300D01*
X104565700Y-91176198D01*
X104570208Y-91179355D01*
X104570211Y-91179357D01*
X104648389Y-91234098D01*
X104753251Y-91307523D01*
X104758233Y-91309846D01*
X104758238Y-91309849D01*
X104928589Y-91389284D01*
X104960757Y-91404284D01*
X104966065Y-91405706D01*
X104966067Y-91405707D01*
X105176598Y-91462119D01*
X105176600Y-91462119D01*
X105181913Y-91463543D01*
X105410000Y-91483498D01*
X105638087Y-91463543D01*
X105643400Y-91462119D01*
X105643402Y-91462119D01*
X105853933Y-91405707D01*
X105853935Y-91405706D01*
X105859243Y-91404284D01*
X105891411Y-91389284D01*
X106061762Y-91309849D01*
X106061767Y-91309846D01*
X106066749Y-91307523D01*
X106171611Y-91234098D01*
X106249789Y-91179357D01*
X106249792Y-91179355D01*
X106254300Y-91176198D01*
X106416198Y-91014300D01*
X106423973Y-91003197D01*
X106544366Y-90831257D01*
X106547523Y-90826749D01*
X106549846Y-90821767D01*
X106549849Y-90821762D01*
X106641961Y-90624225D01*
X106641961Y-90624224D01*
X106644284Y-90619243D01*
X106646969Y-90609225D01*
X106702119Y-90403402D01*
X106702119Y-90403400D01*
X106703543Y-90398087D01*
X106723498Y-90170000D01*
X106703543Y-89941913D01*
X106644284Y-89720757D01*
X106639766Y-89711067D01*
X106549849Y-89518238D01*
X106549846Y-89518233D01*
X106547523Y-89513251D01*
X106416198Y-89325700D01*
X106254300Y-89163802D01*
X106249792Y-89160645D01*
X106249789Y-89160643D01*
X106171611Y-89105902D01*
X106066749Y-89032477D01*
X106061767Y-89030154D01*
X106061762Y-89030151D01*
X105864225Y-88938039D01*
X105864224Y-88938039D01*
X105859243Y-88935716D01*
X105853935Y-88934294D01*
X105853933Y-88934293D01*
X105643402Y-88877881D01*
X105643400Y-88877881D01*
X105638087Y-88876457D01*
X105410000Y-88856502D01*
X105181913Y-88876457D01*
X105176600Y-88877881D01*
X105176598Y-88877881D01*
X104966067Y-88934293D01*
X104966065Y-88934294D01*
X104960757Y-88935716D01*
X104955776Y-88938039D01*
X104955775Y-88938039D01*
X104758238Y-89030151D01*
X104758233Y-89030154D01*
X104753251Y-89032477D01*
X104648389Y-89105902D01*
X104570211Y-89160643D01*
X104570208Y-89160645D01*
X104565700Y-89163802D01*
X104403802Y-89325700D01*
X104272477Y-89513251D01*
X104270154Y-89518233D01*
X104270151Y-89518238D01*
X104180234Y-89711067D01*
X104175716Y-89720757D01*
X104116457Y-89941913D01*
X104096502Y-90170000D01*
X101088500Y-90170000D01*
X101088500Y-83897070D01*
X101089933Y-83878120D01*
X101092099Y-83863885D01*
X101092099Y-83863881D01*
X101093199Y-83856651D01*
X101088915Y-83803982D01*
X101088500Y-83793767D01*
X101088500Y-83785707D01*
X101088064Y-83781961D01*
X101085211Y-83757497D01*
X101084778Y-83753121D01*
X101079454Y-83687662D01*
X101079453Y-83687659D01*
X101078860Y-83680364D01*
X101076604Y-83673400D01*
X101075417Y-83667461D01*
X101074030Y-83661590D01*
X101073182Y-83654319D01*
X101070686Y-83647443D01*
X101070684Y-83647434D01*
X101048275Y-83585702D01*
X101046865Y-83581598D01*
X101024352Y-83512101D01*
X101020556Y-83505846D01*
X101018057Y-83500387D01*
X101015329Y-83494939D01*
X101012833Y-83488063D01*
X100972805Y-83427010D01*
X100970481Y-83423327D01*
X100935500Y-83365680D01*
X100935499Y-83365679D01*
X100932595Y-83360893D01*
X100925198Y-83352517D01*
X100925225Y-83352493D01*
X100922570Y-83349499D01*
X100919868Y-83346268D01*
X100915856Y-83340148D01*
X100859617Y-83286872D01*
X100857175Y-83284494D01*
X99164609Y-81591928D01*
X99130583Y-81529616D01*
X99128782Y-81486389D01*
X99146529Y-81351590D01*
X99147914Y-81294892D01*
X99169573Y-81227281D01*
X99224348Y-81182112D01*
X99294848Y-81173728D01*
X99362971Y-81208875D01*
X104100848Y-85946752D01*
X104134874Y-86009064D01*
X104133459Y-86068459D01*
X104117882Y-86126591D01*
X104117881Y-86126598D01*
X104116457Y-86131913D01*
X104096502Y-86360000D01*
X104116457Y-86588087D01*
X104117881Y-86593400D01*
X104117881Y-86593402D01*
X104164557Y-86767596D01*
X104175716Y-86809243D01*
X104178039Y-86814224D01*
X104178039Y-86814225D01*
X104270151Y-87011762D01*
X104270154Y-87011767D01*
X104272477Y-87016749D01*
X104304469Y-87062438D01*
X104382579Y-87173990D01*
X104403802Y-87204300D01*
X104565700Y-87366198D01*
X104570208Y-87369355D01*
X104570211Y-87369357D01*
X104648389Y-87424098D01*
X104753251Y-87497523D01*
X104758233Y-87499846D01*
X104758238Y-87499849D01*
X104955282Y-87591731D01*
X104960757Y-87594284D01*
X104966065Y-87595706D01*
X104966067Y-87595707D01*
X105176598Y-87652119D01*
X105176600Y-87652119D01*
X105181913Y-87653543D01*
X105410000Y-87673498D01*
X105638087Y-87653543D01*
X105643400Y-87652119D01*
X105643402Y-87652119D01*
X105853933Y-87595707D01*
X105853935Y-87595706D01*
X105859243Y-87594284D01*
X105864718Y-87591731D01*
X106061762Y-87499849D01*
X106061767Y-87499846D01*
X106066749Y-87497523D01*
X106171611Y-87424098D01*
X106249789Y-87369357D01*
X106249792Y-87369355D01*
X106254300Y-87366198D01*
X106416198Y-87204300D01*
X106437422Y-87173990D01*
X106515531Y-87062438D01*
X106547523Y-87016749D01*
X106549846Y-87011767D01*
X106549849Y-87011762D01*
X106641961Y-86814225D01*
X106641961Y-86814224D01*
X106644284Y-86809243D01*
X106655444Y-86767596D01*
X106702119Y-86593402D01*
X106702119Y-86593400D01*
X106703543Y-86588087D01*
X106723498Y-86360000D01*
X106703543Y-86131913D01*
X106688910Y-86077301D01*
X106645707Y-85916067D01*
X106645706Y-85916065D01*
X106644284Y-85910757D01*
X106638940Y-85899297D01*
X106549849Y-85708238D01*
X106549846Y-85708233D01*
X106547523Y-85703251D01*
X106474098Y-85598389D01*
X106419357Y-85520211D01*
X106419355Y-85520208D01*
X106416198Y-85515700D01*
X106254300Y-85353802D01*
X106249792Y-85350645D01*
X106249789Y-85350643D01*
X106171611Y-85295902D01*
X106066749Y-85222477D01*
X106061767Y-85220154D01*
X106061762Y-85220151D01*
X105864225Y-85128039D01*
X105864224Y-85128039D01*
X105859243Y-85125716D01*
X105853935Y-85124294D01*
X105853933Y-85124293D01*
X105643402Y-85067881D01*
X105643400Y-85067881D01*
X105638087Y-85066457D01*
X105410000Y-85046502D01*
X105181913Y-85066457D01*
X105176602Y-85067880D01*
X105176591Y-85067882D01*
X105118459Y-85083459D01*
X105047483Y-85081770D01*
X104996752Y-85050848D01*
X102495904Y-82550000D01*
X104096502Y-82550000D01*
X104116457Y-82778087D01*
X104117881Y-82783400D01*
X104117881Y-82783402D01*
X104173032Y-82989225D01*
X104175716Y-82999243D01*
X104178039Y-83004224D01*
X104178039Y-83004225D01*
X104270151Y-83201762D01*
X104270154Y-83201767D01*
X104272477Y-83206749D01*
X104299975Y-83246020D01*
X104396028Y-83383197D01*
X104403802Y-83394300D01*
X104565700Y-83556198D01*
X104570208Y-83559355D01*
X104570211Y-83559357D01*
X104604905Y-83583650D01*
X104753251Y-83687523D01*
X104758233Y-83689846D01*
X104758238Y-83689849D01*
X104928589Y-83769284D01*
X104960757Y-83784284D01*
X104966065Y-83785706D01*
X104966067Y-83785707D01*
X105176598Y-83842119D01*
X105176600Y-83842119D01*
X105181913Y-83843543D01*
X105410000Y-83863498D01*
X105638087Y-83843543D01*
X105643400Y-83842119D01*
X105643402Y-83842119D01*
X105853933Y-83785707D01*
X105853935Y-83785706D01*
X105859243Y-83784284D01*
X105891411Y-83769284D01*
X106061762Y-83689849D01*
X106061767Y-83689846D01*
X106066749Y-83687523D01*
X106215095Y-83583650D01*
X106249789Y-83559357D01*
X106249792Y-83559355D01*
X106254300Y-83556198D01*
X106416198Y-83394300D01*
X106423973Y-83383197D01*
X106520025Y-83246020D01*
X106547523Y-83206749D01*
X106549846Y-83201767D01*
X106549849Y-83201762D01*
X106641961Y-83004225D01*
X106641961Y-83004224D01*
X106644284Y-82999243D01*
X106646969Y-82989225D01*
X106702119Y-82783402D01*
X106702119Y-82783400D01*
X106703543Y-82778087D01*
X106723498Y-82550000D01*
X106703543Y-82321913D01*
X106685622Y-82255031D01*
X106645707Y-82106067D01*
X106645706Y-82106065D01*
X106644284Y-82100757D01*
X106639309Y-82090088D01*
X106549849Y-81898238D01*
X106549846Y-81898233D01*
X106547523Y-81893251D01*
X106416198Y-81705700D01*
X106254300Y-81543802D01*
X106249792Y-81540645D01*
X106249789Y-81540643D01*
X106148253Y-81469547D01*
X106066749Y-81412477D01*
X106061767Y-81410154D01*
X106061762Y-81410151D01*
X105864225Y-81318039D01*
X105864224Y-81318039D01*
X105859243Y-81315716D01*
X105853935Y-81314294D01*
X105853933Y-81314293D01*
X105643402Y-81257881D01*
X105643400Y-81257881D01*
X105638087Y-81256457D01*
X105410000Y-81236502D01*
X105181913Y-81256457D01*
X105176600Y-81257881D01*
X105176598Y-81257881D01*
X104966067Y-81314293D01*
X104966065Y-81314294D01*
X104960757Y-81315716D01*
X104955776Y-81318039D01*
X104955775Y-81318039D01*
X104758238Y-81410151D01*
X104758233Y-81410154D01*
X104753251Y-81412477D01*
X104671747Y-81469547D01*
X104570211Y-81540643D01*
X104570208Y-81540645D01*
X104565700Y-81543802D01*
X104403802Y-81705700D01*
X104272477Y-81893251D01*
X104270154Y-81898233D01*
X104270151Y-81898238D01*
X104180691Y-82090088D01*
X104175716Y-82100757D01*
X104174294Y-82106065D01*
X104174293Y-82106067D01*
X104134378Y-82255031D01*
X104116457Y-82321913D01*
X104096502Y-82550000D01*
X102495904Y-82550000D01*
X99563652Y-79617747D01*
X99556112Y-79609461D01*
X99552000Y-79602982D01*
X99536256Y-79588197D01*
X99502349Y-79556357D01*
X99499507Y-79553602D01*
X99479770Y-79533865D01*
X99476573Y-79531385D01*
X99467551Y-79523680D01*
X99441100Y-79498841D01*
X99435321Y-79493414D01*
X99428375Y-79489595D01*
X99428372Y-79489593D01*
X99417566Y-79483652D01*
X99401047Y-79472801D01*
X99400583Y-79472441D01*
X99385041Y-79460386D01*
X99377772Y-79457241D01*
X99377768Y-79457238D01*
X99344463Y-79442826D01*
X99333813Y-79437609D01*
X99295060Y-79416305D01*
X99275437Y-79411267D01*
X99256734Y-79404863D01*
X99245420Y-79399967D01*
X99245419Y-79399967D01*
X99238145Y-79396819D01*
X99230322Y-79395580D01*
X99230312Y-79395577D01*
X99194476Y-79389901D01*
X99182856Y-79387495D01*
X99149706Y-79378984D01*
X99088699Y-79342670D01*
X99057009Y-79279138D01*
X99060480Y-79220314D01*
X99068407Y-79194225D01*
X99117370Y-79033069D01*
X99146529Y-78811590D01*
X99147772Y-78760716D01*
X99148074Y-78748365D01*
X99148074Y-78748361D01*
X99148156Y-78745000D01*
X99147745Y-78740000D01*
X104096502Y-78740000D01*
X104116457Y-78968087D01*
X104117881Y-78973400D01*
X104117881Y-78973402D01*
X104169075Y-79164457D01*
X104175716Y-79189243D01*
X104178039Y-79194224D01*
X104178039Y-79194225D01*
X104270151Y-79391762D01*
X104270154Y-79391767D01*
X104272477Y-79396749D01*
X104325729Y-79472801D01*
X104382579Y-79553990D01*
X104403802Y-79584300D01*
X104565700Y-79746198D01*
X104570208Y-79749355D01*
X104570211Y-79749357D01*
X104570711Y-79749707D01*
X104753251Y-79877523D01*
X104758233Y-79879846D01*
X104758238Y-79879849D01*
X104921791Y-79956114D01*
X104960757Y-79974284D01*
X104966065Y-79975706D01*
X104966067Y-79975707D01*
X105176598Y-80032119D01*
X105176600Y-80032119D01*
X105181913Y-80033543D01*
X105410000Y-80053498D01*
X105638087Y-80033543D01*
X105643400Y-80032119D01*
X105643402Y-80032119D01*
X105853933Y-79975707D01*
X105853935Y-79975706D01*
X105859243Y-79974284D01*
X105898209Y-79956114D01*
X106061762Y-79879849D01*
X106061767Y-79879846D01*
X106066749Y-79877523D01*
X106249289Y-79749707D01*
X106249789Y-79749357D01*
X106249792Y-79749355D01*
X106254300Y-79746198D01*
X106416198Y-79584300D01*
X106437422Y-79553990D01*
X106494271Y-79472801D01*
X106547523Y-79396749D01*
X106549846Y-79391767D01*
X106549849Y-79391762D01*
X106641961Y-79194225D01*
X106641961Y-79194224D01*
X106644284Y-79189243D01*
X106650926Y-79164457D01*
X106702119Y-78973402D01*
X106702119Y-78973400D01*
X106703543Y-78968087D01*
X106723498Y-78740000D01*
X106703543Y-78511913D01*
X106688910Y-78457301D01*
X106645707Y-78296067D01*
X106645706Y-78296065D01*
X106644284Y-78290757D01*
X106638940Y-78279297D01*
X106549849Y-78088238D01*
X106549846Y-78088233D01*
X106547523Y-78083251D01*
X106447248Y-77940044D01*
X106419357Y-77900211D01*
X106419355Y-77900208D01*
X106416198Y-77895700D01*
X106254300Y-77733802D01*
X106249792Y-77730645D01*
X106249789Y-77730643D01*
X106147098Y-77658738D01*
X106066749Y-77602477D01*
X106061767Y-77600154D01*
X106061762Y-77600151D01*
X105864225Y-77508039D01*
X105864224Y-77508039D01*
X105859243Y-77505716D01*
X105853935Y-77504294D01*
X105853933Y-77504293D01*
X105643402Y-77447881D01*
X105643400Y-77447881D01*
X105638087Y-77446457D01*
X105410000Y-77426502D01*
X105181913Y-77446457D01*
X105176600Y-77447881D01*
X105176598Y-77447881D01*
X104966067Y-77504293D01*
X104966065Y-77504294D01*
X104960757Y-77505716D01*
X104955776Y-77508039D01*
X104955775Y-77508039D01*
X104758238Y-77600151D01*
X104758233Y-77600154D01*
X104753251Y-77602477D01*
X104672902Y-77658738D01*
X104570211Y-77730643D01*
X104570208Y-77730645D01*
X104565700Y-77733802D01*
X104403802Y-77895700D01*
X104400645Y-77900208D01*
X104400643Y-77900211D01*
X104372752Y-77940044D01*
X104272477Y-78083251D01*
X104270154Y-78088233D01*
X104270151Y-78088238D01*
X104181060Y-78279297D01*
X104175716Y-78290757D01*
X104174294Y-78296065D01*
X104174293Y-78296067D01*
X104131090Y-78457301D01*
X104116457Y-78511913D01*
X104096502Y-78740000D01*
X99147745Y-78740000D01*
X99129852Y-78522361D01*
X99075431Y-78305702D01*
X98986354Y-78100840D01*
X98893207Y-77956857D01*
X98867822Y-77917617D01*
X98867820Y-77917614D01*
X98865014Y-77913277D01*
X98714670Y-77748051D01*
X98710619Y-77744852D01*
X98710615Y-77744848D01*
X98543414Y-77612800D01*
X98543410Y-77612798D01*
X98539359Y-77609598D01*
X98498053Y-77586796D01*
X98448084Y-77536364D01*
X98433312Y-77466921D01*
X98458428Y-77400516D01*
X98485780Y-77373909D01*
X98529603Y-77342650D01*
X98664860Y-77246173D01*
X98678740Y-77232342D01*
X98808616Y-77102918D01*
X98823096Y-77088489D01*
X98853423Y-77046285D01*
X98950435Y-76911277D01*
X98953453Y-76907077D01*
X98996198Y-76820590D01*
X99050136Y-76711453D01*
X99050137Y-76711451D01*
X99052430Y-76706811D01*
X99117370Y-76493069D01*
X99146529Y-76271590D01*
X99147080Y-76249032D01*
X99148074Y-76208365D01*
X99148074Y-76208361D01*
X99148156Y-76205000D01*
X99129852Y-75982361D01*
X99075431Y-75765702D01*
X98986354Y-75560840D01*
X98888509Y-75409595D01*
X98867822Y-75377617D01*
X98867820Y-75377614D01*
X98865014Y-75373277D01*
X98714670Y-75208051D01*
X98710619Y-75204852D01*
X98710615Y-75204848D01*
X98543414Y-75072800D01*
X98543410Y-75072798D01*
X98539359Y-75069598D01*
X98343789Y-74961638D01*
X98338920Y-74959914D01*
X98338916Y-74959912D01*
X98254447Y-74930000D01*
X104096502Y-74930000D01*
X104116457Y-75158087D01*
X104117881Y-75163400D01*
X104117881Y-75163402D01*
X104156323Y-75306866D01*
X104175716Y-75379243D01*
X104178039Y-75384224D01*
X104178039Y-75384225D01*
X104270151Y-75581762D01*
X104270154Y-75581767D01*
X104272477Y-75586749D01*
X104275634Y-75591257D01*
X104397782Y-75765702D01*
X104403802Y-75774300D01*
X104565700Y-75936198D01*
X104570208Y-75939355D01*
X104570211Y-75939357D01*
X104631627Y-75982361D01*
X104753251Y-76067523D01*
X104758233Y-76069846D01*
X104758238Y-76069849D01*
X104955775Y-76161961D01*
X104960757Y-76164284D01*
X104966065Y-76165706D01*
X104966067Y-76165707D01*
X105176598Y-76222119D01*
X105176600Y-76222119D01*
X105181913Y-76223543D01*
X105410000Y-76243498D01*
X105638087Y-76223543D01*
X105643400Y-76222119D01*
X105643402Y-76222119D01*
X105853933Y-76165707D01*
X105853935Y-76165706D01*
X105859243Y-76164284D01*
X105864225Y-76161961D01*
X106061762Y-76069849D01*
X106061767Y-76069846D01*
X106066749Y-76067523D01*
X106188373Y-75982361D01*
X106249789Y-75939357D01*
X106249792Y-75939355D01*
X106254300Y-75936198D01*
X106416198Y-75774300D01*
X106422219Y-75765702D01*
X106544366Y-75591257D01*
X106547523Y-75586749D01*
X106549846Y-75581767D01*
X106549849Y-75581762D01*
X106641961Y-75384225D01*
X106641961Y-75384224D01*
X106644284Y-75379243D01*
X106663678Y-75306866D01*
X106702119Y-75163402D01*
X106702119Y-75163400D01*
X106703543Y-75158087D01*
X106723498Y-74930000D01*
X106703543Y-74701913D01*
X106644284Y-74480757D01*
X106641961Y-74475775D01*
X106549849Y-74278238D01*
X106549846Y-74278233D01*
X106547523Y-74273251D01*
X106416198Y-74085700D01*
X106254300Y-73923802D01*
X106249792Y-73920645D01*
X106249789Y-73920643D01*
X106171611Y-73865902D01*
X106066749Y-73792477D01*
X106061767Y-73790154D01*
X106061762Y-73790151D01*
X105864225Y-73698039D01*
X105864224Y-73698039D01*
X105859243Y-73695716D01*
X105853935Y-73694294D01*
X105853933Y-73694293D01*
X105643402Y-73637881D01*
X105643400Y-73637881D01*
X105638087Y-73636457D01*
X105410000Y-73616502D01*
X105181913Y-73636457D01*
X105176600Y-73637881D01*
X105176598Y-73637881D01*
X104966067Y-73694293D01*
X104966065Y-73694294D01*
X104960757Y-73695716D01*
X104955776Y-73698039D01*
X104955775Y-73698039D01*
X104758238Y-73790151D01*
X104758233Y-73790154D01*
X104753251Y-73792477D01*
X104648389Y-73865902D01*
X104570211Y-73920643D01*
X104570208Y-73920645D01*
X104565700Y-73923802D01*
X104403802Y-74085700D01*
X104272477Y-74273251D01*
X104270154Y-74278233D01*
X104270151Y-74278238D01*
X104178039Y-74475775D01*
X104175716Y-74480757D01*
X104116457Y-74701913D01*
X104096502Y-74930000D01*
X98254447Y-74930000D01*
X98138087Y-74888795D01*
X98138083Y-74888794D01*
X98133212Y-74887069D01*
X98128119Y-74886162D01*
X98128116Y-74886161D01*
X97918373Y-74848800D01*
X97918367Y-74848799D01*
X97913284Y-74847894D01*
X97839452Y-74846992D01*
X97695081Y-74845228D01*
X97695079Y-74845228D01*
X97689911Y-74845165D01*
X97469091Y-74878955D01*
X97256756Y-74948357D01*
X97058607Y-75051507D01*
X97054474Y-75054610D01*
X97054471Y-75054612D01*
X96884100Y-75182530D01*
X96879965Y-75185635D01*
X96823537Y-75244684D01*
X96799283Y-75270064D01*
X96737759Y-75305494D01*
X96666846Y-75302037D01*
X96609060Y-75260791D01*
X96590207Y-75227243D01*
X96548767Y-75116703D01*
X96545615Y-75108295D01*
X96458261Y-74991739D01*
X96341705Y-74904385D01*
X96205316Y-74853255D01*
X96143134Y-74846500D01*
X94346866Y-74846500D01*
X94284684Y-74853255D01*
X94148295Y-74904385D01*
X94031739Y-74991739D01*
X93944385Y-75108295D01*
X93893255Y-75244684D01*
X93886500Y-75306866D01*
X93886500Y-75320500D01*
X93866498Y-75388621D01*
X93812842Y-75435114D01*
X93760500Y-75446500D01*
X93071371Y-75446500D01*
X93003250Y-75426498D01*
X92982276Y-75409595D01*
X89527264Y-71954583D01*
X89508640Y-71930853D01*
X89505507Y-71925690D01*
X89505504Y-71925686D01*
X89502595Y-71920892D01*
X89495197Y-71912516D01*
X89495223Y-71912493D01*
X89492574Y-71909503D01*
X89489866Y-71906264D01*
X89485856Y-71900148D01*
X89480549Y-71895121D01*
X89480546Y-71895117D01*
X89429617Y-71846872D01*
X89427175Y-71844494D01*
X88946276Y-71363595D01*
X88912250Y-71301283D01*
X88917315Y-71230468D01*
X88959862Y-71173632D01*
X89026382Y-71148821D01*
X89035371Y-71148500D01*
X89748134Y-71148500D01*
X89810316Y-71141745D01*
X89946705Y-71090615D01*
X90063261Y-71003261D01*
X90150615Y-70886705D01*
X90201745Y-70750316D01*
X90202917Y-70739526D01*
X90203803Y-70737394D01*
X90204425Y-70734778D01*
X90204848Y-70734879D01*
X90230155Y-70673965D01*
X90288517Y-70633537D01*
X90359471Y-70631078D01*
X90420490Y-70667371D01*
X90427489Y-70676031D01*
X90430643Y-70679789D01*
X90433802Y-70684300D01*
X90595700Y-70846198D01*
X90600208Y-70849355D01*
X90600211Y-70849357D01*
X90641542Y-70878297D01*
X90783251Y-70977523D01*
X90788233Y-70979846D01*
X90788238Y-70979849D01*
X90984765Y-71071490D01*
X90990757Y-71074284D01*
X90996065Y-71075706D01*
X90996067Y-71075707D01*
X91206598Y-71132119D01*
X91206600Y-71132119D01*
X91211913Y-71133543D01*
X91440000Y-71153498D01*
X91668087Y-71133543D01*
X91673400Y-71132119D01*
X91673402Y-71132119D01*
X91883933Y-71075707D01*
X91883935Y-71075706D01*
X91889243Y-71074284D01*
X91895235Y-71071490D01*
X92091762Y-70979849D01*
X92091767Y-70979846D01*
X92096749Y-70977523D01*
X92238458Y-70878297D01*
X92279789Y-70849357D01*
X92279792Y-70849355D01*
X92284300Y-70846198D01*
X92446198Y-70684300D01*
X92577523Y-70496749D01*
X92579846Y-70491767D01*
X92579849Y-70491762D01*
X92595805Y-70457543D01*
X92642722Y-70404258D01*
X92710999Y-70384797D01*
X92778959Y-70405339D01*
X92824195Y-70457543D01*
X92840151Y-70491762D01*
X92840154Y-70491767D01*
X92842477Y-70496749D01*
X92973802Y-70684300D01*
X93135700Y-70846198D01*
X93140208Y-70849355D01*
X93140211Y-70849357D01*
X93181542Y-70878297D01*
X93323251Y-70977523D01*
X93328233Y-70979846D01*
X93328238Y-70979849D01*
X93524765Y-71071490D01*
X93530757Y-71074284D01*
X93536065Y-71075706D01*
X93536067Y-71075707D01*
X93746598Y-71132119D01*
X93746600Y-71132119D01*
X93751913Y-71133543D01*
X93980000Y-71153498D01*
X94208087Y-71133543D01*
X94213400Y-71132119D01*
X94213402Y-71132119D01*
X94423933Y-71075707D01*
X94423935Y-71075706D01*
X94429243Y-71074284D01*
X94435235Y-71071490D01*
X94631762Y-70979849D01*
X94631767Y-70979846D01*
X94636749Y-70977523D01*
X94778458Y-70878297D01*
X94819789Y-70849357D01*
X94819792Y-70849355D01*
X94824300Y-70846198D01*
X94986198Y-70684300D01*
X95117523Y-70496749D01*
X95119846Y-70491767D01*
X95119849Y-70491762D01*
X95136081Y-70456951D01*
X95182998Y-70403666D01*
X95251275Y-70384205D01*
X95319235Y-70404747D01*
X95364471Y-70456951D01*
X95380586Y-70491511D01*
X95386069Y-70501007D01*
X95511028Y-70679467D01*
X95518084Y-70687875D01*
X95672125Y-70841916D01*
X95680533Y-70848972D01*
X95858993Y-70973931D01*
X95868489Y-70979414D01*
X96065947Y-71071490D01*
X96076239Y-71075236D01*
X96248503Y-71121394D01*
X96262599Y-71121058D01*
X96266000Y-71113116D01*
X96266000Y-71107967D01*
X96774000Y-71107967D01*
X96777973Y-71121498D01*
X96786522Y-71122727D01*
X96963761Y-71075236D01*
X96974053Y-71071490D01*
X97171511Y-70979414D01*
X97181007Y-70973931D01*
X97359467Y-70848972D01*
X97367875Y-70841916D01*
X97521916Y-70687875D01*
X97528972Y-70679467D01*
X97653931Y-70501007D01*
X97659414Y-70491511D01*
X97675529Y-70456951D01*
X97722446Y-70403666D01*
X97790723Y-70384205D01*
X97858683Y-70404747D01*
X97903919Y-70456951D01*
X97920151Y-70491762D01*
X97920154Y-70491767D01*
X97922477Y-70496749D01*
X98053802Y-70684300D01*
X98215700Y-70846198D01*
X98220208Y-70849355D01*
X98220211Y-70849357D01*
X98261542Y-70878297D01*
X98403251Y-70977523D01*
X98408233Y-70979846D01*
X98408238Y-70979849D01*
X98604765Y-71071490D01*
X98610757Y-71074284D01*
X98616065Y-71075706D01*
X98616067Y-71075707D01*
X98826598Y-71132119D01*
X98826600Y-71132119D01*
X98831913Y-71133543D01*
X99060000Y-71153498D01*
X99288087Y-71133543D01*
X99293400Y-71132119D01*
X99293402Y-71132119D01*
X99503933Y-71075707D01*
X99503935Y-71075706D01*
X99509243Y-71074284D01*
X99515235Y-71071490D01*
X99711762Y-70979849D01*
X99711767Y-70979846D01*
X99716749Y-70977523D01*
X99858458Y-70878297D01*
X99899789Y-70849357D01*
X99899792Y-70849355D01*
X99904300Y-70846198D01*
X100066198Y-70684300D01*
X100197523Y-70496749D01*
X100199846Y-70491767D01*
X100199849Y-70491762D01*
X100215805Y-70457543D01*
X100262722Y-70404258D01*
X100330999Y-70384797D01*
X100398959Y-70405339D01*
X100444195Y-70457543D01*
X100460151Y-70491762D01*
X100460154Y-70491767D01*
X100462477Y-70496749D01*
X100593802Y-70684300D01*
X100755700Y-70846198D01*
X100760208Y-70849355D01*
X100760211Y-70849357D01*
X100801542Y-70878297D01*
X100943251Y-70977523D01*
X100948233Y-70979846D01*
X100948238Y-70979849D01*
X101144765Y-71071490D01*
X101150757Y-71074284D01*
X101156065Y-71075706D01*
X101156067Y-71075707D01*
X101366598Y-71132119D01*
X101366600Y-71132119D01*
X101371913Y-71133543D01*
X101600000Y-71153498D01*
X101828087Y-71133543D01*
X101833400Y-71132119D01*
X101833402Y-71132119D01*
X102043933Y-71075707D01*
X102043935Y-71075706D01*
X102049243Y-71074284D01*
X102055235Y-71071490D01*
X102251762Y-70979849D01*
X102251767Y-70979846D01*
X102256749Y-70977523D01*
X102398458Y-70878297D01*
X102439789Y-70849357D01*
X102439792Y-70849355D01*
X102444300Y-70846198D01*
X102606198Y-70684300D01*
X102737523Y-70496749D01*
X102739846Y-70491767D01*
X102739849Y-70491762D01*
X102755805Y-70457543D01*
X102802722Y-70404258D01*
X102870999Y-70384797D01*
X102938959Y-70405339D01*
X102984195Y-70457543D01*
X103000151Y-70491762D01*
X103000154Y-70491767D01*
X103002477Y-70496749D01*
X103133802Y-70684300D01*
X103295700Y-70846198D01*
X103300208Y-70849355D01*
X103300211Y-70849357D01*
X103341542Y-70878297D01*
X103483251Y-70977523D01*
X103488233Y-70979846D01*
X103488238Y-70979849D01*
X103684765Y-71071490D01*
X103690757Y-71074284D01*
X103696065Y-71075706D01*
X103696067Y-71075707D01*
X103906598Y-71132119D01*
X103906600Y-71132119D01*
X103911913Y-71133543D01*
X104140000Y-71153498D01*
X104368087Y-71133543D01*
X104373400Y-71132119D01*
X104373402Y-71132119D01*
X104583933Y-71075707D01*
X104583935Y-71075706D01*
X104589243Y-71074284D01*
X104595235Y-71071490D01*
X104791762Y-70979849D01*
X104791767Y-70979846D01*
X104796749Y-70977523D01*
X104938458Y-70878297D01*
X104979789Y-70849357D01*
X104979792Y-70849355D01*
X104984300Y-70846198D01*
X105146198Y-70684300D01*
X105277523Y-70496749D01*
X105279846Y-70491767D01*
X105279849Y-70491762D01*
X105295805Y-70457543D01*
X105342722Y-70404258D01*
X105410999Y-70384797D01*
X105478959Y-70405339D01*
X105524195Y-70457543D01*
X105540151Y-70491762D01*
X105540154Y-70491767D01*
X105542477Y-70496749D01*
X105673802Y-70684300D01*
X105835700Y-70846198D01*
X105840208Y-70849355D01*
X105840211Y-70849357D01*
X105881542Y-70878297D01*
X106023251Y-70977523D01*
X106028233Y-70979846D01*
X106028238Y-70979849D01*
X106224765Y-71071490D01*
X106230757Y-71074284D01*
X106236065Y-71075706D01*
X106236067Y-71075707D01*
X106446598Y-71132119D01*
X106446600Y-71132119D01*
X106451913Y-71133543D01*
X106680000Y-71153498D01*
X106908087Y-71133543D01*
X106913400Y-71132119D01*
X106913402Y-71132119D01*
X107123933Y-71075707D01*
X107123935Y-71075706D01*
X107129243Y-71074284D01*
X107135235Y-71071490D01*
X107331762Y-70979849D01*
X107331767Y-70979846D01*
X107336749Y-70977523D01*
X107478458Y-70878297D01*
X107519789Y-70849357D01*
X107519792Y-70849355D01*
X107524300Y-70846198D01*
X107686198Y-70684300D01*
X107817523Y-70496749D01*
X107819846Y-70491767D01*
X107819849Y-70491762D01*
X107835805Y-70457543D01*
X107882722Y-70404258D01*
X107950999Y-70384797D01*
X108018959Y-70405339D01*
X108064195Y-70457543D01*
X108080151Y-70491762D01*
X108080154Y-70491767D01*
X108082477Y-70496749D01*
X108213802Y-70684300D01*
X108375700Y-70846198D01*
X108380208Y-70849355D01*
X108380211Y-70849357D01*
X108421542Y-70878297D01*
X108563251Y-70977523D01*
X108568233Y-70979846D01*
X108568238Y-70979849D01*
X108764765Y-71071490D01*
X108770757Y-71074284D01*
X108776065Y-71075706D01*
X108776067Y-71075707D01*
X108986598Y-71132119D01*
X108986600Y-71132119D01*
X108991913Y-71133543D01*
X109220000Y-71153498D01*
X109448087Y-71133543D01*
X109453400Y-71132119D01*
X109453402Y-71132119D01*
X109663933Y-71075707D01*
X109663935Y-71075706D01*
X109669243Y-71074284D01*
X109675235Y-71071490D01*
X109871762Y-70979849D01*
X109871767Y-70979846D01*
X109876749Y-70977523D01*
X110018458Y-70878297D01*
X110059789Y-70849357D01*
X110059792Y-70849355D01*
X110064300Y-70846198D01*
X110226198Y-70684300D01*
X110357523Y-70496749D01*
X110359846Y-70491767D01*
X110359849Y-70491762D01*
X110375805Y-70457543D01*
X110422722Y-70404258D01*
X110490999Y-70384797D01*
X110558959Y-70405339D01*
X110604195Y-70457543D01*
X110620151Y-70491762D01*
X110620154Y-70491767D01*
X110622477Y-70496749D01*
X110753802Y-70684300D01*
X110915700Y-70846198D01*
X110920208Y-70849355D01*
X110920211Y-70849357D01*
X110961542Y-70878297D01*
X111103251Y-70977523D01*
X111108233Y-70979846D01*
X111108238Y-70979849D01*
X111304765Y-71071490D01*
X111310757Y-71074284D01*
X111316065Y-71075706D01*
X111316067Y-71075707D01*
X111526598Y-71132119D01*
X111526600Y-71132119D01*
X111531913Y-71133543D01*
X111760000Y-71153498D01*
X111988087Y-71133543D01*
X111993400Y-71132119D01*
X111993402Y-71132119D01*
X112203933Y-71075707D01*
X112203935Y-71075706D01*
X112209243Y-71074284D01*
X112215235Y-71071490D01*
X112411762Y-70979849D01*
X112411767Y-70979846D01*
X112416749Y-70977523D01*
X112558458Y-70878297D01*
X112599789Y-70849357D01*
X112599792Y-70849355D01*
X112604300Y-70846198D01*
X112766198Y-70684300D01*
X112897523Y-70496749D01*
X112899846Y-70491767D01*
X112899849Y-70491762D01*
X112915805Y-70457543D01*
X112962722Y-70404258D01*
X113030999Y-70384797D01*
X113098959Y-70405339D01*
X113144195Y-70457543D01*
X113160151Y-70491762D01*
X113160154Y-70491767D01*
X113162477Y-70496749D01*
X113293802Y-70684300D01*
X113455700Y-70846198D01*
X113460208Y-70849355D01*
X113460211Y-70849357D01*
X113501542Y-70878297D01*
X113643251Y-70977523D01*
X113648233Y-70979846D01*
X113648238Y-70979849D01*
X113844765Y-71071490D01*
X113850757Y-71074284D01*
X113856065Y-71075706D01*
X113856067Y-71075707D01*
X114066598Y-71132119D01*
X114066600Y-71132119D01*
X114071913Y-71133543D01*
X114300000Y-71153498D01*
X114528087Y-71133543D01*
X114533400Y-71132119D01*
X114533402Y-71132119D01*
X114743933Y-71075707D01*
X114743935Y-71075706D01*
X114749243Y-71074284D01*
X114755235Y-71071490D01*
X114951762Y-70979849D01*
X114951767Y-70979846D01*
X114956749Y-70977523D01*
X115098458Y-70878297D01*
X115139789Y-70849357D01*
X115139792Y-70849355D01*
X115144300Y-70846198D01*
X115306198Y-70684300D01*
X115437523Y-70496749D01*
X115439846Y-70491767D01*
X115439849Y-70491762D01*
X115455805Y-70457543D01*
X115502722Y-70404258D01*
X115570999Y-70384797D01*
X115638959Y-70405339D01*
X115684195Y-70457543D01*
X115700151Y-70491762D01*
X115700154Y-70491767D01*
X115702477Y-70496749D01*
X115833802Y-70684300D01*
X115995700Y-70846198D01*
X116000208Y-70849355D01*
X116000211Y-70849357D01*
X116041542Y-70878297D01*
X116183251Y-70977523D01*
X116188233Y-70979846D01*
X116188238Y-70979849D01*
X116384765Y-71071490D01*
X116390757Y-71074284D01*
X116396065Y-71075706D01*
X116396067Y-71075707D01*
X116606598Y-71132119D01*
X116606600Y-71132119D01*
X116611913Y-71133543D01*
X116840000Y-71153498D01*
X117068087Y-71133543D01*
X117073400Y-71132119D01*
X117073402Y-71132119D01*
X117283933Y-71075707D01*
X117283935Y-71075706D01*
X117289243Y-71074284D01*
X117295235Y-71071490D01*
X117491762Y-70979849D01*
X117491767Y-70979846D01*
X117496749Y-70977523D01*
X117638458Y-70878297D01*
X117679789Y-70849357D01*
X117679792Y-70849355D01*
X117684300Y-70846198D01*
X117846198Y-70684300D01*
X117977523Y-70496749D01*
X117979846Y-70491767D01*
X117979849Y-70491762D01*
X117995805Y-70457543D01*
X118042722Y-70404258D01*
X118110999Y-70384797D01*
X118178959Y-70405339D01*
X118224195Y-70457543D01*
X118240151Y-70491762D01*
X118240154Y-70491767D01*
X118242477Y-70496749D01*
X118373802Y-70684300D01*
X118535700Y-70846198D01*
X118540208Y-70849355D01*
X118540211Y-70849357D01*
X118581542Y-70878297D01*
X118723251Y-70977523D01*
X118728233Y-70979846D01*
X118728238Y-70979849D01*
X118924765Y-71071490D01*
X118930757Y-71074284D01*
X118936065Y-71075706D01*
X118936067Y-71075707D01*
X119146598Y-71132119D01*
X119146600Y-71132119D01*
X119151913Y-71133543D01*
X119380000Y-71153498D01*
X119608087Y-71133543D01*
X119613400Y-71132119D01*
X119613402Y-71132119D01*
X119823933Y-71075707D01*
X119823935Y-71075706D01*
X119829243Y-71074284D01*
X119835235Y-71071490D01*
X120031762Y-70979849D01*
X120031767Y-70979846D01*
X120036749Y-70977523D01*
X120178458Y-70878297D01*
X120219789Y-70849357D01*
X120219792Y-70849355D01*
X120224300Y-70846198D01*
X120386198Y-70684300D01*
X120517523Y-70496749D01*
X120519846Y-70491767D01*
X120519849Y-70491762D01*
X120535805Y-70457543D01*
X120582722Y-70404258D01*
X120650999Y-70384797D01*
X120718959Y-70405339D01*
X120764195Y-70457543D01*
X120780151Y-70491762D01*
X120780154Y-70491767D01*
X120782477Y-70496749D01*
X120913802Y-70684300D01*
X121075700Y-70846198D01*
X121080208Y-70849355D01*
X121080211Y-70849357D01*
X121121542Y-70878297D01*
X121263251Y-70977523D01*
X121268233Y-70979846D01*
X121268238Y-70979849D01*
X121464765Y-71071490D01*
X121470757Y-71074284D01*
X121476065Y-71075706D01*
X121476067Y-71075707D01*
X121686598Y-71132119D01*
X121686600Y-71132119D01*
X121691913Y-71133543D01*
X121920000Y-71153498D01*
X122148087Y-71133543D01*
X122153400Y-71132119D01*
X122153402Y-71132119D01*
X122363933Y-71075707D01*
X122363935Y-71075706D01*
X122369243Y-71074284D01*
X122375235Y-71071490D01*
X122571762Y-70979849D01*
X122571767Y-70979846D01*
X122576749Y-70977523D01*
X122718458Y-70878297D01*
X122759789Y-70849357D01*
X122759792Y-70849355D01*
X122764300Y-70846198D01*
X122926198Y-70684300D01*
X123057523Y-70496749D01*
X123059846Y-70491767D01*
X123059849Y-70491762D01*
X123075805Y-70457543D01*
X123122722Y-70404258D01*
X123190999Y-70384797D01*
X123258959Y-70405339D01*
X123304195Y-70457543D01*
X123320151Y-70491762D01*
X123320154Y-70491767D01*
X123322477Y-70496749D01*
X123453802Y-70684300D01*
X123615700Y-70846198D01*
X123620208Y-70849355D01*
X123620211Y-70849357D01*
X123661542Y-70878297D01*
X123803251Y-70977523D01*
X123808233Y-70979846D01*
X123808238Y-70979849D01*
X124004765Y-71071490D01*
X124010757Y-71074284D01*
X124016065Y-71075706D01*
X124016067Y-71075707D01*
X124226598Y-71132119D01*
X124226600Y-71132119D01*
X124231913Y-71133543D01*
X124460000Y-71153498D01*
X124688087Y-71133543D01*
X124693400Y-71132119D01*
X124693402Y-71132119D01*
X124903933Y-71075707D01*
X124903935Y-71075706D01*
X124909243Y-71074284D01*
X124915235Y-71071490D01*
X125111762Y-70979849D01*
X125111767Y-70979846D01*
X125116749Y-70977523D01*
X125258458Y-70878297D01*
X125299789Y-70849357D01*
X125299792Y-70849355D01*
X125304300Y-70846198D01*
X125466198Y-70684300D01*
X125597523Y-70496749D01*
X125599846Y-70491767D01*
X125599849Y-70491762D01*
X125691961Y-70294225D01*
X125691961Y-70294224D01*
X125694284Y-70289243D01*
X125723656Y-70179628D01*
X125752119Y-70073402D01*
X125752119Y-70073400D01*
X125753543Y-70068087D01*
X125773498Y-69840000D01*
X125753543Y-69611913D01*
X125694284Y-69390757D01*
X125599966Y-69188489D01*
X125599849Y-69188238D01*
X125599846Y-69188233D01*
X125597523Y-69183251D01*
X125466198Y-68995700D01*
X125304300Y-68833802D01*
X125299792Y-68830645D01*
X125299789Y-68830643D01*
X125221611Y-68775902D01*
X125116749Y-68702477D01*
X125111767Y-68700154D01*
X125111762Y-68700151D01*
X124914225Y-68608039D01*
X124914224Y-68608039D01*
X124909243Y-68605716D01*
X124903935Y-68604294D01*
X124903933Y-68604293D01*
X124693402Y-68547881D01*
X124693400Y-68547881D01*
X124688087Y-68546457D01*
X124460000Y-68526502D01*
X124231913Y-68546457D01*
X124226600Y-68547881D01*
X124226598Y-68547881D01*
X124016067Y-68604293D01*
X124016065Y-68604294D01*
X124010757Y-68605716D01*
X124005776Y-68608039D01*
X124005775Y-68608039D01*
X123808238Y-68700151D01*
X123808233Y-68700154D01*
X123803251Y-68702477D01*
X123698389Y-68775902D01*
X123620211Y-68830643D01*
X123620208Y-68830645D01*
X123615700Y-68833802D01*
X123453802Y-68995700D01*
X123322477Y-69183251D01*
X123320154Y-69188233D01*
X123320151Y-69188238D01*
X123304195Y-69222457D01*
X123257278Y-69275742D01*
X123189001Y-69295203D01*
X123121041Y-69274661D01*
X123075805Y-69222457D01*
X123059849Y-69188238D01*
X123059846Y-69188233D01*
X123057523Y-69183251D01*
X122926198Y-68995700D01*
X122764300Y-68833802D01*
X122759792Y-68830645D01*
X122759789Y-68830643D01*
X122681611Y-68775902D01*
X122576749Y-68702477D01*
X122571767Y-68700154D01*
X122571762Y-68700151D01*
X122374225Y-68608039D01*
X122374224Y-68608039D01*
X122369243Y-68605716D01*
X122363935Y-68604294D01*
X122363933Y-68604293D01*
X122153402Y-68547881D01*
X122153400Y-68547881D01*
X122148087Y-68546457D01*
X121920000Y-68526502D01*
X121691913Y-68546457D01*
X121686600Y-68547881D01*
X121686598Y-68547881D01*
X121476067Y-68604293D01*
X121476065Y-68604294D01*
X121470757Y-68605716D01*
X121465776Y-68608039D01*
X121465775Y-68608039D01*
X121268238Y-68700151D01*
X121268233Y-68700154D01*
X121263251Y-68702477D01*
X121158389Y-68775902D01*
X121080211Y-68830643D01*
X121080208Y-68830645D01*
X121075700Y-68833802D01*
X120913802Y-68995700D01*
X120782477Y-69183251D01*
X120780154Y-69188233D01*
X120780151Y-69188238D01*
X120764195Y-69222457D01*
X120717278Y-69275742D01*
X120649001Y-69295203D01*
X120581041Y-69274661D01*
X120535805Y-69222457D01*
X120519849Y-69188238D01*
X120519846Y-69188233D01*
X120517523Y-69183251D01*
X120386198Y-68995700D01*
X120224300Y-68833802D01*
X120219792Y-68830645D01*
X120219789Y-68830643D01*
X120141611Y-68775902D01*
X120036749Y-68702477D01*
X120031767Y-68700154D01*
X120031762Y-68700151D01*
X119834225Y-68608039D01*
X119834224Y-68608039D01*
X119829243Y-68605716D01*
X119823935Y-68604294D01*
X119823933Y-68604293D01*
X119613402Y-68547881D01*
X119613400Y-68547881D01*
X119608087Y-68546457D01*
X119380000Y-68526502D01*
X119151913Y-68546457D01*
X119146600Y-68547881D01*
X119146598Y-68547881D01*
X118936067Y-68604293D01*
X118936065Y-68604294D01*
X118930757Y-68605716D01*
X118925776Y-68608039D01*
X118925775Y-68608039D01*
X118728238Y-68700151D01*
X118728233Y-68700154D01*
X118723251Y-68702477D01*
X118618389Y-68775902D01*
X118540211Y-68830643D01*
X118540208Y-68830645D01*
X118535700Y-68833802D01*
X118373802Y-68995700D01*
X118242477Y-69183251D01*
X118240154Y-69188233D01*
X118240151Y-69188238D01*
X118224195Y-69222457D01*
X118177278Y-69275742D01*
X118109001Y-69295203D01*
X118041041Y-69274661D01*
X117995805Y-69222457D01*
X117979849Y-69188238D01*
X117979846Y-69188233D01*
X117977523Y-69183251D01*
X117846198Y-68995700D01*
X117684300Y-68833802D01*
X117679792Y-68830645D01*
X117679789Y-68830643D01*
X117601611Y-68775902D01*
X117496749Y-68702477D01*
X117491767Y-68700154D01*
X117491762Y-68700151D01*
X117294225Y-68608039D01*
X117294224Y-68608039D01*
X117289243Y-68605716D01*
X117283935Y-68604294D01*
X117283933Y-68604293D01*
X117073402Y-68547881D01*
X117073400Y-68547881D01*
X117068087Y-68546457D01*
X116840000Y-68526502D01*
X116611913Y-68546457D01*
X116606600Y-68547881D01*
X116606598Y-68547881D01*
X116396067Y-68604293D01*
X116396065Y-68604294D01*
X116390757Y-68605716D01*
X116385776Y-68608039D01*
X116385775Y-68608039D01*
X116188238Y-68700151D01*
X116188233Y-68700154D01*
X116183251Y-68702477D01*
X116078389Y-68775902D01*
X116000211Y-68830643D01*
X116000208Y-68830645D01*
X115995700Y-68833802D01*
X115833802Y-68995700D01*
X115702477Y-69183251D01*
X115700154Y-69188233D01*
X115700151Y-69188238D01*
X115684195Y-69222457D01*
X115637278Y-69275742D01*
X115569001Y-69295203D01*
X115501041Y-69274661D01*
X115455805Y-69222457D01*
X115439849Y-69188238D01*
X115439846Y-69188233D01*
X115437523Y-69183251D01*
X115306198Y-68995700D01*
X115144300Y-68833802D01*
X115139792Y-68830645D01*
X115139789Y-68830643D01*
X115061611Y-68775902D01*
X114956749Y-68702477D01*
X114951767Y-68700154D01*
X114951762Y-68700151D01*
X114754225Y-68608039D01*
X114754224Y-68608039D01*
X114749243Y-68605716D01*
X114743935Y-68604294D01*
X114743933Y-68604293D01*
X114533402Y-68547881D01*
X114533400Y-68547881D01*
X114528087Y-68546457D01*
X114300000Y-68526502D01*
X114071913Y-68546457D01*
X114066600Y-68547881D01*
X114066598Y-68547881D01*
X113856067Y-68604293D01*
X113856065Y-68604294D01*
X113850757Y-68605716D01*
X113845776Y-68608039D01*
X113845775Y-68608039D01*
X113648238Y-68700151D01*
X113648233Y-68700154D01*
X113643251Y-68702477D01*
X113538389Y-68775902D01*
X113460211Y-68830643D01*
X113460208Y-68830645D01*
X113455700Y-68833802D01*
X113293802Y-68995700D01*
X113162477Y-69183251D01*
X113160154Y-69188233D01*
X113160151Y-69188238D01*
X113144195Y-69222457D01*
X113097278Y-69275742D01*
X113029001Y-69295203D01*
X112961041Y-69274661D01*
X112915805Y-69222457D01*
X112899849Y-69188238D01*
X112899846Y-69188233D01*
X112897523Y-69183251D01*
X112766198Y-68995700D01*
X112604300Y-68833802D01*
X112599792Y-68830645D01*
X112599789Y-68830643D01*
X112521611Y-68775902D01*
X112416749Y-68702477D01*
X112411767Y-68700154D01*
X112411762Y-68700151D01*
X112214225Y-68608039D01*
X112214224Y-68608039D01*
X112209243Y-68605716D01*
X112203935Y-68604294D01*
X112203933Y-68604293D01*
X111993402Y-68547881D01*
X111993400Y-68547881D01*
X111988087Y-68546457D01*
X111760000Y-68526502D01*
X111531913Y-68546457D01*
X111526600Y-68547881D01*
X111526598Y-68547881D01*
X111316067Y-68604293D01*
X111316065Y-68604294D01*
X111310757Y-68605716D01*
X111305776Y-68608039D01*
X111305775Y-68608039D01*
X111108238Y-68700151D01*
X111108233Y-68700154D01*
X111103251Y-68702477D01*
X110998389Y-68775902D01*
X110920211Y-68830643D01*
X110920208Y-68830645D01*
X110915700Y-68833802D01*
X110753802Y-68995700D01*
X110622477Y-69183251D01*
X110620154Y-69188233D01*
X110620151Y-69188238D01*
X110604195Y-69222457D01*
X110557278Y-69275742D01*
X110489001Y-69295203D01*
X110421041Y-69274661D01*
X110375805Y-69222457D01*
X110359849Y-69188238D01*
X110359846Y-69188233D01*
X110357523Y-69183251D01*
X110226198Y-68995700D01*
X110064300Y-68833802D01*
X110059792Y-68830645D01*
X110059789Y-68830643D01*
X109981611Y-68775902D01*
X109876749Y-68702477D01*
X109871767Y-68700154D01*
X109871762Y-68700151D01*
X109674225Y-68608039D01*
X109674224Y-68608039D01*
X109669243Y-68605716D01*
X109663935Y-68604294D01*
X109663933Y-68604293D01*
X109453402Y-68547881D01*
X109453400Y-68547881D01*
X109448087Y-68546457D01*
X109220000Y-68526502D01*
X108991913Y-68546457D01*
X108986600Y-68547881D01*
X108986598Y-68547881D01*
X108776067Y-68604293D01*
X108776065Y-68604294D01*
X108770757Y-68605716D01*
X108765776Y-68608039D01*
X108765775Y-68608039D01*
X108568238Y-68700151D01*
X108568233Y-68700154D01*
X108563251Y-68702477D01*
X108458389Y-68775902D01*
X108380211Y-68830643D01*
X108380208Y-68830645D01*
X108375700Y-68833802D01*
X108213802Y-68995700D01*
X108082477Y-69183251D01*
X108080154Y-69188233D01*
X108080151Y-69188238D01*
X108064195Y-69222457D01*
X108017278Y-69275742D01*
X107949001Y-69295203D01*
X107881041Y-69274661D01*
X107835805Y-69222457D01*
X107819849Y-69188238D01*
X107819846Y-69188233D01*
X107817523Y-69183251D01*
X107686198Y-68995700D01*
X107524300Y-68833802D01*
X107519792Y-68830645D01*
X107519789Y-68830643D01*
X107441611Y-68775902D01*
X107336749Y-68702477D01*
X107331767Y-68700154D01*
X107331762Y-68700151D01*
X107134225Y-68608039D01*
X107134224Y-68608039D01*
X107129243Y-68605716D01*
X107123935Y-68604294D01*
X107123933Y-68604293D01*
X106913402Y-68547881D01*
X106913400Y-68547881D01*
X106908087Y-68546457D01*
X106680000Y-68526502D01*
X106451913Y-68546457D01*
X106446600Y-68547881D01*
X106446598Y-68547881D01*
X106236067Y-68604293D01*
X106236065Y-68604294D01*
X106230757Y-68605716D01*
X106225776Y-68608039D01*
X106225775Y-68608039D01*
X106028238Y-68700151D01*
X106028233Y-68700154D01*
X106023251Y-68702477D01*
X105918389Y-68775902D01*
X105840211Y-68830643D01*
X105840208Y-68830645D01*
X105835700Y-68833802D01*
X105673802Y-68995700D01*
X105542477Y-69183251D01*
X105540154Y-69188233D01*
X105540151Y-69188238D01*
X105524195Y-69222457D01*
X105477278Y-69275742D01*
X105409001Y-69295203D01*
X105341041Y-69274661D01*
X105295805Y-69222457D01*
X105279849Y-69188238D01*
X105279846Y-69188233D01*
X105277523Y-69183251D01*
X105146198Y-68995700D01*
X104984300Y-68833802D01*
X104979792Y-68830645D01*
X104979789Y-68830643D01*
X104901611Y-68775902D01*
X104796749Y-68702477D01*
X104791767Y-68700154D01*
X104791762Y-68700151D01*
X104594225Y-68608039D01*
X104594224Y-68608039D01*
X104589243Y-68605716D01*
X104583935Y-68604294D01*
X104583933Y-68604293D01*
X104373402Y-68547881D01*
X104373400Y-68547881D01*
X104368087Y-68546457D01*
X104140000Y-68526502D01*
X103911913Y-68546457D01*
X103906600Y-68547881D01*
X103906598Y-68547881D01*
X103696067Y-68604293D01*
X103696065Y-68604294D01*
X103690757Y-68605716D01*
X103685776Y-68608039D01*
X103685775Y-68608039D01*
X103488238Y-68700151D01*
X103488233Y-68700154D01*
X103483251Y-68702477D01*
X103378389Y-68775902D01*
X103300211Y-68830643D01*
X103300208Y-68830645D01*
X103295700Y-68833802D01*
X103133802Y-68995700D01*
X103002477Y-69183251D01*
X103000154Y-69188233D01*
X103000151Y-69188238D01*
X102984195Y-69222457D01*
X102937278Y-69275742D01*
X102869001Y-69295203D01*
X102801041Y-69274661D01*
X102755805Y-69222457D01*
X102739849Y-69188238D01*
X102739846Y-69188233D01*
X102737523Y-69183251D01*
X102606198Y-68995700D01*
X102444300Y-68833802D01*
X102439792Y-68830645D01*
X102439789Y-68830643D01*
X102361611Y-68775902D01*
X102256749Y-68702477D01*
X102251767Y-68700154D01*
X102251762Y-68700151D01*
X102054225Y-68608039D01*
X102054224Y-68608039D01*
X102049243Y-68605716D01*
X102043935Y-68604294D01*
X102043933Y-68604293D01*
X101833402Y-68547881D01*
X101833400Y-68547881D01*
X101828087Y-68546457D01*
X101600000Y-68526502D01*
X101371913Y-68546457D01*
X101366600Y-68547881D01*
X101366598Y-68547881D01*
X101156067Y-68604293D01*
X101156065Y-68604294D01*
X101150757Y-68605716D01*
X101145776Y-68608039D01*
X101145775Y-68608039D01*
X100948238Y-68700151D01*
X100948233Y-68700154D01*
X100943251Y-68702477D01*
X100838389Y-68775902D01*
X100760211Y-68830643D01*
X100760208Y-68830645D01*
X100755700Y-68833802D01*
X100593802Y-68995700D01*
X100462477Y-69183251D01*
X100460154Y-69188233D01*
X100460151Y-69188238D01*
X100444195Y-69222457D01*
X100397278Y-69275742D01*
X100329001Y-69295203D01*
X100261041Y-69274661D01*
X100215805Y-69222457D01*
X100199849Y-69188238D01*
X100199846Y-69188233D01*
X100197523Y-69183251D01*
X100066198Y-68995700D01*
X99904300Y-68833802D01*
X99899792Y-68830645D01*
X99899789Y-68830643D01*
X99821611Y-68775902D01*
X99716749Y-68702477D01*
X99711767Y-68700154D01*
X99711762Y-68700151D01*
X99514225Y-68608039D01*
X99514224Y-68608039D01*
X99509243Y-68605716D01*
X99503935Y-68604294D01*
X99503933Y-68604293D01*
X99293402Y-68547881D01*
X99293400Y-68547881D01*
X99288087Y-68546457D01*
X99060000Y-68526502D01*
X98831913Y-68546457D01*
X98826600Y-68547881D01*
X98826598Y-68547881D01*
X98616067Y-68604293D01*
X98616065Y-68604294D01*
X98610757Y-68605716D01*
X98605776Y-68608039D01*
X98605775Y-68608039D01*
X98408238Y-68700151D01*
X98408233Y-68700154D01*
X98403251Y-68702477D01*
X98298389Y-68775902D01*
X98220211Y-68830643D01*
X98220208Y-68830645D01*
X98215700Y-68833802D01*
X98053802Y-68995700D01*
X97922477Y-69183251D01*
X97920154Y-69188233D01*
X97920151Y-69188238D01*
X97903919Y-69223049D01*
X97857002Y-69276334D01*
X97788725Y-69295795D01*
X97720765Y-69275253D01*
X97675529Y-69223049D01*
X97659414Y-69188489D01*
X97653931Y-69178993D01*
X97528972Y-69000533D01*
X97521916Y-68992125D01*
X97367875Y-68838084D01*
X97359467Y-68831028D01*
X97181007Y-68706069D01*
X97171511Y-68700586D01*
X96974053Y-68608510D01*
X96963761Y-68604764D01*
X96791497Y-68558606D01*
X96777401Y-68558942D01*
X96774000Y-68566884D01*
X96774000Y-71107967D01*
X96266000Y-71107967D01*
X96266000Y-68572033D01*
X96262027Y-68558502D01*
X96253478Y-68557273D01*
X96076239Y-68604764D01*
X96065947Y-68608510D01*
X95868489Y-68700586D01*
X95858993Y-68706069D01*
X95680533Y-68831028D01*
X95672125Y-68838084D01*
X95518084Y-68992125D01*
X95511028Y-69000533D01*
X95386069Y-69178993D01*
X95380586Y-69188489D01*
X95364471Y-69223049D01*
X95317554Y-69276334D01*
X95249277Y-69295795D01*
X95181317Y-69275253D01*
X95136081Y-69223049D01*
X95119849Y-69188238D01*
X95119846Y-69188233D01*
X95117523Y-69183251D01*
X94986198Y-68995700D01*
X94824300Y-68833802D01*
X94819792Y-68830645D01*
X94819789Y-68830643D01*
X94741611Y-68775902D01*
X94636749Y-68702477D01*
X94631767Y-68700154D01*
X94631762Y-68700151D01*
X94434225Y-68608039D01*
X94434224Y-68608039D01*
X94429243Y-68605716D01*
X94423935Y-68604294D01*
X94423933Y-68604293D01*
X94213402Y-68547881D01*
X94213400Y-68547881D01*
X94208087Y-68546457D01*
X93980000Y-68526502D01*
X93751913Y-68546457D01*
X93746600Y-68547881D01*
X93746598Y-68547881D01*
X93536067Y-68604293D01*
X93536065Y-68604294D01*
X93530757Y-68605716D01*
X93525776Y-68608039D01*
X93525775Y-68608039D01*
X93328238Y-68700151D01*
X93328233Y-68700154D01*
X93323251Y-68702477D01*
X93218389Y-68775902D01*
X93140211Y-68830643D01*
X93140208Y-68830645D01*
X93135700Y-68833802D01*
X92973802Y-68995700D01*
X92842477Y-69183251D01*
X92840154Y-69188233D01*
X92840151Y-69188238D01*
X92824195Y-69222457D01*
X92777278Y-69275742D01*
X92709001Y-69295203D01*
X92641041Y-69274661D01*
X92595805Y-69222457D01*
X92579849Y-69188238D01*
X92579846Y-69188233D01*
X92577523Y-69183251D01*
X92446198Y-68995700D01*
X92284300Y-68833802D01*
X92279792Y-68830645D01*
X92279789Y-68830643D01*
X92201611Y-68775902D01*
X92096749Y-68702477D01*
X92091767Y-68700154D01*
X92091762Y-68700151D01*
X91894225Y-68608039D01*
X91894224Y-68608039D01*
X91889243Y-68605716D01*
X91883935Y-68604294D01*
X91883933Y-68604293D01*
X91673402Y-68547881D01*
X91673400Y-68547881D01*
X91668087Y-68546457D01*
X91440000Y-68526502D01*
X91211913Y-68546457D01*
X91206600Y-68547881D01*
X91206598Y-68547881D01*
X90996067Y-68604293D01*
X90996065Y-68604294D01*
X90990757Y-68605716D01*
X90985776Y-68608039D01*
X90985775Y-68608039D01*
X90788238Y-68700151D01*
X90788233Y-68700154D01*
X90783251Y-68702477D01*
X90678389Y-68775902D01*
X90600211Y-68830643D01*
X90600208Y-68830645D01*
X90595700Y-68833802D01*
X90433802Y-68995700D01*
X90430643Y-69000211D01*
X90427108Y-69004424D01*
X90425974Y-69003473D01*
X90375929Y-69043471D01*
X90305310Y-69050776D01*
X90241951Y-69018742D01*
X90205970Y-68957538D01*
X90202918Y-68940483D01*
X90201745Y-68929684D01*
X90150615Y-68793295D01*
X90063261Y-68676739D01*
X89946705Y-68589385D01*
X89810316Y-68538255D01*
X89748134Y-68531500D01*
X88051866Y-68531500D01*
X87989684Y-68538255D01*
X87853295Y-68589385D01*
X87736739Y-68676739D01*
X87649385Y-68793295D01*
X87598255Y-68929684D01*
X87591500Y-68991866D01*
X87591500Y-69704629D01*
X87571498Y-69772750D01*
X87517842Y-69819243D01*
X87447568Y-69829347D01*
X87382988Y-69799853D01*
X87376405Y-69793724D01*
X87155405Y-69572724D01*
X87121379Y-69510412D01*
X87118500Y-69483629D01*
X87118500Y-57506371D01*
X87138502Y-57438250D01*
X87155405Y-57417276D01*
X88637010Y-55935671D01*
X88699322Y-55901645D01*
X88737087Y-55899245D01*
X88894525Y-55913019D01*
X88900000Y-55913498D01*
X89128087Y-55893543D01*
X89133400Y-55892119D01*
X89133402Y-55892119D01*
X89343933Y-55835707D01*
X89343935Y-55835706D01*
X89349243Y-55834284D01*
X89355235Y-55831490D01*
X89551762Y-55739849D01*
X89551767Y-55739846D01*
X89556749Y-55737523D01*
X89661611Y-55664098D01*
X89739789Y-55609357D01*
X89739792Y-55609355D01*
X89744300Y-55606198D01*
X89906198Y-55444300D01*
X90037523Y-55256749D01*
X90039846Y-55251767D01*
X90039849Y-55251762D01*
X90056081Y-55216951D01*
X90102998Y-55163666D01*
X90171275Y-55144205D01*
X90239235Y-55164747D01*
X90284471Y-55216951D01*
X90300586Y-55251511D01*
X90306069Y-55261007D01*
X90431028Y-55439467D01*
X90438084Y-55447875D01*
X90592125Y-55601916D01*
X90600533Y-55608972D01*
X90778993Y-55733931D01*
X90788489Y-55739414D01*
X90985947Y-55831490D01*
X90996239Y-55835236D01*
X91168503Y-55881394D01*
X91182599Y-55881058D01*
X91186000Y-55873116D01*
X91186000Y-55867967D01*
X91694000Y-55867967D01*
X91697973Y-55881498D01*
X91706522Y-55882727D01*
X91883761Y-55835236D01*
X91894053Y-55831490D01*
X92091511Y-55739414D01*
X92101007Y-55733931D01*
X92279467Y-55608972D01*
X92287875Y-55601916D01*
X92441916Y-55447875D01*
X92448972Y-55439467D01*
X92573931Y-55261007D01*
X92579414Y-55251511D01*
X92595529Y-55216951D01*
X92642446Y-55163666D01*
X92710723Y-55144205D01*
X92778683Y-55164747D01*
X92823919Y-55216951D01*
X92840151Y-55251762D01*
X92840154Y-55251767D01*
X92842477Y-55256749D01*
X92973802Y-55444300D01*
X93135700Y-55606198D01*
X93140208Y-55609355D01*
X93140211Y-55609357D01*
X93218389Y-55664098D01*
X93323251Y-55737523D01*
X93328233Y-55739846D01*
X93328238Y-55739849D01*
X93524765Y-55831490D01*
X93530757Y-55834284D01*
X93536065Y-55835706D01*
X93536067Y-55835707D01*
X93746598Y-55892119D01*
X93746600Y-55892119D01*
X93751913Y-55893543D01*
X93980000Y-55913498D01*
X94208087Y-55893543D01*
X94213400Y-55892119D01*
X94213402Y-55892119D01*
X94423933Y-55835707D01*
X94423935Y-55835706D01*
X94429243Y-55834284D01*
X94435235Y-55831490D01*
X94631762Y-55739849D01*
X94631767Y-55739846D01*
X94636749Y-55737523D01*
X94741611Y-55664098D01*
X94819789Y-55609357D01*
X94819792Y-55609355D01*
X94824300Y-55606198D01*
X94986198Y-55444300D01*
X95117523Y-55256749D01*
X95119846Y-55251767D01*
X95119849Y-55251762D01*
X95135805Y-55217543D01*
X95182722Y-55164258D01*
X95250999Y-55144797D01*
X95318959Y-55165339D01*
X95364195Y-55217543D01*
X95380151Y-55251762D01*
X95380154Y-55251767D01*
X95382477Y-55256749D01*
X95513802Y-55444300D01*
X95675700Y-55606198D01*
X95680208Y-55609355D01*
X95680211Y-55609357D01*
X95758389Y-55664098D01*
X95863251Y-55737523D01*
X95868233Y-55739846D01*
X95868238Y-55739849D01*
X96064765Y-55831490D01*
X96070757Y-55834284D01*
X96076065Y-55835706D01*
X96076067Y-55835707D01*
X96286598Y-55892119D01*
X96286600Y-55892119D01*
X96291913Y-55893543D01*
X96520000Y-55913498D01*
X96748087Y-55893543D01*
X96753400Y-55892119D01*
X96753402Y-55892119D01*
X96963933Y-55835707D01*
X96963935Y-55835706D01*
X96969243Y-55834284D01*
X96975235Y-55831490D01*
X97171762Y-55739849D01*
X97171767Y-55739846D01*
X97176749Y-55737523D01*
X97281611Y-55664098D01*
X97359789Y-55609357D01*
X97359792Y-55609355D01*
X97364300Y-55606198D01*
X97526198Y-55444300D01*
X97657523Y-55256749D01*
X97659846Y-55251767D01*
X97659849Y-55251762D01*
X97675805Y-55217543D01*
X97722722Y-55164258D01*
X97790999Y-55144797D01*
X97858959Y-55165339D01*
X97904195Y-55217543D01*
X97920151Y-55251762D01*
X97920154Y-55251767D01*
X97922477Y-55256749D01*
X98053802Y-55444300D01*
X98215700Y-55606198D01*
X98220208Y-55609355D01*
X98220211Y-55609357D01*
X98298389Y-55664098D01*
X98403251Y-55737523D01*
X98408233Y-55739846D01*
X98408238Y-55739849D01*
X98604765Y-55831490D01*
X98610757Y-55834284D01*
X98616065Y-55835706D01*
X98616067Y-55835707D01*
X98826598Y-55892119D01*
X98826600Y-55892119D01*
X98831913Y-55893543D01*
X99060000Y-55913498D01*
X99288087Y-55893543D01*
X99293400Y-55892119D01*
X99293402Y-55892119D01*
X99503933Y-55835707D01*
X99503935Y-55835706D01*
X99509243Y-55834284D01*
X99515235Y-55831490D01*
X99711762Y-55739849D01*
X99711767Y-55739846D01*
X99716749Y-55737523D01*
X99821611Y-55664098D01*
X99899789Y-55609357D01*
X99899792Y-55609355D01*
X99904300Y-55606198D01*
X100066198Y-55444300D01*
X100197523Y-55256749D01*
X100199846Y-55251767D01*
X100199849Y-55251762D01*
X100215805Y-55217543D01*
X100262722Y-55164258D01*
X100330999Y-55144797D01*
X100398959Y-55165339D01*
X100444195Y-55217543D01*
X100460151Y-55251762D01*
X100460154Y-55251767D01*
X100462477Y-55256749D01*
X100593802Y-55444300D01*
X100755700Y-55606198D01*
X100760208Y-55609355D01*
X100760211Y-55609357D01*
X100838389Y-55664098D01*
X100943251Y-55737523D01*
X100948233Y-55739846D01*
X100948238Y-55739849D01*
X101144765Y-55831490D01*
X101150757Y-55834284D01*
X101156065Y-55835706D01*
X101156067Y-55835707D01*
X101366598Y-55892119D01*
X101366600Y-55892119D01*
X101371913Y-55893543D01*
X101600000Y-55913498D01*
X101828087Y-55893543D01*
X101833400Y-55892119D01*
X101833402Y-55892119D01*
X102043933Y-55835707D01*
X102043935Y-55835706D01*
X102049243Y-55834284D01*
X102055235Y-55831490D01*
X102251762Y-55739849D01*
X102251767Y-55739846D01*
X102256749Y-55737523D01*
X102361611Y-55664098D01*
X102439789Y-55609357D01*
X102439792Y-55609355D01*
X102444300Y-55606198D01*
X102606198Y-55444300D01*
X102737523Y-55256749D01*
X102739846Y-55251767D01*
X102739849Y-55251762D01*
X102755805Y-55217543D01*
X102802722Y-55164258D01*
X102870999Y-55144797D01*
X102938959Y-55165339D01*
X102984195Y-55217543D01*
X103000151Y-55251762D01*
X103000154Y-55251767D01*
X103002477Y-55256749D01*
X103133802Y-55444300D01*
X103295700Y-55606198D01*
X103300208Y-55609355D01*
X103300211Y-55609357D01*
X103378389Y-55664098D01*
X103483251Y-55737523D01*
X103488233Y-55739846D01*
X103488238Y-55739849D01*
X103684765Y-55831490D01*
X103690757Y-55834284D01*
X103696065Y-55835706D01*
X103696067Y-55835707D01*
X103906598Y-55892119D01*
X103906600Y-55892119D01*
X103911913Y-55893543D01*
X104140000Y-55913498D01*
X104368087Y-55893543D01*
X104373400Y-55892119D01*
X104373402Y-55892119D01*
X104583933Y-55835707D01*
X104583935Y-55835706D01*
X104589243Y-55834284D01*
X104595235Y-55831490D01*
X104791762Y-55739849D01*
X104791767Y-55739846D01*
X104796749Y-55737523D01*
X104901611Y-55664098D01*
X104979789Y-55609357D01*
X104979792Y-55609355D01*
X104984300Y-55606198D01*
X105146198Y-55444300D01*
X105277523Y-55256749D01*
X105279846Y-55251767D01*
X105279849Y-55251762D01*
X105295805Y-55217543D01*
X105342722Y-55164258D01*
X105410999Y-55144797D01*
X105478959Y-55165339D01*
X105524195Y-55217543D01*
X105540151Y-55251762D01*
X105540154Y-55251767D01*
X105542477Y-55256749D01*
X105673802Y-55444300D01*
X105835700Y-55606198D01*
X105840208Y-55609355D01*
X105840211Y-55609357D01*
X105918389Y-55664098D01*
X106023251Y-55737523D01*
X106028233Y-55739846D01*
X106028238Y-55739849D01*
X106224765Y-55831490D01*
X106230757Y-55834284D01*
X106236065Y-55835706D01*
X106236067Y-55835707D01*
X106446598Y-55892119D01*
X106446600Y-55892119D01*
X106451913Y-55893543D01*
X106680000Y-55913498D01*
X106908087Y-55893543D01*
X106913400Y-55892119D01*
X106913402Y-55892119D01*
X107123933Y-55835707D01*
X107123935Y-55835706D01*
X107129243Y-55834284D01*
X107135235Y-55831490D01*
X107331762Y-55739849D01*
X107331767Y-55739846D01*
X107336749Y-55737523D01*
X107441611Y-55664098D01*
X107519789Y-55609357D01*
X107519792Y-55609355D01*
X107524300Y-55606198D01*
X107686198Y-55444300D01*
X107817523Y-55256749D01*
X107819846Y-55251767D01*
X107819849Y-55251762D01*
X107835805Y-55217543D01*
X107882722Y-55164258D01*
X107950999Y-55144797D01*
X108018959Y-55165339D01*
X108064195Y-55217543D01*
X108080151Y-55251762D01*
X108080154Y-55251767D01*
X108082477Y-55256749D01*
X108213802Y-55444300D01*
X108375700Y-55606198D01*
X108380208Y-55609355D01*
X108380211Y-55609357D01*
X108458389Y-55664098D01*
X108563251Y-55737523D01*
X108568233Y-55739846D01*
X108568238Y-55739849D01*
X108764765Y-55831490D01*
X108770757Y-55834284D01*
X108776065Y-55835706D01*
X108776067Y-55835707D01*
X108986598Y-55892119D01*
X108986600Y-55892119D01*
X108991913Y-55893543D01*
X109220000Y-55913498D01*
X109448087Y-55893543D01*
X109453400Y-55892119D01*
X109453402Y-55892119D01*
X109663933Y-55835707D01*
X109663935Y-55835706D01*
X109669243Y-55834284D01*
X109675235Y-55831490D01*
X109871762Y-55739849D01*
X109871767Y-55739846D01*
X109876749Y-55737523D01*
X109981611Y-55664098D01*
X110059789Y-55609357D01*
X110059792Y-55609355D01*
X110064300Y-55606198D01*
X110226198Y-55444300D01*
X110357523Y-55256749D01*
X110359846Y-55251767D01*
X110359849Y-55251762D01*
X110375805Y-55217543D01*
X110422722Y-55164258D01*
X110490999Y-55144797D01*
X110558959Y-55165339D01*
X110604195Y-55217543D01*
X110620151Y-55251762D01*
X110620154Y-55251767D01*
X110622477Y-55256749D01*
X110753802Y-55444300D01*
X110915700Y-55606198D01*
X110920208Y-55609355D01*
X110920211Y-55609357D01*
X110998389Y-55664098D01*
X111103251Y-55737523D01*
X111108233Y-55739846D01*
X111108238Y-55739849D01*
X111304765Y-55831490D01*
X111310757Y-55834284D01*
X111316065Y-55835706D01*
X111316067Y-55835707D01*
X111526598Y-55892119D01*
X111526600Y-55892119D01*
X111531913Y-55893543D01*
X111760000Y-55913498D01*
X111988087Y-55893543D01*
X111993400Y-55892119D01*
X111993402Y-55892119D01*
X112203933Y-55835707D01*
X112203935Y-55835706D01*
X112209243Y-55834284D01*
X112215235Y-55831490D01*
X112411762Y-55739849D01*
X112411767Y-55739846D01*
X112416749Y-55737523D01*
X112521611Y-55664098D01*
X112599789Y-55609357D01*
X112599792Y-55609355D01*
X112604300Y-55606198D01*
X112766198Y-55444300D01*
X112897523Y-55256749D01*
X112899846Y-55251767D01*
X112899849Y-55251762D01*
X112915805Y-55217543D01*
X112962722Y-55164258D01*
X113030999Y-55144797D01*
X113098959Y-55165339D01*
X113144195Y-55217543D01*
X113160151Y-55251762D01*
X113160154Y-55251767D01*
X113162477Y-55256749D01*
X113293802Y-55444300D01*
X113455700Y-55606198D01*
X113460208Y-55609355D01*
X113460211Y-55609357D01*
X113538389Y-55664098D01*
X113643251Y-55737523D01*
X113648233Y-55739846D01*
X113648238Y-55739849D01*
X113844765Y-55831490D01*
X113850757Y-55834284D01*
X113856065Y-55835706D01*
X113856067Y-55835707D01*
X114066598Y-55892119D01*
X114066600Y-55892119D01*
X114071913Y-55893543D01*
X114300000Y-55913498D01*
X114528087Y-55893543D01*
X114533400Y-55892119D01*
X114533402Y-55892119D01*
X114743933Y-55835707D01*
X114743935Y-55835706D01*
X114749243Y-55834284D01*
X114755235Y-55831490D01*
X114951762Y-55739849D01*
X114951767Y-55739846D01*
X114956749Y-55737523D01*
X115061611Y-55664098D01*
X115139789Y-55609357D01*
X115139792Y-55609355D01*
X115144300Y-55606198D01*
X115306198Y-55444300D01*
X115437523Y-55256749D01*
X115439846Y-55251767D01*
X115439849Y-55251762D01*
X115455805Y-55217543D01*
X115502722Y-55164258D01*
X115570999Y-55144797D01*
X115638959Y-55165339D01*
X115684195Y-55217543D01*
X115700151Y-55251762D01*
X115700154Y-55251767D01*
X115702477Y-55256749D01*
X115833802Y-55444300D01*
X115995700Y-55606198D01*
X116000208Y-55609355D01*
X116000211Y-55609357D01*
X116078389Y-55664098D01*
X116183251Y-55737523D01*
X116188233Y-55739846D01*
X116188238Y-55739849D01*
X116384765Y-55831490D01*
X116390757Y-55834284D01*
X116396065Y-55835706D01*
X116396067Y-55835707D01*
X116606598Y-55892119D01*
X116606600Y-55892119D01*
X116611913Y-55893543D01*
X116840000Y-55913498D01*
X117068087Y-55893543D01*
X117073400Y-55892119D01*
X117073402Y-55892119D01*
X117283933Y-55835707D01*
X117283935Y-55835706D01*
X117289243Y-55834284D01*
X117295235Y-55831490D01*
X117491762Y-55739849D01*
X117491767Y-55739846D01*
X117496749Y-55737523D01*
X117601611Y-55664098D01*
X117679789Y-55609357D01*
X117679792Y-55609355D01*
X117684300Y-55606198D01*
X117846198Y-55444300D01*
X117977523Y-55256749D01*
X117979846Y-55251767D01*
X117979849Y-55251762D01*
X117995805Y-55217543D01*
X118042722Y-55164258D01*
X118110999Y-55144797D01*
X118178959Y-55165339D01*
X118224195Y-55217543D01*
X118240151Y-55251762D01*
X118240154Y-55251767D01*
X118242477Y-55256749D01*
X118373802Y-55444300D01*
X118535700Y-55606198D01*
X118540208Y-55609355D01*
X118540211Y-55609357D01*
X118618389Y-55664098D01*
X118723251Y-55737523D01*
X118728233Y-55739846D01*
X118728238Y-55739849D01*
X118924765Y-55831490D01*
X118930757Y-55834284D01*
X118936065Y-55835706D01*
X118936067Y-55835707D01*
X119146598Y-55892119D01*
X119146600Y-55892119D01*
X119151913Y-55893543D01*
X119380000Y-55913498D01*
X119608087Y-55893543D01*
X119613400Y-55892119D01*
X119613402Y-55892119D01*
X119823933Y-55835707D01*
X119823935Y-55835706D01*
X119829243Y-55834284D01*
X119835235Y-55831490D01*
X120031762Y-55739849D01*
X120031767Y-55739846D01*
X120036749Y-55737523D01*
X120141611Y-55664098D01*
X120219789Y-55609357D01*
X120219792Y-55609355D01*
X120224300Y-55606198D01*
X120386198Y-55444300D01*
X120517523Y-55256749D01*
X120519846Y-55251767D01*
X120519849Y-55251762D01*
X120535805Y-55217543D01*
X120582722Y-55164258D01*
X120650999Y-55144797D01*
X120718959Y-55165339D01*
X120764195Y-55217543D01*
X120780151Y-55251762D01*
X120780154Y-55251767D01*
X120782477Y-55256749D01*
X120913802Y-55444300D01*
X121075700Y-55606198D01*
X121080208Y-55609355D01*
X121080211Y-55609357D01*
X121158389Y-55664098D01*
X121263251Y-55737523D01*
X121268233Y-55739846D01*
X121268238Y-55739849D01*
X121464765Y-55831490D01*
X121470757Y-55834284D01*
X121476065Y-55835706D01*
X121476067Y-55835707D01*
X121686598Y-55892119D01*
X121686600Y-55892119D01*
X121691913Y-55893543D01*
X121920000Y-55913498D01*
X122148087Y-55893543D01*
X122153400Y-55892119D01*
X122153402Y-55892119D01*
X122363933Y-55835707D01*
X122363935Y-55835706D01*
X122369243Y-55834284D01*
X122375235Y-55831490D01*
X122571762Y-55739849D01*
X122571767Y-55739846D01*
X122576749Y-55737523D01*
X122681611Y-55664098D01*
X122759789Y-55609357D01*
X122759792Y-55609355D01*
X122764300Y-55606198D01*
X122926198Y-55444300D01*
X123057523Y-55256749D01*
X123059846Y-55251767D01*
X123059849Y-55251762D01*
X123075805Y-55217543D01*
X123122722Y-55164258D01*
X123190999Y-55144797D01*
X123258959Y-55165339D01*
X123304195Y-55217543D01*
X123320151Y-55251762D01*
X123320154Y-55251767D01*
X123322477Y-55256749D01*
X123453802Y-55444300D01*
X123615700Y-55606198D01*
X123620208Y-55609355D01*
X123620211Y-55609357D01*
X123698389Y-55664098D01*
X123803251Y-55737523D01*
X123808233Y-55739846D01*
X123808238Y-55739849D01*
X124004765Y-55831490D01*
X124010757Y-55834284D01*
X124016065Y-55835706D01*
X124016067Y-55835707D01*
X124226598Y-55892119D01*
X124226600Y-55892119D01*
X124231913Y-55893543D01*
X124460000Y-55913498D01*
X124688087Y-55893543D01*
X124693400Y-55892119D01*
X124693402Y-55892119D01*
X124903933Y-55835707D01*
X124903935Y-55835706D01*
X124909243Y-55834284D01*
X124915235Y-55831490D01*
X125111762Y-55739849D01*
X125111767Y-55739846D01*
X125116749Y-55737523D01*
X125221611Y-55664098D01*
X125299789Y-55609357D01*
X125299792Y-55609355D01*
X125304300Y-55606198D01*
X125466198Y-55444300D01*
X125597523Y-55256749D01*
X125599846Y-55251767D01*
X125599849Y-55251762D01*
X125691961Y-55054225D01*
X125691961Y-55054224D01*
X125694284Y-55049243D01*
X125738527Y-54884129D01*
X125752119Y-54833402D01*
X125752119Y-54833400D01*
X125753543Y-54828087D01*
X125773498Y-54600000D01*
X125753543Y-54371913D01*
X125730000Y-54284050D01*
X125695707Y-54156067D01*
X125695706Y-54156065D01*
X125694284Y-54150757D01*
X125636178Y-54026147D01*
X125599849Y-53948238D01*
X125599846Y-53948233D01*
X125597523Y-53943251D01*
X125466198Y-53755700D01*
X125304300Y-53593802D01*
X125299792Y-53590645D01*
X125299789Y-53590643D01*
X125139135Y-53478152D01*
X125116749Y-53462477D01*
X125111767Y-53460154D01*
X125111762Y-53460151D01*
X124914225Y-53368039D01*
X124914224Y-53368039D01*
X124909243Y-53365716D01*
X124903935Y-53364294D01*
X124903933Y-53364293D01*
X124693402Y-53307881D01*
X124693400Y-53307881D01*
X124688087Y-53306457D01*
X124460000Y-53286502D01*
X124231913Y-53306457D01*
X124226600Y-53307881D01*
X124226598Y-53307881D01*
X124016067Y-53364293D01*
X124016065Y-53364294D01*
X124010757Y-53365716D01*
X124005776Y-53368039D01*
X124005775Y-53368039D01*
X123808238Y-53460151D01*
X123808233Y-53460154D01*
X123803251Y-53462477D01*
X123780865Y-53478152D01*
X123620211Y-53590643D01*
X123620208Y-53590645D01*
X123615700Y-53593802D01*
X123453802Y-53755700D01*
X123322477Y-53943251D01*
X123320154Y-53948233D01*
X123320151Y-53948238D01*
X123304195Y-53982457D01*
X123257278Y-54035742D01*
X123189001Y-54055203D01*
X123121041Y-54034661D01*
X123075805Y-53982457D01*
X123059849Y-53948238D01*
X123059846Y-53948233D01*
X123057523Y-53943251D01*
X122926198Y-53755700D01*
X122764300Y-53593802D01*
X122759792Y-53590645D01*
X122759789Y-53590643D01*
X122599135Y-53478152D01*
X122576749Y-53462477D01*
X122571767Y-53460154D01*
X122571762Y-53460151D01*
X122374225Y-53368039D01*
X122374224Y-53368039D01*
X122369243Y-53365716D01*
X122363935Y-53364294D01*
X122363933Y-53364293D01*
X122153402Y-53307881D01*
X122153400Y-53307881D01*
X122148087Y-53306457D01*
X121920000Y-53286502D01*
X121691913Y-53306457D01*
X121686600Y-53307881D01*
X121686598Y-53307881D01*
X121476067Y-53364293D01*
X121476065Y-53364294D01*
X121470757Y-53365716D01*
X121465776Y-53368039D01*
X121465775Y-53368039D01*
X121268238Y-53460151D01*
X121268233Y-53460154D01*
X121263251Y-53462477D01*
X121240865Y-53478152D01*
X121080211Y-53590643D01*
X121080208Y-53590645D01*
X121075700Y-53593802D01*
X120913802Y-53755700D01*
X120782477Y-53943251D01*
X120780154Y-53948233D01*
X120780151Y-53948238D01*
X120764195Y-53982457D01*
X120717278Y-54035742D01*
X120649001Y-54055203D01*
X120581041Y-54034661D01*
X120535805Y-53982457D01*
X120519849Y-53948238D01*
X120519846Y-53948233D01*
X120517523Y-53943251D01*
X120386198Y-53755700D01*
X120224300Y-53593802D01*
X120219792Y-53590645D01*
X120219789Y-53590643D01*
X120059135Y-53478152D01*
X120036749Y-53462477D01*
X120031767Y-53460154D01*
X120031762Y-53460151D01*
X119834225Y-53368039D01*
X119834224Y-53368039D01*
X119829243Y-53365716D01*
X119823935Y-53364294D01*
X119823933Y-53364293D01*
X119613402Y-53307881D01*
X119613400Y-53307881D01*
X119608087Y-53306457D01*
X119380000Y-53286502D01*
X119151913Y-53306457D01*
X119146600Y-53307881D01*
X119146598Y-53307881D01*
X118936067Y-53364293D01*
X118936065Y-53364294D01*
X118930757Y-53365716D01*
X118925776Y-53368039D01*
X118925775Y-53368039D01*
X118728238Y-53460151D01*
X118728233Y-53460154D01*
X118723251Y-53462477D01*
X118700865Y-53478152D01*
X118540211Y-53590643D01*
X118540208Y-53590645D01*
X118535700Y-53593802D01*
X118373802Y-53755700D01*
X118242477Y-53943251D01*
X118240154Y-53948233D01*
X118240151Y-53948238D01*
X118224195Y-53982457D01*
X118177278Y-54035742D01*
X118109001Y-54055203D01*
X118041041Y-54034661D01*
X117995805Y-53982457D01*
X117979849Y-53948238D01*
X117979846Y-53948233D01*
X117977523Y-53943251D01*
X117846198Y-53755700D01*
X117684300Y-53593802D01*
X117679792Y-53590645D01*
X117679789Y-53590643D01*
X117519135Y-53478152D01*
X117496749Y-53462477D01*
X117491767Y-53460154D01*
X117491762Y-53460151D01*
X117294225Y-53368039D01*
X117294224Y-53368039D01*
X117289243Y-53365716D01*
X117283935Y-53364294D01*
X117283933Y-53364293D01*
X117073402Y-53307881D01*
X117073400Y-53307881D01*
X117068087Y-53306457D01*
X116840000Y-53286502D01*
X116611913Y-53306457D01*
X116606600Y-53307881D01*
X116606598Y-53307881D01*
X116396067Y-53364293D01*
X116396065Y-53364294D01*
X116390757Y-53365716D01*
X116385776Y-53368039D01*
X116385775Y-53368039D01*
X116188238Y-53460151D01*
X116188233Y-53460154D01*
X116183251Y-53462477D01*
X116160865Y-53478152D01*
X116000211Y-53590643D01*
X116000208Y-53590645D01*
X115995700Y-53593802D01*
X115833802Y-53755700D01*
X115702477Y-53943251D01*
X115700154Y-53948233D01*
X115700151Y-53948238D01*
X115684195Y-53982457D01*
X115637278Y-54035742D01*
X115569001Y-54055203D01*
X115501041Y-54034661D01*
X115455805Y-53982457D01*
X115439849Y-53948238D01*
X115439846Y-53948233D01*
X115437523Y-53943251D01*
X115306198Y-53755700D01*
X115144300Y-53593802D01*
X115139792Y-53590645D01*
X115139789Y-53590643D01*
X114979135Y-53478152D01*
X114956749Y-53462477D01*
X114951767Y-53460154D01*
X114951762Y-53460151D01*
X114754225Y-53368039D01*
X114754224Y-53368039D01*
X114749243Y-53365716D01*
X114743935Y-53364294D01*
X114743933Y-53364293D01*
X114533402Y-53307881D01*
X114533400Y-53307881D01*
X114528087Y-53306457D01*
X114300000Y-53286502D01*
X114071913Y-53306457D01*
X114066600Y-53307881D01*
X114066598Y-53307881D01*
X113856067Y-53364293D01*
X113856065Y-53364294D01*
X113850757Y-53365716D01*
X113845776Y-53368039D01*
X113845775Y-53368039D01*
X113648238Y-53460151D01*
X113648233Y-53460154D01*
X113643251Y-53462477D01*
X113620865Y-53478152D01*
X113460211Y-53590643D01*
X113460208Y-53590645D01*
X113455700Y-53593802D01*
X113293802Y-53755700D01*
X113162477Y-53943251D01*
X113160154Y-53948233D01*
X113160151Y-53948238D01*
X113144195Y-53982457D01*
X113097278Y-54035742D01*
X113029001Y-54055203D01*
X112961041Y-54034661D01*
X112915805Y-53982457D01*
X112899849Y-53948238D01*
X112899846Y-53948233D01*
X112897523Y-53943251D01*
X112766198Y-53755700D01*
X112604300Y-53593802D01*
X112599792Y-53590645D01*
X112599789Y-53590643D01*
X112439135Y-53478152D01*
X112416749Y-53462477D01*
X112411767Y-53460154D01*
X112411762Y-53460151D01*
X112214225Y-53368039D01*
X112214224Y-53368039D01*
X112209243Y-53365716D01*
X112203935Y-53364294D01*
X112203933Y-53364293D01*
X111993402Y-53307881D01*
X111993400Y-53307881D01*
X111988087Y-53306457D01*
X111760000Y-53286502D01*
X111531913Y-53306457D01*
X111526600Y-53307881D01*
X111526598Y-53307881D01*
X111316067Y-53364293D01*
X111316065Y-53364294D01*
X111310757Y-53365716D01*
X111305776Y-53368039D01*
X111305775Y-53368039D01*
X111108238Y-53460151D01*
X111108233Y-53460154D01*
X111103251Y-53462477D01*
X111080865Y-53478152D01*
X110920211Y-53590643D01*
X110920208Y-53590645D01*
X110915700Y-53593802D01*
X110753802Y-53755700D01*
X110622477Y-53943251D01*
X110620154Y-53948233D01*
X110620151Y-53948238D01*
X110604195Y-53982457D01*
X110557278Y-54035742D01*
X110489001Y-54055203D01*
X110421041Y-54034661D01*
X110375805Y-53982457D01*
X110359849Y-53948238D01*
X110359846Y-53948233D01*
X110357523Y-53943251D01*
X110226198Y-53755700D01*
X110064300Y-53593802D01*
X110059792Y-53590645D01*
X110059789Y-53590643D01*
X109899135Y-53478152D01*
X109876749Y-53462477D01*
X109871767Y-53460154D01*
X109871762Y-53460151D01*
X109674225Y-53368039D01*
X109674224Y-53368039D01*
X109669243Y-53365716D01*
X109663935Y-53364294D01*
X109663933Y-53364293D01*
X109453402Y-53307881D01*
X109453400Y-53307881D01*
X109448087Y-53306457D01*
X109220000Y-53286502D01*
X108991913Y-53306457D01*
X108986600Y-53307881D01*
X108986598Y-53307881D01*
X108776067Y-53364293D01*
X108776065Y-53364294D01*
X108770757Y-53365716D01*
X108765776Y-53368039D01*
X108765775Y-53368039D01*
X108568238Y-53460151D01*
X108568233Y-53460154D01*
X108563251Y-53462477D01*
X108540865Y-53478152D01*
X108380211Y-53590643D01*
X108380208Y-53590645D01*
X108375700Y-53593802D01*
X108213802Y-53755700D01*
X108082477Y-53943251D01*
X108080154Y-53948233D01*
X108080151Y-53948238D01*
X108064195Y-53982457D01*
X108017278Y-54035742D01*
X107949001Y-54055203D01*
X107881041Y-54034661D01*
X107835805Y-53982457D01*
X107819849Y-53948238D01*
X107819846Y-53948233D01*
X107817523Y-53943251D01*
X107686198Y-53755700D01*
X107524300Y-53593802D01*
X107519792Y-53590645D01*
X107519789Y-53590643D01*
X107359135Y-53478152D01*
X107336749Y-53462477D01*
X107331767Y-53460154D01*
X107331762Y-53460151D01*
X107134225Y-53368039D01*
X107134224Y-53368039D01*
X107129243Y-53365716D01*
X107123935Y-53364294D01*
X107123933Y-53364293D01*
X106913402Y-53307881D01*
X106913400Y-53307881D01*
X106908087Y-53306457D01*
X106680000Y-53286502D01*
X106451913Y-53306457D01*
X106446600Y-53307881D01*
X106446598Y-53307881D01*
X106236067Y-53364293D01*
X106236065Y-53364294D01*
X106230757Y-53365716D01*
X106225776Y-53368039D01*
X106225775Y-53368039D01*
X106028238Y-53460151D01*
X106028233Y-53460154D01*
X106023251Y-53462477D01*
X106000865Y-53478152D01*
X105840211Y-53590643D01*
X105840208Y-53590645D01*
X105835700Y-53593802D01*
X105673802Y-53755700D01*
X105542477Y-53943251D01*
X105540154Y-53948233D01*
X105540151Y-53948238D01*
X105524195Y-53982457D01*
X105477278Y-54035742D01*
X105409001Y-54055203D01*
X105341041Y-54034661D01*
X105295805Y-53982457D01*
X105279849Y-53948238D01*
X105279846Y-53948233D01*
X105277523Y-53943251D01*
X105146198Y-53755700D01*
X104984300Y-53593802D01*
X104979792Y-53590645D01*
X104979789Y-53590643D01*
X104819135Y-53478152D01*
X104796749Y-53462477D01*
X104791767Y-53460154D01*
X104791762Y-53460151D01*
X104594225Y-53368039D01*
X104594224Y-53368039D01*
X104589243Y-53365716D01*
X104583935Y-53364294D01*
X104583933Y-53364293D01*
X104373402Y-53307881D01*
X104373400Y-53307881D01*
X104368087Y-53306457D01*
X104140000Y-53286502D01*
X103911913Y-53306457D01*
X103906600Y-53307881D01*
X103906598Y-53307881D01*
X103696067Y-53364293D01*
X103696065Y-53364294D01*
X103690757Y-53365716D01*
X103685776Y-53368039D01*
X103685775Y-53368039D01*
X103488238Y-53460151D01*
X103488233Y-53460154D01*
X103483251Y-53462477D01*
X103460865Y-53478152D01*
X103300211Y-53590643D01*
X103300208Y-53590645D01*
X103295700Y-53593802D01*
X103133802Y-53755700D01*
X103002477Y-53943251D01*
X103000154Y-53948233D01*
X103000151Y-53948238D01*
X102984195Y-53982457D01*
X102937278Y-54035742D01*
X102869001Y-54055203D01*
X102801041Y-54034661D01*
X102755805Y-53982457D01*
X102739849Y-53948238D01*
X102739846Y-53948233D01*
X102737523Y-53943251D01*
X102606198Y-53755700D01*
X102444300Y-53593802D01*
X102439792Y-53590645D01*
X102439789Y-53590643D01*
X102279135Y-53478152D01*
X102256749Y-53462477D01*
X102251767Y-53460154D01*
X102251762Y-53460151D01*
X102054225Y-53368039D01*
X102054224Y-53368039D01*
X102049243Y-53365716D01*
X102043935Y-53364294D01*
X102043933Y-53364293D01*
X101833402Y-53307881D01*
X101833400Y-53307881D01*
X101828087Y-53306457D01*
X101600000Y-53286502D01*
X101371913Y-53306457D01*
X101366600Y-53307881D01*
X101366598Y-53307881D01*
X101156067Y-53364293D01*
X101156065Y-53364294D01*
X101150757Y-53365716D01*
X101145776Y-53368039D01*
X101145775Y-53368039D01*
X100948238Y-53460151D01*
X100948233Y-53460154D01*
X100943251Y-53462477D01*
X100920865Y-53478152D01*
X100760211Y-53590643D01*
X100760208Y-53590645D01*
X100755700Y-53593802D01*
X100593802Y-53755700D01*
X100462477Y-53943251D01*
X100460154Y-53948233D01*
X100460151Y-53948238D01*
X100444195Y-53982457D01*
X100397278Y-54035742D01*
X100329001Y-54055203D01*
X100261041Y-54034661D01*
X100215805Y-53982457D01*
X100199849Y-53948238D01*
X100199846Y-53948233D01*
X100197523Y-53943251D01*
X100066198Y-53755700D01*
X99904300Y-53593802D01*
X99899792Y-53590645D01*
X99899789Y-53590643D01*
X99739135Y-53478152D01*
X99716749Y-53462477D01*
X99711767Y-53460154D01*
X99711762Y-53460151D01*
X99514225Y-53368039D01*
X99514224Y-53368039D01*
X99509243Y-53365716D01*
X99503935Y-53364294D01*
X99503933Y-53364293D01*
X99293402Y-53307881D01*
X99293400Y-53307881D01*
X99288087Y-53306457D01*
X99060000Y-53286502D01*
X98831913Y-53306457D01*
X98826600Y-53307881D01*
X98826598Y-53307881D01*
X98616067Y-53364293D01*
X98616065Y-53364294D01*
X98610757Y-53365716D01*
X98605776Y-53368039D01*
X98605775Y-53368039D01*
X98408238Y-53460151D01*
X98408233Y-53460154D01*
X98403251Y-53462477D01*
X98380865Y-53478152D01*
X98220211Y-53590643D01*
X98220208Y-53590645D01*
X98215700Y-53593802D01*
X98053802Y-53755700D01*
X97922477Y-53943251D01*
X97920154Y-53948233D01*
X97920151Y-53948238D01*
X97904195Y-53982457D01*
X97857278Y-54035742D01*
X97789001Y-54055203D01*
X97721041Y-54034661D01*
X97675805Y-53982457D01*
X97659849Y-53948238D01*
X97659846Y-53948233D01*
X97657523Y-53943251D01*
X97526198Y-53755700D01*
X97364300Y-53593802D01*
X97359792Y-53590645D01*
X97359789Y-53590643D01*
X97199135Y-53478152D01*
X97176749Y-53462477D01*
X97171767Y-53460154D01*
X97171762Y-53460151D01*
X96974225Y-53368039D01*
X96974224Y-53368039D01*
X96969243Y-53365716D01*
X96963935Y-53364294D01*
X96963933Y-53364293D01*
X96753402Y-53307881D01*
X96753400Y-53307881D01*
X96748087Y-53306457D01*
X96520000Y-53286502D01*
X96291913Y-53306457D01*
X96286600Y-53307881D01*
X96286598Y-53307881D01*
X96076067Y-53364293D01*
X96076065Y-53364294D01*
X96070757Y-53365716D01*
X96065776Y-53368039D01*
X96065775Y-53368039D01*
X95868238Y-53460151D01*
X95868233Y-53460154D01*
X95863251Y-53462477D01*
X95840865Y-53478152D01*
X95680211Y-53590643D01*
X95680208Y-53590645D01*
X95675700Y-53593802D01*
X95513802Y-53755700D01*
X95382477Y-53943251D01*
X95380154Y-53948233D01*
X95380151Y-53948238D01*
X95364195Y-53982457D01*
X95317278Y-54035742D01*
X95249001Y-54055203D01*
X95181041Y-54034661D01*
X95135805Y-53982457D01*
X95119849Y-53948238D01*
X95119846Y-53948233D01*
X95117523Y-53943251D01*
X94986198Y-53755700D01*
X94824300Y-53593802D01*
X94819792Y-53590645D01*
X94819789Y-53590643D01*
X94659135Y-53478152D01*
X94636749Y-53462477D01*
X94631767Y-53460154D01*
X94631762Y-53460151D01*
X94434225Y-53368039D01*
X94434224Y-53368039D01*
X94429243Y-53365716D01*
X94423935Y-53364294D01*
X94423933Y-53364293D01*
X94213402Y-53307881D01*
X94213400Y-53307881D01*
X94208087Y-53306457D01*
X93980000Y-53286502D01*
X93751913Y-53306457D01*
X93746600Y-53307881D01*
X93746598Y-53307881D01*
X93536067Y-53364293D01*
X93536065Y-53364294D01*
X93530757Y-53365716D01*
X93525776Y-53368039D01*
X93525775Y-53368039D01*
X93328238Y-53460151D01*
X93328233Y-53460154D01*
X93323251Y-53462477D01*
X93300865Y-53478152D01*
X93140211Y-53590643D01*
X93140208Y-53590645D01*
X93135700Y-53593802D01*
X92973802Y-53755700D01*
X92842477Y-53943251D01*
X92840154Y-53948233D01*
X92840151Y-53948238D01*
X92823919Y-53983049D01*
X92777002Y-54036334D01*
X92708725Y-54055795D01*
X92640765Y-54035253D01*
X92595529Y-53983049D01*
X92579414Y-53948489D01*
X92573931Y-53938993D01*
X92448972Y-53760533D01*
X92441916Y-53752125D01*
X92287875Y-53598084D01*
X92279467Y-53591028D01*
X92101007Y-53466069D01*
X92091511Y-53460586D01*
X91894053Y-53368510D01*
X91883761Y-53364764D01*
X91711497Y-53318606D01*
X91697401Y-53318942D01*
X91694000Y-53326884D01*
X91694000Y-55867967D01*
X91186000Y-55867967D01*
X91186000Y-53332033D01*
X91182027Y-53318502D01*
X91173478Y-53317273D01*
X90996239Y-53364764D01*
X90985947Y-53368510D01*
X90788489Y-53460586D01*
X90778993Y-53466069D01*
X90600533Y-53591028D01*
X90592125Y-53598084D01*
X90438084Y-53752125D01*
X90431028Y-53760533D01*
X90306069Y-53938993D01*
X90300586Y-53948489D01*
X90284471Y-53983049D01*
X90237554Y-54036334D01*
X90169277Y-54055795D01*
X90101317Y-54035253D01*
X90056081Y-53983049D01*
X90039849Y-53948238D01*
X90039846Y-53948233D01*
X90037523Y-53943251D01*
X89906198Y-53755700D01*
X89744300Y-53593802D01*
X89739792Y-53590645D01*
X89739789Y-53590643D01*
X89579135Y-53478152D01*
X89556749Y-53462477D01*
X89551767Y-53460154D01*
X89551762Y-53460151D01*
X89354225Y-53368039D01*
X89354224Y-53368039D01*
X89349243Y-53365716D01*
X89343935Y-53364294D01*
X89343933Y-53364293D01*
X89133402Y-53307881D01*
X89133400Y-53307881D01*
X89128087Y-53306457D01*
X88900000Y-53286502D01*
X88671913Y-53306457D01*
X88666600Y-53307881D01*
X88666598Y-53307881D01*
X88456067Y-53364293D01*
X88456065Y-53364294D01*
X88450757Y-53365716D01*
X88445776Y-53368039D01*
X88445775Y-53368039D01*
X88248238Y-53460151D01*
X88248233Y-53460154D01*
X88243251Y-53462477D01*
X88220865Y-53478152D01*
X88060211Y-53590643D01*
X88060208Y-53590645D01*
X88055700Y-53593802D01*
X87893802Y-53755700D01*
X87762477Y-53943251D01*
X87760154Y-53948233D01*
X87760151Y-53948238D01*
X87723822Y-54026147D01*
X87665716Y-54150757D01*
X87664294Y-54156065D01*
X87664293Y-54156067D01*
X87630000Y-54284050D01*
X87606457Y-54371913D01*
X87586502Y-54600000D01*
X87586981Y-54605475D01*
X87600755Y-54762913D01*
X87586766Y-54832518D01*
X87564329Y-54862990D01*
X85871089Y-56556230D01*
X85856677Y-56568616D01*
X85845082Y-56577149D01*
X85845077Y-56577154D01*
X85839182Y-56581492D01*
X85834443Y-56587070D01*
X85834440Y-56587073D01*
X85804965Y-56621768D01*
X85798035Y-56629284D01*
X85792340Y-56634979D01*
X85790060Y-56637861D01*
X85774719Y-56657251D01*
X85771928Y-56660655D01*
X85746430Y-56690668D01*
X85724667Y-56716285D01*
X85721339Y-56722801D01*
X85717972Y-56727850D01*
X85714805Y-56732979D01*
X85710266Y-56738716D01*
X85679345Y-56804875D01*
X85677442Y-56808769D01*
X85644231Y-56873808D01*
X85642492Y-56880916D01*
X85640393Y-56886559D01*
X85638476Y-56892322D01*
X85635378Y-56898950D01*
X85633888Y-56906112D01*
X85633888Y-56906113D01*
X85620514Y-56970412D01*
X85619544Y-56974696D01*
X85602192Y-57045610D01*
X85601500Y-57056764D01*
X85601464Y-57056762D01*
X85601225Y-57060755D01*
X85600851Y-57064947D01*
X85599360Y-57072115D01*
X85599558Y-57079432D01*
X85601454Y-57149521D01*
X85601500Y-57152928D01*
X85601500Y-69782930D01*
X85600067Y-69801880D01*
X85596801Y-69823349D01*
X85597394Y-69830641D01*
X85597394Y-69830644D01*
X85601085Y-69876018D01*
X85601500Y-69886233D01*
X85601500Y-69894293D01*
X85601925Y-69897937D01*
X85604789Y-69922507D01*
X85605222Y-69926882D01*
X85611140Y-69999637D01*
X85613396Y-70006601D01*
X85614587Y-70012560D01*
X85615971Y-70018415D01*
X85616818Y-70025681D01*
X85641735Y-70094327D01*
X85643152Y-70098455D01*
X85665649Y-70167899D01*
X85669445Y-70174154D01*
X85671951Y-70179628D01*
X85674670Y-70185058D01*
X85677167Y-70191937D01*
X85681180Y-70198057D01*
X85681180Y-70198058D01*
X85717186Y-70252976D01*
X85719523Y-70256680D01*
X85757405Y-70319107D01*
X85761121Y-70323315D01*
X85761122Y-70323316D01*
X85764803Y-70327484D01*
X85764776Y-70327508D01*
X85767429Y-70330500D01*
X85770132Y-70333733D01*
X85774144Y-70339852D01*
X85779456Y-70344884D01*
X85830383Y-70393128D01*
X85832825Y-70395506D01*
X88272740Y-72835421D01*
X88291362Y-72859148D01*
X88297405Y-72869107D01*
X88301118Y-72873311D01*
X88304803Y-72877484D01*
X88304776Y-72877508D01*
X88307429Y-72880500D01*
X88310132Y-72883733D01*
X88314144Y-72889852D01*
X88319456Y-72894884D01*
X88370383Y-72943128D01*
X88372825Y-72945506D01*
X91543224Y-76115905D01*
X91577250Y-76178217D01*
X91572185Y-76249032D01*
X91543224Y-76294095D01*
X90951089Y-76886230D01*
X90936677Y-76898616D01*
X90925082Y-76907149D01*
X90925077Y-76907154D01*
X90919182Y-76911492D01*
X90914443Y-76917070D01*
X90914440Y-76917073D01*
X90884965Y-76951768D01*
X90878035Y-76959284D01*
X90872340Y-76964979D01*
X90870060Y-76967861D01*
X90854719Y-76987251D01*
X90851928Y-76990655D01*
X90822138Y-77025720D01*
X90804667Y-77046285D01*
X90801339Y-77052801D01*
X90797972Y-77057850D01*
X90794805Y-77062979D01*
X90790266Y-77068716D01*
X90759345Y-77134875D01*
X90757442Y-77138769D01*
X90724231Y-77203808D01*
X90722492Y-77210916D01*
X90720393Y-77216559D01*
X90718476Y-77222322D01*
X90715378Y-77228950D01*
X90713888Y-77236112D01*
X90713888Y-77236113D01*
X90700514Y-77300412D01*
X90699544Y-77304696D01*
X90682192Y-77375610D01*
X90681500Y-77386764D01*
X90681464Y-77386762D01*
X90681225Y-77390755D01*
X90680851Y-77394947D01*
X90679360Y-77402115D01*
X90679558Y-77409432D01*
X90681454Y-77479521D01*
X90681500Y-77482928D01*
X90681500Y-86292930D01*
X90680067Y-86311880D01*
X90676801Y-86333349D01*
X90677394Y-86340641D01*
X90677394Y-86340644D01*
X90681085Y-86386018D01*
X90681500Y-86396233D01*
X90681500Y-86404293D01*
X90681925Y-86407937D01*
X90684789Y-86432507D01*
X90685222Y-86436882D01*
X90691140Y-86509637D01*
X90693396Y-86516601D01*
X90694587Y-86522560D01*
X90695971Y-86528415D01*
X90696818Y-86535681D01*
X90721735Y-86604327D01*
X90723152Y-86608455D01*
X90745649Y-86677899D01*
X90749445Y-86684154D01*
X90751951Y-86689628D01*
X90754670Y-86695058D01*
X90757167Y-86701937D01*
X90761180Y-86708057D01*
X90761180Y-86708058D01*
X90797186Y-86762976D01*
X90799523Y-86766680D01*
X90837405Y-86829107D01*
X90841121Y-86833315D01*
X90841122Y-86833316D01*
X90844803Y-86837484D01*
X90844776Y-86837508D01*
X90847429Y-86840500D01*
X90850132Y-86843733D01*
X90854144Y-86849852D01*
X90859456Y-86854884D01*
X90910383Y-86903128D01*
X90912825Y-86905506D01*
X98264595Y-94257276D01*
X98298621Y-94319588D01*
X98301500Y-94346371D01*
X98301500Y-95027752D01*
X98281498Y-95095873D01*
X98241336Y-95135184D01*
X98202187Y-95159175D01*
X98133653Y-95177714D01*
X98065976Y-95156258D01*
X98035525Y-95127308D01*
X97988285Y-95064276D01*
X97975724Y-95051715D01*
X97873649Y-94975214D01*
X97858054Y-94966676D01*
X97737606Y-94921522D01*
X97722351Y-94917895D01*
X97671486Y-94912369D01*
X97664672Y-94912000D01*
X96792115Y-94912000D01*
X96776876Y-94916475D01*
X96775671Y-94917865D01*
X96774000Y-94925548D01*
X96774000Y-96648000D01*
X96753998Y-96716121D01*
X96700342Y-96762614D01*
X96648000Y-96774000D01*
X94930116Y-96774000D01*
X94914877Y-96778475D01*
X94913672Y-96779865D01*
X94912001Y-96787548D01*
X94912001Y-97664669D01*
X94912371Y-97671490D01*
X94917895Y-97722352D01*
X94921521Y-97737604D01*
X94966676Y-97858054D01*
X94975214Y-97873649D01*
X95051715Y-97975724D01*
X95064276Y-97988285D01*
X95166351Y-98064786D01*
X95181946Y-98073324D01*
X95302394Y-98118478D01*
X95317649Y-98122105D01*
X95368514Y-98127631D01*
X95375328Y-98128000D01*
X95649435Y-98128000D01*
X95717556Y-98148002D01*
X95764049Y-98201658D01*
X95774153Y-98271932D01*
X95746519Y-98334316D01*
X95713811Y-98373853D01*
X95638217Y-98465230D01*
X95635288Y-98470647D01*
X95635286Y-98470650D01*
X95542416Y-98642410D01*
X95542414Y-98642415D01*
X95539486Y-98647830D01*
X95478102Y-98846129D01*
X95477458Y-98852254D01*
X95477458Y-98852255D01*
X95459622Y-99021961D01*
X95456404Y-99052575D01*
X95475218Y-99259303D01*
X95476956Y-99265209D01*
X95476957Y-99265213D01*
X95494602Y-99325164D01*
X95533827Y-99458440D01*
X95629999Y-99642400D01*
X95760071Y-99804177D01*
X95764788Y-99808135D01*
X95764790Y-99808137D01*
X95868681Y-99895312D01*
X95919089Y-99937609D01*
X95924481Y-99940573D01*
X95924485Y-99940576D01*
X96038636Y-100003331D01*
X96100995Y-100037613D01*
X96245267Y-100083378D01*
X96246906Y-100083898D01*
X96305790Y-100123561D01*
X96333883Y-100188763D01*
X96322266Y-100258803D01*
X96274626Y-100311443D01*
X96208808Y-100330000D01*
X90479210Y-100330000D01*
X90411089Y-100309998D01*
X90364596Y-100256342D01*
X90354492Y-100186068D01*
X90383986Y-100121488D01*
X90442793Y-100083378D01*
X90569407Y-100045152D01*
X90569410Y-100045151D01*
X90575315Y-100043368D01*
X90582635Y-100039476D01*
X90753153Y-99948809D01*
X90753155Y-99948808D01*
X90758599Y-99945913D01*
X90891624Y-99837421D01*
X90914689Y-99818610D01*
X90914692Y-99818607D01*
X90919464Y-99814715D01*
X91051783Y-99654770D01*
X91055876Y-99647201D01*
X91147584Y-99477590D01*
X91147586Y-99477585D01*
X91150514Y-99472170D01*
X91211898Y-99273871D01*
X91213429Y-99259303D01*
X91232952Y-99073554D01*
X91232952Y-99073552D01*
X91233596Y-99067425D01*
X91225777Y-98981515D01*
X91215341Y-98866836D01*
X91215340Y-98866833D01*
X91214782Y-98860697D01*
X91212298Y-98852255D01*
X91167495Y-98700029D01*
X91156173Y-98661560D01*
X91060001Y-98477600D01*
X90929929Y-98315823D01*
X90925209Y-98311862D01*
X90793688Y-98201503D01*
X90754361Y-98142393D01*
X90753235Y-98071405D01*
X90790666Y-98011078D01*
X90826461Y-97988572D01*
X90897700Y-97959064D01*
X90906494Y-97954583D01*
X91101167Y-97835287D01*
X91110627Y-97824830D01*
X91106844Y-97816054D01*
X89899885Y-96609095D01*
X89865859Y-96546783D01*
X89867694Y-96521132D01*
X90534408Y-96521132D01*
X90534539Y-96522965D01*
X90538790Y-96529580D01*
X91463010Y-97453800D01*
X91475390Y-97460560D01*
X91483040Y-97454833D01*
X91604583Y-97256494D01*
X91609064Y-97247700D01*
X91702134Y-97023009D01*
X91705183Y-97013624D01*
X91761959Y-96777137D01*
X91763502Y-96767390D01*
X91782584Y-96524930D01*
X91782584Y-96515070D01*
X91763502Y-96272610D01*
X91761959Y-96262863D01*
X91758363Y-96247885D01*
X94912000Y-96247885D01*
X94916475Y-96263124D01*
X94917865Y-96264329D01*
X94925548Y-96266000D01*
X96247885Y-96266000D01*
X96263124Y-96261525D01*
X96264329Y-96260135D01*
X96266000Y-96252452D01*
X96266000Y-94930116D01*
X96261525Y-94914877D01*
X96260135Y-94913672D01*
X96252452Y-94912001D01*
X95375331Y-94912001D01*
X95368510Y-94912371D01*
X95317648Y-94917895D01*
X95302396Y-94921521D01*
X95181946Y-94966676D01*
X95166351Y-94975214D01*
X95064276Y-95051715D01*
X95051715Y-95064276D01*
X94975214Y-95166351D01*
X94966676Y-95181946D01*
X94921522Y-95302394D01*
X94917895Y-95317649D01*
X94912369Y-95368514D01*
X94912000Y-95375328D01*
X94912000Y-96247885D01*
X91758363Y-96247885D01*
X91705183Y-96026376D01*
X91702134Y-96016991D01*
X91609064Y-95792300D01*
X91604583Y-95783506D01*
X91485287Y-95588833D01*
X91474830Y-95579373D01*
X91466054Y-95583156D01*
X90542022Y-96507188D01*
X90534408Y-96521132D01*
X89867694Y-96521132D01*
X89870924Y-96475968D01*
X89899885Y-96430905D01*
X91103800Y-95226990D01*
X91110560Y-95214610D01*
X91104833Y-95206960D01*
X90906494Y-95085417D01*
X90897700Y-95080936D01*
X90673009Y-94987866D01*
X90663624Y-94984817D01*
X90427137Y-94928041D01*
X90417390Y-94926498D01*
X90174930Y-94907416D01*
X90165070Y-94907416D01*
X89922610Y-94926498D01*
X89912863Y-94928041D01*
X89676376Y-94984817D01*
X89666991Y-94987866D01*
X89442300Y-95080936D01*
X89433506Y-95085417D01*
X89312915Y-95159315D01*
X89244381Y-95177853D01*
X89176704Y-95156396D01*
X89146254Y-95127447D01*
X89098643Y-95063920D01*
X89098642Y-95063919D01*
X89093261Y-95056739D01*
X88976705Y-94969385D01*
X88840316Y-94918255D01*
X88778134Y-94911500D01*
X86481866Y-94911500D01*
X86419684Y-94918255D01*
X86283295Y-94969385D01*
X86166739Y-95056739D01*
X86079385Y-95173295D01*
X86028255Y-95309684D01*
X86021500Y-95371866D01*
X86021500Y-97668134D01*
X86028255Y-97730316D01*
X86079385Y-97866705D01*
X86166739Y-97983261D01*
X86283295Y-98070615D01*
X86419684Y-98121745D01*
X86481866Y-98128500D01*
X86759022Y-98128500D01*
X86827143Y-98148502D01*
X86873636Y-98202158D01*
X86883740Y-98272432D01*
X86856106Y-98334815D01*
X86748217Y-98465230D01*
X86745288Y-98470647D01*
X86745286Y-98470650D01*
X86652416Y-98642410D01*
X86652414Y-98642415D01*
X86649486Y-98647830D01*
X86588102Y-98846129D01*
X86587458Y-98852254D01*
X86587458Y-98852255D01*
X86569622Y-99021961D01*
X86566404Y-99052575D01*
X86585218Y-99259303D01*
X86586956Y-99265209D01*
X86586957Y-99265213D01*
X86604602Y-99325164D01*
X86643827Y-99458440D01*
X86739999Y-99642400D01*
X86870071Y-99804177D01*
X86874788Y-99808135D01*
X86874790Y-99808137D01*
X86978681Y-99895312D01*
X87029089Y-99937609D01*
X87034481Y-99940573D01*
X87034485Y-99940576D01*
X87148636Y-100003331D01*
X87210995Y-100037613D01*
X87355267Y-100083378D01*
X87356906Y-100083898D01*
X87415790Y-100123561D01*
X87443883Y-100188763D01*
X87432266Y-100258803D01*
X87384626Y-100311443D01*
X87318808Y-100330000D01*
X79806495Y-100330000D01*
X79738374Y-100309998D01*
X79691881Y-100256342D01*
X79681777Y-100186068D01*
X79711271Y-100121488D01*
X79773884Y-100082293D01*
X79798303Y-100075750D01*
X79887562Y-100051833D01*
X79917159Y-100040472D01*
X80155948Y-99948809D01*
X80250453Y-99912532D01*
X80397867Y-99837421D01*
X80593854Y-99737561D01*
X80593861Y-99737557D01*
X80596795Y-99736062D01*
X80733630Y-99647201D01*
X80920029Y-99526152D01*
X80920030Y-99526152D01*
X80922793Y-99524357D01*
X81224876Y-99279734D01*
X81499734Y-99004876D01*
X81562374Y-98927523D01*
X81668719Y-98796198D01*
X81744357Y-98702793D01*
X81816923Y-98591051D01*
X81954264Y-98379563D01*
X81954266Y-98379560D01*
X81956062Y-98376794D01*
X81978402Y-98332951D01*
X82131034Y-98033393D01*
X82132532Y-98030453D01*
X82250801Y-97722352D01*
X82270647Y-97670652D01*
X82270648Y-97670650D01*
X82271833Y-97667562D01*
X82372438Y-97292099D01*
X82416545Y-97013624D01*
X82432732Y-96911424D01*
X82432733Y-96911416D01*
X82433246Y-96908176D01*
X82453589Y-96520000D01*
X82433246Y-96131824D01*
X82426073Y-96086531D01*
X82404732Y-95951793D01*
X82372438Y-95747901D01*
X82271833Y-95372438D01*
X82270310Y-95368469D01*
X82195389Y-95173295D01*
X82132532Y-95009547D01*
X82131034Y-95006607D01*
X81957561Y-94666147D01*
X81957557Y-94666140D01*
X81956062Y-94663206D01*
X81904131Y-94583238D01*
X81746152Y-94339971D01*
X81746152Y-94339970D01*
X81744357Y-94337207D01*
X81531531Y-94074390D01*
X81501809Y-94037686D01*
X81501806Y-94037682D01*
X81499734Y-94035124D01*
X81224876Y-93760266D01*
X81221329Y-93757393D01*
X80925355Y-93517718D01*
X80922793Y-93515643D01*
X80920029Y-93513848D01*
X80599564Y-93305736D01*
X80599561Y-93305734D01*
X80596795Y-93303938D01*
X80593861Y-93302443D01*
X80593854Y-93302439D01*
X80253393Y-93128966D01*
X80250453Y-93127468D01*
X79887562Y-92988167D01*
X79512099Y-92887562D01*
X79289150Y-92852250D01*
X79131424Y-92827268D01*
X79131416Y-92827267D01*
X79128176Y-92826754D01*
X78740000Y-92806411D01*
X78351824Y-92826754D01*
X78348584Y-92827267D01*
X78348576Y-92827268D01*
X78190850Y-92852250D01*
X77967901Y-92887562D01*
X77592438Y-92988167D01*
X77229547Y-93127468D01*
X77226607Y-93128966D01*
X76886147Y-93302439D01*
X76886140Y-93302443D01*
X76883206Y-93303938D01*
X76557207Y-93515643D01*
X76554645Y-93517718D01*
X76258672Y-93757393D01*
X76255124Y-93760266D01*
X75980266Y-94035124D01*
X75978194Y-94037682D01*
X75978191Y-94037686D01*
X75948469Y-94074390D01*
X75735643Y-94337207D01*
X75733848Y-94339970D01*
X75733848Y-94339971D01*
X75575870Y-94583238D01*
X75523938Y-94663206D01*
X75522443Y-94666140D01*
X75522439Y-94666147D01*
X75348966Y-95006607D01*
X75347468Y-95009547D01*
X75284611Y-95173295D01*
X75209691Y-95368469D01*
X75208167Y-95372438D01*
X75186445Y-95453505D01*
X75177707Y-95486116D01*
X75140755Y-95546739D01*
X75076895Y-95577760D01*
X75006400Y-95569332D01*
X74951653Y-95524129D01*
X74930000Y-95453505D01*
X74930000Y-85978134D01*
X85001500Y-85978134D01*
X85008255Y-86040316D01*
X85059385Y-86176705D01*
X85146739Y-86293261D01*
X85263295Y-86380615D01*
X85399684Y-86431745D01*
X85461866Y-86438500D01*
X87258134Y-86438500D01*
X87320316Y-86431745D01*
X87456705Y-86380615D01*
X87573261Y-86293261D01*
X87660615Y-86176705D01*
X87711745Y-86040316D01*
X87718500Y-85978134D01*
X87718500Y-84181866D01*
X87711745Y-84119684D01*
X87660615Y-83983295D01*
X87573261Y-83866739D01*
X87456705Y-83779385D01*
X87337687Y-83734767D01*
X87280923Y-83692125D01*
X87256223Y-83625564D01*
X87271430Y-83556215D01*
X87292977Y-83527535D01*
X87394052Y-83426812D01*
X87400730Y-83418965D01*
X87525003Y-83246020D01*
X87530313Y-83237183D01*
X87624670Y-83046267D01*
X87628469Y-83036672D01*
X87690377Y-82832910D01*
X87692555Y-82822837D01*
X87693986Y-82811962D01*
X87691775Y-82797778D01*
X87678617Y-82794000D01*
X85043225Y-82794000D01*
X85029694Y-82797973D01*
X85028257Y-82807966D01*
X85058565Y-82942446D01*
X85061645Y-82952275D01*
X85141770Y-83149603D01*
X85146413Y-83158794D01*
X85257694Y-83340388D01*
X85263777Y-83348699D01*
X85403213Y-83509667D01*
X85410577Y-83516879D01*
X85415522Y-83520985D01*
X85455156Y-83579889D01*
X85456653Y-83650870D01*
X85419537Y-83711392D01*
X85379264Y-83735910D01*
X85271705Y-83776232D01*
X85271704Y-83776233D01*
X85263295Y-83779385D01*
X85146739Y-83866739D01*
X85059385Y-83983295D01*
X85008255Y-84119684D01*
X85001500Y-84181866D01*
X85001500Y-85978134D01*
X74930000Y-85978134D01*
X74930000Y-79966695D01*
X84997251Y-79966695D01*
X84997548Y-79971848D01*
X84997548Y-79971851D01*
X85003011Y-80066590D01*
X85010110Y-80189715D01*
X85011247Y-80194761D01*
X85011248Y-80194767D01*
X85028062Y-80269373D01*
X85059222Y-80407639D01*
X85143266Y-80614616D01*
X85145965Y-80619020D01*
X85233441Y-80761768D01*
X85259987Y-80805088D01*
X85406250Y-80973938D01*
X85578126Y-81116632D01*
X85609301Y-81134849D01*
X85651955Y-81159774D01*
X85700679Y-81211412D01*
X85713750Y-81281195D01*
X85687019Y-81346967D01*
X85646562Y-81380327D01*
X85638457Y-81384546D01*
X85629738Y-81390036D01*
X85459433Y-81517905D01*
X85451726Y-81524748D01*
X85304590Y-81678717D01*
X85298104Y-81686727D01*
X85178098Y-81862649D01*
X85173000Y-81871623D01*
X85083338Y-82064783D01*
X85079775Y-82074470D01*
X85024389Y-82274183D01*
X85025912Y-82282607D01*
X85038292Y-82286000D01*
X87678344Y-82286000D01*
X87691875Y-82282027D01*
X87693180Y-82272947D01*
X87651214Y-82105875D01*
X87647894Y-82096124D01*
X87562972Y-81900814D01*
X87558105Y-81891739D01*
X87442426Y-81712926D01*
X87436136Y-81704757D01*
X87292806Y-81547240D01*
X87285273Y-81540215D01*
X87118139Y-81408222D01*
X87109556Y-81402520D01*
X87072602Y-81382120D01*
X87022631Y-81331687D01*
X87007859Y-81262245D01*
X87032975Y-81195839D01*
X87060327Y-81169232D01*
X87116217Y-81129366D01*
X87239860Y-81041173D01*
X87398096Y-80883489D01*
X87447810Y-80814305D01*
X87525435Y-80706277D01*
X87528453Y-80702077D01*
X87553327Y-80651749D01*
X87625136Y-80506453D01*
X87625137Y-80506451D01*
X87627430Y-80501811D01*
X87692370Y-80288069D01*
X87721529Y-80066590D01*
X87722325Y-80034022D01*
X87723074Y-80003365D01*
X87723074Y-80003361D01*
X87723156Y-80000000D01*
X87704852Y-79777361D01*
X87650431Y-79560702D01*
X87561354Y-79355840D01*
X87453578Y-79189243D01*
X87442822Y-79172617D01*
X87442820Y-79172614D01*
X87440014Y-79168277D01*
X87289670Y-79003051D01*
X87285619Y-78999852D01*
X87285615Y-78999848D01*
X87118414Y-78867800D01*
X87118410Y-78867798D01*
X87114359Y-78864598D01*
X87073053Y-78841796D01*
X87023084Y-78791364D01*
X87008312Y-78721921D01*
X87033428Y-78655516D01*
X87060780Y-78628909D01*
X87116827Y-78588931D01*
X87239860Y-78501173D01*
X87398096Y-78343489D01*
X87439568Y-78285775D01*
X87525435Y-78166277D01*
X87528453Y-78162077D01*
X87553327Y-78111749D01*
X87625136Y-77966453D01*
X87625137Y-77966451D01*
X87627430Y-77961811D01*
X87688206Y-77761775D01*
X87690865Y-77753023D01*
X87690865Y-77753021D01*
X87692370Y-77748069D01*
X87721529Y-77526590D01*
X87721611Y-77523240D01*
X87723074Y-77463365D01*
X87723074Y-77463361D01*
X87723156Y-77460000D01*
X87704852Y-77237361D01*
X87650431Y-77020702D01*
X87561354Y-76815840D01*
X87440014Y-76628277D01*
X87289670Y-76463051D01*
X87285619Y-76459852D01*
X87285615Y-76459848D01*
X87118414Y-76327800D01*
X87118410Y-76327798D01*
X87114359Y-76324598D01*
X87107967Y-76321069D01*
X87024345Y-76274908D01*
X86918789Y-76216638D01*
X86913920Y-76214914D01*
X86913916Y-76214912D01*
X86713087Y-76143795D01*
X86713083Y-76143794D01*
X86708212Y-76142069D01*
X86703119Y-76141162D01*
X86703116Y-76141161D01*
X86493373Y-76103800D01*
X86493367Y-76103799D01*
X86488284Y-76102894D01*
X86414452Y-76101992D01*
X86270081Y-76100228D01*
X86270079Y-76100228D01*
X86264911Y-76100165D01*
X86044091Y-76133955D01*
X85831756Y-76203357D01*
X85789802Y-76225197D01*
X85645262Y-76300440D01*
X85633607Y-76306507D01*
X85629474Y-76309610D01*
X85629471Y-76309612D01*
X85512526Y-76397417D01*
X85454965Y-76440635D01*
X85300629Y-76602138D01*
X85297715Y-76606410D01*
X85297714Y-76606411D01*
X85285404Y-76624457D01*
X85174743Y-76786680D01*
X85159003Y-76820590D01*
X85083382Y-76983502D01*
X85080688Y-76989305D01*
X85020989Y-77204570D01*
X84997251Y-77426695D01*
X84997548Y-77431848D01*
X84997548Y-77431851D01*
X85008232Y-77617143D01*
X85010110Y-77649715D01*
X85011247Y-77654761D01*
X85011248Y-77654767D01*
X85027414Y-77726497D01*
X85059222Y-77867639D01*
X85143266Y-78074616D01*
X85145965Y-78079020D01*
X85254667Y-78256406D01*
X85259987Y-78265088D01*
X85406250Y-78433938D01*
X85578126Y-78576632D01*
X85609301Y-78594849D01*
X85651445Y-78619476D01*
X85700169Y-78671114D01*
X85713240Y-78740897D01*
X85686509Y-78806669D01*
X85646055Y-78840027D01*
X85633607Y-78846507D01*
X85629474Y-78849610D01*
X85629471Y-78849612D01*
X85509396Y-78939767D01*
X85454965Y-78980635D01*
X85300629Y-79142138D01*
X85174743Y-79326680D01*
X85140126Y-79401257D01*
X85099122Y-79489593D01*
X85080688Y-79529305D01*
X85020989Y-79744570D01*
X84997251Y-79966695D01*
X74930000Y-79966695D01*
X74930000Y-56946495D01*
X74950002Y-56878374D01*
X75003658Y-56831881D01*
X75073932Y-56821777D01*
X75138512Y-56851271D01*
X75177707Y-56913884D01*
X75208167Y-57027562D01*
X75209352Y-57030650D01*
X75209353Y-57030652D01*
X75220909Y-57060755D01*
X75347468Y-57390453D01*
X75348966Y-57393393D01*
X75451106Y-57593853D01*
X75523938Y-57736794D01*
X75525734Y-57739560D01*
X75525736Y-57739563D01*
X75644726Y-57922793D01*
X75735643Y-58062793D01*
X75980266Y-58364876D01*
X76255124Y-58639734D01*
X76557207Y-58884357D01*
X76559970Y-58886152D01*
X76559971Y-58886152D01*
X76669932Y-58957561D01*
X76883205Y-59096062D01*
X76886139Y-59097557D01*
X76886146Y-59097561D01*
X77225847Y-59270647D01*
X77229547Y-59272532D01*
X77592438Y-59411833D01*
X77967901Y-59512438D01*
X78171793Y-59544732D01*
X78348576Y-59572732D01*
X78348584Y-59572733D01*
X78351824Y-59573246D01*
X78740000Y-59593589D01*
X79128176Y-59573246D01*
X79131416Y-59572733D01*
X79131424Y-59572732D01*
X79308207Y-59544732D01*
X79512099Y-59512438D01*
X79887562Y-59411833D01*
X80250453Y-59272532D01*
X80254153Y-59270647D01*
X80593854Y-59097561D01*
X80593861Y-59097557D01*
X80596795Y-59096062D01*
X80810069Y-58957561D01*
X80920029Y-58886152D01*
X80920030Y-58886152D01*
X80922793Y-58884357D01*
X81224876Y-58639734D01*
X81499734Y-58364876D01*
X81744357Y-58062793D01*
X81835274Y-57922793D01*
X81954264Y-57739563D01*
X81954266Y-57739560D01*
X81956062Y-57736794D01*
X82028895Y-57593853D01*
X82131034Y-57393393D01*
X82132532Y-57390453D01*
X82259091Y-57060755D01*
X82270647Y-57030652D01*
X82270648Y-57030650D01*
X82271833Y-57027562D01*
X82372438Y-56652099D01*
X82433246Y-56268176D01*
X82453589Y-55880000D01*
X82433246Y-55491824D01*
X82425005Y-55439789D01*
X82396013Y-55256749D01*
X82372438Y-55107901D01*
X82271833Y-54732438D01*
X82132532Y-54369547D01*
X82059700Y-54226607D01*
X81957561Y-54026147D01*
X81957557Y-54026140D01*
X81956062Y-54023206D01*
X81929600Y-53982457D01*
X81746152Y-53699971D01*
X81746152Y-53699970D01*
X81744357Y-53697207D01*
X81566969Y-53478152D01*
X81501809Y-53397686D01*
X81501806Y-53397682D01*
X81499734Y-53395124D01*
X81224876Y-53120266D01*
X80922793Y-52875643D01*
X80710407Y-52737718D01*
X80599564Y-52665736D01*
X80599561Y-52665734D01*
X80596795Y-52663938D01*
X80593861Y-52662443D01*
X80593854Y-52662439D01*
X80253393Y-52488966D01*
X80250453Y-52487468D01*
X79887562Y-52348167D01*
X79773884Y-52317707D01*
X79713261Y-52280755D01*
X79682240Y-52216895D01*
X79690668Y-52146400D01*
X79735871Y-52091653D01*
X79806495Y-52070000D01*
X133152541Y-52070000D01*
X133220662Y-52090002D01*
G37*
%TD.AperFunction*%
%TD*%
M02*
