%TF.GenerationSoftware,KiCad,Pcbnew,(6.0.7)*%
%TF.CreationDate,2023-06-21T14:44:01+08:00*%
%TF.ProjectId,Elevator_Indicator,456c6576-6174-46f7-925f-496e64696361,rev?*%
%TF.SameCoordinates,Original*%
%TF.FileFunction,Drillmap*%
%TF.FilePolarity,Positive*%
%FSLAX45Y45*%
G04 Gerber Fmt 4.5, Leading zero omitted, Abs format (unit mm)*
G04 Created by KiCad (PCBNEW (6.0.7)) date 2023-06-21 14:44:01*
%MOMM*%
%LPD*%
G01*
G04 APERTURE LIST*
%ADD10C,0.100000*%
%ADD11C,0.200000*%
%ADD12C,0.110000*%
G04 APERTURE END LIST*
D10*
X13970000Y-5334000D02*
X13970000Y-9906000D01*
X7366000Y-9906000D02*
G75*
G03*
X7620000Y-10160000I254000J0D01*
G01*
X13716000Y-10160000D02*
X7620000Y-10160000D01*
X7620000Y-5080000D02*
X13716000Y-5080000D01*
X7620000Y-5080000D02*
G75*
G03*
X7366000Y-5334000I0J-254000D01*
G01*
X13716000Y-10160000D02*
G75*
G03*
X13970000Y-9906000I0J254000D01*
G01*
X7366000Y-9906000D02*
X7366000Y-5334000D01*
X13970000Y-5334000D02*
G75*
G03*
X13716000Y-5080000I-254000J0D01*
G01*
D11*
D12*
X8708000Y-9851000D02*
X8818000Y-9961000D01*
X8818000Y-9851000D02*
X8708000Y-9961000D01*
X8962000Y-9851000D02*
X9072000Y-9961000D01*
X9072000Y-9851000D02*
X8962000Y-9961000D01*
X9597000Y-9851000D02*
X9707000Y-9961000D01*
X9707000Y-9851000D02*
X9597000Y-9961000D01*
X9851000Y-9851000D02*
X9961000Y-9961000D01*
X9961000Y-9851000D02*
X9851000Y-9961000D01*
D11*
X7618619Y-10475476D02*
X7618619Y-10275476D01*
X7666238Y-10275476D01*
X7694809Y-10285000D01*
X7713857Y-10304048D01*
X7723381Y-10323095D01*
X7732905Y-10361190D01*
X7732905Y-10389762D01*
X7723381Y-10427857D01*
X7713857Y-10446905D01*
X7694809Y-10465952D01*
X7666238Y-10475476D01*
X7618619Y-10475476D01*
X7818619Y-10475476D02*
X7818619Y-10342143D01*
X7818619Y-10380238D02*
X7828143Y-10361190D01*
X7837667Y-10351667D01*
X7856714Y-10342143D01*
X7875762Y-10342143D01*
X7942428Y-10475476D02*
X7942428Y-10342143D01*
X7942428Y-10275476D02*
X7932905Y-10285000D01*
X7942428Y-10294524D01*
X7951952Y-10285000D01*
X7942428Y-10275476D01*
X7942428Y-10294524D01*
X8066238Y-10475476D02*
X8047190Y-10465952D01*
X8037667Y-10446905D01*
X8037667Y-10275476D01*
X8171000Y-10475476D02*
X8151952Y-10465952D01*
X8142428Y-10446905D01*
X8142428Y-10275476D01*
X8399571Y-10475476D02*
X8399571Y-10275476D01*
X8466238Y-10418333D01*
X8532905Y-10275476D01*
X8532905Y-10475476D01*
X8713857Y-10475476D02*
X8713857Y-10370714D01*
X8704333Y-10351667D01*
X8685286Y-10342143D01*
X8647190Y-10342143D01*
X8628143Y-10351667D01*
X8713857Y-10465952D02*
X8694810Y-10475476D01*
X8647190Y-10475476D01*
X8628143Y-10465952D01*
X8618619Y-10446905D01*
X8618619Y-10427857D01*
X8628143Y-10408810D01*
X8647190Y-10399286D01*
X8694810Y-10399286D01*
X8713857Y-10389762D01*
X8809095Y-10342143D02*
X8809095Y-10542143D01*
X8809095Y-10351667D02*
X8828143Y-10342143D01*
X8866238Y-10342143D01*
X8885286Y-10351667D01*
X8894810Y-10361190D01*
X8904333Y-10380238D01*
X8904333Y-10437381D01*
X8894810Y-10456429D01*
X8885286Y-10465952D01*
X8866238Y-10475476D01*
X8828143Y-10475476D01*
X8809095Y-10465952D01*
X8990048Y-10456429D02*
X8999571Y-10465952D01*
X8990048Y-10475476D01*
X8980524Y-10465952D01*
X8990048Y-10456429D01*
X8990048Y-10475476D01*
X8990048Y-10351667D02*
X8999571Y-10361190D01*
X8990048Y-10370714D01*
X8980524Y-10361190D01*
X8990048Y-10351667D01*
X8990048Y-10370714D01*
D12*
X7251000Y-10750000D02*
X7361000Y-10860000D01*
X7361000Y-10750000D02*
X7251000Y-10860000D01*
D11*
X7723381Y-10895476D02*
X7609095Y-10895476D01*
X7666238Y-10895476D02*
X7666238Y-10695476D01*
X7647190Y-10724048D01*
X7628143Y-10743095D01*
X7609095Y-10752619D01*
X7809095Y-10876429D02*
X7818619Y-10885952D01*
X7809095Y-10895476D01*
X7799571Y-10885952D01*
X7809095Y-10876429D01*
X7809095Y-10895476D01*
X8009095Y-10895476D02*
X7894809Y-10895476D01*
X7951952Y-10895476D02*
X7951952Y-10695476D01*
X7932905Y-10724048D01*
X7913857Y-10743095D01*
X7894809Y-10752619D01*
X8132905Y-10695476D02*
X8151952Y-10695476D01*
X8171000Y-10705000D01*
X8180524Y-10714524D01*
X8190048Y-10733571D01*
X8199571Y-10771667D01*
X8199571Y-10819286D01*
X8190048Y-10857381D01*
X8180524Y-10876429D01*
X8171000Y-10885952D01*
X8151952Y-10895476D01*
X8132905Y-10895476D01*
X8113857Y-10885952D01*
X8104333Y-10876429D01*
X8094809Y-10857381D01*
X8085286Y-10819286D01*
X8085286Y-10771667D01*
X8094809Y-10733571D01*
X8104333Y-10714524D01*
X8113857Y-10705000D01*
X8132905Y-10695476D01*
X8323381Y-10695476D02*
X8342428Y-10695476D01*
X8361476Y-10705000D01*
X8371000Y-10714524D01*
X8380524Y-10733571D01*
X8390048Y-10771667D01*
X8390048Y-10819286D01*
X8380524Y-10857381D01*
X8371000Y-10876429D01*
X8361476Y-10885952D01*
X8342428Y-10895476D01*
X8323381Y-10895476D01*
X8304333Y-10885952D01*
X8294809Y-10876429D01*
X8285286Y-10857381D01*
X8275762Y-10819286D01*
X8275762Y-10771667D01*
X8285286Y-10733571D01*
X8294809Y-10714524D01*
X8304333Y-10705000D01*
X8323381Y-10695476D01*
X8475762Y-10895476D02*
X8475762Y-10762143D01*
X8475762Y-10781190D02*
X8485286Y-10771667D01*
X8504333Y-10762143D01*
X8532905Y-10762143D01*
X8551952Y-10771667D01*
X8561476Y-10790714D01*
X8561476Y-10895476D01*
X8561476Y-10790714D02*
X8571000Y-10771667D01*
X8590048Y-10762143D01*
X8618619Y-10762143D01*
X8637667Y-10771667D01*
X8647190Y-10790714D01*
X8647190Y-10895476D01*
X8742429Y-10895476D02*
X8742429Y-10762143D01*
X8742429Y-10781190D02*
X8751952Y-10771667D01*
X8771000Y-10762143D01*
X8799571Y-10762143D01*
X8818619Y-10771667D01*
X8828143Y-10790714D01*
X8828143Y-10895476D01*
X8828143Y-10790714D02*
X8837667Y-10771667D01*
X8856714Y-10762143D01*
X8885286Y-10762143D01*
X8904333Y-10771667D01*
X8913857Y-10790714D01*
X8913857Y-10895476D01*
X9304333Y-10685952D02*
X9132905Y-10943095D01*
X9561476Y-10695476D02*
X9580524Y-10695476D01*
X9599571Y-10705000D01*
X9609095Y-10714524D01*
X9618619Y-10733571D01*
X9628143Y-10771667D01*
X9628143Y-10819286D01*
X9618619Y-10857381D01*
X9609095Y-10876429D01*
X9599571Y-10885952D01*
X9580524Y-10895476D01*
X9561476Y-10895476D01*
X9542429Y-10885952D01*
X9532905Y-10876429D01*
X9523381Y-10857381D01*
X9513857Y-10819286D01*
X9513857Y-10771667D01*
X9523381Y-10733571D01*
X9532905Y-10714524D01*
X9542429Y-10705000D01*
X9561476Y-10695476D01*
X9713857Y-10876429D02*
X9723381Y-10885952D01*
X9713857Y-10895476D01*
X9704333Y-10885952D01*
X9713857Y-10876429D01*
X9713857Y-10895476D01*
X9847190Y-10695476D02*
X9866238Y-10695476D01*
X9885286Y-10705000D01*
X9894810Y-10714524D01*
X9904333Y-10733571D01*
X9913857Y-10771667D01*
X9913857Y-10819286D01*
X9904333Y-10857381D01*
X9894810Y-10876429D01*
X9885286Y-10885952D01*
X9866238Y-10895476D01*
X9847190Y-10895476D01*
X9828143Y-10885952D01*
X9818619Y-10876429D01*
X9809095Y-10857381D01*
X9799571Y-10819286D01*
X9799571Y-10771667D01*
X9809095Y-10733571D01*
X9818619Y-10714524D01*
X9828143Y-10705000D01*
X9847190Y-10695476D01*
X10085286Y-10762143D02*
X10085286Y-10895476D01*
X10037667Y-10685952D02*
X9990048Y-10828810D01*
X10113857Y-10828810D01*
X10171000Y-10695476D02*
X10294810Y-10695476D01*
X10228143Y-10771667D01*
X10256714Y-10771667D01*
X10275762Y-10781190D01*
X10285286Y-10790714D01*
X10294810Y-10809762D01*
X10294810Y-10857381D01*
X10285286Y-10876429D01*
X10275762Y-10885952D01*
X10256714Y-10895476D01*
X10199571Y-10895476D01*
X10180524Y-10885952D01*
X10171000Y-10876429D01*
X10361476Y-10695476D02*
X10485286Y-10695476D01*
X10418619Y-10771667D01*
X10447190Y-10771667D01*
X10466238Y-10781190D01*
X10475762Y-10790714D01*
X10485286Y-10809762D01*
X10485286Y-10857381D01*
X10475762Y-10876429D01*
X10466238Y-10885952D01*
X10447190Y-10895476D01*
X10390048Y-10895476D01*
X10371000Y-10885952D01*
X10361476Y-10876429D01*
X10561476Y-10695476D02*
X10561476Y-10733571D01*
X10637667Y-10695476D02*
X10637667Y-10733571D01*
X10932905Y-10971667D02*
X10923381Y-10962143D01*
X10904333Y-10933571D01*
X10894810Y-10914524D01*
X10885286Y-10885952D01*
X10875762Y-10838333D01*
X10875762Y-10800238D01*
X10885286Y-10752619D01*
X10894810Y-10724048D01*
X10904333Y-10705000D01*
X10923381Y-10676429D01*
X10932905Y-10666905D01*
X11094810Y-10762143D02*
X11094810Y-10895476D01*
X11047190Y-10685952D02*
X10999571Y-10828810D01*
X11123381Y-10828810D01*
X11351952Y-10895476D02*
X11351952Y-10695476D01*
X11437667Y-10895476D02*
X11437667Y-10790714D01*
X11428143Y-10771667D01*
X11409095Y-10762143D01*
X11380524Y-10762143D01*
X11361476Y-10771667D01*
X11351952Y-10781190D01*
X11561476Y-10895476D02*
X11542428Y-10885952D01*
X11532905Y-10876429D01*
X11523381Y-10857381D01*
X11523381Y-10800238D01*
X11532905Y-10781190D01*
X11542428Y-10771667D01*
X11561476Y-10762143D01*
X11590048Y-10762143D01*
X11609095Y-10771667D01*
X11618619Y-10781190D01*
X11628143Y-10800238D01*
X11628143Y-10857381D01*
X11618619Y-10876429D01*
X11609095Y-10885952D01*
X11590048Y-10895476D01*
X11561476Y-10895476D01*
X11742428Y-10895476D02*
X11723381Y-10885952D01*
X11713857Y-10866905D01*
X11713857Y-10695476D01*
X11894809Y-10885952D02*
X11875762Y-10895476D01*
X11837667Y-10895476D01*
X11818619Y-10885952D01*
X11809095Y-10866905D01*
X11809095Y-10790714D01*
X11818619Y-10771667D01*
X11837667Y-10762143D01*
X11875762Y-10762143D01*
X11894809Y-10771667D01*
X11904333Y-10790714D01*
X11904333Y-10809762D01*
X11809095Y-10828810D01*
X11980524Y-10885952D02*
X11999571Y-10895476D01*
X12037667Y-10895476D01*
X12056714Y-10885952D01*
X12066238Y-10866905D01*
X12066238Y-10857381D01*
X12056714Y-10838333D01*
X12037667Y-10828810D01*
X12009095Y-10828810D01*
X11990048Y-10819286D01*
X11980524Y-10800238D01*
X11980524Y-10790714D01*
X11990048Y-10771667D01*
X12009095Y-10762143D01*
X12037667Y-10762143D01*
X12056714Y-10771667D01*
X12132905Y-10971667D02*
X12142428Y-10962143D01*
X12161476Y-10933571D01*
X12171000Y-10914524D01*
X12180524Y-10885952D01*
X12190048Y-10838333D01*
X12190048Y-10800238D01*
X12180524Y-10752619D01*
X12171000Y-10724048D01*
X12161476Y-10705000D01*
X12142428Y-10676429D01*
X12132905Y-10666905D01*
X12494809Y-10971667D02*
X12485286Y-10962143D01*
X12466238Y-10933571D01*
X12456714Y-10914524D01*
X12447190Y-10885952D01*
X12437667Y-10838333D01*
X12437667Y-10800238D01*
X12447190Y-10752619D01*
X12456714Y-10724048D01*
X12466238Y-10705000D01*
X12485286Y-10676429D01*
X12494809Y-10666905D01*
X12571000Y-10762143D02*
X12571000Y-10895476D01*
X12571000Y-10781190D02*
X12580524Y-10771667D01*
X12599571Y-10762143D01*
X12628143Y-10762143D01*
X12647190Y-10771667D01*
X12656714Y-10790714D01*
X12656714Y-10895476D01*
X12780524Y-10895476D02*
X12761476Y-10885952D01*
X12751952Y-10876429D01*
X12742428Y-10857381D01*
X12742428Y-10800238D01*
X12751952Y-10781190D01*
X12761476Y-10771667D01*
X12780524Y-10762143D01*
X12809095Y-10762143D01*
X12828143Y-10771667D01*
X12837667Y-10781190D01*
X12847190Y-10800238D01*
X12847190Y-10857381D01*
X12837667Y-10876429D01*
X12828143Y-10885952D01*
X12809095Y-10895476D01*
X12780524Y-10895476D01*
X12904333Y-10762143D02*
X12980524Y-10762143D01*
X12932905Y-10695476D02*
X12932905Y-10866905D01*
X12942428Y-10885952D01*
X12961476Y-10895476D01*
X12980524Y-10895476D01*
X13199571Y-10762143D02*
X13199571Y-10962143D01*
X13199571Y-10771667D02*
X13218619Y-10762143D01*
X13256714Y-10762143D01*
X13275762Y-10771667D01*
X13285286Y-10781190D01*
X13294809Y-10800238D01*
X13294809Y-10857381D01*
X13285286Y-10876429D01*
X13275762Y-10885952D01*
X13256714Y-10895476D01*
X13218619Y-10895476D01*
X13199571Y-10885952D01*
X13409095Y-10895476D02*
X13390048Y-10885952D01*
X13380524Y-10866905D01*
X13380524Y-10695476D01*
X13571000Y-10895476D02*
X13571000Y-10790714D01*
X13561476Y-10771667D01*
X13542428Y-10762143D01*
X13504333Y-10762143D01*
X13485286Y-10771667D01*
X13571000Y-10885952D02*
X13551952Y-10895476D01*
X13504333Y-10895476D01*
X13485286Y-10885952D01*
X13475762Y-10866905D01*
X13475762Y-10847857D01*
X13485286Y-10828810D01*
X13504333Y-10819286D01*
X13551952Y-10819286D01*
X13571000Y-10809762D01*
X13637667Y-10762143D02*
X13713857Y-10762143D01*
X13666238Y-10695476D02*
X13666238Y-10866905D01*
X13675762Y-10885952D01*
X13694809Y-10895476D01*
X13713857Y-10895476D01*
X13856714Y-10885952D02*
X13837667Y-10895476D01*
X13799571Y-10895476D01*
X13780524Y-10885952D01*
X13771000Y-10866905D01*
X13771000Y-10790714D01*
X13780524Y-10771667D01*
X13799571Y-10762143D01*
X13837667Y-10762143D01*
X13856714Y-10771667D01*
X13866238Y-10790714D01*
X13866238Y-10809762D01*
X13771000Y-10828810D01*
X14037667Y-10895476D02*
X14037667Y-10695476D01*
X14037667Y-10885952D02*
X14018619Y-10895476D01*
X13980524Y-10895476D01*
X13961476Y-10885952D01*
X13951952Y-10876429D01*
X13942428Y-10857381D01*
X13942428Y-10800238D01*
X13951952Y-10781190D01*
X13961476Y-10771667D01*
X13980524Y-10762143D01*
X14018619Y-10762143D01*
X14037667Y-10771667D01*
X14113857Y-10971667D02*
X14123381Y-10962143D01*
X14142428Y-10933571D01*
X14151952Y-10914524D01*
X14161476Y-10885952D01*
X14171000Y-10838333D01*
X14171000Y-10800238D01*
X14161476Y-10752619D01*
X14151952Y-10724048D01*
X14142428Y-10705000D01*
X14123381Y-10676429D01*
X14113857Y-10666905D01*
M02*
