M48
; DRILL file {KiCad (6.0.7)} date Wed Jun 21 14:44:00 2023
; FORMAT={-:-/ absolute / inch / decimal}
; #@! TF.CreationDate,2023-06-21T14:44:00+08:00
; #@! TF.GenerationSoftware,Kicad,Pcbnew,(6.0.7)
; #@! TF.FileFunction,Plated,1,2,PTH
FMAT,2
INCH
; #@! TA.AperFunction,Plated,PTH,ComponentDrill
T1C0.0197
; #@! TA.AperFunction,Plated,PTH,ComponentDrill
T2C0.0315
; #@! TA.AperFunction,Plated,PTH,ComponentDrill
T3C0.0394
; #@! TA.AperFunction,Plated,PTH,ComponentDrill
T4C0.0433
; #@! TA.AperFunction,Plated,PTH,ComponentDrill
T5C0.1260
%
G90
G05
T1
X3.0055Y-2.2
X3.0055Y-3.8
X3.0332Y-2.1332
X3.0332Y-2.2668
X3.0332Y-3.7332
X3.0332Y-3.8668
X3.1Y-2.1055
X3.1Y-2.2945
X3.1Y-3.7055
X3.1Y-3.8945
X3.1668Y-2.1332
X3.1668Y-2.2668
X3.1668Y-3.7332
X3.1668Y-3.8668
X3.1945Y-2.2
X3.1945Y-3.8
X5.2055Y-2.1945
X5.2055Y-3.8
X5.2332Y-2.1277
X5.2332Y-2.2613
X5.2332Y-3.7332
X5.2332Y-3.8668
X5.3Y-2.1
X5.3Y-2.289
X5.3Y-3.7055
X5.3Y-3.8945
X5.3668Y-2.1277
X5.3668Y-2.2613
X5.3668Y-3.7332
X5.3668Y-3.8668
X5.3945Y-2.1945
X5.3945Y-3.8
T2
X4.15Y-2.95
X4.15Y-3.1
X4.15Y-3.25
X4.15Y-3.4
X4.15Y-3.55
X4.15Y-3.7
X4.15Y-3.85
X4.55Y-2.95
X4.55Y-3.1
X4.55Y-3.25
X4.55Y-3.4
X4.55Y-3.55
X4.55Y-3.7
X4.55Y-3.85
X4.7506Y-3.0494
X4.7506Y-3.1494
X4.7506Y-3.2494
X4.7506Y-3.3494
X4.7506Y-3.4494
X4.7506Y-3.5494
X4.7506Y-3.6494
X4.7506Y-3.7494
X5.0506Y-3.0494
X5.0506Y-3.1494
X5.0506Y-3.2494
X5.0506Y-3.3494
X5.0506Y-3.4494
X5.0506Y-3.5494
X5.0506Y-3.6494
X5.0506Y-3.7494
T3
X3.4Y-3.0496
X3.4Y-3.1496
X3.4Y-3.2496
X3.4Y-3.3496
X3.5Y-2.1496
X3.5Y-2.7496
X3.6Y-2.1496
X3.6Y-2.7496
X3.7Y-2.1496
X3.7Y-2.7496
X3.7498Y-3.0002
X3.7498Y-3.1002
X3.7498Y-3.2002
X3.7498Y-3.3002
X3.7498Y-3.4002
X3.8Y-2.1496
X3.8Y-2.7496
X3.8498Y-3.0002
X3.8498Y-3.1002
X3.8498Y-3.2002
X3.8498Y-3.3002
X3.8498Y-3.4002
X3.9Y-2.1496
X3.9Y-2.7496
X4.0Y-2.1496
X4.0Y-2.7496
X4.1Y-2.1496
X4.1Y-2.7496
X4.2Y-2.1496
X4.2Y-2.7496
X4.3Y-2.1496
X4.3Y-2.7496
X4.4Y-2.1496
X4.4Y-2.7496
X4.5Y-2.1496
X4.5Y-2.7496
X4.6Y-2.1496
X4.6Y-2.7496
X4.7Y-2.1496
X4.7Y-2.7496
X4.8Y-2.1496
X4.8Y-2.7496
X4.9Y-2.1496
X4.9Y-2.7496
T4
X3.45Y-3.8
X3.55Y-3.8
X3.8Y-3.8
X3.9Y-3.8
T5
X3.1Y-2.2
X3.1Y-3.8
X5.3Y-2.1945
X5.3Y-3.8
T0
M30
