%TF.GenerationSoftware,KiCad,Pcbnew,(6.0.7)*%
%TF.CreationDate,2023-06-21T14:43:57+08:00*%
%TF.ProjectId,Elevator_Indicator,456c6576-6174-46f7-925f-496e64696361,rev?*%
%TF.SameCoordinates,Original*%
%TF.FileFunction,Copper,L1,Top*%
%TF.FilePolarity,Positive*%
%FSLAX46Y46*%
G04 Gerber Fmt 4.6, Leading zero omitted, Abs format (unit mm)*
G04 Created by KiCad (PCBNEW (6.0.7)) date 2023-06-21 14:43:57*
%MOMM*%
%LPD*%
G01*
G04 APERTURE LIST*
%TA.AperFunction,ComponentPad*%
%ADD10R,1.700000X1.700000*%
%TD*%
%TA.AperFunction,ComponentPad*%
%ADD11O,1.700000X1.700000*%
%TD*%
%TA.AperFunction,ComponentPad*%
%ADD12C,1.600000*%
%TD*%
%TA.AperFunction,ComponentPad*%
%ADD13O,1.600000X1.600000*%
%TD*%
%TA.AperFunction,ComponentPad*%
%ADD14C,0.800000*%
%TD*%
%TA.AperFunction,ComponentPad*%
%ADD15C,6.400000*%
%TD*%
%TA.AperFunction,ComponentPad*%
%ADD16R,2.200000X2.200000*%
%TD*%
%TA.AperFunction,ComponentPad*%
%ADD17C,2.200000*%
%TD*%
%TA.AperFunction,ComponentPad*%
%ADD18R,1.600000X1.600000*%
%TD*%
%TA.AperFunction,ComponentPad*%
%ADD19R,2.400000X1.600000*%
%TD*%
%TA.AperFunction,ComponentPad*%
%ADD20O,2.400000X1.600000*%
%TD*%
%TA.AperFunction,Conductor*%
%ADD21C,0.250000*%
%TD*%
G04 APERTURE END LIST*
D10*
%TO.P,J1,1,Pin_1*%
%TO.N,+5V*%
X86360000Y-85080000D03*
D11*
%TO.P,J1,2,Pin_2*%
%TO.N,GND*%
X86360000Y-82540000D03*
%TO.P,J1,3,Pin_3*%
%TO.N,SCL*%
X86360000Y-80000000D03*
%TO.P,J1,4,Pin_4*%
%TO.N,SDA*%
X86360000Y-77460000D03*
%TD*%
D12*
%TO.P,R2,1*%
%TO.N,Seg_B*%
X105410000Y-93980000D03*
D13*
%TO.P,R2,2*%
%TO.N,Net-(R2-Pad2)*%
X115570000Y-93980000D03*
%TD*%
D14*
%TO.P,H4,1*%
%TO.N,N/C*%
X77042944Y-57577056D03*
X78740000Y-58280000D03*
X78740000Y-53480000D03*
X81140000Y-55880000D03*
D15*
X78740000Y-55880000D03*
D14*
X80437056Y-54182944D03*
X80437056Y-57577056D03*
X77042944Y-54182944D03*
X76340000Y-55880000D03*
%TD*%
D10*
%TO.P,J3,1,Pin_1*%
%TO.N,+12V*%
X95245000Y-76205000D03*
D11*
%TO.P,J3,2,Pin_2*%
%TO.N,Seg_E*%
X95245000Y-78745000D03*
%TO.P,J3,3,Pin_3*%
%TO.N,Seg_D*%
X95245000Y-81285000D03*
%TO.P,J3,4,Pin_4*%
%TO.N,Seg_C*%
X95245000Y-83825000D03*
%TO.P,J3,5,Pin_5*%
%TO.N,unconnected-(J3-Pad5)*%
X95245000Y-86365000D03*
%TO.P,J3,6,Pin_6*%
%TO.N,Seg_B*%
X97785000Y-86365000D03*
%TO.P,J3,7,Pin_7*%
%TO.N,Seg_A*%
X97785000Y-83825000D03*
%TO.P,J3,8,Pin_8*%
%TO.N,+12V*%
X97785000Y-81285000D03*
%TO.P,J3,9,Pin_9*%
%TO.N,Seg_F*%
X97785000Y-78745000D03*
%TO.P,J3,10,Pin_10*%
%TO.N,Seg_G*%
X97785000Y-76205000D03*
%TD*%
D12*
%TO.P,R6,1*%
%TO.N,Seg_F*%
X105410000Y-78740000D03*
D13*
%TO.P,R6,2*%
%TO.N,Net-(R6-Pad2)*%
X115570000Y-78740000D03*
%TD*%
D12*
%TO.P,R5,1*%
%TO.N,Seg_E*%
X105410000Y-82550000D03*
D13*
%TO.P,R5,2*%
%TO.N,Net-(R5-Pad2)*%
X115570000Y-82550000D03*
%TD*%
D12*
%TO.P,R4,1*%
%TO.N,Seg_D*%
X105410000Y-86360000D03*
D13*
%TO.P,R4,2*%
%TO.N,Net-(R4-Pad2)*%
X115570000Y-86360000D03*
%TD*%
D14*
%TO.P,H1,1*%
%TO.N,N/C*%
X136317056Y-57437056D03*
X136317056Y-54042944D03*
X134620000Y-53340000D03*
X132922944Y-57437056D03*
X137020000Y-55740000D03*
X132922944Y-54042944D03*
D15*
X134620000Y-55740000D03*
D14*
X134620000Y-58140000D03*
X132220000Y-55740000D03*
%TD*%
D12*
%TO.P,R1,1*%
%TO.N,Seg_A*%
X105410000Y-97790000D03*
D13*
%TO.P,R1,2*%
%TO.N,Net-(R1-Pad2)*%
X115570000Y-97790000D03*
%TD*%
D16*
%TO.P,J2,1,Pin_1*%
%TO.N,RST*%
X87630000Y-96520000D03*
D17*
%TO.P,J2,2,Pin_2*%
%TO.N,GND*%
X90170000Y-96520000D03*
%TD*%
D16*
%TO.P,J4,1,Pin_1*%
%TO.N,GND*%
X96520000Y-96520000D03*
D17*
%TO.P,J4,2,Pin_2*%
%TO.N,+12V*%
X99060000Y-96520000D03*
%TD*%
D14*
%TO.P,H3,1*%
%TO.N,N/C*%
X77042944Y-98217056D03*
X81140000Y-96520000D03*
X76340000Y-96520000D03*
X77042944Y-94822944D03*
D15*
X78740000Y-96520000D03*
D14*
X80437056Y-94822944D03*
X80437056Y-98217056D03*
X78740000Y-94120000D03*
X78740000Y-98920000D03*
%TD*%
D12*
%TO.P,R3,1*%
%TO.N,Seg_C*%
X105410000Y-90170000D03*
D13*
%TO.P,R3,2*%
%TO.N,Net-(R3-Pad2)*%
X115570000Y-90170000D03*
%TD*%
D18*
%TO.P,A1,1,D1/TX*%
%TO.N,unconnected-(A1-Pad1)*%
X88900000Y-69840000D03*
D13*
%TO.P,A1,2,D0/RX*%
%TO.N,unconnected-(A1-Pad2)*%
X91440000Y-69840000D03*
%TO.P,A1,3,~{RESET}*%
%TO.N,RST*%
X93980000Y-69840000D03*
%TO.P,A1,4,GND*%
%TO.N,GND*%
X96520000Y-69840000D03*
%TO.P,A1,5,D2*%
%TO.N,unconnected-(A1-Pad5)*%
X99060000Y-69840000D03*
%TO.P,A1,6,D3*%
%TO.N,D3*%
X101600000Y-69840000D03*
%TO.P,A1,7,D4*%
%TO.N,D4*%
X104140000Y-69840000D03*
%TO.P,A1,8,D5*%
%TO.N,D5*%
X106680000Y-69840000D03*
%TO.P,A1,9,D6*%
%TO.N,D6*%
X109220000Y-69840000D03*
%TO.P,A1,10,D7*%
%TO.N,D7*%
X111760000Y-69840000D03*
%TO.P,A1,11,D8*%
%TO.N,D8*%
X114300000Y-69840000D03*
%TO.P,A1,12,D9*%
%TO.N,D9*%
X116840000Y-69840000D03*
%TO.P,A1,13,D10*%
%TO.N,unconnected-(A1-Pad13)*%
X119380000Y-69840000D03*
%TO.P,A1,14,D11*%
%TO.N,unconnected-(A1-Pad14)*%
X121920000Y-69840000D03*
%TO.P,A1,15,D12*%
%TO.N,unconnected-(A1-Pad15)*%
X124460000Y-69840000D03*
%TO.P,A1,16,D13*%
%TO.N,unconnected-(A1-Pad16)*%
X124460000Y-54600000D03*
%TO.P,A1,17,3V3*%
%TO.N,unconnected-(A1-Pad17)*%
X121920000Y-54600000D03*
%TO.P,A1,18,AREF*%
%TO.N,unconnected-(A1-Pad18)*%
X119380000Y-54600000D03*
%TO.P,A1,19,A0*%
%TO.N,unconnected-(A1-Pad19)*%
X116840000Y-54600000D03*
%TO.P,A1,20,A1*%
%TO.N,unconnected-(A1-Pad20)*%
X114300000Y-54600000D03*
%TO.P,A1,21,A2*%
%TO.N,unconnected-(A1-Pad21)*%
X111760000Y-54600000D03*
%TO.P,A1,22,A3*%
%TO.N,unconnected-(A1-Pad22)*%
X109220000Y-54600000D03*
%TO.P,A1,23,A4*%
%TO.N,SDA*%
X106680000Y-54600000D03*
%TO.P,A1,24,A5*%
%TO.N,SCL*%
X104140000Y-54600000D03*
%TO.P,A1,25,A6*%
%TO.N,unconnected-(A1-Pad25)*%
X101600000Y-54600000D03*
%TO.P,A1,26,A7*%
%TO.N,unconnected-(A1-Pad26)*%
X99060000Y-54600000D03*
%TO.P,A1,27,+5V*%
%TO.N,+5V*%
X96520000Y-54600000D03*
%TO.P,A1,28,~{RESET}*%
%TO.N,unconnected-(A1-Pad28)*%
X93980000Y-54600000D03*
%TO.P,A1,29,GND*%
%TO.N,GND*%
X91440000Y-54600000D03*
%TO.P,A1,30,VIN*%
%TO.N,+12V*%
X88900000Y-54600000D03*
%TD*%
D12*
%TO.P,R7,1*%
%TO.N,Seg_G*%
X105410000Y-74930000D03*
D13*
%TO.P,R7,2*%
%TO.N,Net-(R7-Pad2)*%
X115570000Y-74930000D03*
%TD*%
D19*
%TO.P,U1,1,I1*%
%TO.N,D3*%
X128285000Y-95235000D03*
D20*
%TO.P,U1,2,I2*%
%TO.N,D4*%
X128285000Y-92695000D03*
%TO.P,U1,3,I3*%
%TO.N,D5*%
X128285000Y-90155000D03*
%TO.P,U1,4,I4*%
%TO.N,D6*%
X128285000Y-87615000D03*
%TO.P,U1,5,I5*%
%TO.N,D7*%
X128285000Y-85075000D03*
%TO.P,U1,6,I6*%
%TO.N,D8*%
X128285000Y-82535000D03*
%TO.P,U1,7,I7*%
%TO.N,D9*%
X128285000Y-79995000D03*
%TO.P,U1,8,GND*%
%TO.N,GND*%
X128285000Y-77455000D03*
%TO.P,U1,9,COM*%
%TO.N,+12V*%
X120665000Y-77455000D03*
%TO.P,U1,10,O7*%
%TO.N,Net-(R7-Pad2)*%
X120665000Y-79995000D03*
%TO.P,U1,11,O6*%
%TO.N,Net-(R6-Pad2)*%
X120665000Y-82535000D03*
%TO.P,U1,12,O5*%
%TO.N,Net-(R5-Pad2)*%
X120665000Y-85075000D03*
%TO.P,U1,13,O4*%
%TO.N,Net-(R4-Pad2)*%
X120665000Y-87615000D03*
%TO.P,U1,14,O3*%
%TO.N,Net-(R3-Pad2)*%
X120665000Y-90155000D03*
%TO.P,U1,15,O2*%
%TO.N,Net-(R2-Pad2)*%
X120665000Y-92695000D03*
%TO.P,U1,16,O1*%
%TO.N,Net-(R1-Pad2)*%
X120665000Y-95235000D03*
%TD*%
D14*
%TO.P,H2,1*%
%TO.N,N/C*%
X136317056Y-98217056D03*
X132922944Y-94822944D03*
X136317056Y-94822944D03*
X134620000Y-98920000D03*
X137020000Y-96520000D03*
X132220000Y-96520000D03*
D15*
X134620000Y-96520000D03*
D14*
X134620000Y-94120000D03*
X132922944Y-98217056D03*
%TD*%
D21*
%TO.N,RST*%
X91440000Y-87630000D02*
X91440000Y-74930000D01*
X87630000Y-96520000D02*
X87630000Y-91440000D01*
X87630000Y-91440000D02*
X91440000Y-87630000D01*
X93980000Y-72390000D02*
X93980000Y-69840000D01*
X91440000Y-74930000D02*
X93980000Y-72390000D01*
%TO.N,D3*%
X106830000Y-64610000D02*
X101600000Y-69840000D01*
X133510000Y-90010000D02*
X133510000Y-68731624D01*
X128285000Y-95235000D02*
X133510000Y-90010000D01*
X129388376Y-64610000D02*
X106830000Y-64610000D01*
X133510000Y-68731624D02*
X129388376Y-64610000D01*
%TO.N,D4*%
X129201980Y-65060000D02*
X108920000Y-65060000D01*
X133060000Y-87920000D02*
X133060000Y-68918020D01*
X133060000Y-68918020D02*
X129201980Y-65060000D01*
X108920000Y-65060000D02*
X104140000Y-69840000D01*
X128285000Y-92695000D02*
X133060000Y-87920000D01*
%TO.N,D5*%
X132610000Y-85830000D02*
X128285000Y-90155000D01*
X129015584Y-65510000D02*
X132610000Y-69104416D01*
X132610000Y-69104416D02*
X132610000Y-85830000D01*
X111010000Y-65510000D02*
X129015584Y-65510000D01*
X106680000Y-69840000D02*
X111010000Y-65510000D01*
%TO.N,D6*%
X109220000Y-69840000D02*
X113100000Y-65960000D01*
X132160000Y-83740000D02*
X128285000Y-87615000D01*
X128829188Y-65960000D02*
X132160000Y-69290812D01*
X132160000Y-69290812D02*
X132160000Y-83740000D01*
X113100000Y-65960000D02*
X128829188Y-65960000D01*
%TO.N,D7*%
X111760000Y-69840000D02*
X115190000Y-66410000D01*
X128642792Y-66410000D02*
X131710000Y-69477208D01*
X115190000Y-66410000D02*
X128642792Y-66410000D01*
X131710000Y-81650000D02*
X128285000Y-85075000D01*
X131710000Y-69477208D02*
X131710000Y-81650000D01*
%TO.N,D8*%
X117280000Y-66860000D02*
X128456396Y-66860000D01*
X131260000Y-79560000D02*
X128285000Y-82535000D01*
X114300000Y-69840000D02*
X117280000Y-66860000D01*
X128456396Y-66860000D02*
X131260000Y-69663604D01*
X131260000Y-69663604D02*
X131260000Y-79560000D01*
%TO.N,D9*%
X130810000Y-69850000D02*
X130810000Y-77470000D01*
X116840000Y-69840000D02*
X119370000Y-67310000D01*
X128270000Y-67310000D02*
X130810000Y-69850000D01*
X130810000Y-77470000D02*
X128285000Y-79995000D01*
X119370000Y-67310000D02*
X128270000Y-67310000D01*
%TO.N,SDA*%
X85726396Y-59690000D02*
X101590000Y-59690000D01*
X83000000Y-62416396D02*
X85726396Y-59690000D01*
X83000000Y-74100000D02*
X83000000Y-62416396D01*
X86360000Y-77460000D02*
X83000000Y-74100000D01*
X101590000Y-59690000D02*
X106680000Y-54600000D01*
%TO.N,SCL*%
X85080000Y-80000000D02*
X82550000Y-77470000D01*
X82550000Y-62230000D02*
X85540000Y-59240000D01*
X86360000Y-80000000D02*
X85080000Y-80000000D01*
X101403604Y-59240000D02*
X104140000Y-56503604D01*
X82550000Y-77470000D02*
X82550000Y-62230000D01*
X104140000Y-56503604D02*
X104140000Y-54600000D01*
X85540000Y-59240000D02*
X101403604Y-59240000D01*
%TO.N,+5V*%
X85353604Y-58790000D02*
X93605000Y-58790000D01*
X82100000Y-81465000D02*
X82100000Y-62043604D01*
X86360000Y-85080000D02*
X85715000Y-85080000D01*
X85715000Y-85080000D02*
X82100000Y-81465000D01*
X82100000Y-62043604D02*
X85353604Y-58790000D01*
X93605000Y-58790000D02*
X96520000Y-55875000D01*
X96520000Y-55875000D02*
X96520000Y-54600000D01*
%TO.N,Seg_E*%
X96519278Y-80019278D02*
X102879278Y-80019278D01*
X95245000Y-78745000D02*
X96519278Y-80019278D01*
X102879278Y-80019278D02*
X105410000Y-82550000D01*
%TO.N,Seg_C*%
X95245000Y-83825000D02*
X93677558Y-85392442D01*
X96520000Y-90170000D02*
X105410000Y-90170000D01*
X93677558Y-87327558D02*
X96520000Y-90170000D01*
X93677558Y-85392442D02*
X93677558Y-87327558D01*
%TO.N,Seg_B*%
X107950000Y-90461398D02*
X105646593Y-88157991D01*
X105646593Y-88157991D02*
X99577991Y-88157991D01*
X105410000Y-93980000D02*
X106680000Y-93980000D01*
X99577991Y-88157991D02*
X97785000Y-86365000D01*
X107950000Y-92710000D02*
X107950000Y-90461398D01*
X106680000Y-93980000D02*
X107950000Y-92710000D01*
%TO.N,Seg_A*%
X96508462Y-82548462D02*
X93981538Y-82548462D01*
X93227558Y-87513954D02*
X103503604Y-97790000D01*
X93981538Y-82548462D02*
X93227558Y-83302442D01*
X103503604Y-97790000D02*
X105410000Y-97790000D01*
X97785000Y-83825000D02*
X96508462Y-82548462D01*
X93227558Y-83302442D02*
X93227558Y-87513954D01*
%TO.N,Seg_F*%
X105405000Y-78745000D02*
X105410000Y-78740000D01*
X97785000Y-78745000D02*
X105405000Y-78745000D01*
%TO.N,Seg_G*%
X104135000Y-76205000D02*
X105410000Y-74930000D01*
X97785000Y-76205000D02*
X104135000Y-76205000D01*
%TO.N,Net-(R7-Pad2)*%
X115570000Y-74930000D02*
X115570000Y-76200000D01*
X115570000Y-76200000D02*
X119365000Y-79995000D01*
X119365000Y-79995000D02*
X120665000Y-79995000D01*
%TO.N,Net-(R6-Pad2)*%
X115570000Y-78740000D02*
X119365000Y-82535000D01*
X119365000Y-82535000D02*
X120665000Y-82535000D01*
%TO.N,Net-(R5-Pad2)*%
X115570000Y-82550000D02*
X116840000Y-82550000D01*
X116840000Y-82550000D02*
X119365000Y-85075000D01*
X119365000Y-85075000D02*
X120665000Y-85075000D01*
%TO.N,Net-(R4-Pad2)*%
X119380000Y-87630000D02*
X120650000Y-87630000D01*
X115570000Y-86360000D02*
X118110000Y-86360000D01*
X120650000Y-87630000D02*
X120665000Y-87615000D01*
X118110000Y-86360000D02*
X119380000Y-87630000D01*
%TO.N,Net-(R3-Pad2)*%
X120650000Y-90170000D02*
X120665000Y-90155000D01*
X115570000Y-90170000D02*
X120650000Y-90170000D01*
%TO.N,Net-(R2-Pad2)*%
X119395000Y-92695000D02*
X120665000Y-92695000D01*
X115570000Y-93980000D02*
X118110000Y-93980000D01*
X118110000Y-93980000D02*
X119395000Y-92695000D01*
%TO.N,Net-(R1-Pad2)*%
X118110000Y-97790000D02*
X120665000Y-95235000D01*
X115570000Y-97790000D02*
X118110000Y-97790000D01*
%TD*%
%TA.AperFunction,Conductor*%
%TO.N,GND*%
G36*
X133220662Y-52090002D02*
G01*
X133267155Y-52143658D01*
X133277259Y-52213932D01*
X133247765Y-52278512D01*
X133197697Y-52313630D01*
X133109547Y-52347468D01*
X133106607Y-52348966D01*
X132766147Y-52522439D01*
X132766140Y-52522443D01*
X132763206Y-52523938D01*
X132760440Y-52525734D01*
X132760437Y-52525736D01*
X132549932Y-52662439D01*
X132437207Y-52735643D01*
X132135124Y-52980266D01*
X131860266Y-53255124D01*
X131858194Y-53257682D01*
X131858191Y-53257686D01*
X131800854Y-53328491D01*
X131615643Y-53557207D01*
X131613848Y-53559970D01*
X131613848Y-53559971D01*
X131489063Y-53752125D01*
X131403938Y-53883206D01*
X131402443Y-53886140D01*
X131402439Y-53886147D01*
X131264908Y-54156067D01*
X131227468Y-54229547D01*
X131088167Y-54592438D01*
X130987562Y-54967901D01*
X130959638Y-55144205D01*
X130941099Y-55261257D01*
X130926754Y-55351824D01*
X130906411Y-55740000D01*
X130926754Y-56128176D01*
X130927267Y-56131416D01*
X130927268Y-56131424D01*
X130941912Y-56223879D01*
X130987562Y-56512099D01*
X131088167Y-56887562D01*
X131227468Y-57250453D01*
X131403938Y-57596794D01*
X131405734Y-57599560D01*
X131405736Y-57599563D01*
X131496653Y-57739563D01*
X131615643Y-57922793D01*
X131617718Y-57925355D01*
X131815009Y-58168988D01*
X131860266Y-58224876D01*
X132135124Y-58499734D01*
X132437207Y-58744357D01*
X132439970Y-58746152D01*
X132439971Y-58746152D01*
X132652789Y-58884357D01*
X132763205Y-58956062D01*
X132766139Y-58957557D01*
X132766146Y-58957561D01*
X133106607Y-59131034D01*
X133109547Y-59132532D01*
X133472438Y-59271833D01*
X133847901Y-59372438D01*
X134051793Y-59404732D01*
X134228576Y-59432732D01*
X134228584Y-59432733D01*
X134231824Y-59433246D01*
X134620000Y-59453589D01*
X135008176Y-59433246D01*
X135011416Y-59432733D01*
X135011424Y-59432732D01*
X135188207Y-59404732D01*
X135392099Y-59372438D01*
X135767562Y-59271833D01*
X136130453Y-59132532D01*
X136133393Y-59131034D01*
X136473854Y-58957561D01*
X136473861Y-58957557D01*
X136476795Y-58956062D01*
X136587212Y-58884357D01*
X136800029Y-58746152D01*
X136800030Y-58746152D01*
X136802793Y-58744357D01*
X137104876Y-58499734D01*
X137379734Y-58224876D01*
X137424992Y-58168988D01*
X137622282Y-57925355D01*
X137624357Y-57922793D01*
X137743347Y-57739563D01*
X137834264Y-57599563D01*
X137834266Y-57599560D01*
X137836062Y-57596794D01*
X138012532Y-57250453D01*
X138151833Y-56887562D01*
X138182293Y-56773884D01*
X138219245Y-56713261D01*
X138283105Y-56682240D01*
X138353600Y-56690668D01*
X138408347Y-56735871D01*
X138430000Y-56806495D01*
X138430000Y-95453505D01*
X138409998Y-95521626D01*
X138356342Y-95568119D01*
X138286068Y-95578223D01*
X138221488Y-95548729D01*
X138182293Y-95486116D01*
X138161140Y-95407173D01*
X138151833Y-95372438D01*
X138150310Y-95368469D01*
X138075389Y-95173295D01*
X138012532Y-95009547D01*
X137967681Y-94921522D01*
X137837561Y-94666147D01*
X137837557Y-94666140D01*
X137836062Y-94663206D01*
X137802971Y-94612249D01*
X137626152Y-94339971D01*
X137626152Y-94339970D01*
X137624357Y-94337207D01*
X137415199Y-94078919D01*
X137381809Y-94037686D01*
X137381806Y-94037682D01*
X137379734Y-94035124D01*
X137104876Y-93760266D01*
X137101329Y-93757393D01*
X136805355Y-93517718D01*
X136802793Y-93515643D01*
X136800029Y-93513848D01*
X136479564Y-93305736D01*
X136479561Y-93305734D01*
X136476795Y-93303938D01*
X136473861Y-93302443D01*
X136473854Y-93302439D01*
X136133393Y-93128966D01*
X136130453Y-93127468D01*
X135767562Y-92988167D01*
X135392099Y-92887562D01*
X135127379Y-92845634D01*
X135011424Y-92827268D01*
X135011416Y-92827267D01*
X135008176Y-92826754D01*
X134620000Y-92806411D01*
X134231824Y-92826754D01*
X134228584Y-92827267D01*
X134228576Y-92827268D01*
X134112621Y-92845634D01*
X133847901Y-92887562D01*
X133472438Y-92988167D01*
X133109547Y-93127468D01*
X133106607Y-93128966D01*
X132766147Y-93302439D01*
X132766140Y-93302443D01*
X132763206Y-93303938D01*
X132437207Y-93515643D01*
X132434645Y-93517718D01*
X132138672Y-93757393D01*
X132135124Y-93760266D01*
X131860266Y-94035124D01*
X131858194Y-94037682D01*
X131858191Y-94037686D01*
X131824801Y-94078919D01*
X131615643Y-94337207D01*
X131613848Y-94339970D01*
X131613848Y-94339971D01*
X131437030Y-94612249D01*
X131403938Y-94663206D01*
X131402443Y-94666140D01*
X131402439Y-94666147D01*
X131272319Y-94921522D01*
X131227468Y-95009547D01*
X131164611Y-95173295D01*
X131089691Y-95368469D01*
X131088167Y-95372438D01*
X130987562Y-95747901D01*
X130957695Y-95936474D01*
X130933928Y-96086531D01*
X130926754Y-96131824D01*
X130906411Y-96520000D01*
X130926754Y-96908176D01*
X130927267Y-96911416D01*
X130927268Y-96911424D01*
X130943455Y-97013624D01*
X130987562Y-97292099D01*
X131088167Y-97667562D01*
X131089352Y-97670650D01*
X131089353Y-97670652D01*
X131109199Y-97722352D01*
X131227468Y-98030453D01*
X131228966Y-98033393D01*
X131401487Y-98371983D01*
X131403938Y-98376794D01*
X131405734Y-98379560D01*
X131405736Y-98379563D01*
X131543077Y-98591051D01*
X131615643Y-98702793D01*
X131691281Y-98796198D01*
X131797627Y-98927523D01*
X131860266Y-99004876D01*
X132135124Y-99279734D01*
X132437207Y-99524357D01*
X132439970Y-99526152D01*
X132439971Y-99526152D01*
X132626371Y-99647201D01*
X132763205Y-99736062D01*
X132766139Y-99737557D01*
X132766146Y-99737561D01*
X132962133Y-99837421D01*
X133109547Y-99912532D01*
X133204052Y-99948809D01*
X133442842Y-100040472D01*
X133472438Y-100051833D01*
X133561697Y-100075750D01*
X133586116Y-100082293D01*
X133646739Y-100119245D01*
X133677760Y-100183105D01*
X133669332Y-100253600D01*
X133624129Y-100308347D01*
X133553505Y-100330000D01*
X99369210Y-100330000D01*
X99301089Y-100309998D01*
X99254596Y-100256342D01*
X99244492Y-100186068D01*
X99273986Y-100121488D01*
X99332793Y-100083378D01*
X99459407Y-100045152D01*
X99459410Y-100045151D01*
X99465315Y-100043368D01*
X99472635Y-100039476D01*
X99643153Y-99948809D01*
X99643155Y-99948808D01*
X99648599Y-99945913D01*
X99781624Y-99837421D01*
X99804689Y-99818610D01*
X99804692Y-99818607D01*
X99809464Y-99814715D01*
X99941783Y-99654770D01*
X99945876Y-99647201D01*
X100037584Y-99477590D01*
X100037586Y-99477585D01*
X100040514Y-99472170D01*
X100101898Y-99273871D01*
X100103429Y-99259303D01*
X100122952Y-99073554D01*
X100122952Y-99073552D01*
X100123596Y-99067425D01*
X100115777Y-98981515D01*
X100105341Y-98866836D01*
X100105340Y-98866833D01*
X100104782Y-98860697D01*
X100102298Y-98852255D01*
X100057495Y-98700029D01*
X100046173Y-98661560D01*
X99950001Y-98477600D01*
X99819929Y-98315823D01*
X99815210Y-98311863D01*
X99815209Y-98311862D01*
X99684119Y-98201864D01*
X99644793Y-98142755D01*
X99643667Y-98071767D01*
X99681098Y-98011439D01*
X99716892Y-97988935D01*
X99743854Y-97977767D01*
X99787928Y-97959511D01*
X99787932Y-97959509D01*
X99792502Y-97957616D01*
X100008376Y-97825328D01*
X100192426Y-97668134D01*
X100197142Y-97664106D01*
X100200898Y-97660898D01*
X100365328Y-97468376D01*
X100497616Y-97252502D01*
X100537382Y-97156500D01*
X100592611Y-97023164D01*
X100592612Y-97023162D01*
X100594505Y-97018591D01*
X100649973Y-96787548D01*
X100652454Y-96777216D01*
X100652455Y-96777210D01*
X100653609Y-96772403D01*
X100673474Y-96520000D01*
X100653609Y-96267597D01*
X100652152Y-96261525D01*
X100632532Y-96179805D01*
X100621522Y-96133944D01*
X100625069Y-96063037D01*
X100666389Y-96005303D01*
X100732362Y-95979073D01*
X100802044Y-95992675D01*
X100833136Y-96015436D01*
X102999947Y-98182247D01*
X103007491Y-98190537D01*
X103011604Y-98197018D01*
X103017381Y-98202443D01*
X103061271Y-98243658D01*
X103064113Y-98246413D01*
X103083835Y-98266135D01*
X103086959Y-98268558D01*
X103086963Y-98268562D01*
X103087028Y-98268612D01*
X103096049Y-98276317D01*
X103128283Y-98306586D01*
X103135231Y-98310405D01*
X103135233Y-98310407D01*
X103146036Y-98316346D01*
X103162563Y-98327202D01*
X103172302Y-98334757D01*
X103172304Y-98334758D01*
X103178564Y-98339614D01*
X103219144Y-98357174D01*
X103229792Y-98362391D01*
X103261028Y-98379563D01*
X103268544Y-98383695D01*
X103276220Y-98385666D01*
X103276223Y-98385667D01*
X103288166Y-98388733D01*
X103306871Y-98395137D01*
X103325459Y-98403181D01*
X103333282Y-98404420D01*
X103333292Y-98404423D01*
X103369128Y-98410099D01*
X103380748Y-98412505D01*
X103412563Y-98420673D01*
X103423574Y-98423500D01*
X103443828Y-98423500D01*
X103463538Y-98425051D01*
X103483547Y-98428220D01*
X103491439Y-98427474D01*
X103510184Y-98425702D01*
X103527566Y-98424059D01*
X103539423Y-98423500D01*
X104190606Y-98423500D01*
X104258727Y-98443502D01*
X104293819Y-98477229D01*
X104375337Y-98593648D01*
X104403802Y-98634300D01*
X104565700Y-98796198D01*
X104570208Y-98799355D01*
X104570211Y-98799357D01*
X104628604Y-98840244D01*
X104753251Y-98927523D01*
X104758233Y-98929846D01*
X104758238Y-98929849D01*
X104955775Y-99021961D01*
X104960757Y-99024284D01*
X104966065Y-99025706D01*
X104966067Y-99025707D01*
X105176598Y-99082119D01*
X105176600Y-99082119D01*
X105181913Y-99083543D01*
X105410000Y-99103498D01*
X105638087Y-99083543D01*
X105643400Y-99082119D01*
X105643402Y-99082119D01*
X105853933Y-99025707D01*
X105853935Y-99025706D01*
X105859243Y-99024284D01*
X105864225Y-99021961D01*
X106061762Y-98929849D01*
X106061767Y-98929846D01*
X106066749Y-98927523D01*
X106191396Y-98840244D01*
X106249789Y-98799357D01*
X106249792Y-98799355D01*
X106254300Y-98796198D01*
X106416198Y-98634300D01*
X106446482Y-98591051D01*
X106474509Y-98551024D01*
X106547523Y-98446749D01*
X106549846Y-98441767D01*
X106549849Y-98441762D01*
X106641961Y-98244225D01*
X106641961Y-98244224D01*
X106644284Y-98239243D01*
X106649067Y-98221395D01*
X106702119Y-98023402D01*
X106702119Y-98023400D01*
X106703543Y-98018087D01*
X106723498Y-97790000D01*
X114256502Y-97790000D01*
X114276457Y-98018087D01*
X114277881Y-98023400D01*
X114277881Y-98023402D01*
X114330934Y-98221395D01*
X114335716Y-98239243D01*
X114338039Y-98244224D01*
X114338039Y-98244225D01*
X114430151Y-98441762D01*
X114430154Y-98441767D01*
X114432477Y-98446749D01*
X114505491Y-98551024D01*
X114533519Y-98591051D01*
X114563802Y-98634300D01*
X114725700Y-98796198D01*
X114730208Y-98799355D01*
X114730211Y-98799357D01*
X114788604Y-98840244D01*
X114913251Y-98927523D01*
X114918233Y-98929846D01*
X114918238Y-98929849D01*
X115115775Y-99021961D01*
X115120757Y-99024284D01*
X115126065Y-99025706D01*
X115126067Y-99025707D01*
X115336598Y-99082119D01*
X115336600Y-99082119D01*
X115341913Y-99083543D01*
X115570000Y-99103498D01*
X115798087Y-99083543D01*
X115803400Y-99082119D01*
X115803402Y-99082119D01*
X116013933Y-99025707D01*
X116013935Y-99025706D01*
X116019243Y-99024284D01*
X116024225Y-99021961D01*
X116221762Y-98929849D01*
X116221767Y-98929846D01*
X116226749Y-98927523D01*
X116351396Y-98840244D01*
X116409789Y-98799357D01*
X116409792Y-98799355D01*
X116414300Y-98796198D01*
X116576198Y-98634300D01*
X116604663Y-98593648D01*
X116686181Y-98477229D01*
X116741638Y-98432901D01*
X116789394Y-98423500D01*
X118031233Y-98423500D01*
X118042416Y-98424027D01*
X118049909Y-98425702D01*
X118057835Y-98425453D01*
X118057836Y-98425453D01*
X118117986Y-98423562D01*
X118121945Y-98423500D01*
X118149856Y-98423500D01*
X118153791Y-98423003D01*
X118153856Y-98422995D01*
X118165693Y-98422062D01*
X118197951Y-98421048D01*
X118201970Y-98420922D01*
X118209889Y-98420673D01*
X118229343Y-98415021D01*
X118248700Y-98411013D01*
X118260930Y-98409468D01*
X118260931Y-98409468D01*
X118268797Y-98408474D01*
X118276168Y-98405555D01*
X118276170Y-98405555D01*
X118309912Y-98392196D01*
X118321142Y-98388351D01*
X118355983Y-98378229D01*
X118355984Y-98378229D01*
X118363593Y-98376018D01*
X118370412Y-98371985D01*
X118370417Y-98371983D01*
X118381028Y-98365707D01*
X118398776Y-98357012D01*
X118417617Y-98349552D01*
X118453387Y-98323564D01*
X118463307Y-98317048D01*
X118494535Y-98298580D01*
X118494538Y-98298578D01*
X118501362Y-98294542D01*
X118515683Y-98280221D01*
X118530717Y-98267380D01*
X118532431Y-98266135D01*
X118547107Y-98255472D01*
X118575298Y-98221395D01*
X118583288Y-98212616D01*
X120215499Y-96580405D01*
X120277811Y-96546379D01*
X120304594Y-96543500D01*
X121122127Y-96543500D01*
X121124844Y-96543262D01*
X121124851Y-96543262D01*
X121199337Y-96536745D01*
X121293087Y-96528543D01*
X121298400Y-96527119D01*
X121298402Y-96527119D01*
X121508933Y-96470707D01*
X121508935Y-96470706D01*
X121514243Y-96469284D01*
X121596548Y-96430905D01*
X121716762Y-96374849D01*
X121716767Y-96374846D01*
X121721749Y-96372523D01*
X121864552Y-96272531D01*
X121904789Y-96244357D01*
X121904792Y-96244355D01*
X121909300Y-96241198D01*
X122071198Y-96079300D01*
X122202523Y-95891749D01*
X122204846Y-95886767D01*
X122204849Y-95886762D01*
X122296961Y-95689225D01*
X122296961Y-95689224D01*
X122299284Y-95684243D01*
X122326371Y-95583156D01*
X122357119Y-95468402D01*
X122357119Y-95468400D01*
X122358543Y-95463087D01*
X122378498Y-95235000D01*
X122358543Y-95006913D01*
X122353312Y-94987389D01*
X122300707Y-94791067D01*
X122300706Y-94791065D01*
X122299284Y-94785757D01*
X122244014Y-94667229D01*
X122204849Y-94583238D01*
X122204846Y-94583233D01*
X122202523Y-94578251D01*
X122109550Y-94445472D01*
X122074357Y-94395211D01*
X122074355Y-94395208D01*
X122071198Y-94390700D01*
X121909300Y-94228802D01*
X121904792Y-94225645D01*
X121904789Y-94225643D01*
X121826611Y-94170902D01*
X121721749Y-94097477D01*
X121716767Y-94095154D01*
X121716762Y-94095151D01*
X121682543Y-94079195D01*
X121629258Y-94032278D01*
X121609797Y-93964001D01*
X121630339Y-93896041D01*
X121682543Y-93850805D01*
X121716762Y-93834849D01*
X121716767Y-93834846D01*
X121721749Y-93832523D01*
X121882518Y-93719951D01*
X121904789Y-93704357D01*
X121904792Y-93704355D01*
X121909300Y-93701198D01*
X122071198Y-93539300D01*
X122080669Y-93525775D01*
X122199366Y-93356257D01*
X122202523Y-93351749D01*
X122204846Y-93346767D01*
X122204849Y-93346762D01*
X122296961Y-93149225D01*
X122296961Y-93149224D01*
X122299284Y-93144243D01*
X122303378Y-93128966D01*
X122357119Y-92928402D01*
X122357119Y-92928400D01*
X122358543Y-92923087D01*
X122378498Y-92695000D01*
X122358543Y-92466913D01*
X122339810Y-92397001D01*
X122300707Y-92251067D01*
X122300706Y-92251064D01*
X122299284Y-92245757D01*
X122289544Y-92224870D01*
X122204849Y-92043238D01*
X122204846Y-92043233D01*
X122202523Y-92038251D01*
X122071198Y-91850700D01*
X121909300Y-91688802D01*
X121904792Y-91685645D01*
X121904789Y-91685643D01*
X121826611Y-91630902D01*
X121721749Y-91557477D01*
X121716767Y-91555154D01*
X121716762Y-91555151D01*
X121682543Y-91539195D01*
X121629258Y-91492278D01*
X121609797Y-91424001D01*
X121630339Y-91356041D01*
X121682543Y-91310805D01*
X121716762Y-91294849D01*
X121716767Y-91294846D01*
X121721749Y-91292523D01*
X121856743Y-91197999D01*
X121904789Y-91164357D01*
X121904792Y-91164355D01*
X121909300Y-91161198D01*
X122071198Y-90999300D01*
X122202523Y-90811749D01*
X122204846Y-90806767D01*
X122204849Y-90806762D01*
X122296961Y-90609225D01*
X122296961Y-90609224D01*
X122299284Y-90604243D01*
X122348149Y-90421880D01*
X122357119Y-90388402D01*
X122357119Y-90388400D01*
X122358543Y-90383087D01*
X122378498Y-90155000D01*
X122358543Y-89926913D01*
X122303303Y-89720757D01*
X122300707Y-89711067D01*
X122300706Y-89711065D01*
X122299284Y-89705757D01*
X122215975Y-89527099D01*
X122204849Y-89503238D01*
X122204846Y-89503233D01*
X122202523Y-89498251D01*
X122081701Y-89325700D01*
X122074357Y-89315211D01*
X122074355Y-89315208D01*
X122071198Y-89310700D01*
X121909300Y-89148802D01*
X121904792Y-89145645D01*
X121904789Y-89145643D01*
X121826611Y-89090902D01*
X121721749Y-89017477D01*
X121716767Y-89015154D01*
X121716762Y-89015151D01*
X121682543Y-88999195D01*
X121629258Y-88952278D01*
X121609797Y-88884001D01*
X121630339Y-88816041D01*
X121682543Y-88770805D01*
X121716762Y-88754849D01*
X121716767Y-88754846D01*
X121721749Y-88752523D01*
X121876294Y-88644309D01*
X121904789Y-88624357D01*
X121904792Y-88624355D01*
X121909300Y-88621198D01*
X122071198Y-88459300D01*
X122202523Y-88271749D01*
X122204846Y-88266767D01*
X122204849Y-88266762D01*
X122296961Y-88069225D01*
X122296961Y-88069224D01*
X122299284Y-88064243D01*
X122303163Y-88049769D01*
X122357119Y-87848402D01*
X122357119Y-87848400D01*
X122358543Y-87843087D01*
X122378498Y-87615000D01*
X122358543Y-87386913D01*
X122353367Y-87367596D01*
X122300707Y-87171067D01*
X122300706Y-87171065D01*
X122299284Y-87165757D01*
X122296958Y-87160768D01*
X122204849Y-86963238D01*
X122204846Y-86963233D01*
X122202523Y-86958251D01*
X122128601Y-86852680D01*
X122074357Y-86775211D01*
X122074355Y-86775208D01*
X122071198Y-86770700D01*
X121909300Y-86608802D01*
X121904792Y-86605645D01*
X121904789Y-86605643D01*
X121826611Y-86550902D01*
X121721749Y-86477477D01*
X121716767Y-86475154D01*
X121716762Y-86475151D01*
X121682543Y-86459195D01*
X121629258Y-86412278D01*
X121609797Y-86344001D01*
X121630339Y-86276041D01*
X121682543Y-86230805D01*
X121716762Y-86214849D01*
X121716767Y-86214846D01*
X121721749Y-86212523D01*
X121844462Y-86126598D01*
X121904789Y-86084357D01*
X121904792Y-86084355D01*
X121909300Y-86081198D01*
X122071198Y-85919300D01*
X122080669Y-85905775D01*
X122134512Y-85828879D01*
X122202523Y-85731749D01*
X122204846Y-85726767D01*
X122204849Y-85726762D01*
X122296961Y-85529225D01*
X122296961Y-85529224D01*
X122299284Y-85524243D01*
X122302725Y-85511403D01*
X122357119Y-85308402D01*
X122357119Y-85308400D01*
X122358543Y-85303087D01*
X122378498Y-85075000D01*
X122358543Y-84846913D01*
X122301490Y-84633990D01*
X122300707Y-84631067D01*
X122300706Y-84631065D01*
X122299284Y-84625757D01*
X122212486Y-84439616D01*
X122204849Y-84423238D01*
X122204846Y-84423233D01*
X122202523Y-84418251D01*
X122071198Y-84230700D01*
X121909300Y-84068802D01*
X121904792Y-84065645D01*
X121904789Y-84065643D01*
X121826611Y-84010902D01*
X121721749Y-83937477D01*
X121716767Y-83935154D01*
X121716762Y-83935151D01*
X121682543Y-83919195D01*
X121629258Y-83872278D01*
X121609797Y-83804001D01*
X121630339Y-83736041D01*
X121682543Y-83690805D01*
X121716762Y-83674849D01*
X121716767Y-83674846D01*
X121721749Y-83672523D01*
X121868781Y-83569570D01*
X121904789Y-83544357D01*
X121904792Y-83544355D01*
X121909300Y-83541198D01*
X122071198Y-83379300D01*
X122202523Y-83191749D01*
X122204846Y-83186767D01*
X122204849Y-83186762D01*
X122296961Y-82989225D01*
X122296961Y-82989224D01*
X122299284Y-82984243D01*
X122301118Y-82977401D01*
X122357119Y-82768402D01*
X122357119Y-82768400D01*
X122358543Y-82763087D01*
X122378498Y-82535000D01*
X122358543Y-82306913D01*
X122357119Y-82301598D01*
X122300707Y-82091067D01*
X122300706Y-82091065D01*
X122299284Y-82085757D01*
X122293739Y-82073865D01*
X122204849Y-81883238D01*
X122204846Y-81883233D01*
X122202523Y-81878251D01*
X122115372Y-81753787D01*
X122074357Y-81695211D01*
X122074355Y-81695208D01*
X122071198Y-81690700D01*
X121909300Y-81528802D01*
X121904792Y-81525645D01*
X121904789Y-81525643D01*
X121824675Y-81469547D01*
X121721749Y-81397477D01*
X121716767Y-81395154D01*
X121716762Y-81395151D01*
X121682543Y-81379195D01*
X121629258Y-81332278D01*
X121609797Y-81264001D01*
X121630339Y-81196041D01*
X121682543Y-81150805D01*
X121716762Y-81134849D01*
X121716767Y-81134846D01*
X121721749Y-81132523D01*
X121829118Y-81057342D01*
X121904789Y-81004357D01*
X121904792Y-81004355D01*
X121909300Y-81001198D01*
X122071198Y-80839300D01*
X122080835Y-80825538D01*
X122171199Y-80696484D01*
X122202523Y-80651749D01*
X122204846Y-80646767D01*
X122204849Y-80646762D01*
X122296961Y-80449225D01*
X122296961Y-80449224D01*
X122299284Y-80444243D01*
X122302723Y-80431411D01*
X122357119Y-80228402D01*
X122357119Y-80228400D01*
X122358543Y-80223087D01*
X122378498Y-79995000D01*
X122358543Y-79766913D01*
X122357119Y-79761598D01*
X122300707Y-79551067D01*
X122300706Y-79551065D01*
X122299284Y-79545757D01*
X122272425Y-79488157D01*
X122204849Y-79343238D01*
X122204846Y-79343233D01*
X122202523Y-79338251D01*
X122088171Y-79174940D01*
X122074357Y-79155211D01*
X122074355Y-79155208D01*
X122071198Y-79150700D01*
X121909300Y-78988802D01*
X121904792Y-78985645D01*
X121904789Y-78985643D01*
X121824675Y-78929547D01*
X121721749Y-78857477D01*
X121716767Y-78855154D01*
X121716762Y-78855151D01*
X121682543Y-78839195D01*
X121629258Y-78792278D01*
X121609797Y-78724001D01*
X121630339Y-78656041D01*
X121682543Y-78610805D01*
X121716762Y-78594849D01*
X121716767Y-78594846D01*
X121721749Y-78592523D01*
X121844462Y-78506598D01*
X121904789Y-78464357D01*
X121904792Y-78464355D01*
X121909300Y-78461198D01*
X122071198Y-78299300D01*
X122080669Y-78285775D01*
X122199366Y-78116257D01*
X122202523Y-78111749D01*
X122204846Y-78106767D01*
X122204849Y-78106762D01*
X122296961Y-77909225D01*
X122296961Y-77909224D01*
X122299284Y-77904243D01*
X122302723Y-77891411D01*
X122357119Y-77688402D01*
X122357119Y-77688400D01*
X122358543Y-77683087D01*
X122378498Y-77455000D01*
X122358543Y-77226913D01*
X122350028Y-77195135D01*
X122346911Y-77183503D01*
X126603606Y-77183503D01*
X126603942Y-77197599D01*
X126611884Y-77201000D01*
X128012885Y-77201000D01*
X128028124Y-77196525D01*
X128029329Y-77195135D01*
X128031000Y-77187452D01*
X128031000Y-76165115D01*
X128026525Y-76149876D01*
X128025135Y-76148671D01*
X128017452Y-76147000D01*
X127830635Y-76147000D01*
X127825170Y-76147238D01*
X127662481Y-76161472D01*
X127651688Y-76163375D01*
X127441239Y-76219764D01*
X127430947Y-76223510D01*
X127233489Y-76315586D01*
X127223993Y-76321069D01*
X127045533Y-76446028D01*
X127037125Y-76453084D01*
X126883084Y-76607125D01*
X126876028Y-76615533D01*
X126751069Y-76793993D01*
X126745586Y-76803489D01*
X126653510Y-77000947D01*
X126649764Y-77011239D01*
X126603606Y-77183503D01*
X122346911Y-77183503D01*
X122300707Y-77011067D01*
X122300706Y-77011065D01*
X122299284Y-77005757D01*
X122253269Y-76907077D01*
X122204849Y-76803238D01*
X122204846Y-76803233D01*
X122202523Y-76798251D01*
X122109428Y-76665298D01*
X122074357Y-76615211D01*
X122074355Y-76615208D01*
X122071198Y-76610700D01*
X121909300Y-76448802D01*
X121904792Y-76445645D01*
X121904789Y-76445643D01*
X121826611Y-76390902D01*
X121721749Y-76317477D01*
X121716767Y-76315154D01*
X121716762Y-76315151D01*
X121519225Y-76223039D01*
X121519224Y-76223039D01*
X121514243Y-76220716D01*
X121508935Y-76219294D01*
X121508933Y-76219293D01*
X121298402Y-76162881D01*
X121298400Y-76162881D01*
X121293087Y-76161457D01*
X121193520Y-76152746D01*
X121124851Y-76146738D01*
X121124844Y-76146738D01*
X121122127Y-76146500D01*
X120207873Y-76146500D01*
X120205156Y-76146738D01*
X120205149Y-76146738D01*
X120136480Y-76152746D01*
X120036913Y-76161457D01*
X120031600Y-76162881D01*
X120031598Y-76162881D01*
X119821067Y-76219293D01*
X119821065Y-76219294D01*
X119815757Y-76220716D01*
X119810776Y-76223039D01*
X119810775Y-76223039D01*
X119613238Y-76315151D01*
X119613233Y-76315154D01*
X119608251Y-76317477D01*
X119503389Y-76390902D01*
X119425211Y-76445643D01*
X119425208Y-76445645D01*
X119420700Y-76448802D01*
X119258802Y-76610700D01*
X119255645Y-76615208D01*
X119255643Y-76615211D01*
X119220572Y-76665298D01*
X119127477Y-76798251D01*
X119125154Y-76803233D01*
X119125151Y-76803238D01*
X119076731Y-76907077D01*
X119030716Y-77005757D01*
X119029294Y-77011065D01*
X119029293Y-77011067D01*
X118979972Y-77195135D01*
X118971457Y-77226913D01*
X118951502Y-77455000D01*
X118971457Y-77683087D01*
X118972881Y-77688400D01*
X118972881Y-77688402D01*
X119027278Y-77891411D01*
X119030716Y-77904243D01*
X119033039Y-77909224D01*
X119033039Y-77909225D01*
X119125151Y-78106762D01*
X119125154Y-78106767D01*
X119127477Y-78111749D01*
X119130634Y-78116257D01*
X119249332Y-78285775D01*
X119258802Y-78299300D01*
X119420700Y-78461198D01*
X119425208Y-78464355D01*
X119425211Y-78464357D01*
X119485538Y-78506598D01*
X119608251Y-78592523D01*
X119613233Y-78594846D01*
X119613238Y-78594849D01*
X119647457Y-78610805D01*
X119700742Y-78657722D01*
X119720203Y-78725999D01*
X119699661Y-78793959D01*
X119647457Y-78839195D01*
X119613238Y-78855151D01*
X119613233Y-78855154D01*
X119608251Y-78857477D01*
X119505325Y-78929547D01*
X119425212Y-78985643D01*
X119420700Y-78988802D01*
X119418539Y-78990963D01*
X119354194Y-79019127D01*
X119284089Y-79007914D01*
X119249142Y-78983237D01*
X116395673Y-76129768D01*
X116361647Y-76067456D01*
X116366712Y-75996641D01*
X116406995Y-75944582D01*
X116405576Y-75942892D01*
X116409789Y-75939357D01*
X116414300Y-75936198D01*
X116576198Y-75774300D01*
X116707523Y-75586749D01*
X116709846Y-75581767D01*
X116709849Y-75581762D01*
X116801961Y-75384225D01*
X116801961Y-75384224D01*
X116804284Y-75379243D01*
X116809742Y-75358876D01*
X116862119Y-75163402D01*
X116862120Y-75163398D01*
X116863543Y-75158087D01*
X116883498Y-74930000D01*
X116863543Y-74701913D01*
X116828849Y-74572434D01*
X116805707Y-74486067D01*
X116805706Y-74486065D01*
X116804284Y-74480757D01*
X116778913Y-74426348D01*
X116709849Y-74278238D01*
X116709846Y-74278233D01*
X116707523Y-74273251D01*
X116576198Y-74085700D01*
X116414300Y-73923802D01*
X116409792Y-73920645D01*
X116409789Y-73920643D01*
X116254899Y-73812188D01*
X116226749Y-73792477D01*
X116221767Y-73790154D01*
X116221762Y-73790151D01*
X116024225Y-73698039D01*
X116024224Y-73698039D01*
X116019243Y-73695716D01*
X116013935Y-73694294D01*
X116013933Y-73694293D01*
X115803402Y-73637881D01*
X115803400Y-73637881D01*
X115798087Y-73636457D01*
X115570000Y-73616502D01*
X115341913Y-73636457D01*
X115336600Y-73637881D01*
X115336598Y-73637881D01*
X115126067Y-73694293D01*
X115126065Y-73694294D01*
X115120757Y-73695716D01*
X115115776Y-73698039D01*
X115115775Y-73698039D01*
X114918238Y-73790151D01*
X114918233Y-73790154D01*
X114913251Y-73792477D01*
X114885101Y-73812188D01*
X114730211Y-73920643D01*
X114730208Y-73920645D01*
X114725700Y-73923802D01*
X114563802Y-74085700D01*
X114432477Y-74273251D01*
X114430154Y-74278233D01*
X114430151Y-74278238D01*
X114361087Y-74426348D01*
X114335716Y-74480757D01*
X114334294Y-74486065D01*
X114334293Y-74486067D01*
X114311151Y-74572434D01*
X114276457Y-74701913D01*
X114256502Y-74930000D01*
X114276457Y-75158087D01*
X114277880Y-75163398D01*
X114277881Y-75163402D01*
X114330259Y-75358876D01*
X114335716Y-75379243D01*
X114338039Y-75384224D01*
X114338039Y-75384225D01*
X114430151Y-75581762D01*
X114430154Y-75581767D01*
X114432477Y-75586749D01*
X114563802Y-75774300D01*
X114725700Y-75936198D01*
X114730208Y-75939355D01*
X114730211Y-75939357D01*
X114880760Y-76044773D01*
X114925088Y-76100230D01*
X114934427Y-76144026D01*
X114936438Y-76207985D01*
X114936500Y-76211945D01*
X114936500Y-76239856D01*
X114936997Y-76243790D01*
X114936997Y-76243791D01*
X114937005Y-76243856D01*
X114937938Y-76255693D01*
X114939327Y-76299889D01*
X114944437Y-76317477D01*
X114944978Y-76319339D01*
X114948987Y-76338700D01*
X114951526Y-76358797D01*
X114954445Y-76366168D01*
X114954445Y-76366170D01*
X114967804Y-76399912D01*
X114971649Y-76411142D01*
X114983982Y-76453593D01*
X114988015Y-76460412D01*
X114988017Y-76460417D01*
X114994293Y-76471028D01*
X115002988Y-76488776D01*
X115010448Y-76507617D01*
X115015110Y-76514033D01*
X115015110Y-76514034D01*
X115036436Y-76543387D01*
X115042952Y-76553307D01*
X115065458Y-76591362D01*
X115079779Y-76605683D01*
X115092619Y-76620716D01*
X115104528Y-76637107D01*
X115110634Y-76642158D01*
X115138605Y-76665298D01*
X115147384Y-76673288D01*
X115687507Y-77213411D01*
X115721533Y-77275723D01*
X115716468Y-77346538D01*
X115673921Y-77403374D01*
X115607401Y-77428185D01*
X115587430Y-77428026D01*
X115575486Y-77426981D01*
X115575475Y-77426981D01*
X115570000Y-77426502D01*
X115341913Y-77446457D01*
X115336600Y-77447881D01*
X115336598Y-77447881D01*
X115126067Y-77504293D01*
X115126065Y-77504294D01*
X115120757Y-77505716D01*
X115115776Y-77508039D01*
X115115775Y-77508039D01*
X114918238Y-77600151D01*
X114918233Y-77600154D01*
X114913251Y-77602477D01*
X114832902Y-77658738D01*
X114730211Y-77730643D01*
X114730208Y-77730645D01*
X114725700Y-77733802D01*
X114563802Y-77895700D01*
X114560645Y-77900208D01*
X114560643Y-77900211D01*
X114520979Y-77956857D01*
X114432477Y-78083251D01*
X114430154Y-78088233D01*
X114430151Y-78088238D01*
X114341060Y-78279297D01*
X114335716Y-78290757D01*
X114334294Y-78296065D01*
X114334293Y-78296067D01*
X114291090Y-78457301D01*
X114276457Y-78511913D01*
X114256502Y-78740000D01*
X114276457Y-78968087D01*
X114277880Y-78973398D01*
X114277881Y-78973402D01*
X114329075Y-79164457D01*
X114335716Y-79189243D01*
X114338039Y-79194224D01*
X114338039Y-79194225D01*
X114430151Y-79391762D01*
X114430154Y-79391767D01*
X114432477Y-79396749D01*
X114479706Y-79464199D01*
X114549794Y-79564294D01*
X114563802Y-79584300D01*
X114725700Y-79746198D01*
X114730208Y-79749355D01*
X114730211Y-79749357D01*
X114777576Y-79782522D01*
X114913251Y-79877523D01*
X114918233Y-79879846D01*
X114918238Y-79879849D01*
X115081791Y-79956114D01*
X115120757Y-79974284D01*
X115126065Y-79975706D01*
X115126067Y-79975707D01*
X115336598Y-80032119D01*
X115336600Y-80032119D01*
X115341913Y-80033543D01*
X115570000Y-80053498D01*
X115798087Y-80033543D01*
X115803398Y-80032120D01*
X115803409Y-80032118D01*
X115861541Y-80016541D01*
X115932517Y-80018230D01*
X115983248Y-80049152D01*
X118861343Y-82927247D01*
X118868887Y-82935537D01*
X118873000Y-82942018D01*
X118878777Y-82947443D01*
X118922667Y-82988658D01*
X118925509Y-82991413D01*
X118945230Y-83011134D01*
X118948425Y-83013612D01*
X118957447Y-83021318D01*
X118989679Y-83051586D01*
X118996628Y-83055406D01*
X119007432Y-83061346D01*
X119023956Y-83072199D01*
X119039959Y-83084613D01*
X119047239Y-83087763D01*
X119054056Y-83091795D01*
X119052750Y-83094003D01*
X119097672Y-83131393D01*
X119107241Y-83148352D01*
X119127477Y-83191749D01*
X119258802Y-83379300D01*
X119420700Y-83541198D01*
X119425208Y-83544355D01*
X119425211Y-83544357D01*
X119461219Y-83569570D01*
X119608251Y-83672523D01*
X119613233Y-83674846D01*
X119613238Y-83674849D01*
X119647457Y-83690805D01*
X119700742Y-83737722D01*
X119720203Y-83805999D01*
X119699661Y-83873959D01*
X119647457Y-83919195D01*
X119613238Y-83935151D01*
X119613233Y-83935154D01*
X119608251Y-83937477D01*
X119497944Y-84014715D01*
X119425212Y-84065643D01*
X119420700Y-84068802D01*
X119418539Y-84070963D01*
X119354194Y-84099127D01*
X119284089Y-84087914D01*
X119249142Y-84063237D01*
X117343652Y-82157747D01*
X117336112Y-82149461D01*
X117332000Y-82142982D01*
X117282348Y-82096356D01*
X117279507Y-82093602D01*
X117259770Y-82073865D01*
X117256573Y-82071385D01*
X117247551Y-82063680D01*
X117221100Y-82038841D01*
X117215321Y-82033414D01*
X117208375Y-82029595D01*
X117208372Y-82029593D01*
X117197566Y-82023652D01*
X117181047Y-82012801D01*
X117180583Y-82012441D01*
X117165041Y-82000386D01*
X117157772Y-81997241D01*
X117157768Y-81997238D01*
X117124463Y-81982826D01*
X117113813Y-81977609D01*
X117075060Y-81956305D01*
X117055437Y-81951267D01*
X117036734Y-81944863D01*
X117025420Y-81939967D01*
X117025419Y-81939967D01*
X117018145Y-81936819D01*
X117010322Y-81935580D01*
X117010312Y-81935577D01*
X116974476Y-81929901D01*
X116962856Y-81927495D01*
X116927711Y-81918472D01*
X116927710Y-81918472D01*
X116920030Y-81916500D01*
X116899776Y-81916500D01*
X116880065Y-81914949D01*
X116867886Y-81913020D01*
X116860057Y-81911780D01*
X116852165Y-81912526D01*
X116816039Y-81915941D01*
X116804181Y-81916500D01*
X116789394Y-81916500D01*
X116721273Y-81896498D01*
X116686181Y-81862771D01*
X116579357Y-81710211D01*
X116579355Y-81710208D01*
X116576198Y-81705700D01*
X116414300Y-81543802D01*
X116409792Y-81540645D01*
X116409789Y-81540643D01*
X116322849Y-81479767D01*
X116226749Y-81412477D01*
X116221767Y-81410154D01*
X116221762Y-81410151D01*
X116024225Y-81318039D01*
X116024224Y-81318039D01*
X116019243Y-81315716D01*
X116013935Y-81314294D01*
X116013933Y-81314293D01*
X115803402Y-81257881D01*
X115803400Y-81257881D01*
X115798087Y-81256457D01*
X115570000Y-81236502D01*
X115341913Y-81256457D01*
X115336600Y-81257881D01*
X115336598Y-81257881D01*
X115126067Y-81314293D01*
X115126065Y-81314294D01*
X115120757Y-81315716D01*
X115115776Y-81318039D01*
X115115775Y-81318039D01*
X114918238Y-81410151D01*
X114918233Y-81410154D01*
X114913251Y-81412477D01*
X114817151Y-81479767D01*
X114730211Y-81540643D01*
X114730208Y-81540645D01*
X114725700Y-81543802D01*
X114563802Y-81705700D01*
X114560645Y-81710208D01*
X114560643Y-81710211D01*
X114530131Y-81753787D01*
X114432477Y-81893251D01*
X114430154Y-81898233D01*
X114430151Y-81898238D01*
X114341152Y-82089099D01*
X114335716Y-82100757D01*
X114334294Y-82106065D01*
X114334293Y-82106067D01*
X114289577Y-82272947D01*
X114276457Y-82321913D01*
X114256502Y-82550000D01*
X114276457Y-82778087D01*
X114277881Y-82783400D01*
X114277881Y-82783402D01*
X114333032Y-82989225D01*
X114335716Y-82999243D01*
X114338039Y-83004224D01*
X114338039Y-83004225D01*
X114430151Y-83201762D01*
X114430154Y-83201767D01*
X114432477Y-83206749D01*
X114459975Y-83246020D01*
X114557782Y-83385702D01*
X114563802Y-83394300D01*
X114725700Y-83556198D01*
X114730208Y-83559355D01*
X114730211Y-83559357D01*
X114791627Y-83602361D01*
X114913251Y-83687523D01*
X114918233Y-83689846D01*
X114918238Y-83689849D01*
X115082771Y-83766571D01*
X115120757Y-83784284D01*
X115126065Y-83785706D01*
X115126067Y-83785707D01*
X115336598Y-83842119D01*
X115336600Y-83842119D01*
X115341913Y-83843543D01*
X115570000Y-83863498D01*
X115798087Y-83843543D01*
X115803400Y-83842119D01*
X115803402Y-83842119D01*
X116013933Y-83785707D01*
X116013935Y-83785706D01*
X116019243Y-83784284D01*
X116057229Y-83766571D01*
X116221762Y-83689849D01*
X116221767Y-83689846D01*
X116226749Y-83687523D01*
X116348373Y-83602361D01*
X116409789Y-83559357D01*
X116409792Y-83559355D01*
X116414300Y-83556198D01*
X116576198Y-83394300D01*
X116579357Y-83389789D01*
X116582892Y-83385576D01*
X116584463Y-83386894D01*
X116632941Y-83348159D01*
X116703562Y-83340864D01*
X116769769Y-83375673D01*
X118861343Y-85467247D01*
X118868887Y-85475537D01*
X118873000Y-85482018D01*
X118878777Y-85487443D01*
X118922667Y-85528658D01*
X118925509Y-85531413D01*
X118945230Y-85551134D01*
X118948425Y-85553612D01*
X118957447Y-85561318D01*
X118989679Y-85591586D01*
X118996628Y-85595406D01*
X119007432Y-85601346D01*
X119023956Y-85612199D01*
X119039959Y-85624613D01*
X119047239Y-85627763D01*
X119054056Y-85631795D01*
X119052750Y-85634003D01*
X119097672Y-85671393D01*
X119107241Y-85688352D01*
X119127477Y-85731749D01*
X119166587Y-85787604D01*
X119249332Y-85905775D01*
X119258802Y-85919300D01*
X119420700Y-86081198D01*
X119425208Y-86084355D01*
X119425211Y-86084357D01*
X119485538Y-86126598D01*
X119608251Y-86212523D01*
X119613233Y-86214846D01*
X119613238Y-86214849D01*
X119647457Y-86230805D01*
X119700742Y-86277722D01*
X119720203Y-86345999D01*
X119699661Y-86413959D01*
X119647457Y-86459195D01*
X119613238Y-86475151D01*
X119613233Y-86475154D01*
X119608251Y-86477477D01*
X119489489Y-86560635D01*
X119425212Y-86605643D01*
X119420700Y-86608802D01*
X119418539Y-86610963D01*
X119354194Y-86639127D01*
X119284089Y-86627914D01*
X119249142Y-86603237D01*
X118613652Y-85967747D01*
X118606112Y-85959461D01*
X118602000Y-85952982D01*
X118552348Y-85906356D01*
X118549507Y-85903602D01*
X118529770Y-85883865D01*
X118526573Y-85881385D01*
X118517551Y-85873680D01*
X118491100Y-85848841D01*
X118485321Y-85843414D01*
X118478375Y-85839595D01*
X118478372Y-85839593D01*
X118467566Y-85833652D01*
X118451047Y-85822801D01*
X118450583Y-85822441D01*
X118435041Y-85810386D01*
X118427772Y-85807241D01*
X118427768Y-85807238D01*
X118394463Y-85792826D01*
X118383813Y-85787609D01*
X118345060Y-85766305D01*
X118325437Y-85761267D01*
X118306734Y-85754863D01*
X118295420Y-85749967D01*
X118295419Y-85749967D01*
X118288145Y-85746819D01*
X118280322Y-85745580D01*
X118280312Y-85745577D01*
X118244476Y-85739901D01*
X118232856Y-85737495D01*
X118197711Y-85728472D01*
X118197710Y-85728472D01*
X118190030Y-85726500D01*
X118169776Y-85726500D01*
X118150065Y-85724949D01*
X118137886Y-85723020D01*
X118130057Y-85721780D01*
X118122165Y-85722526D01*
X118086039Y-85725941D01*
X118074181Y-85726500D01*
X116789394Y-85726500D01*
X116721273Y-85706498D01*
X116686181Y-85672771D01*
X116579357Y-85520211D01*
X116579355Y-85520208D01*
X116576198Y-85515700D01*
X116414300Y-85353802D01*
X116409792Y-85350645D01*
X116409789Y-85350643D01*
X116283772Y-85262405D01*
X116226749Y-85222477D01*
X116221767Y-85220154D01*
X116221762Y-85220151D01*
X116024225Y-85128039D01*
X116024224Y-85128039D01*
X116019243Y-85125716D01*
X116013935Y-85124294D01*
X116013933Y-85124293D01*
X115803402Y-85067881D01*
X115803400Y-85067881D01*
X115798087Y-85066457D01*
X115570000Y-85046502D01*
X115341913Y-85066457D01*
X115336600Y-85067881D01*
X115336598Y-85067881D01*
X115126067Y-85124293D01*
X115126065Y-85124294D01*
X115120757Y-85125716D01*
X115115776Y-85128039D01*
X115115775Y-85128039D01*
X114918238Y-85220151D01*
X114918233Y-85220154D01*
X114913251Y-85222477D01*
X114856228Y-85262405D01*
X114730211Y-85350643D01*
X114730208Y-85350645D01*
X114725700Y-85353802D01*
X114563802Y-85515700D01*
X114560645Y-85520208D01*
X114560643Y-85520211D01*
X114540953Y-85548332D01*
X114432477Y-85703251D01*
X114430154Y-85708233D01*
X114430151Y-85708238D01*
X114349409Y-85881392D01*
X114335716Y-85910757D01*
X114334294Y-85916065D01*
X114334293Y-85916067D01*
X114299018Y-86047715D01*
X114276457Y-86131913D01*
X114256502Y-86360000D01*
X114276457Y-86588087D01*
X114277881Y-86593400D01*
X114277881Y-86593402D01*
X114321986Y-86758001D01*
X114335716Y-86809243D01*
X114338039Y-86814224D01*
X114338039Y-86814225D01*
X114430151Y-87011762D01*
X114430154Y-87011767D01*
X114432477Y-87016749D01*
X114454729Y-87048528D01*
X114542579Y-87173990D01*
X114563802Y-87204300D01*
X114725700Y-87366198D01*
X114730208Y-87369355D01*
X114730211Y-87369357D01*
X114808389Y-87424098D01*
X114913251Y-87497523D01*
X114918233Y-87499846D01*
X114918238Y-87499849D01*
X115108263Y-87588458D01*
X115120757Y-87594284D01*
X115126065Y-87595706D01*
X115126067Y-87595707D01*
X115336598Y-87652119D01*
X115336600Y-87652119D01*
X115341913Y-87653543D01*
X115570000Y-87673498D01*
X115798087Y-87653543D01*
X115803400Y-87652119D01*
X115803402Y-87652119D01*
X116013933Y-87595707D01*
X116013935Y-87595706D01*
X116019243Y-87594284D01*
X116031737Y-87588458D01*
X116221762Y-87499849D01*
X116221767Y-87499846D01*
X116226749Y-87497523D01*
X116331611Y-87424098D01*
X116409789Y-87369357D01*
X116409792Y-87369355D01*
X116414300Y-87366198D01*
X116576198Y-87204300D01*
X116579357Y-87199789D01*
X116686181Y-87047229D01*
X116741638Y-87002901D01*
X116789394Y-86993500D01*
X117795406Y-86993500D01*
X117863527Y-87013502D01*
X117884501Y-87030405D01*
X118876343Y-88022247D01*
X118883887Y-88030537D01*
X118888000Y-88037018D01*
X118893777Y-88042443D01*
X118937667Y-88083658D01*
X118940509Y-88086413D01*
X118960230Y-88106134D01*
X118963425Y-88108612D01*
X118972447Y-88116318D01*
X119004679Y-88146586D01*
X119011628Y-88150406D01*
X119022432Y-88156346D01*
X119038956Y-88167199D01*
X119054959Y-88179613D01*
X119061639Y-88182504D01*
X119111508Y-88237504D01*
X119125149Y-88266758D01*
X119125152Y-88266764D01*
X119127477Y-88271749D01*
X119258802Y-88459300D01*
X119420700Y-88621198D01*
X119425208Y-88624355D01*
X119425211Y-88624357D01*
X119453706Y-88644309D01*
X119608251Y-88752523D01*
X119613233Y-88754846D01*
X119613238Y-88754849D01*
X119647457Y-88770805D01*
X119700742Y-88817722D01*
X119720203Y-88885999D01*
X119699661Y-88953959D01*
X119647457Y-88999195D01*
X119613238Y-89015151D01*
X119613233Y-89015154D01*
X119608251Y-89017477D01*
X119503389Y-89090902D01*
X119425211Y-89145643D01*
X119425208Y-89145645D01*
X119420700Y-89148802D01*
X119258802Y-89310700D01*
X119255645Y-89315208D01*
X119255643Y-89315211D01*
X119138316Y-89482771D01*
X119082859Y-89527099D01*
X119035103Y-89536500D01*
X116789394Y-89536500D01*
X116721273Y-89516498D01*
X116686181Y-89482771D01*
X116579357Y-89330211D01*
X116579355Y-89330208D01*
X116576198Y-89325700D01*
X116414300Y-89163802D01*
X116409792Y-89160645D01*
X116409789Y-89160643D01*
X116331611Y-89105902D01*
X116226749Y-89032477D01*
X116221767Y-89030154D01*
X116221762Y-89030151D01*
X116024225Y-88938039D01*
X116024224Y-88938039D01*
X116019243Y-88935716D01*
X116013935Y-88934294D01*
X116013933Y-88934293D01*
X115803402Y-88877881D01*
X115803400Y-88877881D01*
X115798087Y-88876457D01*
X115570000Y-88856502D01*
X115341913Y-88876457D01*
X115336600Y-88877881D01*
X115336598Y-88877881D01*
X115126067Y-88934293D01*
X115126065Y-88934294D01*
X115120757Y-88935716D01*
X115115776Y-88938039D01*
X115115775Y-88938039D01*
X114918238Y-89030151D01*
X114918233Y-89030154D01*
X114913251Y-89032477D01*
X114808389Y-89105902D01*
X114730211Y-89160643D01*
X114730208Y-89160645D01*
X114725700Y-89163802D01*
X114563802Y-89325700D01*
X114432477Y-89513251D01*
X114430154Y-89518233D01*
X114430151Y-89518238D01*
X114338039Y-89715775D01*
X114335716Y-89720757D01*
X114334294Y-89726065D01*
X114334293Y-89726067D01*
X114281900Y-89921598D01*
X114276457Y-89941913D01*
X114256502Y-90170000D01*
X114276457Y-90398087D01*
X114277880Y-90403396D01*
X114277881Y-90403402D01*
X114333032Y-90609225D01*
X114335716Y-90619243D01*
X114338039Y-90624224D01*
X114338039Y-90624225D01*
X114430151Y-90821762D01*
X114430154Y-90821767D01*
X114432477Y-90826749D01*
X114473593Y-90885468D01*
X114556028Y-91003197D01*
X114563802Y-91014300D01*
X114725700Y-91176198D01*
X114730208Y-91179355D01*
X114730211Y-91179357D01*
X114777710Y-91212616D01*
X114913251Y-91307523D01*
X114918233Y-91309846D01*
X114918238Y-91309849D01*
X115088589Y-91389284D01*
X115120757Y-91404284D01*
X115126065Y-91405706D01*
X115126067Y-91405707D01*
X115336598Y-91462119D01*
X115336600Y-91462119D01*
X115341913Y-91463543D01*
X115570000Y-91483498D01*
X115798087Y-91463543D01*
X115803400Y-91462119D01*
X115803402Y-91462119D01*
X116013933Y-91405707D01*
X116013935Y-91405706D01*
X116019243Y-91404284D01*
X116051411Y-91389284D01*
X116221762Y-91309849D01*
X116221767Y-91309846D01*
X116226749Y-91307523D01*
X116362290Y-91212616D01*
X116409789Y-91179357D01*
X116409792Y-91179355D01*
X116414300Y-91176198D01*
X116576198Y-91014300D01*
X116579357Y-91009789D01*
X116686181Y-90857229D01*
X116741638Y-90812901D01*
X116789394Y-90803500D01*
X119056110Y-90803500D01*
X119124231Y-90823502D01*
X119159322Y-90857228D01*
X119258802Y-90999300D01*
X119420700Y-91161198D01*
X119425208Y-91164355D01*
X119425211Y-91164357D01*
X119473257Y-91197999D01*
X119608251Y-91292523D01*
X119613233Y-91294846D01*
X119613238Y-91294849D01*
X119647457Y-91310805D01*
X119700742Y-91357722D01*
X119720203Y-91425999D01*
X119699661Y-91493959D01*
X119647457Y-91539195D01*
X119613238Y-91555151D01*
X119613233Y-91555154D01*
X119608251Y-91557477D01*
X119503389Y-91630902D01*
X119425211Y-91685643D01*
X119425208Y-91685645D01*
X119420700Y-91688802D01*
X119258802Y-91850700D01*
X119127477Y-92038251D01*
X119125154Y-92043233D01*
X119125151Y-92043238D01*
X119093245Y-92111661D01*
X119053123Y-92160338D01*
X119051630Y-92161423D01*
X119041696Y-92167950D01*
X119003637Y-92190458D01*
X118989313Y-92204782D01*
X118974281Y-92217621D01*
X118957893Y-92229528D01*
X118929712Y-92263593D01*
X118921722Y-92272373D01*
X117884500Y-93309595D01*
X117822188Y-93343621D01*
X117795405Y-93346500D01*
X116789394Y-93346500D01*
X116721273Y-93326498D01*
X116686181Y-93292771D01*
X116579357Y-93140211D01*
X116579355Y-93140208D01*
X116576198Y-93135700D01*
X116414300Y-92973802D01*
X116409792Y-92970645D01*
X116409789Y-92970643D01*
X116331512Y-92915833D01*
X116226749Y-92842477D01*
X116221767Y-92840154D01*
X116221762Y-92840151D01*
X116024225Y-92748039D01*
X116024224Y-92748039D01*
X116019243Y-92745716D01*
X116013935Y-92744294D01*
X116013933Y-92744293D01*
X115803402Y-92687881D01*
X115803400Y-92687881D01*
X115798087Y-92686457D01*
X115570000Y-92666502D01*
X115341913Y-92686457D01*
X115336600Y-92687881D01*
X115336598Y-92687881D01*
X115126067Y-92744293D01*
X115126065Y-92744294D01*
X115120757Y-92745716D01*
X115115776Y-92748039D01*
X115115775Y-92748039D01*
X114918238Y-92840151D01*
X114918233Y-92840154D01*
X114913251Y-92842477D01*
X114808488Y-92915833D01*
X114730211Y-92970643D01*
X114730208Y-92970645D01*
X114725700Y-92973802D01*
X114563802Y-93135700D01*
X114560645Y-93140208D01*
X114560643Y-93140211D01*
X114554145Y-93149491D01*
X114432477Y-93323251D01*
X114430154Y-93328233D01*
X114430151Y-93328238D01*
X114419188Y-93351749D01*
X114335716Y-93530757D01*
X114334294Y-93536065D01*
X114334293Y-93536067D01*
X114285021Y-93719951D01*
X114276457Y-93751913D01*
X114256502Y-93980000D01*
X114276457Y-94208087D01*
X114277881Y-94213400D01*
X114277881Y-94213402D01*
X114330934Y-94411395D01*
X114335716Y-94429243D01*
X114338039Y-94434224D01*
X114338039Y-94434225D01*
X114430151Y-94631762D01*
X114430154Y-94631767D01*
X114432477Y-94636749D01*
X114563802Y-94824300D01*
X114725700Y-94986198D01*
X114730208Y-94989355D01*
X114730211Y-94989357D01*
X114808389Y-95044098D01*
X114913251Y-95117523D01*
X114918233Y-95119846D01*
X114918238Y-95119849D01*
X115115775Y-95211961D01*
X115120757Y-95214284D01*
X115126065Y-95215706D01*
X115126067Y-95215707D01*
X115336598Y-95272119D01*
X115336600Y-95272119D01*
X115341913Y-95273543D01*
X115570000Y-95293498D01*
X115798087Y-95273543D01*
X115803400Y-95272119D01*
X115803402Y-95272119D01*
X116013933Y-95215707D01*
X116013935Y-95215706D01*
X116019243Y-95214284D01*
X116024225Y-95211961D01*
X116221762Y-95119849D01*
X116221767Y-95119846D01*
X116226749Y-95117523D01*
X116331611Y-95044098D01*
X116409789Y-94989357D01*
X116409792Y-94989355D01*
X116414300Y-94986198D01*
X116576198Y-94824300D01*
X116599468Y-94791067D01*
X116686181Y-94667229D01*
X116741638Y-94622901D01*
X116789394Y-94613500D01*
X118031233Y-94613500D01*
X118042416Y-94614027D01*
X118049909Y-94615702D01*
X118057835Y-94615453D01*
X118057836Y-94615453D01*
X118117986Y-94613562D01*
X118121945Y-94613500D01*
X118149856Y-94613500D01*
X118153791Y-94613003D01*
X118153856Y-94612995D01*
X118165693Y-94612062D01*
X118197951Y-94611048D01*
X118201970Y-94610922D01*
X118209889Y-94610673D01*
X118229343Y-94605021D01*
X118248700Y-94601013D01*
X118260930Y-94599468D01*
X118260931Y-94599468D01*
X118268797Y-94598474D01*
X118276168Y-94595555D01*
X118276170Y-94595555D01*
X118309912Y-94582196D01*
X118321142Y-94578351D01*
X118355983Y-94568229D01*
X118355984Y-94568229D01*
X118363593Y-94566018D01*
X118370412Y-94561985D01*
X118370417Y-94561983D01*
X118381028Y-94555707D01*
X118398776Y-94547012D01*
X118417617Y-94539552D01*
X118453387Y-94513564D01*
X118463307Y-94507048D01*
X118494535Y-94488580D01*
X118494538Y-94488578D01*
X118501362Y-94484542D01*
X118515683Y-94470221D01*
X118530717Y-94457380D01*
X118540694Y-94450131D01*
X118547107Y-94445472D01*
X118575298Y-94411395D01*
X118583288Y-94402616D01*
X119265953Y-93719951D01*
X119328265Y-93685925D01*
X119399080Y-93690990D01*
X119427319Y-93705833D01*
X119508395Y-93762603D01*
X119608251Y-93832523D01*
X119613233Y-93834846D01*
X119613238Y-93834849D01*
X119647457Y-93850805D01*
X119700742Y-93897722D01*
X119720203Y-93965999D01*
X119699661Y-94033959D01*
X119647457Y-94079195D01*
X119613238Y-94095151D01*
X119613233Y-94095154D01*
X119608251Y-94097477D01*
X119503389Y-94170902D01*
X119425211Y-94225643D01*
X119425208Y-94225645D01*
X119420700Y-94228802D01*
X119258802Y-94390700D01*
X119255645Y-94395208D01*
X119255643Y-94395211D01*
X119220450Y-94445472D01*
X119127477Y-94578251D01*
X119125154Y-94583233D01*
X119125151Y-94583238D01*
X119085986Y-94667229D01*
X119030716Y-94785757D01*
X119029294Y-94791065D01*
X119029293Y-94791067D01*
X118976688Y-94987389D01*
X118971457Y-95006913D01*
X118951502Y-95235000D01*
X118971457Y-95463087D01*
X118972881Y-95468400D01*
X118972881Y-95468402D01*
X119003630Y-95583156D01*
X119030716Y-95684243D01*
X119085380Y-95801472D01*
X119096041Y-95871662D01*
X119067061Y-95936474D01*
X119060280Y-95943815D01*
X117884500Y-97119595D01*
X117822188Y-97153621D01*
X117795405Y-97156500D01*
X116789394Y-97156500D01*
X116721273Y-97136498D01*
X116686181Y-97102771D01*
X116579357Y-96950211D01*
X116579355Y-96950208D01*
X116576198Y-96945700D01*
X116414300Y-96783802D01*
X116409792Y-96780645D01*
X116409789Y-96780643D01*
X116317642Y-96716121D01*
X116226749Y-96652477D01*
X116221767Y-96650154D01*
X116221762Y-96650151D01*
X116024225Y-96558039D01*
X116024224Y-96558039D01*
X116019243Y-96555716D01*
X116013935Y-96554294D01*
X116013933Y-96554293D01*
X115803402Y-96497881D01*
X115803400Y-96497881D01*
X115798087Y-96496457D01*
X115570000Y-96476502D01*
X115341913Y-96496457D01*
X115336600Y-96497881D01*
X115336598Y-96497881D01*
X115126067Y-96554293D01*
X115126065Y-96554294D01*
X115120757Y-96555716D01*
X115115776Y-96558039D01*
X115115775Y-96558039D01*
X114918238Y-96650151D01*
X114918233Y-96650154D01*
X114913251Y-96652477D01*
X114822358Y-96716121D01*
X114730211Y-96780643D01*
X114730208Y-96780645D01*
X114725700Y-96783802D01*
X114563802Y-96945700D01*
X114560645Y-96950208D01*
X114560643Y-96950211D01*
X114509561Y-97023164D01*
X114432477Y-97133251D01*
X114430154Y-97138233D01*
X114430151Y-97138238D01*
X114375008Y-97256494D01*
X114335716Y-97340757D01*
X114334294Y-97346065D01*
X114334293Y-97346067D01*
X114294852Y-97493261D01*
X114276457Y-97561913D01*
X114256502Y-97790000D01*
X106723498Y-97790000D01*
X106703543Y-97561913D01*
X106685148Y-97493261D01*
X106645707Y-97346067D01*
X106645706Y-97346065D01*
X106644284Y-97340757D01*
X106604992Y-97256494D01*
X106549849Y-97138238D01*
X106549846Y-97138233D01*
X106547523Y-97133251D01*
X106470439Y-97023164D01*
X106419357Y-96950211D01*
X106419355Y-96950208D01*
X106416198Y-96945700D01*
X106254300Y-96783802D01*
X106249792Y-96780645D01*
X106249789Y-96780643D01*
X106157642Y-96716121D01*
X106066749Y-96652477D01*
X106061767Y-96650154D01*
X106061762Y-96650151D01*
X105864225Y-96558039D01*
X105864224Y-96558039D01*
X105859243Y-96555716D01*
X105853935Y-96554294D01*
X105853933Y-96554293D01*
X105643402Y-96497881D01*
X105643400Y-96497881D01*
X105638087Y-96496457D01*
X105410000Y-96476502D01*
X105181913Y-96496457D01*
X105176600Y-96497881D01*
X105176598Y-96497881D01*
X104966067Y-96554293D01*
X104966065Y-96554294D01*
X104960757Y-96555716D01*
X104955776Y-96558039D01*
X104955775Y-96558039D01*
X104758238Y-96650151D01*
X104758233Y-96650154D01*
X104753251Y-96652477D01*
X104662358Y-96716121D01*
X104570211Y-96780643D01*
X104570208Y-96780645D01*
X104565700Y-96783802D01*
X104403802Y-96945700D01*
X104400645Y-96950208D01*
X104400643Y-96950211D01*
X104293819Y-97102771D01*
X104238362Y-97147099D01*
X104190606Y-97156500D01*
X103818198Y-97156500D01*
X103750077Y-97136498D01*
X103729103Y-97119595D01*
X97628104Y-91018595D01*
X97594078Y-90956283D01*
X97599143Y-90885468D01*
X97641690Y-90828632D01*
X97708210Y-90803821D01*
X97717199Y-90803500D01*
X104190606Y-90803500D01*
X104258727Y-90823502D01*
X104293819Y-90857229D01*
X104400643Y-91009789D01*
X104403802Y-91014300D01*
X104565700Y-91176198D01*
X104570208Y-91179355D01*
X104570211Y-91179357D01*
X104617710Y-91212616D01*
X104753251Y-91307523D01*
X104758233Y-91309846D01*
X104758238Y-91309849D01*
X104928589Y-91389284D01*
X104960757Y-91404284D01*
X104966065Y-91405706D01*
X104966067Y-91405707D01*
X105176598Y-91462119D01*
X105176600Y-91462119D01*
X105181913Y-91463543D01*
X105410000Y-91483498D01*
X105638087Y-91463543D01*
X105643400Y-91462119D01*
X105643402Y-91462119D01*
X105853933Y-91405707D01*
X105853935Y-91405706D01*
X105859243Y-91404284D01*
X105891411Y-91389284D01*
X106061762Y-91309849D01*
X106061767Y-91309846D01*
X106066749Y-91307523D01*
X106202290Y-91212616D01*
X106249789Y-91179357D01*
X106249792Y-91179355D01*
X106254300Y-91176198D01*
X106416198Y-91014300D01*
X106423973Y-91003197D01*
X106506407Y-90885468D01*
X106547523Y-90826749D01*
X106549846Y-90821767D01*
X106549849Y-90821762D01*
X106641961Y-90624225D01*
X106641961Y-90624224D01*
X106644284Y-90619243D01*
X106703543Y-90398087D01*
X106704022Y-90392608D01*
X106704155Y-90391856D01*
X106735681Y-90328243D01*
X106796594Y-90291772D01*
X106867555Y-90294023D01*
X106917336Y-90324638D01*
X107279595Y-90686897D01*
X107313621Y-90749209D01*
X107316500Y-90775992D01*
X107316500Y-92395405D01*
X107296498Y-92463526D01*
X107279595Y-92484500D01*
X106609768Y-93154327D01*
X106547456Y-93188353D01*
X106476641Y-93183288D01*
X106424582Y-93143005D01*
X106422892Y-93144424D01*
X106419357Y-93140211D01*
X106416198Y-93135700D01*
X106254300Y-92973802D01*
X106249792Y-92970645D01*
X106249789Y-92970643D01*
X106171512Y-92915833D01*
X106066749Y-92842477D01*
X106061767Y-92840154D01*
X106061762Y-92840151D01*
X105864225Y-92748039D01*
X105864224Y-92748039D01*
X105859243Y-92745716D01*
X105853935Y-92744294D01*
X105853933Y-92744293D01*
X105643402Y-92687881D01*
X105643400Y-92687881D01*
X105638087Y-92686457D01*
X105410000Y-92666502D01*
X105181913Y-92686457D01*
X105176600Y-92687881D01*
X105176598Y-92687881D01*
X104966067Y-92744293D01*
X104966065Y-92744294D01*
X104960757Y-92745716D01*
X104955776Y-92748039D01*
X104955775Y-92748039D01*
X104758238Y-92840151D01*
X104758233Y-92840154D01*
X104753251Y-92842477D01*
X104648488Y-92915833D01*
X104570211Y-92970643D01*
X104570208Y-92970645D01*
X104565700Y-92973802D01*
X104403802Y-93135700D01*
X104400645Y-93140208D01*
X104400643Y-93140211D01*
X104394145Y-93149491D01*
X104272477Y-93323251D01*
X104270154Y-93328233D01*
X104270151Y-93328238D01*
X104259188Y-93351749D01*
X104175716Y-93530757D01*
X104174294Y-93536065D01*
X104174293Y-93536067D01*
X104125021Y-93719951D01*
X104116457Y-93751913D01*
X104096502Y-93980000D01*
X104116457Y-94208087D01*
X104117881Y-94213400D01*
X104117881Y-94213402D01*
X104170934Y-94411395D01*
X104175716Y-94429243D01*
X104178039Y-94434224D01*
X104178039Y-94434225D01*
X104270151Y-94631762D01*
X104270154Y-94631767D01*
X104272477Y-94636749D01*
X104403802Y-94824300D01*
X104565700Y-94986198D01*
X104570208Y-94989355D01*
X104570211Y-94989357D01*
X104648389Y-95044098D01*
X104753251Y-95117523D01*
X104758233Y-95119846D01*
X104758238Y-95119849D01*
X104955775Y-95211961D01*
X104960757Y-95214284D01*
X104966065Y-95215706D01*
X104966067Y-95215707D01*
X105176598Y-95272119D01*
X105176600Y-95272119D01*
X105181913Y-95273543D01*
X105410000Y-95293498D01*
X105638087Y-95273543D01*
X105643400Y-95272119D01*
X105643402Y-95272119D01*
X105853933Y-95215707D01*
X105853935Y-95215706D01*
X105859243Y-95214284D01*
X105864225Y-95211961D01*
X106061762Y-95119849D01*
X106061767Y-95119846D01*
X106066749Y-95117523D01*
X106171611Y-95044098D01*
X106249789Y-94989357D01*
X106249792Y-94989355D01*
X106254300Y-94986198D01*
X106416198Y-94824300D01*
X106439468Y-94791067D01*
X106524773Y-94669240D01*
X106580230Y-94624912D01*
X106624026Y-94615573D01*
X106684856Y-94613660D01*
X106687986Y-94613562D01*
X106691945Y-94613500D01*
X106719856Y-94613500D01*
X106723791Y-94613003D01*
X106723856Y-94612995D01*
X106735693Y-94612062D01*
X106767951Y-94611048D01*
X106771970Y-94610922D01*
X106779889Y-94610673D01*
X106799343Y-94605021D01*
X106818700Y-94601013D01*
X106830930Y-94599468D01*
X106830931Y-94599468D01*
X106838797Y-94598474D01*
X106846168Y-94595555D01*
X106846170Y-94595555D01*
X106879912Y-94582196D01*
X106891142Y-94578351D01*
X106925983Y-94568229D01*
X106925984Y-94568229D01*
X106933593Y-94566018D01*
X106940412Y-94561985D01*
X106940417Y-94561983D01*
X106951028Y-94555707D01*
X106968776Y-94547012D01*
X106987617Y-94539552D01*
X107023387Y-94513564D01*
X107033307Y-94507048D01*
X107064535Y-94488580D01*
X107064538Y-94488578D01*
X107071362Y-94484542D01*
X107085683Y-94470221D01*
X107100717Y-94457380D01*
X107110694Y-94450131D01*
X107117107Y-94445472D01*
X107145298Y-94411395D01*
X107153288Y-94402616D01*
X108342247Y-93213657D01*
X108350537Y-93206113D01*
X108357018Y-93202000D01*
X108403659Y-93152332D01*
X108406413Y-93149491D01*
X108426134Y-93129770D01*
X108428612Y-93126575D01*
X108436318Y-93117553D01*
X108461158Y-93091101D01*
X108466586Y-93085321D01*
X108476346Y-93067568D01*
X108487199Y-93051045D01*
X108494753Y-93041306D01*
X108499613Y-93035041D01*
X108517176Y-92994457D01*
X108522383Y-92983827D01*
X108543695Y-92945060D01*
X108545666Y-92937383D01*
X108545668Y-92937378D01*
X108548732Y-92925442D01*
X108555138Y-92906730D01*
X108560033Y-92895419D01*
X108563181Y-92888145D01*
X108564421Y-92880317D01*
X108564423Y-92880310D01*
X108570099Y-92844476D01*
X108572505Y-92832856D01*
X108581528Y-92797711D01*
X108581528Y-92797710D01*
X108583500Y-92790030D01*
X108583500Y-92769776D01*
X108585051Y-92750065D01*
X108586980Y-92737886D01*
X108588220Y-92730057D01*
X108584059Y-92686038D01*
X108583500Y-92674181D01*
X108583500Y-90540161D01*
X108584027Y-90528977D01*
X108585701Y-90521489D01*
X108583562Y-90453430D01*
X108583500Y-90449473D01*
X108583500Y-90421542D01*
X108582994Y-90417536D01*
X108582061Y-90405690D01*
X108581627Y-90391856D01*
X108580673Y-90361508D01*
X108575022Y-90342056D01*
X108571014Y-90322704D01*
X108569468Y-90310466D01*
X108569467Y-90310464D01*
X108568474Y-90302601D01*
X108552194Y-90261484D01*
X108548359Y-90250283D01*
X108536018Y-90207804D01*
X108531985Y-90200985D01*
X108531983Y-90200980D01*
X108525707Y-90190369D01*
X108517010Y-90172619D01*
X108509552Y-90153781D01*
X108502792Y-90144476D01*
X108483572Y-90118023D01*
X108477053Y-90108099D01*
X108458578Y-90076858D01*
X108458574Y-90076853D01*
X108454542Y-90070035D01*
X108440218Y-90055711D01*
X108427376Y-90040676D01*
X108425349Y-90037886D01*
X108415472Y-90024291D01*
X108381406Y-89996109D01*
X108372627Y-89988120D01*
X106150245Y-87765738D01*
X106142705Y-87757452D01*
X106138593Y-87750973D01*
X106088941Y-87704347D01*
X106086100Y-87701593D01*
X106066363Y-87681856D01*
X106067199Y-87681020D01*
X106032031Y-87625265D01*
X106032632Y-87554271D01*
X106071519Y-87494872D01*
X106080952Y-87487578D01*
X106249789Y-87369357D01*
X106249792Y-87369355D01*
X106254300Y-87366198D01*
X106416198Y-87204300D01*
X106437422Y-87173990D01*
X106525271Y-87048528D01*
X106547523Y-87016749D01*
X106549846Y-87011767D01*
X106549849Y-87011762D01*
X106641961Y-86814225D01*
X106641961Y-86814224D01*
X106644284Y-86809243D01*
X106658015Y-86758001D01*
X106702119Y-86593402D01*
X106702119Y-86593400D01*
X106703543Y-86588087D01*
X106723498Y-86360000D01*
X106703543Y-86131913D01*
X106680982Y-86047715D01*
X106645707Y-85916067D01*
X106645706Y-85916065D01*
X106644284Y-85910757D01*
X106630591Y-85881392D01*
X106549849Y-85708238D01*
X106549846Y-85708233D01*
X106547523Y-85703251D01*
X106439047Y-85548332D01*
X106419357Y-85520211D01*
X106419355Y-85520208D01*
X106416198Y-85515700D01*
X106254300Y-85353802D01*
X106249792Y-85350645D01*
X106249789Y-85350643D01*
X106123772Y-85262405D01*
X106066749Y-85222477D01*
X106061767Y-85220154D01*
X106061762Y-85220151D01*
X105864225Y-85128039D01*
X105864224Y-85128039D01*
X105859243Y-85125716D01*
X105853935Y-85124294D01*
X105853933Y-85124293D01*
X105643402Y-85067881D01*
X105643400Y-85067881D01*
X105638087Y-85066457D01*
X105410000Y-85046502D01*
X105181913Y-85066457D01*
X105176600Y-85067881D01*
X105176598Y-85067881D01*
X104966067Y-85124293D01*
X104966065Y-85124294D01*
X104960757Y-85125716D01*
X104955776Y-85128039D01*
X104955775Y-85128039D01*
X104758238Y-85220151D01*
X104758233Y-85220154D01*
X104753251Y-85222477D01*
X104696228Y-85262405D01*
X104570211Y-85350643D01*
X104570208Y-85350645D01*
X104565700Y-85353802D01*
X104403802Y-85515700D01*
X104400645Y-85520208D01*
X104400643Y-85520211D01*
X104380953Y-85548332D01*
X104272477Y-85703251D01*
X104270154Y-85708233D01*
X104270151Y-85708238D01*
X104189409Y-85881392D01*
X104175716Y-85910757D01*
X104174294Y-85916065D01*
X104174293Y-85916067D01*
X104139018Y-86047715D01*
X104116457Y-86131913D01*
X104096502Y-86360000D01*
X104116457Y-86588087D01*
X104117881Y-86593400D01*
X104117881Y-86593402D01*
X104161986Y-86758001D01*
X104175716Y-86809243D01*
X104178039Y-86814224D01*
X104178039Y-86814225D01*
X104270151Y-87011762D01*
X104270154Y-87011767D01*
X104272477Y-87016749D01*
X104294729Y-87048528D01*
X104382579Y-87173990D01*
X104403802Y-87204300D01*
X104508898Y-87309396D01*
X104542924Y-87371708D01*
X104537859Y-87442523D01*
X104495312Y-87499359D01*
X104428792Y-87524170D01*
X104419803Y-87524491D01*
X99892586Y-87524491D01*
X99824465Y-87504489D01*
X99803491Y-87487586D01*
X99136218Y-86820313D01*
X99102192Y-86758001D01*
X99104755Y-86694589D01*
X99115865Y-86658022D01*
X99117370Y-86653069D01*
X99146529Y-86431590D01*
X99147001Y-86412278D01*
X99148074Y-86368365D01*
X99148074Y-86368361D01*
X99148156Y-86365000D01*
X99129852Y-86142361D01*
X99075431Y-85925702D01*
X98986354Y-85720840D01*
X98878133Y-85553556D01*
X98867822Y-85537617D01*
X98867820Y-85537614D01*
X98865014Y-85533277D01*
X98714670Y-85368051D01*
X98710619Y-85364852D01*
X98710615Y-85364848D01*
X98543414Y-85232800D01*
X98543410Y-85232798D01*
X98539359Y-85229598D01*
X98498053Y-85206796D01*
X98448084Y-85156364D01*
X98433312Y-85086921D01*
X98458428Y-85020516D01*
X98485780Y-84993909D01*
X98529603Y-84962650D01*
X98664860Y-84866173D01*
X98684188Y-84846913D01*
X98819435Y-84712137D01*
X98823096Y-84708489D01*
X98953453Y-84527077D01*
X98962621Y-84508528D01*
X99050136Y-84331453D01*
X99050137Y-84331451D01*
X99052430Y-84326811D01*
X99117370Y-84113069D01*
X99146529Y-83891590D01*
X99147136Y-83866739D01*
X99148074Y-83828365D01*
X99148074Y-83828361D01*
X99148156Y-83825000D01*
X99129852Y-83602361D01*
X99075431Y-83385702D01*
X98986354Y-83180840D01*
X98909050Y-83061346D01*
X98867822Y-82997617D01*
X98867820Y-82997614D01*
X98865014Y-82993277D01*
X98714670Y-82828051D01*
X98710619Y-82824852D01*
X98710615Y-82824848D01*
X98543414Y-82692800D01*
X98543410Y-82692798D01*
X98539359Y-82689598D01*
X98498053Y-82666796D01*
X98448084Y-82616364D01*
X98433312Y-82546921D01*
X98458428Y-82480516D01*
X98485780Y-82453909D01*
X98529603Y-82422650D01*
X98664860Y-82326173D01*
X98684188Y-82306913D01*
X98819435Y-82172137D01*
X98823096Y-82168489D01*
X98868089Y-82105875D01*
X98950435Y-81991277D01*
X98953453Y-81987077D01*
X98958037Y-81977803D01*
X99050136Y-81791453D01*
X99050137Y-81791451D01*
X99052430Y-81786811D01*
X99117370Y-81573069D01*
X99146529Y-81351590D01*
X99146642Y-81346967D01*
X99148074Y-81288365D01*
X99148074Y-81288361D01*
X99148156Y-81285000D01*
X99129852Y-81062361D01*
X99085839Y-80887137D01*
X99076689Y-80850709D01*
X99076688Y-80850705D01*
X99075431Y-80845702D01*
X99073371Y-80840964D01*
X99068178Y-80829020D01*
X99059359Y-80758573D01*
X99090025Y-80694541D01*
X99150442Y-80657254D01*
X99183728Y-80652778D01*
X102564684Y-80652778D01*
X102632805Y-80672780D01*
X102653779Y-80689683D01*
X104100848Y-82136752D01*
X104134874Y-82199064D01*
X104133459Y-82258459D01*
X104117882Y-82316591D01*
X104117881Y-82316598D01*
X104116457Y-82321913D01*
X104096502Y-82550000D01*
X104116457Y-82778087D01*
X104117881Y-82783400D01*
X104117881Y-82783402D01*
X104173032Y-82989225D01*
X104175716Y-82999243D01*
X104178039Y-83004224D01*
X104178039Y-83004225D01*
X104270151Y-83201762D01*
X104270154Y-83201767D01*
X104272477Y-83206749D01*
X104299975Y-83246020D01*
X104397782Y-83385702D01*
X104403802Y-83394300D01*
X104565700Y-83556198D01*
X104570208Y-83559355D01*
X104570211Y-83559357D01*
X104631627Y-83602361D01*
X104753251Y-83687523D01*
X104758233Y-83689846D01*
X104758238Y-83689849D01*
X104922771Y-83766571D01*
X104960757Y-83784284D01*
X104966065Y-83785706D01*
X104966067Y-83785707D01*
X105176598Y-83842119D01*
X105176600Y-83842119D01*
X105181913Y-83843543D01*
X105410000Y-83863498D01*
X105638087Y-83843543D01*
X105643400Y-83842119D01*
X105643402Y-83842119D01*
X105853933Y-83785707D01*
X105853935Y-83785706D01*
X105859243Y-83784284D01*
X105897229Y-83766571D01*
X106061762Y-83689849D01*
X106061767Y-83689846D01*
X106066749Y-83687523D01*
X106188373Y-83602361D01*
X106249789Y-83559357D01*
X106249792Y-83559355D01*
X106254300Y-83556198D01*
X106416198Y-83394300D01*
X106422219Y-83385702D01*
X106520025Y-83246020D01*
X106547523Y-83206749D01*
X106549846Y-83201767D01*
X106549849Y-83201762D01*
X106641961Y-83004225D01*
X106641961Y-83004224D01*
X106644284Y-82999243D01*
X106646969Y-82989225D01*
X106702119Y-82783402D01*
X106702119Y-82783400D01*
X106703543Y-82778087D01*
X106723498Y-82550000D01*
X106703543Y-82321913D01*
X106690423Y-82272947D01*
X106645707Y-82106067D01*
X106645706Y-82106065D01*
X106644284Y-82100757D01*
X106638848Y-82089099D01*
X106549849Y-81898238D01*
X106549846Y-81898233D01*
X106547523Y-81893251D01*
X106449869Y-81753787D01*
X106419357Y-81710211D01*
X106419355Y-81710208D01*
X106416198Y-81705700D01*
X106254300Y-81543802D01*
X106249792Y-81540645D01*
X106249789Y-81540643D01*
X106162849Y-81479767D01*
X106066749Y-81412477D01*
X106061767Y-81410154D01*
X106061762Y-81410151D01*
X105864225Y-81318039D01*
X105864224Y-81318039D01*
X105859243Y-81315716D01*
X105853935Y-81314294D01*
X105853933Y-81314293D01*
X105643402Y-81257881D01*
X105643400Y-81257881D01*
X105638087Y-81256457D01*
X105410000Y-81236502D01*
X105181913Y-81256457D01*
X105118458Y-81273460D01*
X105047482Y-81271770D01*
X104996753Y-81240848D01*
X103382930Y-79627025D01*
X103375390Y-79618739D01*
X103371278Y-79612260D01*
X103354337Y-79596351D01*
X103318370Y-79535139D01*
X103321207Y-79464199D01*
X103361946Y-79406055D01*
X103427654Y-79379166D01*
X103440588Y-79378500D01*
X104194107Y-79378500D01*
X104262228Y-79398502D01*
X104297320Y-79432229D01*
X104390792Y-79565720D01*
X104403802Y-79584300D01*
X104565700Y-79746198D01*
X104570208Y-79749355D01*
X104570211Y-79749357D01*
X104617576Y-79782522D01*
X104753251Y-79877523D01*
X104758233Y-79879846D01*
X104758238Y-79879849D01*
X104921791Y-79956114D01*
X104960757Y-79974284D01*
X104966065Y-79975706D01*
X104966067Y-79975707D01*
X105176598Y-80032119D01*
X105176600Y-80032119D01*
X105181913Y-80033543D01*
X105410000Y-80053498D01*
X105638087Y-80033543D01*
X105643400Y-80032119D01*
X105643402Y-80032119D01*
X105853933Y-79975707D01*
X105853935Y-79975706D01*
X105859243Y-79974284D01*
X105898209Y-79956114D01*
X106061762Y-79879849D01*
X106061767Y-79879846D01*
X106066749Y-79877523D01*
X106202424Y-79782522D01*
X106249789Y-79749357D01*
X106249792Y-79749355D01*
X106254300Y-79746198D01*
X106416198Y-79584300D01*
X106430207Y-79564294D01*
X106500294Y-79464199D01*
X106547523Y-79396749D01*
X106549846Y-79391767D01*
X106549849Y-79391762D01*
X106641961Y-79194225D01*
X106641961Y-79194224D01*
X106644284Y-79189243D01*
X106650926Y-79164457D01*
X106702119Y-78973402D01*
X106702120Y-78973398D01*
X106703543Y-78968087D01*
X106723498Y-78740000D01*
X106703543Y-78511913D01*
X106688910Y-78457301D01*
X106645707Y-78296067D01*
X106645706Y-78296065D01*
X106644284Y-78290757D01*
X106638940Y-78279297D01*
X106549849Y-78088238D01*
X106549846Y-78088233D01*
X106547523Y-78083251D01*
X106459021Y-77956857D01*
X106419357Y-77900211D01*
X106419355Y-77900208D01*
X106416198Y-77895700D01*
X106254300Y-77733802D01*
X106249792Y-77730645D01*
X106249789Y-77730643D01*
X106147098Y-77658738D01*
X106066749Y-77602477D01*
X106061767Y-77600154D01*
X106061762Y-77600151D01*
X105864225Y-77508039D01*
X105864224Y-77508039D01*
X105859243Y-77505716D01*
X105853935Y-77504294D01*
X105853933Y-77504293D01*
X105643402Y-77447881D01*
X105643400Y-77447881D01*
X105638087Y-77446457D01*
X105410000Y-77426502D01*
X105181913Y-77446457D01*
X105176600Y-77447881D01*
X105176598Y-77447881D01*
X104966067Y-77504293D01*
X104966065Y-77504294D01*
X104960757Y-77505716D01*
X104955776Y-77508039D01*
X104955775Y-77508039D01*
X104758238Y-77600151D01*
X104758233Y-77600154D01*
X104753251Y-77602477D01*
X104672902Y-77658738D01*
X104570211Y-77730643D01*
X104570208Y-77730645D01*
X104565700Y-77733802D01*
X104403802Y-77895700D01*
X104400645Y-77900208D01*
X104400643Y-77900211D01*
X104290318Y-78057771D01*
X104234861Y-78102099D01*
X104187105Y-78111500D01*
X99061805Y-78111500D01*
X98993684Y-78091498D01*
X98956013Y-78053940D01*
X98867822Y-77917617D01*
X98867820Y-77917614D01*
X98865014Y-77913277D01*
X98714670Y-77748051D01*
X98710619Y-77744852D01*
X98710615Y-77744848D01*
X98543414Y-77612800D01*
X98543410Y-77612798D01*
X98539359Y-77609598D01*
X98498053Y-77586796D01*
X98448084Y-77536364D01*
X98433312Y-77466921D01*
X98458428Y-77400516D01*
X98485780Y-77373909D01*
X98529603Y-77342650D01*
X98664860Y-77246173D01*
X98678740Y-77232342D01*
X98783830Y-77127618D01*
X98823096Y-77088489D01*
X98845263Y-77057641D01*
X98950435Y-76911277D01*
X98953453Y-76907077D01*
X98955746Y-76902437D01*
X98957446Y-76899608D01*
X99009674Y-76851518D01*
X99065451Y-76838500D01*
X104056233Y-76838500D01*
X104067416Y-76839027D01*
X104074909Y-76840702D01*
X104082835Y-76840453D01*
X104082836Y-76840453D01*
X104142986Y-76838562D01*
X104146945Y-76838500D01*
X104174856Y-76838500D01*
X104178791Y-76838003D01*
X104178856Y-76837995D01*
X104190693Y-76837062D01*
X104222951Y-76836048D01*
X104226970Y-76835922D01*
X104234889Y-76835673D01*
X104254343Y-76830021D01*
X104273700Y-76826013D01*
X104285930Y-76824468D01*
X104285931Y-76824468D01*
X104293797Y-76823474D01*
X104301168Y-76820555D01*
X104301170Y-76820555D01*
X104334912Y-76807196D01*
X104346142Y-76803351D01*
X104380983Y-76793229D01*
X104380984Y-76793229D01*
X104388593Y-76791018D01*
X104395412Y-76786985D01*
X104395417Y-76786983D01*
X104406028Y-76780707D01*
X104423776Y-76772012D01*
X104442617Y-76764552D01*
X104478387Y-76738564D01*
X104488307Y-76732048D01*
X104519535Y-76713580D01*
X104519538Y-76713578D01*
X104526362Y-76709542D01*
X104540683Y-76695221D01*
X104555717Y-76682380D01*
X104565694Y-76675131D01*
X104572107Y-76670472D01*
X104600298Y-76636395D01*
X104608288Y-76627616D01*
X104996752Y-76239152D01*
X105059064Y-76205126D01*
X105118459Y-76206541D01*
X105176591Y-76222118D01*
X105176602Y-76222120D01*
X105181913Y-76223543D01*
X105410000Y-76243498D01*
X105638087Y-76223543D01*
X105643400Y-76222119D01*
X105643402Y-76222119D01*
X105853933Y-76165707D01*
X105853935Y-76165706D01*
X105859243Y-76164284D01*
X105864225Y-76161961D01*
X106061762Y-76069849D01*
X106061767Y-76069846D01*
X106066749Y-76067523D01*
X106171611Y-75994098D01*
X106249789Y-75939357D01*
X106249792Y-75939355D01*
X106254300Y-75936198D01*
X106416198Y-75774300D01*
X106547523Y-75586749D01*
X106549846Y-75581767D01*
X106549849Y-75581762D01*
X106641961Y-75384225D01*
X106641961Y-75384224D01*
X106644284Y-75379243D01*
X106649742Y-75358876D01*
X106702119Y-75163402D01*
X106702120Y-75163398D01*
X106703543Y-75158087D01*
X106723498Y-74930000D01*
X106703543Y-74701913D01*
X106668849Y-74572434D01*
X106645707Y-74486067D01*
X106645706Y-74486065D01*
X106644284Y-74480757D01*
X106618913Y-74426348D01*
X106549849Y-74278238D01*
X106549846Y-74278233D01*
X106547523Y-74273251D01*
X106416198Y-74085700D01*
X106254300Y-73923802D01*
X106249792Y-73920645D01*
X106249789Y-73920643D01*
X106094899Y-73812188D01*
X106066749Y-73792477D01*
X106061767Y-73790154D01*
X106061762Y-73790151D01*
X105864225Y-73698039D01*
X105864224Y-73698039D01*
X105859243Y-73695716D01*
X105853935Y-73694294D01*
X105853933Y-73694293D01*
X105643402Y-73637881D01*
X105643400Y-73637881D01*
X105638087Y-73636457D01*
X105410000Y-73616502D01*
X105181913Y-73636457D01*
X105176600Y-73637881D01*
X105176598Y-73637881D01*
X104966067Y-73694293D01*
X104966065Y-73694294D01*
X104960757Y-73695716D01*
X104955776Y-73698039D01*
X104955775Y-73698039D01*
X104758238Y-73790151D01*
X104758233Y-73790154D01*
X104753251Y-73792477D01*
X104725101Y-73812188D01*
X104570211Y-73920643D01*
X104570208Y-73920645D01*
X104565700Y-73923802D01*
X104403802Y-74085700D01*
X104272477Y-74273251D01*
X104270154Y-74278233D01*
X104270151Y-74278238D01*
X104201087Y-74426348D01*
X104175716Y-74480757D01*
X104174294Y-74486065D01*
X104174293Y-74486067D01*
X104151151Y-74572434D01*
X104116457Y-74701913D01*
X104096502Y-74930000D01*
X104116457Y-75158087D01*
X104133460Y-75221541D01*
X104131770Y-75292518D01*
X104100848Y-75343247D01*
X103909500Y-75534595D01*
X103847188Y-75568621D01*
X103820405Y-75571500D01*
X99061805Y-75571500D01*
X98993684Y-75551498D01*
X98956013Y-75513940D01*
X98867822Y-75377617D01*
X98867820Y-75377614D01*
X98865014Y-75373277D01*
X98714670Y-75208051D01*
X98710619Y-75204852D01*
X98710615Y-75204848D01*
X98543414Y-75072800D01*
X98543410Y-75072798D01*
X98539359Y-75069598D01*
X98343789Y-74961638D01*
X98338920Y-74959914D01*
X98338916Y-74959912D01*
X98138087Y-74888795D01*
X98138083Y-74888794D01*
X98133212Y-74887069D01*
X98128119Y-74886162D01*
X98128116Y-74886161D01*
X97918373Y-74848800D01*
X97918367Y-74848799D01*
X97913284Y-74847894D01*
X97839452Y-74846992D01*
X97695081Y-74845228D01*
X97695079Y-74845228D01*
X97689911Y-74845165D01*
X97469091Y-74878955D01*
X97256756Y-74948357D01*
X97058607Y-75051507D01*
X97054474Y-75054610D01*
X97054471Y-75054612D01*
X96884100Y-75182530D01*
X96879965Y-75185635D01*
X96823537Y-75244684D01*
X96799283Y-75270064D01*
X96737759Y-75305494D01*
X96666846Y-75302037D01*
X96609060Y-75260791D01*
X96590207Y-75227243D01*
X96548767Y-75116703D01*
X96545615Y-75108295D01*
X96458261Y-74991739D01*
X96341705Y-74904385D01*
X96205316Y-74853255D01*
X96143134Y-74846500D01*
X94346866Y-74846500D01*
X94284684Y-74853255D01*
X94148295Y-74904385D01*
X94031739Y-74991739D01*
X93944385Y-75108295D01*
X93893255Y-75244684D01*
X93886500Y-75306866D01*
X93886500Y-77103134D01*
X93893255Y-77165316D01*
X93944385Y-77301705D01*
X94031739Y-77418261D01*
X94148295Y-77505615D01*
X94156704Y-77508767D01*
X94156705Y-77508768D01*
X94265451Y-77549535D01*
X94322216Y-77592176D01*
X94346916Y-77658738D01*
X94331709Y-77728087D01*
X94312316Y-77754568D01*
X94185629Y-77887138D01*
X94182720Y-77891403D01*
X94182714Y-77891411D01*
X94131524Y-77966453D01*
X94059743Y-78071680D01*
X93965688Y-78274305D01*
X93905989Y-78489570D01*
X93882251Y-78711695D01*
X93882548Y-78716848D01*
X93882548Y-78716851D01*
X93890923Y-78862104D01*
X93895110Y-78934715D01*
X93896247Y-78939761D01*
X93896248Y-78939767D01*
X93910510Y-79003051D01*
X93944222Y-79152639D01*
X93998449Y-79286184D01*
X94021616Y-79343238D01*
X94028266Y-79359616D01*
X94070495Y-79428528D01*
X94139276Y-79540768D01*
X94144987Y-79550088D01*
X94291250Y-79718938D01*
X94463126Y-79861632D01*
X94494301Y-79879849D01*
X94536445Y-79904476D01*
X94585169Y-79956114D01*
X94598240Y-80025897D01*
X94571509Y-80091669D01*
X94531055Y-80125027D01*
X94518607Y-80131507D01*
X94514474Y-80134610D01*
X94514471Y-80134612D01*
X94344100Y-80262530D01*
X94339965Y-80265635D01*
X94185629Y-80427138D01*
X94182715Y-80431410D01*
X94182714Y-80431411D01*
X94131725Y-80506158D01*
X94059743Y-80611680D01*
X93965688Y-80814305D01*
X93905989Y-81029570D01*
X93882251Y-81251695D01*
X93882548Y-81256848D01*
X93882548Y-81256851D01*
X93890947Y-81402520D01*
X93895110Y-81474715D01*
X93896247Y-81479761D01*
X93896248Y-81479767D01*
X93911454Y-81547240D01*
X93944222Y-81692639D01*
X93946166Y-81697426D01*
X93946167Y-81697430D01*
X93967021Y-81748789D01*
X93974117Y-81819430D01*
X93941894Y-81882693D01*
X93881799Y-81917783D01*
X93881649Y-81917788D01*
X93876076Y-81919407D01*
X93876072Y-81919408D01*
X93862197Y-81923439D01*
X93842834Y-81927450D01*
X93822741Y-81929988D01*
X93815374Y-81932905D01*
X93815369Y-81932906D01*
X93781630Y-81946264D01*
X93770403Y-81950108D01*
X93727945Y-81962444D01*
X93721119Y-81966481D01*
X93710510Y-81972755D01*
X93692762Y-81981450D01*
X93673921Y-81988910D01*
X93667505Y-81993572D01*
X93667504Y-81993572D01*
X93638151Y-82014898D01*
X93628231Y-82021414D01*
X93597003Y-82039882D01*
X93597000Y-82039884D01*
X93590176Y-82043920D01*
X93575855Y-82058241D01*
X93560822Y-82071081D01*
X93544431Y-82082990D01*
X93533566Y-82096124D01*
X93516250Y-82117055D01*
X93508260Y-82125836D01*
X92835300Y-82798795D01*
X92827021Y-82806329D01*
X92820540Y-82810442D01*
X92773915Y-82860093D01*
X92771160Y-82862935D01*
X92751423Y-82882672D01*
X92748943Y-82885869D01*
X92741240Y-82894889D01*
X92710972Y-82927121D01*
X92707153Y-82934067D01*
X92707151Y-82934070D01*
X92701210Y-82944876D01*
X92690359Y-82961395D01*
X92677944Y-82977401D01*
X92674799Y-82984670D01*
X92674796Y-82984674D01*
X92660384Y-83017979D01*
X92655167Y-83028629D01*
X92633863Y-83067382D01*
X92631892Y-83075057D01*
X92631892Y-83075058D01*
X92628825Y-83087004D01*
X92622421Y-83105708D01*
X92614377Y-83124297D01*
X92613138Y-83132120D01*
X92613135Y-83132130D01*
X92607459Y-83167966D01*
X92605053Y-83179586D01*
X92600774Y-83196253D01*
X92594058Y-83222412D01*
X92594058Y-83242666D01*
X92592507Y-83262376D01*
X92589338Y-83282385D01*
X92590084Y-83290277D01*
X92593499Y-83326403D01*
X92594058Y-83338261D01*
X92594058Y-87435187D01*
X92593531Y-87446370D01*
X92591856Y-87453863D01*
X92592105Y-87461789D01*
X92592105Y-87461790D01*
X92593996Y-87521940D01*
X92594058Y-87525899D01*
X92594058Y-87553810D01*
X92594555Y-87557744D01*
X92594555Y-87557745D01*
X92594563Y-87557810D01*
X92595496Y-87569647D01*
X92596885Y-87613843D01*
X92600670Y-87626870D01*
X92602536Y-87633293D01*
X92606545Y-87652654D01*
X92609084Y-87672751D01*
X92612003Y-87680122D01*
X92612003Y-87680124D01*
X92625362Y-87713866D01*
X92629207Y-87725096D01*
X92635149Y-87745548D01*
X92641540Y-87767547D01*
X92645573Y-87774366D01*
X92645575Y-87774371D01*
X92651851Y-87784982D01*
X92660546Y-87802730D01*
X92668006Y-87821571D01*
X92672668Y-87827987D01*
X92672668Y-87827988D01*
X92693994Y-87857341D01*
X92700510Y-87867261D01*
X92723016Y-87905316D01*
X92737337Y-87919637D01*
X92750177Y-87934670D01*
X92762086Y-87951061D01*
X92786238Y-87971041D01*
X92796163Y-87979252D01*
X92804942Y-87987242D01*
X99564564Y-94746864D01*
X99598590Y-94809176D01*
X99593525Y-94879991D01*
X99550978Y-94936827D01*
X99484458Y-94961638D01*
X99446057Y-94958478D01*
X99400195Y-94947468D01*
X99317216Y-94927546D01*
X99317210Y-94927545D01*
X99312403Y-94926391D01*
X99060000Y-94906526D01*
X98807597Y-94926391D01*
X98802790Y-94927545D01*
X98802784Y-94927546D01*
X98673944Y-94958478D01*
X98561409Y-94985495D01*
X98556838Y-94987388D01*
X98556836Y-94987389D01*
X98332072Y-95080489D01*
X98332068Y-95080491D01*
X98327498Y-95082384D01*
X98323279Y-95084969D01*
X98323268Y-95084975D01*
X98202186Y-95159175D01*
X98133653Y-95177714D01*
X98065976Y-95156258D01*
X98035525Y-95127308D01*
X97988285Y-95064276D01*
X97975724Y-95051715D01*
X97873649Y-94975214D01*
X97858054Y-94966676D01*
X97737606Y-94921522D01*
X97722351Y-94917895D01*
X97671486Y-94912369D01*
X97664672Y-94912000D01*
X96792115Y-94912000D01*
X96776876Y-94916475D01*
X96775671Y-94917865D01*
X96774000Y-94925548D01*
X96774000Y-96648000D01*
X96753998Y-96716121D01*
X96700342Y-96762614D01*
X96648000Y-96774000D01*
X94930116Y-96774000D01*
X94914877Y-96778475D01*
X94913672Y-96779865D01*
X94912001Y-96787548D01*
X94912001Y-97664669D01*
X94912371Y-97671490D01*
X94917895Y-97722352D01*
X94921521Y-97737604D01*
X94966676Y-97858054D01*
X94975214Y-97873649D01*
X95051715Y-97975724D01*
X95064276Y-97988285D01*
X95166351Y-98064786D01*
X95181946Y-98073324D01*
X95302394Y-98118478D01*
X95317649Y-98122105D01*
X95368514Y-98127631D01*
X95375328Y-98128000D01*
X95649435Y-98128000D01*
X95717556Y-98148002D01*
X95764049Y-98201658D01*
X95774153Y-98271932D01*
X95746519Y-98334316D01*
X95683058Y-98411027D01*
X95638217Y-98465230D01*
X95635288Y-98470647D01*
X95635286Y-98470650D01*
X95542416Y-98642410D01*
X95542414Y-98642415D01*
X95539486Y-98647830D01*
X95478102Y-98846129D01*
X95477458Y-98852254D01*
X95477458Y-98852255D01*
X95459622Y-99021961D01*
X95456404Y-99052575D01*
X95475218Y-99259303D01*
X95476956Y-99265209D01*
X95476957Y-99265213D01*
X95494602Y-99325164D01*
X95533827Y-99458440D01*
X95629999Y-99642400D01*
X95760071Y-99804177D01*
X95764788Y-99808135D01*
X95764790Y-99808137D01*
X95868681Y-99895312D01*
X95919089Y-99937609D01*
X95924481Y-99940573D01*
X95924485Y-99940576D01*
X96038636Y-100003331D01*
X96100995Y-100037613D01*
X96245267Y-100083378D01*
X96246906Y-100083898D01*
X96305790Y-100123561D01*
X96333883Y-100188763D01*
X96322266Y-100258803D01*
X96274626Y-100311443D01*
X96208808Y-100330000D01*
X90479210Y-100330000D01*
X90411089Y-100309998D01*
X90364596Y-100256342D01*
X90354492Y-100186068D01*
X90383986Y-100121488D01*
X90442793Y-100083378D01*
X90569407Y-100045152D01*
X90569410Y-100045151D01*
X90575315Y-100043368D01*
X90582635Y-100039476D01*
X90753153Y-99948809D01*
X90753155Y-99948808D01*
X90758599Y-99945913D01*
X90891624Y-99837421D01*
X90914689Y-99818610D01*
X90914692Y-99818607D01*
X90919464Y-99814715D01*
X91051783Y-99654770D01*
X91055876Y-99647201D01*
X91147584Y-99477590D01*
X91147586Y-99477585D01*
X91150514Y-99472170D01*
X91211898Y-99273871D01*
X91213429Y-99259303D01*
X91232952Y-99073554D01*
X91232952Y-99073552D01*
X91233596Y-99067425D01*
X91225777Y-98981515D01*
X91215341Y-98866836D01*
X91215340Y-98866833D01*
X91214782Y-98860697D01*
X91212298Y-98852255D01*
X91167495Y-98700029D01*
X91156173Y-98661560D01*
X91060001Y-98477600D01*
X90929929Y-98315823D01*
X90925209Y-98311862D01*
X90793688Y-98201503D01*
X90754361Y-98142393D01*
X90753235Y-98071405D01*
X90790666Y-98011078D01*
X90826461Y-97988572D01*
X90897700Y-97959064D01*
X90906494Y-97954583D01*
X91101167Y-97835287D01*
X91110627Y-97824830D01*
X91106844Y-97816054D01*
X89899885Y-96609095D01*
X89865859Y-96546783D01*
X89867694Y-96521132D01*
X90534408Y-96521132D01*
X90534539Y-96522965D01*
X90538790Y-96529580D01*
X91463010Y-97453800D01*
X91475390Y-97460560D01*
X91483040Y-97454833D01*
X91604583Y-97256494D01*
X91609064Y-97247700D01*
X91702134Y-97023009D01*
X91705183Y-97013624D01*
X91761959Y-96777137D01*
X91763502Y-96767390D01*
X91782584Y-96524930D01*
X91782584Y-96515070D01*
X91763502Y-96272610D01*
X91761959Y-96262863D01*
X91758363Y-96247885D01*
X94912000Y-96247885D01*
X94916475Y-96263124D01*
X94917865Y-96264329D01*
X94925548Y-96266000D01*
X96247885Y-96266000D01*
X96263124Y-96261525D01*
X96264329Y-96260135D01*
X96266000Y-96252452D01*
X96266000Y-94930116D01*
X96261525Y-94914877D01*
X96260135Y-94913672D01*
X96252452Y-94912001D01*
X95375331Y-94912001D01*
X95368510Y-94912371D01*
X95317648Y-94917895D01*
X95302396Y-94921521D01*
X95181946Y-94966676D01*
X95166351Y-94975214D01*
X95064276Y-95051715D01*
X95051715Y-95064276D01*
X94975214Y-95166351D01*
X94966676Y-95181946D01*
X94921522Y-95302394D01*
X94917895Y-95317649D01*
X94912369Y-95368514D01*
X94912000Y-95375328D01*
X94912000Y-96247885D01*
X91758363Y-96247885D01*
X91705183Y-96026376D01*
X91702134Y-96016991D01*
X91609064Y-95792300D01*
X91604583Y-95783506D01*
X91485287Y-95588833D01*
X91474830Y-95579373D01*
X91466054Y-95583156D01*
X90542022Y-96507188D01*
X90534408Y-96521132D01*
X89867694Y-96521132D01*
X89870924Y-96475968D01*
X89899885Y-96430905D01*
X91103800Y-95226990D01*
X91110560Y-95214610D01*
X91104833Y-95206960D01*
X90906494Y-95085417D01*
X90897700Y-95080936D01*
X90673009Y-94987866D01*
X90663624Y-94984817D01*
X90427137Y-94928041D01*
X90417390Y-94926498D01*
X90174930Y-94907416D01*
X90165070Y-94907416D01*
X89922610Y-94926498D01*
X89912863Y-94928041D01*
X89676376Y-94984817D01*
X89666991Y-94987866D01*
X89442300Y-95080936D01*
X89433506Y-95085417D01*
X89312915Y-95159315D01*
X89244381Y-95177853D01*
X89176704Y-95156396D01*
X89146254Y-95127447D01*
X89098643Y-95063920D01*
X89098642Y-95063919D01*
X89093261Y-95056739D01*
X88976705Y-94969385D01*
X88840316Y-94918255D01*
X88778134Y-94911500D01*
X88389500Y-94911500D01*
X88321379Y-94891498D01*
X88274886Y-94837842D01*
X88263500Y-94785500D01*
X88263500Y-91754594D01*
X88283502Y-91686473D01*
X88300405Y-91665499D01*
X91832247Y-88133657D01*
X91840537Y-88126113D01*
X91847018Y-88122000D01*
X91893659Y-88072332D01*
X91896413Y-88069491D01*
X91916135Y-88049769D01*
X91918612Y-88046576D01*
X91926317Y-88037555D01*
X91951159Y-88011100D01*
X91956586Y-88005321D01*
X91960407Y-87998371D01*
X91966346Y-87987568D01*
X91977202Y-87971041D01*
X91984757Y-87961302D01*
X91984758Y-87961300D01*
X91989614Y-87955040D01*
X92007174Y-87914460D01*
X92012391Y-87903812D01*
X92029875Y-87872009D01*
X92029876Y-87872007D01*
X92033695Y-87865060D01*
X92038733Y-87845437D01*
X92045137Y-87826734D01*
X92050033Y-87815420D01*
X92050033Y-87815419D01*
X92053181Y-87808145D01*
X92054420Y-87800322D01*
X92054423Y-87800312D01*
X92060099Y-87764476D01*
X92062505Y-87752856D01*
X92071528Y-87717711D01*
X92071528Y-87717710D01*
X92073500Y-87710030D01*
X92073500Y-87689776D01*
X92075051Y-87670065D01*
X92076980Y-87657886D01*
X92078220Y-87650057D01*
X92074059Y-87606038D01*
X92073500Y-87594181D01*
X92073500Y-75244594D01*
X92093502Y-75176473D01*
X92110405Y-75155499D01*
X94372247Y-72893657D01*
X94380537Y-72886113D01*
X94387018Y-72882000D01*
X94433659Y-72832332D01*
X94436413Y-72829491D01*
X94456134Y-72809770D01*
X94458612Y-72806575D01*
X94466318Y-72797553D01*
X94491158Y-72771101D01*
X94496586Y-72765321D01*
X94506346Y-72747568D01*
X94517199Y-72731045D01*
X94524753Y-72721306D01*
X94529613Y-72715041D01*
X94547176Y-72674457D01*
X94552383Y-72663827D01*
X94573695Y-72625060D01*
X94575666Y-72617383D01*
X94575668Y-72617378D01*
X94578732Y-72605442D01*
X94585138Y-72586730D01*
X94590034Y-72575417D01*
X94593181Y-72568145D01*
X94600097Y-72524481D01*
X94602504Y-72512860D01*
X94611528Y-72477711D01*
X94611528Y-72477710D01*
X94613500Y-72470030D01*
X94613500Y-72449769D01*
X94615051Y-72430058D01*
X94616979Y-72417885D01*
X94618219Y-72410057D01*
X94614059Y-72366046D01*
X94613500Y-72354189D01*
X94613500Y-71059394D01*
X94633502Y-70991273D01*
X94667229Y-70956181D01*
X94819789Y-70849357D01*
X94819792Y-70849355D01*
X94824300Y-70846198D01*
X94986198Y-70684300D01*
X95117523Y-70496749D01*
X95119846Y-70491767D01*
X95119849Y-70491762D01*
X95136081Y-70456951D01*
X95182998Y-70403666D01*
X95251275Y-70384205D01*
X95319235Y-70404747D01*
X95364471Y-70456951D01*
X95380586Y-70491511D01*
X95386069Y-70501007D01*
X95511028Y-70679467D01*
X95518084Y-70687875D01*
X95672125Y-70841916D01*
X95680533Y-70848972D01*
X95858993Y-70973931D01*
X95868489Y-70979414D01*
X96065947Y-71071490D01*
X96076239Y-71075236D01*
X96248503Y-71121394D01*
X96262599Y-71121058D01*
X96266000Y-71113116D01*
X96266000Y-71107967D01*
X96774000Y-71107967D01*
X96777973Y-71121498D01*
X96786522Y-71122727D01*
X96963761Y-71075236D01*
X96974053Y-71071490D01*
X97171511Y-70979414D01*
X97181007Y-70973931D01*
X97359467Y-70848972D01*
X97367875Y-70841916D01*
X97521916Y-70687875D01*
X97528972Y-70679467D01*
X97653931Y-70501007D01*
X97659414Y-70491511D01*
X97675529Y-70456951D01*
X97722446Y-70403666D01*
X97790723Y-70384205D01*
X97858683Y-70404747D01*
X97903919Y-70456951D01*
X97920151Y-70491762D01*
X97920154Y-70491767D01*
X97922477Y-70496749D01*
X98053802Y-70684300D01*
X98215700Y-70846198D01*
X98220208Y-70849355D01*
X98220211Y-70849357D01*
X98261542Y-70878297D01*
X98403251Y-70977523D01*
X98408233Y-70979846D01*
X98408238Y-70979849D01*
X98578825Y-71059394D01*
X98610757Y-71074284D01*
X98616065Y-71075706D01*
X98616067Y-71075707D01*
X98826598Y-71132119D01*
X98826600Y-71132119D01*
X98831913Y-71133543D01*
X99060000Y-71153498D01*
X99288087Y-71133543D01*
X99293400Y-71132119D01*
X99293402Y-71132119D01*
X99503933Y-71075707D01*
X99503935Y-71075706D01*
X99509243Y-71074284D01*
X99541175Y-71059394D01*
X99711762Y-70979849D01*
X99711767Y-70979846D01*
X99716749Y-70977523D01*
X99858458Y-70878297D01*
X99899789Y-70849357D01*
X99899792Y-70849355D01*
X99904300Y-70846198D01*
X100066198Y-70684300D01*
X100197523Y-70496749D01*
X100199846Y-70491767D01*
X100199849Y-70491762D01*
X100215805Y-70457543D01*
X100262722Y-70404258D01*
X100330999Y-70384797D01*
X100398959Y-70405339D01*
X100444195Y-70457543D01*
X100460151Y-70491762D01*
X100460154Y-70491767D01*
X100462477Y-70496749D01*
X100593802Y-70684300D01*
X100755700Y-70846198D01*
X100760208Y-70849355D01*
X100760211Y-70849357D01*
X100801542Y-70878297D01*
X100943251Y-70977523D01*
X100948233Y-70979846D01*
X100948238Y-70979849D01*
X101118825Y-71059394D01*
X101150757Y-71074284D01*
X101156065Y-71075706D01*
X101156067Y-71075707D01*
X101366598Y-71132119D01*
X101366600Y-71132119D01*
X101371913Y-71133543D01*
X101600000Y-71153498D01*
X101828087Y-71133543D01*
X101833400Y-71132119D01*
X101833402Y-71132119D01*
X102043933Y-71075707D01*
X102043935Y-71075706D01*
X102049243Y-71074284D01*
X102081175Y-71059394D01*
X102251762Y-70979849D01*
X102251767Y-70979846D01*
X102256749Y-70977523D01*
X102398458Y-70878297D01*
X102439789Y-70849357D01*
X102439792Y-70849355D01*
X102444300Y-70846198D01*
X102606198Y-70684300D01*
X102737523Y-70496749D01*
X102739846Y-70491767D01*
X102739849Y-70491762D01*
X102755805Y-70457543D01*
X102802722Y-70404258D01*
X102870999Y-70384797D01*
X102938959Y-70405339D01*
X102984195Y-70457543D01*
X103000151Y-70491762D01*
X103000154Y-70491767D01*
X103002477Y-70496749D01*
X103133802Y-70684300D01*
X103295700Y-70846198D01*
X103300208Y-70849355D01*
X103300211Y-70849357D01*
X103341542Y-70878297D01*
X103483251Y-70977523D01*
X103488233Y-70979846D01*
X103488238Y-70979849D01*
X103658825Y-71059394D01*
X103690757Y-71074284D01*
X103696065Y-71075706D01*
X103696067Y-71075707D01*
X103906598Y-71132119D01*
X103906600Y-71132119D01*
X103911913Y-71133543D01*
X104140000Y-71153498D01*
X104368087Y-71133543D01*
X104373400Y-71132119D01*
X104373402Y-71132119D01*
X104583933Y-71075707D01*
X104583935Y-71075706D01*
X104589243Y-71074284D01*
X104621175Y-71059394D01*
X104791762Y-70979849D01*
X104791767Y-70979846D01*
X104796749Y-70977523D01*
X104938458Y-70878297D01*
X104979789Y-70849357D01*
X104979792Y-70849355D01*
X104984300Y-70846198D01*
X105146198Y-70684300D01*
X105277523Y-70496749D01*
X105279846Y-70491767D01*
X105279849Y-70491762D01*
X105295805Y-70457543D01*
X105342722Y-70404258D01*
X105410999Y-70384797D01*
X105478959Y-70405339D01*
X105524195Y-70457543D01*
X105540151Y-70491762D01*
X105540154Y-70491767D01*
X105542477Y-70496749D01*
X105673802Y-70684300D01*
X105835700Y-70846198D01*
X105840208Y-70849355D01*
X105840211Y-70849357D01*
X105881542Y-70878297D01*
X106023251Y-70977523D01*
X106028233Y-70979846D01*
X106028238Y-70979849D01*
X106198825Y-71059394D01*
X106230757Y-71074284D01*
X106236065Y-71075706D01*
X106236067Y-71075707D01*
X106446598Y-71132119D01*
X106446600Y-71132119D01*
X106451913Y-71133543D01*
X106680000Y-71153498D01*
X106908087Y-71133543D01*
X106913400Y-71132119D01*
X106913402Y-71132119D01*
X107123933Y-71075707D01*
X107123935Y-71075706D01*
X107129243Y-71074284D01*
X107161175Y-71059394D01*
X107331762Y-70979849D01*
X107331767Y-70979846D01*
X107336749Y-70977523D01*
X107478458Y-70878297D01*
X107519789Y-70849357D01*
X107519792Y-70849355D01*
X107524300Y-70846198D01*
X107686198Y-70684300D01*
X107817523Y-70496749D01*
X107819846Y-70491767D01*
X107819849Y-70491762D01*
X107835805Y-70457543D01*
X107882722Y-70404258D01*
X107950999Y-70384797D01*
X108018959Y-70405339D01*
X108064195Y-70457543D01*
X108080151Y-70491762D01*
X108080154Y-70491767D01*
X108082477Y-70496749D01*
X108213802Y-70684300D01*
X108375700Y-70846198D01*
X108380208Y-70849355D01*
X108380211Y-70849357D01*
X108421542Y-70878297D01*
X108563251Y-70977523D01*
X108568233Y-70979846D01*
X108568238Y-70979849D01*
X108738825Y-71059394D01*
X108770757Y-71074284D01*
X108776065Y-71075706D01*
X108776067Y-71075707D01*
X108986598Y-71132119D01*
X108986600Y-71132119D01*
X108991913Y-71133543D01*
X109220000Y-71153498D01*
X109448087Y-71133543D01*
X109453400Y-71132119D01*
X109453402Y-71132119D01*
X109663933Y-71075707D01*
X109663935Y-71075706D01*
X109669243Y-71074284D01*
X109701175Y-71059394D01*
X109871762Y-70979849D01*
X109871767Y-70979846D01*
X109876749Y-70977523D01*
X110018458Y-70878297D01*
X110059789Y-70849357D01*
X110059792Y-70849355D01*
X110064300Y-70846198D01*
X110226198Y-70684300D01*
X110357523Y-70496749D01*
X110359846Y-70491767D01*
X110359849Y-70491762D01*
X110375805Y-70457543D01*
X110422722Y-70404258D01*
X110490999Y-70384797D01*
X110558959Y-70405339D01*
X110604195Y-70457543D01*
X110620151Y-70491762D01*
X110620154Y-70491767D01*
X110622477Y-70496749D01*
X110753802Y-70684300D01*
X110915700Y-70846198D01*
X110920208Y-70849355D01*
X110920211Y-70849357D01*
X110961542Y-70878297D01*
X111103251Y-70977523D01*
X111108233Y-70979846D01*
X111108238Y-70979849D01*
X111278825Y-71059394D01*
X111310757Y-71074284D01*
X111316065Y-71075706D01*
X111316067Y-71075707D01*
X111526598Y-71132119D01*
X111526600Y-71132119D01*
X111531913Y-71133543D01*
X111760000Y-71153498D01*
X111988087Y-71133543D01*
X111993400Y-71132119D01*
X111993402Y-71132119D01*
X112203933Y-71075707D01*
X112203935Y-71075706D01*
X112209243Y-71074284D01*
X112241175Y-71059394D01*
X112411762Y-70979849D01*
X112411767Y-70979846D01*
X112416749Y-70977523D01*
X112558458Y-70878297D01*
X112599789Y-70849357D01*
X112599792Y-70849355D01*
X112604300Y-70846198D01*
X112766198Y-70684300D01*
X112897523Y-70496749D01*
X112899846Y-70491767D01*
X112899849Y-70491762D01*
X112915805Y-70457543D01*
X112962722Y-70404258D01*
X113030999Y-70384797D01*
X113098959Y-70405339D01*
X113144195Y-70457543D01*
X113160151Y-70491762D01*
X113160154Y-70491767D01*
X113162477Y-70496749D01*
X113293802Y-70684300D01*
X113455700Y-70846198D01*
X113460208Y-70849355D01*
X113460211Y-70849357D01*
X113501542Y-70878297D01*
X113643251Y-70977523D01*
X113648233Y-70979846D01*
X113648238Y-70979849D01*
X113818825Y-71059394D01*
X113850757Y-71074284D01*
X113856065Y-71075706D01*
X113856067Y-71075707D01*
X114066598Y-71132119D01*
X114066600Y-71132119D01*
X114071913Y-71133543D01*
X114300000Y-71153498D01*
X114528087Y-71133543D01*
X114533400Y-71132119D01*
X114533402Y-71132119D01*
X114743933Y-71075707D01*
X114743935Y-71075706D01*
X114749243Y-71074284D01*
X114781175Y-71059394D01*
X114951762Y-70979849D01*
X114951767Y-70979846D01*
X114956749Y-70977523D01*
X115098458Y-70878297D01*
X115139789Y-70849357D01*
X115139792Y-70849355D01*
X115144300Y-70846198D01*
X115306198Y-70684300D01*
X115437523Y-70496749D01*
X115439846Y-70491767D01*
X115439849Y-70491762D01*
X115455805Y-70457543D01*
X115502722Y-70404258D01*
X115570999Y-70384797D01*
X115638959Y-70405339D01*
X115684195Y-70457543D01*
X115700151Y-70491762D01*
X115700154Y-70491767D01*
X115702477Y-70496749D01*
X115833802Y-70684300D01*
X115995700Y-70846198D01*
X116000208Y-70849355D01*
X116000211Y-70849357D01*
X116041542Y-70878297D01*
X116183251Y-70977523D01*
X116188233Y-70979846D01*
X116188238Y-70979849D01*
X116358825Y-71059394D01*
X116390757Y-71074284D01*
X116396065Y-71075706D01*
X116396067Y-71075707D01*
X116606598Y-71132119D01*
X116606600Y-71132119D01*
X116611913Y-71133543D01*
X116840000Y-71153498D01*
X117068087Y-71133543D01*
X117073400Y-71132119D01*
X117073402Y-71132119D01*
X117283933Y-71075707D01*
X117283935Y-71075706D01*
X117289243Y-71074284D01*
X117321175Y-71059394D01*
X117491762Y-70979849D01*
X117491767Y-70979846D01*
X117496749Y-70977523D01*
X117638458Y-70878297D01*
X117679789Y-70849357D01*
X117679792Y-70849355D01*
X117684300Y-70846198D01*
X117846198Y-70684300D01*
X117977523Y-70496749D01*
X117979846Y-70491767D01*
X117979849Y-70491762D01*
X117995805Y-70457543D01*
X118042722Y-70404258D01*
X118110999Y-70384797D01*
X118178959Y-70405339D01*
X118224195Y-70457543D01*
X118240151Y-70491762D01*
X118240154Y-70491767D01*
X118242477Y-70496749D01*
X118373802Y-70684300D01*
X118535700Y-70846198D01*
X118540208Y-70849355D01*
X118540211Y-70849357D01*
X118581542Y-70878297D01*
X118723251Y-70977523D01*
X118728233Y-70979846D01*
X118728238Y-70979849D01*
X118898825Y-71059394D01*
X118930757Y-71074284D01*
X118936065Y-71075706D01*
X118936067Y-71075707D01*
X119146598Y-71132119D01*
X119146600Y-71132119D01*
X119151913Y-71133543D01*
X119380000Y-71153498D01*
X119608087Y-71133543D01*
X119613400Y-71132119D01*
X119613402Y-71132119D01*
X119823933Y-71075707D01*
X119823935Y-71075706D01*
X119829243Y-71074284D01*
X119861175Y-71059394D01*
X120031762Y-70979849D01*
X120031767Y-70979846D01*
X120036749Y-70977523D01*
X120178458Y-70878297D01*
X120219789Y-70849357D01*
X120219792Y-70849355D01*
X120224300Y-70846198D01*
X120386198Y-70684300D01*
X120517523Y-70496749D01*
X120519846Y-70491767D01*
X120519849Y-70491762D01*
X120535805Y-70457543D01*
X120582722Y-70404258D01*
X120650999Y-70384797D01*
X120718959Y-70405339D01*
X120764195Y-70457543D01*
X120780151Y-70491762D01*
X120780154Y-70491767D01*
X120782477Y-70496749D01*
X120913802Y-70684300D01*
X121075700Y-70846198D01*
X121080208Y-70849355D01*
X121080211Y-70849357D01*
X121121542Y-70878297D01*
X121263251Y-70977523D01*
X121268233Y-70979846D01*
X121268238Y-70979849D01*
X121438825Y-71059394D01*
X121470757Y-71074284D01*
X121476065Y-71075706D01*
X121476067Y-71075707D01*
X121686598Y-71132119D01*
X121686600Y-71132119D01*
X121691913Y-71133543D01*
X121920000Y-71153498D01*
X122148087Y-71133543D01*
X122153400Y-71132119D01*
X122153402Y-71132119D01*
X122363933Y-71075707D01*
X122363935Y-71075706D01*
X122369243Y-71074284D01*
X122401175Y-71059394D01*
X122571762Y-70979849D01*
X122571767Y-70979846D01*
X122576749Y-70977523D01*
X122718458Y-70878297D01*
X122759789Y-70849357D01*
X122759792Y-70849355D01*
X122764300Y-70846198D01*
X122926198Y-70684300D01*
X123057523Y-70496749D01*
X123059846Y-70491767D01*
X123059849Y-70491762D01*
X123075805Y-70457543D01*
X123122722Y-70404258D01*
X123190999Y-70384797D01*
X123258959Y-70405339D01*
X123304195Y-70457543D01*
X123320151Y-70491762D01*
X123320154Y-70491767D01*
X123322477Y-70496749D01*
X123453802Y-70684300D01*
X123615700Y-70846198D01*
X123620208Y-70849355D01*
X123620211Y-70849357D01*
X123661542Y-70878297D01*
X123803251Y-70977523D01*
X123808233Y-70979846D01*
X123808238Y-70979849D01*
X123978825Y-71059394D01*
X124010757Y-71074284D01*
X124016065Y-71075706D01*
X124016067Y-71075707D01*
X124226598Y-71132119D01*
X124226600Y-71132119D01*
X124231913Y-71133543D01*
X124460000Y-71153498D01*
X124688087Y-71133543D01*
X124693400Y-71132119D01*
X124693402Y-71132119D01*
X124903933Y-71075707D01*
X124903935Y-71075706D01*
X124909243Y-71074284D01*
X124941175Y-71059394D01*
X125111762Y-70979849D01*
X125111767Y-70979846D01*
X125116749Y-70977523D01*
X125258458Y-70878297D01*
X125299789Y-70849357D01*
X125299792Y-70849355D01*
X125304300Y-70846198D01*
X125466198Y-70684300D01*
X125597523Y-70496749D01*
X125599846Y-70491767D01*
X125599849Y-70491762D01*
X125691961Y-70294225D01*
X125691961Y-70294224D01*
X125694284Y-70289243D01*
X125734861Y-70137811D01*
X125752119Y-70073402D01*
X125752119Y-70073400D01*
X125753543Y-70068087D01*
X125773498Y-69840000D01*
X125753543Y-69611913D01*
X125694284Y-69390757D01*
X125599966Y-69188489D01*
X125599849Y-69188238D01*
X125599846Y-69188233D01*
X125597523Y-69183251D01*
X125466198Y-68995700D01*
X125304300Y-68833802D01*
X125299792Y-68830645D01*
X125299789Y-68830643D01*
X125221611Y-68775902D01*
X125116749Y-68702477D01*
X125111767Y-68700154D01*
X125111762Y-68700151D01*
X124914225Y-68608039D01*
X124914224Y-68608039D01*
X124909243Y-68605716D01*
X124903935Y-68604294D01*
X124903933Y-68604293D01*
X124693402Y-68547881D01*
X124693400Y-68547881D01*
X124688087Y-68546457D01*
X124460000Y-68526502D01*
X124231913Y-68546457D01*
X124226600Y-68547881D01*
X124226598Y-68547881D01*
X124016067Y-68604293D01*
X124016065Y-68604294D01*
X124010757Y-68605716D01*
X124005776Y-68608039D01*
X124005775Y-68608039D01*
X123808238Y-68700151D01*
X123808233Y-68700154D01*
X123803251Y-68702477D01*
X123698389Y-68775902D01*
X123620211Y-68830643D01*
X123620208Y-68830645D01*
X123615700Y-68833802D01*
X123453802Y-68995700D01*
X123322477Y-69183251D01*
X123320154Y-69188233D01*
X123320151Y-69188238D01*
X123304195Y-69222457D01*
X123257278Y-69275742D01*
X123189001Y-69295203D01*
X123121041Y-69274661D01*
X123075805Y-69222457D01*
X123059849Y-69188238D01*
X123059846Y-69188233D01*
X123057523Y-69183251D01*
X122926198Y-68995700D01*
X122764300Y-68833802D01*
X122759792Y-68830645D01*
X122759789Y-68830643D01*
X122681611Y-68775902D01*
X122576749Y-68702477D01*
X122571767Y-68700154D01*
X122571762Y-68700151D01*
X122374225Y-68608039D01*
X122374224Y-68608039D01*
X122369243Y-68605716D01*
X122363935Y-68604294D01*
X122363933Y-68604293D01*
X122153402Y-68547881D01*
X122153400Y-68547881D01*
X122148087Y-68546457D01*
X121920000Y-68526502D01*
X121691913Y-68546457D01*
X121686600Y-68547881D01*
X121686598Y-68547881D01*
X121476067Y-68604293D01*
X121476065Y-68604294D01*
X121470757Y-68605716D01*
X121465776Y-68608039D01*
X121465775Y-68608039D01*
X121268238Y-68700151D01*
X121268233Y-68700154D01*
X121263251Y-68702477D01*
X121158389Y-68775902D01*
X121080211Y-68830643D01*
X121080208Y-68830645D01*
X121075700Y-68833802D01*
X120913802Y-68995700D01*
X120782477Y-69183251D01*
X120780154Y-69188233D01*
X120780151Y-69188238D01*
X120764195Y-69222457D01*
X120717278Y-69275742D01*
X120649001Y-69295203D01*
X120581041Y-69274661D01*
X120535805Y-69222457D01*
X120519849Y-69188238D01*
X120519846Y-69188233D01*
X120517523Y-69183251D01*
X120386198Y-68995700D01*
X120224300Y-68833802D01*
X120219792Y-68830645D01*
X120219789Y-68830643D01*
X120141611Y-68775902D01*
X120036749Y-68702477D01*
X120031767Y-68700154D01*
X120031762Y-68700151D01*
X119834225Y-68608039D01*
X119834224Y-68608039D01*
X119829243Y-68605716D01*
X119823935Y-68604294D01*
X119823933Y-68604293D01*
X119613402Y-68547881D01*
X119613400Y-68547881D01*
X119608087Y-68546457D01*
X119380000Y-68526502D01*
X119374525Y-68526981D01*
X119374514Y-68526981D01*
X119362570Y-68528026D01*
X119292965Y-68514038D01*
X119241973Y-68464639D01*
X119225782Y-68395513D01*
X119249534Y-68328607D01*
X119262493Y-68313411D01*
X119595499Y-67980405D01*
X119657811Y-67946379D01*
X119684594Y-67943500D01*
X127955406Y-67943500D01*
X128023527Y-67963502D01*
X128044501Y-67980405D01*
X130139595Y-70075499D01*
X130173621Y-70137811D01*
X130176500Y-70164594D01*
X130176500Y-77010564D01*
X130156498Y-77078685D01*
X130102842Y-77125178D01*
X130032568Y-77135282D01*
X129967988Y-77105788D01*
X129928793Y-77043175D01*
X129920236Y-77011239D01*
X129916490Y-77000947D01*
X129824414Y-76803489D01*
X129818931Y-76793993D01*
X129693972Y-76615533D01*
X129686916Y-76607125D01*
X129532875Y-76453084D01*
X129524467Y-76446028D01*
X129346007Y-76321069D01*
X129336511Y-76315586D01*
X129139053Y-76223510D01*
X129128761Y-76219764D01*
X128918312Y-76163375D01*
X128907519Y-76161472D01*
X128744830Y-76147238D01*
X128739365Y-76147000D01*
X128557115Y-76147000D01*
X128541876Y-76151475D01*
X128540671Y-76152865D01*
X128539000Y-76160548D01*
X128539000Y-77583000D01*
X128518998Y-77651121D01*
X128465342Y-77697614D01*
X128413000Y-77709000D01*
X126617033Y-77709000D01*
X126603502Y-77712973D01*
X126602273Y-77721522D01*
X126649764Y-77898761D01*
X126653510Y-77909053D01*
X126745586Y-78106511D01*
X126751069Y-78116007D01*
X126876028Y-78294467D01*
X126883084Y-78302875D01*
X127037125Y-78456916D01*
X127045533Y-78463972D01*
X127223993Y-78588931D01*
X127233489Y-78594414D01*
X127268049Y-78610529D01*
X127321334Y-78657446D01*
X127340795Y-78725723D01*
X127320253Y-78793683D01*
X127268049Y-78838919D01*
X127233238Y-78855151D01*
X127233233Y-78855154D01*
X127228251Y-78857477D01*
X127125325Y-78929547D01*
X127045211Y-78985643D01*
X127045208Y-78985645D01*
X127040700Y-78988802D01*
X126878802Y-79150700D01*
X126875645Y-79155208D01*
X126875643Y-79155211D01*
X126861829Y-79174940D01*
X126747477Y-79338251D01*
X126745154Y-79343233D01*
X126745151Y-79343238D01*
X126677575Y-79488157D01*
X126650716Y-79545757D01*
X126649294Y-79551065D01*
X126649293Y-79551067D01*
X126592881Y-79761598D01*
X126591457Y-79766913D01*
X126571502Y-79995000D01*
X126591457Y-80223087D01*
X126592881Y-80228400D01*
X126592881Y-80228402D01*
X126647278Y-80431411D01*
X126650716Y-80444243D01*
X126653039Y-80449224D01*
X126653039Y-80449225D01*
X126745151Y-80646762D01*
X126745154Y-80646767D01*
X126747477Y-80651749D01*
X126778801Y-80696484D01*
X126869166Y-80825538D01*
X126878802Y-80839300D01*
X127040700Y-81001198D01*
X127045208Y-81004355D01*
X127045211Y-81004357D01*
X127120882Y-81057342D01*
X127228251Y-81132523D01*
X127233233Y-81134846D01*
X127233238Y-81134849D01*
X127267457Y-81150805D01*
X127320742Y-81197722D01*
X127340203Y-81265999D01*
X127319661Y-81333959D01*
X127267457Y-81379195D01*
X127233238Y-81395151D01*
X127233233Y-81395154D01*
X127228251Y-81397477D01*
X127125325Y-81469547D01*
X127045211Y-81525643D01*
X127045208Y-81525645D01*
X127040700Y-81528802D01*
X126878802Y-81690700D01*
X126875645Y-81695208D01*
X126875643Y-81695211D01*
X126834628Y-81753787D01*
X126747477Y-81878251D01*
X126745154Y-81883233D01*
X126745151Y-81883238D01*
X126656261Y-82073865D01*
X126650716Y-82085757D01*
X126649294Y-82091065D01*
X126649293Y-82091067D01*
X126592881Y-82301598D01*
X126591457Y-82306913D01*
X126571502Y-82535000D01*
X126591457Y-82763087D01*
X126592881Y-82768400D01*
X126592881Y-82768402D01*
X126648883Y-82977401D01*
X126650716Y-82984243D01*
X126653039Y-82989224D01*
X126653039Y-82989225D01*
X126745151Y-83186762D01*
X126745154Y-83186767D01*
X126747477Y-83191749D01*
X126878802Y-83379300D01*
X127040700Y-83541198D01*
X127045208Y-83544355D01*
X127045211Y-83544357D01*
X127081219Y-83569570D01*
X127228251Y-83672523D01*
X127233233Y-83674846D01*
X127233238Y-83674849D01*
X127267457Y-83690805D01*
X127320742Y-83737722D01*
X127340203Y-83805999D01*
X127319661Y-83873959D01*
X127267457Y-83919195D01*
X127233238Y-83935151D01*
X127233233Y-83935154D01*
X127228251Y-83937477D01*
X127123389Y-84010902D01*
X127045211Y-84065643D01*
X127045208Y-84065645D01*
X127040700Y-84068802D01*
X126878802Y-84230700D01*
X126747477Y-84418251D01*
X126745154Y-84423233D01*
X126745151Y-84423238D01*
X126737514Y-84439616D01*
X126650716Y-84625757D01*
X126649294Y-84631065D01*
X126649293Y-84631067D01*
X126648510Y-84633990D01*
X126591457Y-84846913D01*
X126571502Y-85075000D01*
X126591457Y-85303087D01*
X126592881Y-85308400D01*
X126592881Y-85308402D01*
X126647276Y-85511403D01*
X126650716Y-85524243D01*
X126653039Y-85529224D01*
X126653039Y-85529225D01*
X126745151Y-85726762D01*
X126745154Y-85726767D01*
X126747477Y-85731749D01*
X126815488Y-85828879D01*
X126869332Y-85905775D01*
X126878802Y-85919300D01*
X127040700Y-86081198D01*
X127045208Y-86084355D01*
X127045211Y-86084357D01*
X127105538Y-86126598D01*
X127228251Y-86212523D01*
X127233233Y-86214846D01*
X127233238Y-86214849D01*
X127267457Y-86230805D01*
X127320742Y-86277722D01*
X127340203Y-86345999D01*
X127319661Y-86413959D01*
X127267457Y-86459195D01*
X127233238Y-86475151D01*
X127233233Y-86475154D01*
X127228251Y-86477477D01*
X127123389Y-86550902D01*
X127045211Y-86605643D01*
X127045208Y-86605645D01*
X127040700Y-86608802D01*
X126878802Y-86770700D01*
X126875645Y-86775208D01*
X126875643Y-86775211D01*
X126821399Y-86852680D01*
X126747477Y-86958251D01*
X126745154Y-86963233D01*
X126745151Y-86963238D01*
X126653042Y-87160768D01*
X126650716Y-87165757D01*
X126649294Y-87171065D01*
X126649293Y-87171067D01*
X126596633Y-87367596D01*
X126591457Y-87386913D01*
X126571502Y-87615000D01*
X126591457Y-87843087D01*
X126592881Y-87848400D01*
X126592881Y-87848402D01*
X126646838Y-88049769D01*
X126650716Y-88064243D01*
X126653039Y-88069224D01*
X126653039Y-88069225D01*
X126745151Y-88266762D01*
X126745154Y-88266767D01*
X126747477Y-88271749D01*
X126878802Y-88459300D01*
X127040700Y-88621198D01*
X127045208Y-88624355D01*
X127045211Y-88624357D01*
X127073706Y-88644309D01*
X127228251Y-88752523D01*
X127233233Y-88754846D01*
X127233238Y-88754849D01*
X127267457Y-88770805D01*
X127320742Y-88817722D01*
X127340203Y-88885999D01*
X127319661Y-88953959D01*
X127267457Y-88999195D01*
X127233238Y-89015151D01*
X127233233Y-89015154D01*
X127228251Y-89017477D01*
X127123389Y-89090902D01*
X127045211Y-89145643D01*
X127045208Y-89145645D01*
X127040700Y-89148802D01*
X126878802Y-89310700D01*
X126875645Y-89315208D01*
X126875643Y-89315211D01*
X126868299Y-89325700D01*
X126747477Y-89498251D01*
X126745154Y-89503233D01*
X126745151Y-89503238D01*
X126734025Y-89527099D01*
X126650716Y-89705757D01*
X126649294Y-89711065D01*
X126649293Y-89711067D01*
X126646697Y-89720757D01*
X126591457Y-89926913D01*
X126571502Y-90155000D01*
X126591457Y-90383087D01*
X126592881Y-90388400D01*
X126592881Y-90388402D01*
X126601852Y-90421880D01*
X126650716Y-90604243D01*
X126653039Y-90609224D01*
X126653039Y-90609225D01*
X126745151Y-90806762D01*
X126745154Y-90806767D01*
X126747477Y-90811749D01*
X126878802Y-90999300D01*
X127040700Y-91161198D01*
X127045208Y-91164355D01*
X127045211Y-91164357D01*
X127093257Y-91197999D01*
X127228251Y-91292523D01*
X127233233Y-91294846D01*
X127233238Y-91294849D01*
X127267457Y-91310805D01*
X127320742Y-91357722D01*
X127340203Y-91425999D01*
X127319661Y-91493959D01*
X127267457Y-91539195D01*
X127233238Y-91555151D01*
X127233233Y-91555154D01*
X127228251Y-91557477D01*
X127123389Y-91630902D01*
X127045211Y-91685643D01*
X127045208Y-91685645D01*
X127040700Y-91688802D01*
X126878802Y-91850700D01*
X126747477Y-92038251D01*
X126745154Y-92043233D01*
X126745151Y-92043238D01*
X126660456Y-92224870D01*
X126650716Y-92245757D01*
X126649294Y-92251064D01*
X126649293Y-92251067D01*
X126610190Y-92397001D01*
X126591457Y-92466913D01*
X126571502Y-92695000D01*
X126591457Y-92923087D01*
X126592881Y-92928400D01*
X126592881Y-92928402D01*
X126646623Y-93128966D01*
X126650716Y-93144243D01*
X126653039Y-93149224D01*
X126653039Y-93149225D01*
X126745151Y-93346762D01*
X126745154Y-93346767D01*
X126747477Y-93351749D01*
X126750634Y-93356257D01*
X126869332Y-93525775D01*
X126878802Y-93539300D01*
X127040700Y-93701198D01*
X127045211Y-93704357D01*
X127049424Y-93707892D01*
X127048473Y-93709026D01*
X127088471Y-93759071D01*
X127095776Y-93829690D01*
X127063742Y-93893049D01*
X127002538Y-93929030D01*
X126985483Y-93932082D01*
X126974684Y-93933255D01*
X126838295Y-93984385D01*
X126721739Y-94071739D01*
X126634385Y-94188295D01*
X126583255Y-94324684D01*
X126576500Y-94386866D01*
X126576500Y-96083134D01*
X126583255Y-96145316D01*
X126634385Y-96281705D01*
X126721739Y-96398261D01*
X126838295Y-96485615D01*
X126974684Y-96536745D01*
X127036866Y-96543500D01*
X129533134Y-96543500D01*
X129595316Y-96536745D01*
X129731705Y-96485615D01*
X129848261Y-96398261D01*
X129935615Y-96281705D01*
X129986745Y-96145316D01*
X129993500Y-96083134D01*
X129993500Y-94474594D01*
X130013502Y-94406473D01*
X130030405Y-94385499D01*
X131952379Y-92463526D01*
X133902253Y-90513652D01*
X133910539Y-90506112D01*
X133917018Y-90502000D01*
X133963644Y-90452348D01*
X133966398Y-90449507D01*
X133986135Y-90429770D01*
X133988615Y-90426573D01*
X133996320Y-90417551D01*
X133996331Y-90417539D01*
X134026586Y-90385321D01*
X134030405Y-90378375D01*
X134030407Y-90378372D01*
X134036348Y-90367566D01*
X134047199Y-90351047D01*
X134047559Y-90350583D01*
X134059614Y-90335041D01*
X134062759Y-90327772D01*
X134062762Y-90327768D01*
X134077174Y-90294463D01*
X134082391Y-90283813D01*
X134103695Y-90245060D01*
X134108733Y-90225437D01*
X134115137Y-90206734D01*
X134120033Y-90195420D01*
X134120033Y-90195419D01*
X134123181Y-90188145D01*
X134124420Y-90180322D01*
X134124423Y-90180312D01*
X134130099Y-90144476D01*
X134132505Y-90132856D01*
X134141528Y-90097711D01*
X134141528Y-90097710D01*
X134143500Y-90090030D01*
X134143500Y-90069776D01*
X134145051Y-90050065D01*
X134146980Y-90037886D01*
X134148220Y-90030057D01*
X134144059Y-89986038D01*
X134143500Y-89974181D01*
X134143500Y-68810392D01*
X134144027Y-68799209D01*
X134145702Y-68791716D01*
X134143562Y-68723625D01*
X134143500Y-68719668D01*
X134143500Y-68691768D01*
X134142996Y-68687777D01*
X134142063Y-68675935D01*
X134141920Y-68671358D01*
X134140674Y-68631735D01*
X134135021Y-68612276D01*
X134131012Y-68592917D01*
X134130846Y-68591607D01*
X134128474Y-68572827D01*
X134125558Y-68565461D01*
X134125556Y-68565455D01*
X134112200Y-68531722D01*
X134108355Y-68520492D01*
X134098230Y-68485641D01*
X134098230Y-68485640D01*
X134096019Y-68478031D01*
X134085705Y-68460590D01*
X134077008Y-68442837D01*
X134072472Y-68431382D01*
X134069552Y-68424007D01*
X134043563Y-68388236D01*
X134037047Y-68378316D01*
X134018578Y-68347087D01*
X134014542Y-68340262D01*
X134000221Y-68325941D01*
X133987380Y-68310907D01*
X133980131Y-68300930D01*
X133975472Y-68294517D01*
X133941395Y-68266326D01*
X133932616Y-68258336D01*
X129892028Y-64217747D01*
X129884488Y-64209461D01*
X129880376Y-64202982D01*
X129830724Y-64156356D01*
X129827883Y-64153602D01*
X129808146Y-64133865D01*
X129804949Y-64131385D01*
X129795927Y-64123680D01*
X129782498Y-64111069D01*
X129763697Y-64093414D01*
X129756751Y-64089595D01*
X129756748Y-64089593D01*
X129745942Y-64083652D01*
X129729423Y-64072801D01*
X129728959Y-64072441D01*
X129713417Y-64060386D01*
X129706148Y-64057241D01*
X129706144Y-64057238D01*
X129672839Y-64042826D01*
X129662189Y-64037609D01*
X129623436Y-64016305D01*
X129603813Y-64011267D01*
X129585110Y-64004863D01*
X129573796Y-63999967D01*
X129573795Y-63999967D01*
X129566521Y-63996819D01*
X129558698Y-63995580D01*
X129558688Y-63995577D01*
X129522852Y-63989901D01*
X129511232Y-63987495D01*
X129476087Y-63978472D01*
X129476086Y-63978472D01*
X129468406Y-63976500D01*
X129448152Y-63976500D01*
X129428441Y-63974949D01*
X129416262Y-63973020D01*
X129408433Y-63971780D01*
X129379162Y-63974547D01*
X129364415Y-63975941D01*
X129352557Y-63976500D01*
X106908767Y-63976500D01*
X106897584Y-63975973D01*
X106890091Y-63974298D01*
X106882165Y-63974547D01*
X106882164Y-63974547D01*
X106822001Y-63976438D01*
X106818043Y-63976500D01*
X106790144Y-63976500D01*
X106786154Y-63977004D01*
X106774320Y-63977936D01*
X106730111Y-63979326D01*
X106722497Y-63981538D01*
X106722492Y-63981539D01*
X106710659Y-63984977D01*
X106691296Y-63988988D01*
X106671203Y-63991526D01*
X106663836Y-63994443D01*
X106663831Y-63994444D01*
X106630092Y-64007802D01*
X106618865Y-64011646D01*
X106576407Y-64023982D01*
X106569581Y-64028019D01*
X106558972Y-64034293D01*
X106541224Y-64042988D01*
X106522383Y-64050448D01*
X106515967Y-64055110D01*
X106515966Y-64055110D01*
X106486613Y-64076436D01*
X106476693Y-64082952D01*
X106445465Y-64101420D01*
X106445462Y-64101422D01*
X106438638Y-64105458D01*
X106424317Y-64119779D01*
X106409284Y-64132619D01*
X106392893Y-64144528D01*
X106384217Y-64155016D01*
X106364702Y-64178605D01*
X106356712Y-64187384D01*
X102013248Y-68530848D01*
X101950936Y-68564874D01*
X101891541Y-68563459D01*
X101833409Y-68547882D01*
X101833398Y-68547880D01*
X101828087Y-68546457D01*
X101600000Y-68526502D01*
X101371913Y-68546457D01*
X101366600Y-68547881D01*
X101366598Y-68547881D01*
X101156067Y-68604293D01*
X101156065Y-68604294D01*
X101150757Y-68605716D01*
X101145776Y-68608039D01*
X101145775Y-68608039D01*
X100948238Y-68700151D01*
X100948233Y-68700154D01*
X100943251Y-68702477D01*
X100838389Y-68775902D01*
X100760211Y-68830643D01*
X100760208Y-68830645D01*
X100755700Y-68833802D01*
X100593802Y-68995700D01*
X100462477Y-69183251D01*
X100460154Y-69188233D01*
X100460151Y-69188238D01*
X100444195Y-69222457D01*
X100397278Y-69275742D01*
X100329001Y-69295203D01*
X100261041Y-69274661D01*
X100215805Y-69222457D01*
X100199849Y-69188238D01*
X100199846Y-69188233D01*
X100197523Y-69183251D01*
X100066198Y-68995700D01*
X99904300Y-68833802D01*
X99899792Y-68830645D01*
X99899789Y-68830643D01*
X99821611Y-68775902D01*
X99716749Y-68702477D01*
X99711767Y-68700154D01*
X99711762Y-68700151D01*
X99514225Y-68608039D01*
X99514224Y-68608039D01*
X99509243Y-68605716D01*
X99503935Y-68604294D01*
X99503933Y-68604293D01*
X99293402Y-68547881D01*
X99293400Y-68547881D01*
X99288087Y-68546457D01*
X99060000Y-68526502D01*
X98831913Y-68546457D01*
X98826600Y-68547881D01*
X98826598Y-68547881D01*
X98616067Y-68604293D01*
X98616065Y-68604294D01*
X98610757Y-68605716D01*
X98605776Y-68608039D01*
X98605775Y-68608039D01*
X98408238Y-68700151D01*
X98408233Y-68700154D01*
X98403251Y-68702477D01*
X98298389Y-68775902D01*
X98220211Y-68830643D01*
X98220208Y-68830645D01*
X98215700Y-68833802D01*
X98053802Y-68995700D01*
X97922477Y-69183251D01*
X97920154Y-69188233D01*
X97920151Y-69188238D01*
X97903919Y-69223049D01*
X97857002Y-69276334D01*
X97788725Y-69295795D01*
X97720765Y-69275253D01*
X97675529Y-69223049D01*
X97659414Y-69188489D01*
X97653931Y-69178993D01*
X97528972Y-69000533D01*
X97521916Y-68992125D01*
X97367875Y-68838084D01*
X97359467Y-68831028D01*
X97181007Y-68706069D01*
X97171511Y-68700586D01*
X96974053Y-68608510D01*
X96963761Y-68604764D01*
X96791497Y-68558606D01*
X96777401Y-68558942D01*
X96774000Y-68566884D01*
X96774000Y-71107967D01*
X96266000Y-71107967D01*
X96266000Y-68572033D01*
X96262027Y-68558502D01*
X96253478Y-68557273D01*
X96076239Y-68604764D01*
X96065947Y-68608510D01*
X95868489Y-68700586D01*
X95858993Y-68706069D01*
X95680533Y-68831028D01*
X95672125Y-68838084D01*
X95518084Y-68992125D01*
X95511028Y-69000533D01*
X95386069Y-69178993D01*
X95380586Y-69188489D01*
X95364471Y-69223049D01*
X95317554Y-69276334D01*
X95249277Y-69295795D01*
X95181317Y-69275253D01*
X95136081Y-69223049D01*
X95119849Y-69188238D01*
X95119846Y-69188233D01*
X95117523Y-69183251D01*
X94986198Y-68995700D01*
X94824300Y-68833802D01*
X94819792Y-68830645D01*
X94819789Y-68830643D01*
X94741611Y-68775902D01*
X94636749Y-68702477D01*
X94631767Y-68700154D01*
X94631762Y-68700151D01*
X94434225Y-68608039D01*
X94434224Y-68608039D01*
X94429243Y-68605716D01*
X94423935Y-68604294D01*
X94423933Y-68604293D01*
X94213402Y-68547881D01*
X94213400Y-68547881D01*
X94208087Y-68546457D01*
X93980000Y-68526502D01*
X93751913Y-68546457D01*
X93746600Y-68547881D01*
X93746598Y-68547881D01*
X93536067Y-68604293D01*
X93536065Y-68604294D01*
X93530757Y-68605716D01*
X93525776Y-68608039D01*
X93525775Y-68608039D01*
X93328238Y-68700151D01*
X93328233Y-68700154D01*
X93323251Y-68702477D01*
X93218389Y-68775902D01*
X93140211Y-68830643D01*
X93140208Y-68830645D01*
X93135700Y-68833802D01*
X92973802Y-68995700D01*
X92842477Y-69183251D01*
X92840154Y-69188233D01*
X92840151Y-69188238D01*
X92824195Y-69222457D01*
X92777278Y-69275742D01*
X92709001Y-69295203D01*
X92641041Y-69274661D01*
X92595805Y-69222457D01*
X92579849Y-69188238D01*
X92579846Y-69188233D01*
X92577523Y-69183251D01*
X92446198Y-68995700D01*
X92284300Y-68833802D01*
X92279792Y-68830645D01*
X92279789Y-68830643D01*
X92201611Y-68775902D01*
X92096749Y-68702477D01*
X92091767Y-68700154D01*
X92091762Y-68700151D01*
X91894225Y-68608039D01*
X91894224Y-68608039D01*
X91889243Y-68605716D01*
X91883935Y-68604294D01*
X91883933Y-68604293D01*
X91673402Y-68547881D01*
X91673400Y-68547881D01*
X91668087Y-68546457D01*
X91440000Y-68526502D01*
X91211913Y-68546457D01*
X91206600Y-68547881D01*
X91206598Y-68547881D01*
X90996067Y-68604293D01*
X90996065Y-68604294D01*
X90990757Y-68605716D01*
X90985776Y-68608039D01*
X90985775Y-68608039D01*
X90788238Y-68700151D01*
X90788233Y-68700154D01*
X90783251Y-68702477D01*
X90678389Y-68775902D01*
X90600211Y-68830643D01*
X90600208Y-68830645D01*
X90595700Y-68833802D01*
X90433802Y-68995700D01*
X90430643Y-69000211D01*
X90427108Y-69004424D01*
X90425974Y-69003473D01*
X90375929Y-69043471D01*
X90305310Y-69050776D01*
X90241951Y-69018742D01*
X90205970Y-68957538D01*
X90202918Y-68940483D01*
X90201745Y-68929684D01*
X90150615Y-68793295D01*
X90063261Y-68676739D01*
X89946705Y-68589385D01*
X89810316Y-68538255D01*
X89748134Y-68531500D01*
X88051866Y-68531500D01*
X87989684Y-68538255D01*
X87853295Y-68589385D01*
X87736739Y-68676739D01*
X87649385Y-68793295D01*
X87598255Y-68929684D01*
X87591500Y-68991866D01*
X87591500Y-70688134D01*
X87598255Y-70750316D01*
X87649385Y-70886705D01*
X87736739Y-71003261D01*
X87853295Y-71090615D01*
X87989684Y-71141745D01*
X88051866Y-71148500D01*
X89748134Y-71148500D01*
X89810316Y-71141745D01*
X89946705Y-71090615D01*
X90063261Y-71003261D01*
X90150615Y-70886705D01*
X90201745Y-70750316D01*
X90202917Y-70739526D01*
X90203803Y-70737394D01*
X90204425Y-70734778D01*
X90204848Y-70734879D01*
X90230155Y-70673965D01*
X90288517Y-70633537D01*
X90359471Y-70631078D01*
X90420490Y-70667371D01*
X90427489Y-70676031D01*
X90430643Y-70679789D01*
X90433802Y-70684300D01*
X90595700Y-70846198D01*
X90600208Y-70849355D01*
X90600211Y-70849357D01*
X90641542Y-70878297D01*
X90783251Y-70977523D01*
X90788233Y-70979846D01*
X90788238Y-70979849D01*
X90958825Y-71059394D01*
X90990757Y-71074284D01*
X90996065Y-71075706D01*
X90996067Y-71075707D01*
X91206598Y-71132119D01*
X91206600Y-71132119D01*
X91211913Y-71133543D01*
X91440000Y-71153498D01*
X91668087Y-71133543D01*
X91673400Y-71132119D01*
X91673402Y-71132119D01*
X91883933Y-71075707D01*
X91883935Y-71075706D01*
X91889243Y-71074284D01*
X91921175Y-71059394D01*
X92091762Y-70979849D01*
X92091767Y-70979846D01*
X92096749Y-70977523D01*
X92238458Y-70878297D01*
X92279789Y-70849357D01*
X92279792Y-70849355D01*
X92284300Y-70846198D01*
X92446198Y-70684300D01*
X92577523Y-70496749D01*
X92579846Y-70491767D01*
X92579849Y-70491762D01*
X92595805Y-70457543D01*
X92642722Y-70404258D01*
X92710999Y-70384797D01*
X92778959Y-70405339D01*
X92824195Y-70457543D01*
X92840151Y-70491762D01*
X92840154Y-70491767D01*
X92842477Y-70496749D01*
X92973802Y-70684300D01*
X93135700Y-70846198D01*
X93140208Y-70849355D01*
X93140211Y-70849357D01*
X93292771Y-70956181D01*
X93337099Y-71011638D01*
X93346500Y-71059394D01*
X93346500Y-72075405D01*
X93326498Y-72143526D01*
X93309595Y-72164500D01*
X91047747Y-74426348D01*
X91039461Y-74433888D01*
X91032982Y-74438000D01*
X91027557Y-74443777D01*
X90986357Y-74487651D01*
X90983602Y-74490493D01*
X90963865Y-74510230D01*
X90961385Y-74513427D01*
X90953682Y-74522447D01*
X90923414Y-74554679D01*
X90919595Y-74561625D01*
X90919593Y-74561628D01*
X90913652Y-74572434D01*
X90902801Y-74588953D01*
X90890386Y-74604959D01*
X90887241Y-74612228D01*
X90887238Y-74612232D01*
X90872826Y-74645537D01*
X90867609Y-74656187D01*
X90846305Y-74694940D01*
X90844334Y-74702615D01*
X90844334Y-74702616D01*
X90841267Y-74714562D01*
X90834863Y-74733266D01*
X90826819Y-74751855D01*
X90825580Y-74759678D01*
X90825577Y-74759688D01*
X90819901Y-74795524D01*
X90817495Y-74807144D01*
X90806500Y-74849970D01*
X90806500Y-74870224D01*
X90804949Y-74889934D01*
X90801780Y-74909943D01*
X90802526Y-74917835D01*
X90805941Y-74953961D01*
X90806500Y-74965819D01*
X90806500Y-87315406D01*
X90786498Y-87383527D01*
X90769595Y-87404501D01*
X88993621Y-89180474D01*
X87237747Y-90936348D01*
X87229461Y-90943888D01*
X87222982Y-90948000D01*
X87217557Y-90953777D01*
X87176357Y-90997651D01*
X87173602Y-91000493D01*
X87153865Y-91020230D01*
X87151385Y-91023427D01*
X87143682Y-91032447D01*
X87113414Y-91064679D01*
X87109595Y-91071625D01*
X87109593Y-91071628D01*
X87103652Y-91082434D01*
X87092801Y-91098953D01*
X87080386Y-91114959D01*
X87077241Y-91122228D01*
X87077238Y-91122232D01*
X87062826Y-91155537D01*
X87057609Y-91166187D01*
X87036305Y-91204940D01*
X87034334Y-91212615D01*
X87034334Y-91212616D01*
X87031267Y-91224562D01*
X87024863Y-91243266D01*
X87016819Y-91261855D01*
X87015580Y-91269678D01*
X87015577Y-91269688D01*
X87009901Y-91305524D01*
X87007495Y-91317144D01*
X86996500Y-91359970D01*
X86996500Y-91380224D01*
X86994949Y-91399934D01*
X86991780Y-91419943D01*
X86992526Y-91427835D01*
X86995941Y-91463961D01*
X86996500Y-91475819D01*
X86996500Y-94785500D01*
X86976498Y-94853621D01*
X86922842Y-94900114D01*
X86870500Y-94911500D01*
X86481866Y-94911500D01*
X86419684Y-94918255D01*
X86283295Y-94969385D01*
X86166739Y-95056739D01*
X86079385Y-95173295D01*
X86028255Y-95309684D01*
X86021500Y-95371866D01*
X86021500Y-97668134D01*
X86028255Y-97730316D01*
X86079385Y-97866705D01*
X86166739Y-97983261D01*
X86283295Y-98070615D01*
X86419684Y-98121745D01*
X86481866Y-98128500D01*
X86759022Y-98128500D01*
X86827143Y-98148502D01*
X86873636Y-98202158D01*
X86883740Y-98272432D01*
X86856106Y-98334815D01*
X86748217Y-98465230D01*
X86745288Y-98470647D01*
X86745286Y-98470650D01*
X86652416Y-98642410D01*
X86652414Y-98642415D01*
X86649486Y-98647830D01*
X86588102Y-98846129D01*
X86587458Y-98852254D01*
X86587458Y-98852255D01*
X86569622Y-99021961D01*
X86566404Y-99052575D01*
X86585218Y-99259303D01*
X86586956Y-99265209D01*
X86586957Y-99265213D01*
X86604602Y-99325164D01*
X86643827Y-99458440D01*
X86739999Y-99642400D01*
X86870071Y-99804177D01*
X86874788Y-99808135D01*
X86874790Y-99808137D01*
X86978681Y-99895312D01*
X87029089Y-99937609D01*
X87034481Y-99940573D01*
X87034485Y-99940576D01*
X87148636Y-100003331D01*
X87210995Y-100037613D01*
X87355267Y-100083378D01*
X87356906Y-100083898D01*
X87415790Y-100123561D01*
X87443883Y-100188763D01*
X87432266Y-100258803D01*
X87384626Y-100311443D01*
X87318808Y-100330000D01*
X79806495Y-100330000D01*
X79738374Y-100309998D01*
X79691881Y-100256342D01*
X79681777Y-100186068D01*
X79711271Y-100121488D01*
X79773884Y-100082293D01*
X79798303Y-100075750D01*
X79887562Y-100051833D01*
X79917159Y-100040472D01*
X80155948Y-99948809D01*
X80250453Y-99912532D01*
X80397867Y-99837421D01*
X80593854Y-99737561D01*
X80593861Y-99737557D01*
X80596795Y-99736062D01*
X80733630Y-99647201D01*
X80920029Y-99526152D01*
X80920030Y-99526152D01*
X80922793Y-99524357D01*
X81224876Y-99279734D01*
X81499734Y-99004876D01*
X81562374Y-98927523D01*
X81668719Y-98796198D01*
X81744357Y-98702793D01*
X81816923Y-98591051D01*
X81954264Y-98379563D01*
X81954266Y-98379560D01*
X81956062Y-98376794D01*
X81958514Y-98371983D01*
X82131034Y-98033393D01*
X82132532Y-98030453D01*
X82250801Y-97722352D01*
X82270647Y-97670652D01*
X82270648Y-97670650D01*
X82271833Y-97667562D01*
X82372438Y-97292099D01*
X82416545Y-97013624D01*
X82432732Y-96911424D01*
X82432733Y-96911416D01*
X82433246Y-96908176D01*
X82453589Y-96520000D01*
X82433246Y-96131824D01*
X82426073Y-96086531D01*
X82402305Y-95936474D01*
X82372438Y-95747901D01*
X82271833Y-95372438D01*
X82270310Y-95368469D01*
X82195389Y-95173295D01*
X82132532Y-95009547D01*
X82087681Y-94921522D01*
X81957561Y-94666147D01*
X81957557Y-94666140D01*
X81956062Y-94663206D01*
X81922971Y-94612249D01*
X81746152Y-94339971D01*
X81746152Y-94339970D01*
X81744357Y-94337207D01*
X81535199Y-94078919D01*
X81501809Y-94037686D01*
X81501806Y-94037682D01*
X81499734Y-94035124D01*
X81224876Y-93760266D01*
X81221329Y-93757393D01*
X80925355Y-93517718D01*
X80922793Y-93515643D01*
X80920029Y-93513848D01*
X80599564Y-93305736D01*
X80599561Y-93305734D01*
X80596795Y-93303938D01*
X80593861Y-93302443D01*
X80593854Y-93302439D01*
X80253393Y-93128966D01*
X80250453Y-93127468D01*
X79887562Y-92988167D01*
X79512099Y-92887562D01*
X79247379Y-92845634D01*
X79131424Y-92827268D01*
X79131416Y-92827267D01*
X79128176Y-92826754D01*
X78740000Y-92806411D01*
X78351824Y-92826754D01*
X78348584Y-92827267D01*
X78348576Y-92827268D01*
X78232621Y-92845634D01*
X77967901Y-92887562D01*
X77592438Y-92988167D01*
X77229547Y-93127468D01*
X77226607Y-93128966D01*
X76886147Y-93302439D01*
X76886140Y-93302443D01*
X76883206Y-93303938D01*
X76557207Y-93515643D01*
X76554645Y-93517718D01*
X76258672Y-93757393D01*
X76255124Y-93760266D01*
X75980266Y-94035124D01*
X75978194Y-94037682D01*
X75978191Y-94037686D01*
X75944801Y-94078919D01*
X75735643Y-94337207D01*
X75733848Y-94339970D01*
X75733848Y-94339971D01*
X75557030Y-94612249D01*
X75523938Y-94663206D01*
X75522443Y-94666140D01*
X75522439Y-94666147D01*
X75392319Y-94921522D01*
X75347468Y-95009547D01*
X75284611Y-95173295D01*
X75209691Y-95368469D01*
X75208167Y-95372438D01*
X75198860Y-95407173D01*
X75177707Y-95486116D01*
X75140755Y-95546739D01*
X75076895Y-95577760D01*
X75006400Y-95569332D01*
X74951653Y-95524129D01*
X74930000Y-95453505D01*
X74930000Y-62023547D01*
X81461780Y-62023547D01*
X81462526Y-62031439D01*
X81465941Y-62067565D01*
X81466500Y-62079423D01*
X81466500Y-81386233D01*
X81465973Y-81397416D01*
X81464298Y-81404909D01*
X81464547Y-81412835D01*
X81464547Y-81412836D01*
X81466438Y-81472986D01*
X81466500Y-81476945D01*
X81466500Y-81504856D01*
X81466997Y-81508790D01*
X81466997Y-81508791D01*
X81467005Y-81508856D01*
X81467938Y-81520693D01*
X81469327Y-81564889D01*
X81473143Y-81578023D01*
X81474978Y-81584339D01*
X81478987Y-81603700D01*
X81481526Y-81623797D01*
X81484445Y-81631168D01*
X81484445Y-81631170D01*
X81497804Y-81664912D01*
X81501649Y-81676142D01*
X81506442Y-81692639D01*
X81513982Y-81718593D01*
X81518015Y-81725412D01*
X81518017Y-81725417D01*
X81524293Y-81736028D01*
X81532988Y-81753776D01*
X81540448Y-81772617D01*
X81545110Y-81779033D01*
X81545110Y-81779034D01*
X81566436Y-81808387D01*
X81572952Y-81818307D01*
X81577611Y-81826184D01*
X81595458Y-81856362D01*
X81609779Y-81870683D01*
X81622619Y-81885716D01*
X81634528Y-81902107D01*
X81651578Y-81916212D01*
X81668605Y-81930298D01*
X81677384Y-81938288D01*
X84964595Y-85225500D01*
X84998621Y-85287812D01*
X85001500Y-85314595D01*
X85001500Y-85978134D01*
X85008255Y-86040316D01*
X85059385Y-86176705D01*
X85146739Y-86293261D01*
X85263295Y-86380615D01*
X85399684Y-86431745D01*
X85461866Y-86438500D01*
X87258134Y-86438500D01*
X87320316Y-86431745D01*
X87456705Y-86380615D01*
X87573261Y-86293261D01*
X87660615Y-86176705D01*
X87711745Y-86040316D01*
X87718500Y-85978134D01*
X87718500Y-84181866D01*
X87711745Y-84119684D01*
X87660615Y-83983295D01*
X87573261Y-83866739D01*
X87456705Y-83779385D01*
X87360395Y-83743280D01*
X87337687Y-83734767D01*
X87280923Y-83692125D01*
X87256223Y-83625564D01*
X87271430Y-83556215D01*
X87292977Y-83527535D01*
X87394052Y-83426812D01*
X87400730Y-83418965D01*
X87525003Y-83246020D01*
X87530313Y-83237183D01*
X87624670Y-83046267D01*
X87628469Y-83036672D01*
X87690377Y-82832910D01*
X87692555Y-82822837D01*
X87693986Y-82811962D01*
X87691775Y-82797778D01*
X87678617Y-82794000D01*
X85043225Y-82794000D01*
X85029694Y-82797973D01*
X85028257Y-82807966D01*
X85058565Y-82942446D01*
X85061645Y-82952275D01*
X85141770Y-83149603D01*
X85146413Y-83158794D01*
X85257694Y-83340388D01*
X85263777Y-83348699D01*
X85403213Y-83509667D01*
X85410577Y-83516879D01*
X85415522Y-83520985D01*
X85455156Y-83579889D01*
X85456653Y-83650870D01*
X85419537Y-83711392D01*
X85379274Y-83735906D01*
X85375588Y-83737288D01*
X85373446Y-83738091D01*
X85302641Y-83743280D01*
X85240113Y-83709208D01*
X82770405Y-81239500D01*
X82736379Y-81177188D01*
X82733500Y-81150405D01*
X82733500Y-78853594D01*
X82753502Y-78785473D01*
X82807158Y-78738980D01*
X82877432Y-78728876D01*
X82942012Y-78758370D01*
X82948595Y-78764499D01*
X84576343Y-80392247D01*
X84583887Y-80400537D01*
X84588000Y-80407018D01*
X84633771Y-80449999D01*
X84637667Y-80453658D01*
X84640509Y-80456413D01*
X84660230Y-80476134D01*
X84663425Y-80478612D01*
X84672447Y-80486318D01*
X84704679Y-80516586D01*
X84711628Y-80520406D01*
X84722432Y-80526346D01*
X84738956Y-80537199D01*
X84754959Y-80549613D01*
X84795543Y-80567176D01*
X84806173Y-80572383D01*
X84844940Y-80593695D01*
X84852617Y-80595666D01*
X84852622Y-80595668D01*
X84864558Y-80598732D01*
X84883266Y-80605137D01*
X84901855Y-80613181D01*
X84909683Y-80614421D01*
X84909690Y-80614423D01*
X84945524Y-80620099D01*
X84957144Y-80622505D01*
X84992289Y-80631528D01*
X84999970Y-80633500D01*
X85020224Y-80633500D01*
X85039934Y-80635051D01*
X85059943Y-80638220D01*
X85067836Y-80637474D01*
X85067838Y-80637474D01*
X85074146Y-80636878D01*
X85143846Y-80650382D01*
X85193433Y-80696484D01*
X85257285Y-80800680D01*
X85257290Y-80800687D01*
X85259987Y-80805088D01*
X85406250Y-80973938D01*
X85578126Y-81116632D01*
X85609301Y-81134849D01*
X85651955Y-81159774D01*
X85700679Y-81211412D01*
X85713750Y-81281195D01*
X85687019Y-81346967D01*
X85646562Y-81380327D01*
X85638457Y-81384546D01*
X85629738Y-81390036D01*
X85459433Y-81517905D01*
X85451726Y-81524748D01*
X85304590Y-81678717D01*
X85298104Y-81686727D01*
X85178098Y-81862649D01*
X85173000Y-81871623D01*
X85083338Y-82064783D01*
X85079775Y-82074470D01*
X85024389Y-82274183D01*
X85025912Y-82282607D01*
X85038292Y-82286000D01*
X87678344Y-82286000D01*
X87691875Y-82282027D01*
X87693180Y-82272947D01*
X87651214Y-82105875D01*
X87647894Y-82096124D01*
X87562972Y-81900814D01*
X87558105Y-81891739D01*
X87442426Y-81712926D01*
X87436136Y-81704757D01*
X87292806Y-81547240D01*
X87285273Y-81540215D01*
X87118139Y-81408222D01*
X87109556Y-81402520D01*
X87072602Y-81382120D01*
X87022631Y-81331687D01*
X87007859Y-81262245D01*
X87032975Y-81195839D01*
X87060327Y-81169232D01*
X87116217Y-81129366D01*
X87239860Y-81041173D01*
X87398096Y-80883489D01*
X87447810Y-80814305D01*
X87525435Y-80706277D01*
X87528453Y-80702077D01*
X87532178Y-80694541D01*
X87625136Y-80506453D01*
X87625137Y-80506451D01*
X87627430Y-80501811D01*
X87692370Y-80288069D01*
X87721529Y-80066590D01*
X87722325Y-80034022D01*
X87723074Y-80003365D01*
X87723074Y-80003361D01*
X87723156Y-80000000D01*
X87704852Y-79777361D01*
X87650431Y-79560702D01*
X87561354Y-79355840D01*
X87521040Y-79293524D01*
X87442822Y-79172617D01*
X87442820Y-79172614D01*
X87440014Y-79168277D01*
X87289670Y-79003051D01*
X87285619Y-78999852D01*
X87285615Y-78999848D01*
X87118414Y-78867800D01*
X87118410Y-78867798D01*
X87114359Y-78864598D01*
X87073053Y-78841796D01*
X87023084Y-78791364D01*
X87008312Y-78721921D01*
X87033428Y-78655516D01*
X87060780Y-78628909D01*
X87121242Y-78585782D01*
X87239860Y-78501173D01*
X87398096Y-78343489D01*
X87439568Y-78285775D01*
X87525435Y-78166277D01*
X87528453Y-78162077D01*
X87553327Y-78111749D01*
X87625136Y-77966453D01*
X87625137Y-77966451D01*
X87627430Y-77961811D01*
X87659900Y-77854940D01*
X87690865Y-77753023D01*
X87690865Y-77753021D01*
X87692370Y-77748069D01*
X87721529Y-77526590D01*
X87721611Y-77523240D01*
X87723074Y-77463365D01*
X87723074Y-77463361D01*
X87723156Y-77460000D01*
X87704852Y-77237361D01*
X87650431Y-77020702D01*
X87561354Y-76815840D01*
X87511362Y-76738564D01*
X87442822Y-76632617D01*
X87442820Y-76632614D01*
X87440014Y-76628277D01*
X87289670Y-76463051D01*
X87285619Y-76459852D01*
X87285615Y-76459848D01*
X87118414Y-76327800D01*
X87118410Y-76327798D01*
X87114359Y-76324598D01*
X87107967Y-76321069D01*
X86989548Y-76255699D01*
X86918789Y-76216638D01*
X86913920Y-76214914D01*
X86913916Y-76214912D01*
X86713087Y-76143795D01*
X86713083Y-76143794D01*
X86708212Y-76142069D01*
X86703119Y-76141162D01*
X86703116Y-76141161D01*
X86493373Y-76103800D01*
X86493367Y-76103799D01*
X86488284Y-76102894D01*
X86414452Y-76101992D01*
X86270081Y-76100228D01*
X86270079Y-76100228D01*
X86264911Y-76100165D01*
X86044091Y-76133955D01*
X86031532Y-76138060D01*
X85960568Y-76140210D01*
X85903294Y-76107389D01*
X83670405Y-73874500D01*
X83636379Y-73812188D01*
X83633500Y-73785405D01*
X83633500Y-62730990D01*
X83653502Y-62662869D01*
X83670405Y-62641895D01*
X85951895Y-60360405D01*
X86014207Y-60326379D01*
X86040990Y-60323500D01*
X101511233Y-60323500D01*
X101522416Y-60324027D01*
X101529909Y-60325702D01*
X101537835Y-60325453D01*
X101537836Y-60325453D01*
X101597986Y-60323562D01*
X101601945Y-60323500D01*
X101629856Y-60323500D01*
X101633791Y-60323003D01*
X101633856Y-60322995D01*
X101645693Y-60322062D01*
X101677951Y-60321048D01*
X101681970Y-60320922D01*
X101689889Y-60320673D01*
X101709343Y-60315021D01*
X101728700Y-60311013D01*
X101740930Y-60309468D01*
X101740931Y-60309468D01*
X101748797Y-60308474D01*
X101756168Y-60305555D01*
X101756170Y-60305555D01*
X101789912Y-60292196D01*
X101801142Y-60288351D01*
X101835983Y-60278229D01*
X101835984Y-60278229D01*
X101843593Y-60276018D01*
X101850412Y-60271985D01*
X101850417Y-60271983D01*
X101861028Y-60265707D01*
X101878776Y-60257012D01*
X101897617Y-60249552D01*
X101933387Y-60223564D01*
X101943307Y-60217048D01*
X101974535Y-60198580D01*
X101974538Y-60198578D01*
X101981362Y-60194542D01*
X101995683Y-60180221D01*
X102010717Y-60167380D01*
X102020694Y-60160131D01*
X102027107Y-60155472D01*
X102055298Y-60121395D01*
X102063288Y-60112616D01*
X106266752Y-55909152D01*
X106329064Y-55875126D01*
X106388459Y-55876541D01*
X106446591Y-55892118D01*
X106446602Y-55892120D01*
X106451913Y-55893543D01*
X106680000Y-55913498D01*
X106908087Y-55893543D01*
X106913400Y-55892119D01*
X106913402Y-55892119D01*
X107123933Y-55835707D01*
X107123935Y-55835706D01*
X107129243Y-55834284D01*
X107198846Y-55801828D01*
X107331762Y-55739849D01*
X107331767Y-55739846D01*
X107336749Y-55737523D01*
X107514740Y-55612892D01*
X107519789Y-55609357D01*
X107519792Y-55609355D01*
X107524300Y-55606198D01*
X107686198Y-55444300D01*
X107817523Y-55256749D01*
X107819846Y-55251767D01*
X107819849Y-55251762D01*
X107835805Y-55217543D01*
X107882722Y-55164258D01*
X107950999Y-55144797D01*
X108018959Y-55165339D01*
X108064195Y-55217543D01*
X108080151Y-55251762D01*
X108080154Y-55251767D01*
X108082477Y-55256749D01*
X108213802Y-55444300D01*
X108375700Y-55606198D01*
X108380208Y-55609355D01*
X108380211Y-55609357D01*
X108385260Y-55612892D01*
X108563251Y-55737523D01*
X108568233Y-55739846D01*
X108568238Y-55739849D01*
X108701154Y-55801828D01*
X108770757Y-55834284D01*
X108776065Y-55835706D01*
X108776067Y-55835707D01*
X108986598Y-55892119D01*
X108986600Y-55892119D01*
X108991913Y-55893543D01*
X109220000Y-55913498D01*
X109448087Y-55893543D01*
X109453400Y-55892119D01*
X109453402Y-55892119D01*
X109663933Y-55835707D01*
X109663935Y-55835706D01*
X109669243Y-55834284D01*
X109738846Y-55801828D01*
X109871762Y-55739849D01*
X109871767Y-55739846D01*
X109876749Y-55737523D01*
X110054740Y-55612892D01*
X110059789Y-55609357D01*
X110059792Y-55609355D01*
X110064300Y-55606198D01*
X110226198Y-55444300D01*
X110357523Y-55256749D01*
X110359846Y-55251767D01*
X110359849Y-55251762D01*
X110375805Y-55217543D01*
X110422722Y-55164258D01*
X110490999Y-55144797D01*
X110558959Y-55165339D01*
X110604195Y-55217543D01*
X110620151Y-55251762D01*
X110620154Y-55251767D01*
X110622477Y-55256749D01*
X110753802Y-55444300D01*
X110915700Y-55606198D01*
X110920208Y-55609355D01*
X110920211Y-55609357D01*
X110925260Y-55612892D01*
X111103251Y-55737523D01*
X111108233Y-55739846D01*
X111108238Y-55739849D01*
X111241154Y-55801828D01*
X111310757Y-55834284D01*
X111316065Y-55835706D01*
X111316067Y-55835707D01*
X111526598Y-55892119D01*
X111526600Y-55892119D01*
X111531913Y-55893543D01*
X111760000Y-55913498D01*
X111988087Y-55893543D01*
X111993400Y-55892119D01*
X111993402Y-55892119D01*
X112203933Y-55835707D01*
X112203935Y-55835706D01*
X112209243Y-55834284D01*
X112278846Y-55801828D01*
X112411762Y-55739849D01*
X112411767Y-55739846D01*
X112416749Y-55737523D01*
X112594740Y-55612892D01*
X112599789Y-55609357D01*
X112599792Y-55609355D01*
X112604300Y-55606198D01*
X112766198Y-55444300D01*
X112897523Y-55256749D01*
X112899846Y-55251767D01*
X112899849Y-55251762D01*
X112915805Y-55217543D01*
X112962722Y-55164258D01*
X113030999Y-55144797D01*
X113098959Y-55165339D01*
X113144195Y-55217543D01*
X113160151Y-55251762D01*
X113160154Y-55251767D01*
X113162477Y-55256749D01*
X113293802Y-55444300D01*
X113455700Y-55606198D01*
X113460208Y-55609355D01*
X113460211Y-55609357D01*
X113465260Y-55612892D01*
X113643251Y-55737523D01*
X113648233Y-55739846D01*
X113648238Y-55739849D01*
X113781154Y-55801828D01*
X113850757Y-55834284D01*
X113856065Y-55835706D01*
X113856067Y-55835707D01*
X114066598Y-55892119D01*
X114066600Y-55892119D01*
X114071913Y-55893543D01*
X114300000Y-55913498D01*
X114528087Y-55893543D01*
X114533400Y-55892119D01*
X114533402Y-55892119D01*
X114743933Y-55835707D01*
X114743935Y-55835706D01*
X114749243Y-55834284D01*
X114818846Y-55801828D01*
X114951762Y-55739849D01*
X114951767Y-55739846D01*
X114956749Y-55737523D01*
X115134740Y-55612892D01*
X115139789Y-55609357D01*
X115139792Y-55609355D01*
X115144300Y-55606198D01*
X115306198Y-55444300D01*
X115437523Y-55256749D01*
X115439846Y-55251767D01*
X115439849Y-55251762D01*
X115455805Y-55217543D01*
X115502722Y-55164258D01*
X115570999Y-55144797D01*
X115638959Y-55165339D01*
X115684195Y-55217543D01*
X115700151Y-55251762D01*
X115700154Y-55251767D01*
X115702477Y-55256749D01*
X115833802Y-55444300D01*
X115995700Y-55606198D01*
X116000208Y-55609355D01*
X116000211Y-55609357D01*
X116005260Y-55612892D01*
X116183251Y-55737523D01*
X116188233Y-55739846D01*
X116188238Y-55739849D01*
X116321154Y-55801828D01*
X116390757Y-55834284D01*
X116396065Y-55835706D01*
X116396067Y-55835707D01*
X116606598Y-55892119D01*
X116606600Y-55892119D01*
X116611913Y-55893543D01*
X116840000Y-55913498D01*
X117068087Y-55893543D01*
X117073400Y-55892119D01*
X117073402Y-55892119D01*
X117283933Y-55835707D01*
X117283935Y-55835706D01*
X117289243Y-55834284D01*
X117358846Y-55801828D01*
X117491762Y-55739849D01*
X117491767Y-55739846D01*
X117496749Y-55737523D01*
X117674740Y-55612892D01*
X117679789Y-55609357D01*
X117679792Y-55609355D01*
X117684300Y-55606198D01*
X117846198Y-55444300D01*
X117977523Y-55256749D01*
X117979846Y-55251767D01*
X117979849Y-55251762D01*
X117995805Y-55217543D01*
X118042722Y-55164258D01*
X118110999Y-55144797D01*
X118178959Y-55165339D01*
X118224195Y-55217543D01*
X118240151Y-55251762D01*
X118240154Y-55251767D01*
X118242477Y-55256749D01*
X118373802Y-55444300D01*
X118535700Y-55606198D01*
X118540208Y-55609355D01*
X118540211Y-55609357D01*
X118545260Y-55612892D01*
X118723251Y-55737523D01*
X118728233Y-55739846D01*
X118728238Y-55739849D01*
X118861154Y-55801828D01*
X118930757Y-55834284D01*
X118936065Y-55835706D01*
X118936067Y-55835707D01*
X119146598Y-55892119D01*
X119146600Y-55892119D01*
X119151913Y-55893543D01*
X119380000Y-55913498D01*
X119608087Y-55893543D01*
X119613400Y-55892119D01*
X119613402Y-55892119D01*
X119823933Y-55835707D01*
X119823935Y-55835706D01*
X119829243Y-55834284D01*
X119898846Y-55801828D01*
X120031762Y-55739849D01*
X120031767Y-55739846D01*
X120036749Y-55737523D01*
X120214740Y-55612892D01*
X120219789Y-55609357D01*
X120219792Y-55609355D01*
X120224300Y-55606198D01*
X120386198Y-55444300D01*
X120517523Y-55256749D01*
X120519846Y-55251767D01*
X120519849Y-55251762D01*
X120535805Y-55217543D01*
X120582722Y-55164258D01*
X120650999Y-55144797D01*
X120718959Y-55165339D01*
X120764195Y-55217543D01*
X120780151Y-55251762D01*
X120780154Y-55251767D01*
X120782477Y-55256749D01*
X120913802Y-55444300D01*
X121075700Y-55606198D01*
X121080208Y-55609355D01*
X121080211Y-55609357D01*
X121085260Y-55612892D01*
X121263251Y-55737523D01*
X121268233Y-55739846D01*
X121268238Y-55739849D01*
X121401154Y-55801828D01*
X121470757Y-55834284D01*
X121476065Y-55835706D01*
X121476067Y-55835707D01*
X121686598Y-55892119D01*
X121686600Y-55892119D01*
X121691913Y-55893543D01*
X121920000Y-55913498D01*
X122148087Y-55893543D01*
X122153400Y-55892119D01*
X122153402Y-55892119D01*
X122363933Y-55835707D01*
X122363935Y-55835706D01*
X122369243Y-55834284D01*
X122438846Y-55801828D01*
X122571762Y-55739849D01*
X122571767Y-55739846D01*
X122576749Y-55737523D01*
X122754740Y-55612892D01*
X122759789Y-55609357D01*
X122759792Y-55609355D01*
X122764300Y-55606198D01*
X122926198Y-55444300D01*
X123057523Y-55256749D01*
X123059846Y-55251767D01*
X123059849Y-55251762D01*
X123075805Y-55217543D01*
X123122722Y-55164258D01*
X123190999Y-55144797D01*
X123258959Y-55165339D01*
X123304195Y-55217543D01*
X123320151Y-55251762D01*
X123320154Y-55251767D01*
X123322477Y-55256749D01*
X123453802Y-55444300D01*
X123615700Y-55606198D01*
X123620208Y-55609355D01*
X123620211Y-55609357D01*
X123625260Y-55612892D01*
X123803251Y-55737523D01*
X123808233Y-55739846D01*
X123808238Y-55739849D01*
X123941154Y-55801828D01*
X124010757Y-55834284D01*
X124016065Y-55835706D01*
X124016067Y-55835707D01*
X124226598Y-55892119D01*
X124226600Y-55892119D01*
X124231913Y-55893543D01*
X124460000Y-55913498D01*
X124688087Y-55893543D01*
X124693400Y-55892119D01*
X124693402Y-55892119D01*
X124903933Y-55835707D01*
X124903935Y-55835706D01*
X124909243Y-55834284D01*
X124978846Y-55801828D01*
X125111762Y-55739849D01*
X125111767Y-55739846D01*
X125116749Y-55737523D01*
X125294740Y-55612892D01*
X125299789Y-55609357D01*
X125299792Y-55609355D01*
X125304300Y-55606198D01*
X125466198Y-55444300D01*
X125597523Y-55256749D01*
X125599846Y-55251767D01*
X125599849Y-55251762D01*
X125691961Y-55054225D01*
X125691961Y-55054224D01*
X125694284Y-55049243D01*
X125738527Y-54884129D01*
X125752119Y-54833402D01*
X125752119Y-54833400D01*
X125753543Y-54828087D01*
X125773498Y-54600000D01*
X125753543Y-54371913D01*
X125730000Y-54284050D01*
X125695707Y-54156067D01*
X125695706Y-54156065D01*
X125694284Y-54150757D01*
X125636178Y-54026147D01*
X125599849Y-53948238D01*
X125599846Y-53948233D01*
X125597523Y-53943251D01*
X125466198Y-53755700D01*
X125304300Y-53593802D01*
X125299792Y-53590645D01*
X125299789Y-53590643D01*
X125139135Y-53478152D01*
X125116749Y-53462477D01*
X125111767Y-53460154D01*
X125111762Y-53460151D01*
X124914225Y-53368039D01*
X124914224Y-53368039D01*
X124909243Y-53365716D01*
X124903935Y-53364294D01*
X124903933Y-53364293D01*
X124693402Y-53307881D01*
X124693400Y-53307881D01*
X124688087Y-53306457D01*
X124460000Y-53286502D01*
X124231913Y-53306457D01*
X124226600Y-53307881D01*
X124226598Y-53307881D01*
X124016067Y-53364293D01*
X124016065Y-53364294D01*
X124010757Y-53365716D01*
X124005776Y-53368039D01*
X124005775Y-53368039D01*
X123808238Y-53460151D01*
X123808233Y-53460154D01*
X123803251Y-53462477D01*
X123780865Y-53478152D01*
X123620211Y-53590643D01*
X123620208Y-53590645D01*
X123615700Y-53593802D01*
X123453802Y-53755700D01*
X123322477Y-53943251D01*
X123320154Y-53948233D01*
X123320151Y-53948238D01*
X123304195Y-53982457D01*
X123257278Y-54035742D01*
X123189001Y-54055203D01*
X123121041Y-54034661D01*
X123075805Y-53982457D01*
X123059849Y-53948238D01*
X123059846Y-53948233D01*
X123057523Y-53943251D01*
X122926198Y-53755700D01*
X122764300Y-53593802D01*
X122759792Y-53590645D01*
X122759789Y-53590643D01*
X122599135Y-53478152D01*
X122576749Y-53462477D01*
X122571767Y-53460154D01*
X122571762Y-53460151D01*
X122374225Y-53368039D01*
X122374224Y-53368039D01*
X122369243Y-53365716D01*
X122363935Y-53364294D01*
X122363933Y-53364293D01*
X122153402Y-53307881D01*
X122153400Y-53307881D01*
X122148087Y-53306457D01*
X121920000Y-53286502D01*
X121691913Y-53306457D01*
X121686600Y-53307881D01*
X121686598Y-53307881D01*
X121476067Y-53364293D01*
X121476065Y-53364294D01*
X121470757Y-53365716D01*
X121465776Y-53368039D01*
X121465775Y-53368039D01*
X121268238Y-53460151D01*
X121268233Y-53460154D01*
X121263251Y-53462477D01*
X121240865Y-53478152D01*
X121080211Y-53590643D01*
X121080208Y-53590645D01*
X121075700Y-53593802D01*
X120913802Y-53755700D01*
X120782477Y-53943251D01*
X120780154Y-53948233D01*
X120780151Y-53948238D01*
X120764195Y-53982457D01*
X120717278Y-54035742D01*
X120649001Y-54055203D01*
X120581041Y-54034661D01*
X120535805Y-53982457D01*
X120519849Y-53948238D01*
X120519846Y-53948233D01*
X120517523Y-53943251D01*
X120386198Y-53755700D01*
X120224300Y-53593802D01*
X120219792Y-53590645D01*
X120219789Y-53590643D01*
X120059135Y-53478152D01*
X120036749Y-53462477D01*
X120031767Y-53460154D01*
X120031762Y-53460151D01*
X119834225Y-53368039D01*
X119834224Y-53368039D01*
X119829243Y-53365716D01*
X119823935Y-53364294D01*
X119823933Y-53364293D01*
X119613402Y-53307881D01*
X119613400Y-53307881D01*
X119608087Y-53306457D01*
X119380000Y-53286502D01*
X119151913Y-53306457D01*
X119146600Y-53307881D01*
X119146598Y-53307881D01*
X118936067Y-53364293D01*
X118936065Y-53364294D01*
X118930757Y-53365716D01*
X118925776Y-53368039D01*
X118925775Y-53368039D01*
X118728238Y-53460151D01*
X118728233Y-53460154D01*
X118723251Y-53462477D01*
X118700865Y-53478152D01*
X118540211Y-53590643D01*
X118540208Y-53590645D01*
X118535700Y-53593802D01*
X118373802Y-53755700D01*
X118242477Y-53943251D01*
X118240154Y-53948233D01*
X118240151Y-53948238D01*
X118224195Y-53982457D01*
X118177278Y-54035742D01*
X118109001Y-54055203D01*
X118041041Y-54034661D01*
X117995805Y-53982457D01*
X117979849Y-53948238D01*
X117979846Y-53948233D01*
X117977523Y-53943251D01*
X117846198Y-53755700D01*
X117684300Y-53593802D01*
X117679792Y-53590645D01*
X117679789Y-53590643D01*
X117519135Y-53478152D01*
X117496749Y-53462477D01*
X117491767Y-53460154D01*
X117491762Y-53460151D01*
X117294225Y-53368039D01*
X117294224Y-53368039D01*
X117289243Y-53365716D01*
X117283935Y-53364294D01*
X117283933Y-53364293D01*
X117073402Y-53307881D01*
X117073400Y-53307881D01*
X117068087Y-53306457D01*
X116840000Y-53286502D01*
X116611913Y-53306457D01*
X116606600Y-53307881D01*
X116606598Y-53307881D01*
X116396067Y-53364293D01*
X116396065Y-53364294D01*
X116390757Y-53365716D01*
X116385776Y-53368039D01*
X116385775Y-53368039D01*
X116188238Y-53460151D01*
X116188233Y-53460154D01*
X116183251Y-53462477D01*
X116160865Y-53478152D01*
X116000211Y-53590643D01*
X116000208Y-53590645D01*
X115995700Y-53593802D01*
X115833802Y-53755700D01*
X115702477Y-53943251D01*
X115700154Y-53948233D01*
X115700151Y-53948238D01*
X115684195Y-53982457D01*
X115637278Y-54035742D01*
X115569001Y-54055203D01*
X115501041Y-54034661D01*
X115455805Y-53982457D01*
X115439849Y-53948238D01*
X115439846Y-53948233D01*
X115437523Y-53943251D01*
X115306198Y-53755700D01*
X115144300Y-53593802D01*
X115139792Y-53590645D01*
X115139789Y-53590643D01*
X114979135Y-53478152D01*
X114956749Y-53462477D01*
X114951767Y-53460154D01*
X114951762Y-53460151D01*
X114754225Y-53368039D01*
X114754224Y-53368039D01*
X114749243Y-53365716D01*
X114743935Y-53364294D01*
X114743933Y-53364293D01*
X114533402Y-53307881D01*
X114533400Y-53307881D01*
X114528087Y-53306457D01*
X114300000Y-53286502D01*
X114071913Y-53306457D01*
X114066600Y-53307881D01*
X114066598Y-53307881D01*
X113856067Y-53364293D01*
X113856065Y-53364294D01*
X113850757Y-53365716D01*
X113845776Y-53368039D01*
X113845775Y-53368039D01*
X113648238Y-53460151D01*
X113648233Y-53460154D01*
X113643251Y-53462477D01*
X113620865Y-53478152D01*
X113460211Y-53590643D01*
X113460208Y-53590645D01*
X113455700Y-53593802D01*
X113293802Y-53755700D01*
X113162477Y-53943251D01*
X113160154Y-53948233D01*
X113160151Y-53948238D01*
X113144195Y-53982457D01*
X113097278Y-54035742D01*
X113029001Y-54055203D01*
X112961041Y-54034661D01*
X112915805Y-53982457D01*
X112899849Y-53948238D01*
X112899846Y-53948233D01*
X112897523Y-53943251D01*
X112766198Y-53755700D01*
X112604300Y-53593802D01*
X112599792Y-53590645D01*
X112599789Y-53590643D01*
X112439135Y-53478152D01*
X112416749Y-53462477D01*
X112411767Y-53460154D01*
X112411762Y-53460151D01*
X112214225Y-53368039D01*
X112214224Y-53368039D01*
X112209243Y-53365716D01*
X112203935Y-53364294D01*
X112203933Y-53364293D01*
X111993402Y-53307881D01*
X111993400Y-53307881D01*
X111988087Y-53306457D01*
X111760000Y-53286502D01*
X111531913Y-53306457D01*
X111526600Y-53307881D01*
X111526598Y-53307881D01*
X111316067Y-53364293D01*
X111316065Y-53364294D01*
X111310757Y-53365716D01*
X111305776Y-53368039D01*
X111305775Y-53368039D01*
X111108238Y-53460151D01*
X111108233Y-53460154D01*
X111103251Y-53462477D01*
X111080865Y-53478152D01*
X110920211Y-53590643D01*
X110920208Y-53590645D01*
X110915700Y-53593802D01*
X110753802Y-53755700D01*
X110622477Y-53943251D01*
X110620154Y-53948233D01*
X110620151Y-53948238D01*
X110604195Y-53982457D01*
X110557278Y-54035742D01*
X110489001Y-54055203D01*
X110421041Y-54034661D01*
X110375805Y-53982457D01*
X110359849Y-53948238D01*
X110359846Y-53948233D01*
X110357523Y-53943251D01*
X110226198Y-53755700D01*
X110064300Y-53593802D01*
X110059792Y-53590645D01*
X110059789Y-53590643D01*
X109899135Y-53478152D01*
X109876749Y-53462477D01*
X109871767Y-53460154D01*
X109871762Y-53460151D01*
X109674225Y-53368039D01*
X109674224Y-53368039D01*
X109669243Y-53365716D01*
X109663935Y-53364294D01*
X109663933Y-53364293D01*
X109453402Y-53307881D01*
X109453400Y-53307881D01*
X109448087Y-53306457D01*
X109220000Y-53286502D01*
X108991913Y-53306457D01*
X108986600Y-53307881D01*
X108986598Y-53307881D01*
X108776067Y-53364293D01*
X108776065Y-53364294D01*
X108770757Y-53365716D01*
X108765776Y-53368039D01*
X108765775Y-53368039D01*
X108568238Y-53460151D01*
X108568233Y-53460154D01*
X108563251Y-53462477D01*
X108540865Y-53478152D01*
X108380211Y-53590643D01*
X108380208Y-53590645D01*
X108375700Y-53593802D01*
X108213802Y-53755700D01*
X108082477Y-53943251D01*
X108080154Y-53948233D01*
X108080151Y-53948238D01*
X108064195Y-53982457D01*
X108017278Y-54035742D01*
X107949001Y-54055203D01*
X107881041Y-54034661D01*
X107835805Y-53982457D01*
X107819849Y-53948238D01*
X107819846Y-53948233D01*
X107817523Y-53943251D01*
X107686198Y-53755700D01*
X107524300Y-53593802D01*
X107519792Y-53590645D01*
X107519789Y-53590643D01*
X107359135Y-53478152D01*
X107336749Y-53462477D01*
X107331767Y-53460154D01*
X107331762Y-53460151D01*
X107134225Y-53368039D01*
X107134224Y-53368039D01*
X107129243Y-53365716D01*
X107123935Y-53364294D01*
X107123933Y-53364293D01*
X106913402Y-53307881D01*
X106913400Y-53307881D01*
X106908087Y-53306457D01*
X106680000Y-53286502D01*
X106451913Y-53306457D01*
X106446600Y-53307881D01*
X106446598Y-53307881D01*
X106236067Y-53364293D01*
X106236065Y-53364294D01*
X106230757Y-53365716D01*
X106225776Y-53368039D01*
X106225775Y-53368039D01*
X106028238Y-53460151D01*
X106028233Y-53460154D01*
X106023251Y-53462477D01*
X106000865Y-53478152D01*
X105840211Y-53590643D01*
X105840208Y-53590645D01*
X105835700Y-53593802D01*
X105673802Y-53755700D01*
X105542477Y-53943251D01*
X105540154Y-53948233D01*
X105540151Y-53948238D01*
X105524195Y-53982457D01*
X105477278Y-54035742D01*
X105409001Y-54055203D01*
X105341041Y-54034661D01*
X105295805Y-53982457D01*
X105279849Y-53948238D01*
X105279846Y-53948233D01*
X105277523Y-53943251D01*
X105146198Y-53755700D01*
X104984300Y-53593802D01*
X104979792Y-53590645D01*
X104979789Y-53590643D01*
X104819135Y-53478152D01*
X104796749Y-53462477D01*
X104791767Y-53460154D01*
X104791762Y-53460151D01*
X104594225Y-53368039D01*
X104594224Y-53368039D01*
X104589243Y-53365716D01*
X104583935Y-53364294D01*
X104583933Y-53364293D01*
X104373402Y-53307881D01*
X104373400Y-53307881D01*
X104368087Y-53306457D01*
X104140000Y-53286502D01*
X103911913Y-53306457D01*
X103906600Y-53307881D01*
X103906598Y-53307881D01*
X103696067Y-53364293D01*
X103696065Y-53364294D01*
X103690757Y-53365716D01*
X103685776Y-53368039D01*
X103685775Y-53368039D01*
X103488238Y-53460151D01*
X103488233Y-53460154D01*
X103483251Y-53462477D01*
X103460865Y-53478152D01*
X103300211Y-53590643D01*
X103300208Y-53590645D01*
X103295700Y-53593802D01*
X103133802Y-53755700D01*
X103002477Y-53943251D01*
X103000154Y-53948233D01*
X103000151Y-53948238D01*
X102984195Y-53982457D01*
X102937278Y-54035742D01*
X102869001Y-54055203D01*
X102801041Y-54034661D01*
X102755805Y-53982457D01*
X102739849Y-53948238D01*
X102739846Y-53948233D01*
X102737523Y-53943251D01*
X102606198Y-53755700D01*
X102444300Y-53593802D01*
X102439792Y-53590645D01*
X102439789Y-53590643D01*
X102279135Y-53478152D01*
X102256749Y-53462477D01*
X102251767Y-53460154D01*
X102251762Y-53460151D01*
X102054225Y-53368039D01*
X102054224Y-53368039D01*
X102049243Y-53365716D01*
X102043935Y-53364294D01*
X102043933Y-53364293D01*
X101833402Y-53307881D01*
X101833400Y-53307881D01*
X101828087Y-53306457D01*
X101600000Y-53286502D01*
X101371913Y-53306457D01*
X101366600Y-53307881D01*
X101366598Y-53307881D01*
X101156067Y-53364293D01*
X101156065Y-53364294D01*
X101150757Y-53365716D01*
X101145776Y-53368039D01*
X101145775Y-53368039D01*
X100948238Y-53460151D01*
X100948233Y-53460154D01*
X100943251Y-53462477D01*
X100920865Y-53478152D01*
X100760211Y-53590643D01*
X100760208Y-53590645D01*
X100755700Y-53593802D01*
X100593802Y-53755700D01*
X100462477Y-53943251D01*
X100460154Y-53948233D01*
X100460151Y-53948238D01*
X100444195Y-53982457D01*
X100397278Y-54035742D01*
X100329001Y-54055203D01*
X100261041Y-54034661D01*
X100215805Y-53982457D01*
X100199849Y-53948238D01*
X100199846Y-53948233D01*
X100197523Y-53943251D01*
X100066198Y-53755700D01*
X99904300Y-53593802D01*
X99899792Y-53590645D01*
X99899789Y-53590643D01*
X99739135Y-53478152D01*
X99716749Y-53462477D01*
X99711767Y-53460154D01*
X99711762Y-53460151D01*
X99514225Y-53368039D01*
X99514224Y-53368039D01*
X99509243Y-53365716D01*
X99503935Y-53364294D01*
X99503933Y-53364293D01*
X99293402Y-53307881D01*
X99293400Y-53307881D01*
X99288087Y-53306457D01*
X99060000Y-53286502D01*
X98831913Y-53306457D01*
X98826600Y-53307881D01*
X98826598Y-53307881D01*
X98616067Y-53364293D01*
X98616065Y-53364294D01*
X98610757Y-53365716D01*
X98605776Y-53368039D01*
X98605775Y-53368039D01*
X98408238Y-53460151D01*
X98408233Y-53460154D01*
X98403251Y-53462477D01*
X98380865Y-53478152D01*
X98220211Y-53590643D01*
X98220208Y-53590645D01*
X98215700Y-53593802D01*
X98053802Y-53755700D01*
X97922477Y-53943251D01*
X97920154Y-53948233D01*
X97920151Y-53948238D01*
X97904195Y-53982457D01*
X97857278Y-54035742D01*
X97789001Y-54055203D01*
X97721041Y-54034661D01*
X97675805Y-53982457D01*
X97659849Y-53948238D01*
X97659846Y-53948233D01*
X97657523Y-53943251D01*
X97526198Y-53755700D01*
X97364300Y-53593802D01*
X97359792Y-53590645D01*
X97359789Y-53590643D01*
X97199135Y-53478152D01*
X97176749Y-53462477D01*
X97171767Y-53460154D01*
X97171762Y-53460151D01*
X96974225Y-53368039D01*
X96974224Y-53368039D01*
X96969243Y-53365716D01*
X96963935Y-53364294D01*
X96963933Y-53364293D01*
X96753402Y-53307881D01*
X96753400Y-53307881D01*
X96748087Y-53306457D01*
X96520000Y-53286502D01*
X96291913Y-53306457D01*
X96286600Y-53307881D01*
X96286598Y-53307881D01*
X96076067Y-53364293D01*
X96076065Y-53364294D01*
X96070757Y-53365716D01*
X96065776Y-53368039D01*
X96065775Y-53368039D01*
X95868238Y-53460151D01*
X95868233Y-53460154D01*
X95863251Y-53462477D01*
X95840865Y-53478152D01*
X95680211Y-53590643D01*
X95680208Y-53590645D01*
X95675700Y-53593802D01*
X95513802Y-53755700D01*
X95382477Y-53943251D01*
X95380154Y-53948233D01*
X95380151Y-53948238D01*
X95364195Y-53982457D01*
X95317278Y-54035742D01*
X95249001Y-54055203D01*
X95181041Y-54034661D01*
X95135805Y-53982457D01*
X95119849Y-53948238D01*
X95119846Y-53948233D01*
X95117523Y-53943251D01*
X94986198Y-53755700D01*
X94824300Y-53593802D01*
X94819792Y-53590645D01*
X94819789Y-53590643D01*
X94659135Y-53478152D01*
X94636749Y-53462477D01*
X94631767Y-53460154D01*
X94631762Y-53460151D01*
X94434225Y-53368039D01*
X94434224Y-53368039D01*
X94429243Y-53365716D01*
X94423935Y-53364294D01*
X94423933Y-53364293D01*
X94213402Y-53307881D01*
X94213400Y-53307881D01*
X94208087Y-53306457D01*
X93980000Y-53286502D01*
X93751913Y-53306457D01*
X93746600Y-53307881D01*
X93746598Y-53307881D01*
X93536067Y-53364293D01*
X93536065Y-53364294D01*
X93530757Y-53365716D01*
X93525776Y-53368039D01*
X93525775Y-53368039D01*
X93328238Y-53460151D01*
X93328233Y-53460154D01*
X93323251Y-53462477D01*
X93300865Y-53478152D01*
X93140211Y-53590643D01*
X93140208Y-53590645D01*
X93135700Y-53593802D01*
X92973802Y-53755700D01*
X92842477Y-53943251D01*
X92840154Y-53948233D01*
X92840151Y-53948238D01*
X92823919Y-53983049D01*
X92777002Y-54036334D01*
X92708725Y-54055795D01*
X92640765Y-54035253D01*
X92595529Y-53983049D01*
X92579414Y-53948489D01*
X92573931Y-53938993D01*
X92448972Y-53760533D01*
X92441916Y-53752125D01*
X92287875Y-53598084D01*
X92279467Y-53591028D01*
X92101007Y-53466069D01*
X92091511Y-53460586D01*
X91894053Y-53368510D01*
X91883761Y-53364764D01*
X91711497Y-53318606D01*
X91697401Y-53318942D01*
X91694000Y-53326884D01*
X91694000Y-55867967D01*
X91697973Y-55881498D01*
X91706522Y-55882727D01*
X91883761Y-55835236D01*
X91894053Y-55831490D01*
X92091511Y-55739414D01*
X92101007Y-55733931D01*
X92279467Y-55608972D01*
X92287875Y-55601916D01*
X92441916Y-55447875D01*
X92448972Y-55439467D01*
X92573931Y-55261007D01*
X92579414Y-55251511D01*
X92595529Y-55216951D01*
X92642446Y-55163666D01*
X92710723Y-55144205D01*
X92778683Y-55164747D01*
X92823919Y-55216951D01*
X92840151Y-55251762D01*
X92840154Y-55251767D01*
X92842477Y-55256749D01*
X92973802Y-55444300D01*
X93135700Y-55606198D01*
X93140208Y-55609355D01*
X93140211Y-55609357D01*
X93145260Y-55612892D01*
X93323251Y-55737523D01*
X93328233Y-55739846D01*
X93328238Y-55739849D01*
X93461154Y-55801828D01*
X93530757Y-55834284D01*
X93536065Y-55835706D01*
X93536067Y-55835707D01*
X93746598Y-55892119D01*
X93746600Y-55892119D01*
X93751913Y-55893543D01*
X93980000Y-55913498D01*
X94208087Y-55893543D01*
X94213400Y-55892119D01*
X94213402Y-55892119D01*
X94423933Y-55835707D01*
X94423935Y-55835706D01*
X94429243Y-55834284D01*
X94498846Y-55801828D01*
X94631762Y-55739849D01*
X94631767Y-55739846D01*
X94636749Y-55737523D01*
X94814740Y-55612892D01*
X94819789Y-55609357D01*
X94819792Y-55609355D01*
X94824300Y-55606198D01*
X94986198Y-55444300D01*
X95117523Y-55256749D01*
X95119846Y-55251767D01*
X95119849Y-55251762D01*
X95135805Y-55217543D01*
X95182722Y-55164258D01*
X95250999Y-55144797D01*
X95318959Y-55165339D01*
X95364195Y-55217543D01*
X95380151Y-55251762D01*
X95380154Y-55251767D01*
X95382477Y-55256749D01*
X95513802Y-55444300D01*
X95675700Y-55606198D01*
X95680212Y-55609357D01*
X95680447Y-55609522D01*
X95680526Y-55609621D01*
X95684424Y-55612892D01*
X95683767Y-55613675D01*
X95724774Y-55664981D01*
X95732081Y-55735600D01*
X95697268Y-55801828D01*
X94474725Y-57024370D01*
X93379500Y-58119595D01*
X93317188Y-58153621D01*
X93290405Y-58156500D01*
X85432371Y-58156500D01*
X85421188Y-58155973D01*
X85413695Y-58154298D01*
X85405769Y-58154547D01*
X85405768Y-58154547D01*
X85345605Y-58156438D01*
X85341647Y-58156500D01*
X85313748Y-58156500D01*
X85309758Y-58157004D01*
X85297924Y-58157936D01*
X85253715Y-58159326D01*
X85246101Y-58161538D01*
X85246096Y-58161539D01*
X85234263Y-58164977D01*
X85214900Y-58168988D01*
X85194807Y-58171526D01*
X85187440Y-58174443D01*
X85187435Y-58174444D01*
X85153696Y-58187802D01*
X85142469Y-58191646D01*
X85100011Y-58203982D01*
X85093185Y-58208019D01*
X85082576Y-58214293D01*
X85064828Y-58222988D01*
X85045987Y-58230448D01*
X85039571Y-58235110D01*
X85039570Y-58235110D01*
X85010217Y-58256436D01*
X85000297Y-58262952D01*
X84969069Y-58281420D01*
X84969066Y-58281422D01*
X84962242Y-58285458D01*
X84947921Y-58299779D01*
X84932888Y-58312619D01*
X84916497Y-58324528D01*
X84911446Y-58330634D01*
X84888306Y-58358605D01*
X84880316Y-58367384D01*
X81707747Y-61539952D01*
X81699461Y-61547492D01*
X81692982Y-61551604D01*
X81687557Y-61557381D01*
X81646357Y-61601255D01*
X81643602Y-61604097D01*
X81623865Y-61623834D01*
X81621385Y-61627031D01*
X81613682Y-61636051D01*
X81583414Y-61668283D01*
X81579595Y-61675229D01*
X81579593Y-61675232D01*
X81573652Y-61686038D01*
X81562801Y-61702557D01*
X81550386Y-61718563D01*
X81547241Y-61725832D01*
X81547238Y-61725836D01*
X81532826Y-61759141D01*
X81527609Y-61769791D01*
X81506305Y-61808544D01*
X81504334Y-61816219D01*
X81504334Y-61816220D01*
X81501267Y-61828166D01*
X81494863Y-61846870D01*
X81486819Y-61865459D01*
X81485580Y-61873282D01*
X81485577Y-61873292D01*
X81479901Y-61909128D01*
X81477495Y-61920748D01*
X81466500Y-61963574D01*
X81466500Y-61983828D01*
X81464949Y-62003538D01*
X81461780Y-62023547D01*
X74930000Y-62023547D01*
X74930000Y-56946495D01*
X74950002Y-56878374D01*
X75003658Y-56831881D01*
X75073932Y-56821777D01*
X75138512Y-56851271D01*
X75177707Y-56913884D01*
X75208167Y-57027562D01*
X75347468Y-57390453D01*
X75348966Y-57393393D01*
X75451106Y-57593853D01*
X75523938Y-57736794D01*
X75525734Y-57739560D01*
X75525736Y-57739563D01*
X75644726Y-57922793D01*
X75735643Y-58062793D01*
X75823694Y-58171526D01*
X75947593Y-58324528D01*
X75980266Y-58364876D01*
X76255124Y-58639734D01*
X76557207Y-58884357D01*
X76559970Y-58886152D01*
X76559971Y-58886152D01*
X76669932Y-58957561D01*
X76883205Y-59096062D01*
X76886139Y-59097557D01*
X76886146Y-59097561D01*
X77225847Y-59270647D01*
X77229547Y-59272532D01*
X77592438Y-59411833D01*
X77967901Y-59512438D01*
X78171793Y-59544732D01*
X78348576Y-59572732D01*
X78348584Y-59572733D01*
X78351824Y-59573246D01*
X78740000Y-59593589D01*
X79128176Y-59573246D01*
X79131416Y-59572733D01*
X79131424Y-59572732D01*
X79308207Y-59544732D01*
X79512099Y-59512438D01*
X79887562Y-59411833D01*
X80250453Y-59272532D01*
X80254153Y-59270647D01*
X80593854Y-59097561D01*
X80593861Y-59097557D01*
X80596795Y-59096062D01*
X80810069Y-58957561D01*
X80920029Y-58886152D01*
X80920030Y-58886152D01*
X80922793Y-58884357D01*
X81224876Y-58639734D01*
X81499734Y-58364876D01*
X81532408Y-58324528D01*
X81656306Y-58171526D01*
X81744357Y-58062793D01*
X81835274Y-57922793D01*
X81954264Y-57739563D01*
X81954266Y-57739560D01*
X81956062Y-57736794D01*
X82028895Y-57593853D01*
X82131034Y-57393393D01*
X82132532Y-57390453D01*
X82271833Y-57027562D01*
X82372438Y-56652099D01*
X82404732Y-56448207D01*
X82432732Y-56271424D01*
X82432733Y-56271416D01*
X82433246Y-56268176D01*
X82453589Y-55880000D01*
X82433246Y-55491824D01*
X82425005Y-55439789D01*
X82396013Y-55256749D01*
X82372438Y-55107901D01*
X82271833Y-54732438D01*
X82220995Y-54600000D01*
X87586502Y-54600000D01*
X87606457Y-54828087D01*
X87607881Y-54833400D01*
X87607881Y-54833402D01*
X87621474Y-54884129D01*
X87665716Y-55049243D01*
X87668039Y-55054224D01*
X87668039Y-55054225D01*
X87760151Y-55251762D01*
X87760154Y-55251767D01*
X87762477Y-55256749D01*
X87893802Y-55444300D01*
X88055700Y-55606198D01*
X88060208Y-55609355D01*
X88060211Y-55609357D01*
X88065260Y-55612892D01*
X88243251Y-55737523D01*
X88248233Y-55739846D01*
X88248238Y-55739849D01*
X88381154Y-55801828D01*
X88450757Y-55834284D01*
X88456065Y-55835706D01*
X88456067Y-55835707D01*
X88666598Y-55892119D01*
X88666600Y-55892119D01*
X88671913Y-55893543D01*
X88900000Y-55913498D01*
X89128087Y-55893543D01*
X89133400Y-55892119D01*
X89133402Y-55892119D01*
X89343933Y-55835707D01*
X89343935Y-55835706D01*
X89349243Y-55834284D01*
X89418846Y-55801828D01*
X89551762Y-55739849D01*
X89551767Y-55739846D01*
X89556749Y-55737523D01*
X89734740Y-55612892D01*
X89739789Y-55609357D01*
X89739792Y-55609355D01*
X89744300Y-55606198D01*
X89906198Y-55444300D01*
X90037523Y-55256749D01*
X90039846Y-55251767D01*
X90039849Y-55251762D01*
X90056081Y-55216951D01*
X90102998Y-55163666D01*
X90171275Y-55144205D01*
X90239235Y-55164747D01*
X90284471Y-55216951D01*
X90300586Y-55251511D01*
X90306069Y-55261007D01*
X90431028Y-55439467D01*
X90438084Y-55447875D01*
X90592125Y-55601916D01*
X90600533Y-55608972D01*
X90778993Y-55733931D01*
X90788489Y-55739414D01*
X90985947Y-55831490D01*
X90996239Y-55835236D01*
X91168503Y-55881394D01*
X91182599Y-55881058D01*
X91186000Y-55873116D01*
X91186000Y-53332033D01*
X91182027Y-53318502D01*
X91173478Y-53317273D01*
X90996239Y-53364764D01*
X90985947Y-53368510D01*
X90788489Y-53460586D01*
X90778993Y-53466069D01*
X90600533Y-53591028D01*
X90592125Y-53598084D01*
X90438084Y-53752125D01*
X90431028Y-53760533D01*
X90306069Y-53938993D01*
X90300586Y-53948489D01*
X90284471Y-53983049D01*
X90237554Y-54036334D01*
X90169277Y-54055795D01*
X90101317Y-54035253D01*
X90056081Y-53983049D01*
X90039849Y-53948238D01*
X90039846Y-53948233D01*
X90037523Y-53943251D01*
X89906198Y-53755700D01*
X89744300Y-53593802D01*
X89739792Y-53590645D01*
X89739789Y-53590643D01*
X89579135Y-53478152D01*
X89556749Y-53462477D01*
X89551767Y-53460154D01*
X89551762Y-53460151D01*
X89354225Y-53368039D01*
X89354224Y-53368039D01*
X89349243Y-53365716D01*
X89343935Y-53364294D01*
X89343933Y-53364293D01*
X89133402Y-53307881D01*
X89133400Y-53307881D01*
X89128087Y-53306457D01*
X88900000Y-53286502D01*
X88671913Y-53306457D01*
X88666600Y-53307881D01*
X88666598Y-53307881D01*
X88456067Y-53364293D01*
X88456065Y-53364294D01*
X88450757Y-53365716D01*
X88445776Y-53368039D01*
X88445775Y-53368039D01*
X88248238Y-53460151D01*
X88248233Y-53460154D01*
X88243251Y-53462477D01*
X88220865Y-53478152D01*
X88060211Y-53590643D01*
X88060208Y-53590645D01*
X88055700Y-53593802D01*
X87893802Y-53755700D01*
X87762477Y-53943251D01*
X87760154Y-53948233D01*
X87760151Y-53948238D01*
X87723822Y-54026147D01*
X87665716Y-54150757D01*
X87664294Y-54156065D01*
X87664293Y-54156067D01*
X87630000Y-54284050D01*
X87606457Y-54371913D01*
X87586502Y-54600000D01*
X82220995Y-54600000D01*
X82132532Y-54369547D01*
X82059700Y-54226607D01*
X81957561Y-54026147D01*
X81957557Y-54026140D01*
X81956062Y-54023206D01*
X81929600Y-53982457D01*
X81746152Y-53699971D01*
X81746152Y-53699970D01*
X81744357Y-53697207D01*
X81566969Y-53478152D01*
X81501809Y-53397686D01*
X81501806Y-53397682D01*
X81499734Y-53395124D01*
X81224876Y-53120266D01*
X80922793Y-52875643D01*
X80710407Y-52737718D01*
X80599564Y-52665736D01*
X80599561Y-52665734D01*
X80596795Y-52663938D01*
X80593861Y-52662443D01*
X80593854Y-52662439D01*
X80253393Y-52488966D01*
X80250453Y-52487468D01*
X79887562Y-52348167D01*
X79773884Y-52317707D01*
X79713261Y-52280755D01*
X79682240Y-52216895D01*
X79690668Y-52146400D01*
X79735871Y-52091653D01*
X79806495Y-52070000D01*
X133152541Y-52070000D01*
X133220662Y-52090002D01*
G37*
%TD.AperFunction*%
%TD*%
M02*
