%TF.GenerationSoftware,KiCad,Pcbnew,(6.0.7)*%
%TF.CreationDate,2023-06-21T14:43:57+08:00*%
%TF.ProjectId,Elevator_Indicator,456c6576-6174-46f7-925f-496e64696361,rev?*%
%TF.SameCoordinates,Original*%
%TF.FileFunction,Soldermask,Top*%
%TF.FilePolarity,Negative*%
%FSLAX46Y46*%
G04 Gerber Fmt 4.6, Leading zero omitted, Abs format (unit mm)*
G04 Created by KiCad (PCBNEW (6.0.7)) date 2023-06-21 14:43:57*
%MOMM*%
%LPD*%
G01*
G04 APERTURE LIST*
%ADD10R,1.700000X1.700000*%
%ADD11O,1.700000X1.700000*%
%ADD12C,1.600000*%
%ADD13O,1.600000X1.600000*%
%ADD14C,0.800000*%
%ADD15C,6.400000*%
%ADD16C,1.100000*%
%ADD17R,2.200000X2.200000*%
%ADD18C,2.200000*%
%ADD19R,1.600000X1.600000*%
%ADD20R,2.400000X1.600000*%
%ADD21O,2.400000X1.600000*%
G04 APERTURE END LIST*
D10*
%TO.C,J1*%
X86360000Y-85080000D03*
D11*
X86360000Y-82540000D03*
X86360000Y-80000000D03*
X86360000Y-77460000D03*
%TD*%
D12*
%TO.C,R2*%
X105410000Y-93980000D03*
D13*
X115570000Y-93980000D03*
%TD*%
D14*
%TO.C,H4*%
X77042944Y-57577056D03*
X78740000Y-58280000D03*
X78740000Y-53480000D03*
X81140000Y-55880000D03*
D15*
X78740000Y-55880000D03*
D14*
X80437056Y-54182944D03*
X80437056Y-57577056D03*
X77042944Y-54182944D03*
X76340000Y-55880000D03*
%TD*%
D10*
%TO.C,J3*%
X95245000Y-76205000D03*
D11*
X95245000Y-78745000D03*
X95245000Y-81285000D03*
X95245000Y-83825000D03*
X95245000Y-86365000D03*
X97785000Y-86365000D03*
X97785000Y-83825000D03*
X97785000Y-81285000D03*
X97785000Y-78745000D03*
X97785000Y-76205000D03*
%TD*%
D12*
%TO.C,R6*%
X105410000Y-78740000D03*
D13*
X115570000Y-78740000D03*
%TD*%
D12*
%TO.C,R5*%
X105410000Y-82550000D03*
D13*
X115570000Y-82550000D03*
%TD*%
D12*
%TO.C,R4*%
X105410000Y-86360000D03*
D13*
X115570000Y-86360000D03*
%TD*%
D14*
%TO.C,H1*%
X136317056Y-57437056D03*
X136317056Y-54042944D03*
X134620000Y-53340000D03*
X132922944Y-57437056D03*
X137020000Y-55740000D03*
X132922944Y-54042944D03*
D15*
X134620000Y-55740000D03*
D14*
X134620000Y-58140000D03*
X132220000Y-55740000D03*
%TD*%
D12*
%TO.C,R1*%
X105410000Y-97790000D03*
D13*
X115570000Y-97790000D03*
%TD*%
D16*
%TO.C,J2*%
X90170000Y-99060000D03*
X87630000Y-99060000D03*
D17*
X87630000Y-96520000D03*
D18*
X90170000Y-96520000D03*
%TD*%
D16*
%TO.C,J4*%
X96520000Y-99060000D03*
X99060000Y-99060000D03*
D17*
X96520000Y-96520000D03*
D18*
X99060000Y-96520000D03*
%TD*%
D14*
%TO.C,H3*%
X77042944Y-98217056D03*
X81140000Y-96520000D03*
X76340000Y-96520000D03*
X77042944Y-94822944D03*
D15*
X78740000Y-96520000D03*
D14*
X80437056Y-94822944D03*
X80437056Y-98217056D03*
X78740000Y-94120000D03*
X78740000Y-98920000D03*
%TD*%
D12*
%TO.C,R3*%
X105410000Y-90170000D03*
D13*
X115570000Y-90170000D03*
%TD*%
D19*
%TO.C,A1*%
X88900000Y-69840000D03*
D13*
X91440000Y-69840000D03*
X93980000Y-69840000D03*
X96520000Y-69840000D03*
X99060000Y-69840000D03*
X101600000Y-69840000D03*
X104140000Y-69840000D03*
X106680000Y-69840000D03*
X109220000Y-69840000D03*
X111760000Y-69840000D03*
X114300000Y-69840000D03*
X116840000Y-69840000D03*
X119380000Y-69840000D03*
X121920000Y-69840000D03*
X124460000Y-69840000D03*
X124460000Y-54600000D03*
X121920000Y-54600000D03*
X119380000Y-54600000D03*
X116840000Y-54600000D03*
X114300000Y-54600000D03*
X111760000Y-54600000D03*
X109220000Y-54600000D03*
X106680000Y-54600000D03*
X104140000Y-54600000D03*
X101600000Y-54600000D03*
X99060000Y-54600000D03*
X96520000Y-54600000D03*
X93980000Y-54600000D03*
X91440000Y-54600000D03*
X88900000Y-54600000D03*
%TD*%
D12*
%TO.C,R7*%
X105410000Y-74930000D03*
D13*
X115570000Y-74930000D03*
%TD*%
D20*
%TO.C,U1*%
X128285000Y-95235000D03*
D21*
X128285000Y-92695000D03*
X128285000Y-90155000D03*
X128285000Y-87615000D03*
X128285000Y-85075000D03*
X128285000Y-82535000D03*
X128285000Y-79995000D03*
X128285000Y-77455000D03*
X120665000Y-77455000D03*
X120665000Y-79995000D03*
X120665000Y-82535000D03*
X120665000Y-85075000D03*
X120665000Y-87615000D03*
X120665000Y-90155000D03*
X120665000Y-92695000D03*
X120665000Y-95235000D03*
%TD*%
D14*
%TO.C,H2*%
X136317056Y-98217056D03*
X132922944Y-94822944D03*
X136317056Y-94822944D03*
X134620000Y-98920000D03*
X137020000Y-96520000D03*
X132220000Y-96520000D03*
D15*
X134620000Y-96520000D03*
D14*
X134620000Y-94120000D03*
X132922944Y-98217056D03*
%TD*%
M02*
