%TF.GenerationSoftware,KiCad,Pcbnew,(6.0.7)*%
%TF.CreationDate,2023-06-21T14:43:57+08:00*%
%TF.ProjectId,Elevator_Indicator,456c6576-6174-46f7-925f-496e64696361,rev?*%
%TF.SameCoordinates,Original*%
%TF.FileFunction,Legend,Bot*%
%TF.FilePolarity,Positive*%
%FSLAX46Y46*%
G04 Gerber Fmt 4.6, Leading zero omitted, Abs format (unit mm)*
G04 Created by KiCad (PCBNEW (6.0.7)) date 2023-06-21 14:43:57*
%MOMM*%
%LPD*%
G01*
G04 APERTURE LIST*
%ADD10C,0.150000*%
G04 APERTURE END LIST*
D10*
X135342380Y-70295238D02*
X136056666Y-70295238D01*
X136199523Y-70247619D01*
X136294761Y-70152380D01*
X136342380Y-70009523D01*
X136342380Y-69914285D01*
X136342380Y-71247619D02*
X136342380Y-70771428D01*
X135342380Y-70771428D01*
X136247142Y-72152380D02*
X136294761Y-72104761D01*
X136342380Y-71961904D01*
X136342380Y-71866666D01*
X136294761Y-71723809D01*
X136199523Y-71628571D01*
X136104285Y-71580952D01*
X135913809Y-71533333D01*
X135770952Y-71533333D01*
X135580476Y-71580952D01*
X135485238Y-71628571D01*
X135390000Y-71723809D01*
X135342380Y-71866666D01*
X135342380Y-71961904D01*
X135390000Y-72104761D01*
X135437619Y-72152380D01*
X135342380Y-72866666D02*
X136056666Y-72866666D01*
X136199523Y-72819047D01*
X136294761Y-72723809D01*
X136342380Y-72580952D01*
X136342380Y-72485714D01*
X136342380Y-73819047D02*
X136342380Y-73342857D01*
X135342380Y-73342857D01*
X136247142Y-74723809D02*
X136294761Y-74676190D01*
X136342380Y-74533333D01*
X136342380Y-74438095D01*
X136294761Y-74295238D01*
X136199523Y-74200000D01*
X136104285Y-74152380D01*
X135913809Y-74104761D01*
X135770952Y-74104761D01*
X135580476Y-74152380D01*
X135485238Y-74200000D01*
X135390000Y-74295238D01*
X135342380Y-74438095D01*
X135342380Y-74533333D01*
X135390000Y-74676190D01*
X135437619Y-74723809D01*
X135342380Y-75438095D02*
X136056666Y-75438095D01*
X136199523Y-75390476D01*
X136294761Y-75295238D01*
X136342380Y-75152380D01*
X136342380Y-75057142D01*
X136342380Y-76390476D02*
X136342380Y-75914285D01*
X135342380Y-75914285D01*
X136247142Y-77295238D02*
X136294761Y-77247619D01*
X136342380Y-77104761D01*
X136342380Y-77009523D01*
X136294761Y-76866666D01*
X136199523Y-76771428D01*
X136104285Y-76723809D01*
X135913809Y-76676190D01*
X135770952Y-76676190D01*
X135580476Y-76723809D01*
X135485238Y-76771428D01*
X135390000Y-76866666D01*
X135342380Y-77009523D01*
X135342380Y-77104761D01*
X135390000Y-77247619D01*
X135437619Y-77295238D01*
X135342380Y-78009523D02*
X136056666Y-78009523D01*
X136199523Y-77961904D01*
X136294761Y-77866666D01*
X136342380Y-77723809D01*
X136342380Y-77628571D01*
X136342380Y-78961904D02*
X136342380Y-78485714D01*
X135342380Y-78485714D01*
X136247142Y-79866666D02*
X136294761Y-79819047D01*
X136342380Y-79676190D01*
X136342380Y-79580952D01*
X136294761Y-79438095D01*
X136199523Y-79342857D01*
X136104285Y-79295238D01*
X135913809Y-79247619D01*
X135770952Y-79247619D01*
X135580476Y-79295238D01*
X135485238Y-79342857D01*
X135390000Y-79438095D01*
X135342380Y-79580952D01*
X135342380Y-79676190D01*
X135390000Y-79819047D01*
X135437619Y-79866666D01*
X135342380Y-80580952D02*
X136056666Y-80580952D01*
X136199523Y-80533333D01*
X136294761Y-80438095D01*
X136342380Y-80295238D01*
X136342380Y-80200000D01*
X136342380Y-81533333D02*
X136342380Y-81057142D01*
X135342380Y-81057142D01*
X136247142Y-82438095D02*
X136294761Y-82390476D01*
X136342380Y-82247619D01*
X136342380Y-82152380D01*
X136294761Y-82009523D01*
X136199523Y-81914285D01*
X136104285Y-81866666D01*
X135913809Y-81819047D01*
X135770952Y-81819047D01*
X135580476Y-81866666D01*
X135485238Y-81914285D01*
X135390000Y-82009523D01*
X135342380Y-82152380D01*
X135342380Y-82247619D01*
X135390000Y-82390476D01*
X135437619Y-82438095D01*
M02*
