%TF.GenerationSoftware,KiCad,Pcbnew,(6.0.7)*%
%TF.CreationDate,2023-06-21T14:44:01+08:00*%
%TF.ProjectId,Elevator_Indicator,456c6576-6174-46f7-925f-496e64696361,rev?*%
%TF.SameCoordinates,Original*%
%TF.FileFunction,Drillmap*%
%TF.FilePolarity,Positive*%
%FSLAX45Y45*%
G04 Gerber Fmt 4.5, Leading zero omitted, Abs format (unit mm)*
G04 Created by KiCad (PCBNEW (6.0.7)) date 2023-06-21 14:44:01*
%MOMM*%
%LPD*%
G01*
G04 APERTURE LIST*
%ADD10C,0.100000*%
%ADD11C,0.200000*%
%ADD12C,0.050000*%
%ADD13C,0.080000*%
%ADD14C,0.110000*%
%ADD15C,0.320000*%
G04 APERTURE END LIST*
D10*
X13970000Y-5334000D02*
X13970000Y-9906000D01*
X7366000Y-9906000D02*
G75*
G03*
X7620000Y-10160000I254000J0D01*
G01*
X13716000Y-10160000D02*
X7620000Y-10160000D01*
X7620000Y-5080000D02*
X13716000Y-5080000D01*
X7620000Y-5080000D02*
G75*
G03*
X7366000Y-5334000I0J-254000D01*
G01*
X13716000Y-10160000D02*
G75*
G03*
X13970000Y-9906000I0J254000D01*
G01*
X7366000Y-9906000D02*
X7366000Y-5334000D01*
X13970000Y-5334000D02*
G75*
G03*
X13716000Y-5080000I-254000J0D01*
G01*
D11*
D12*
X7609000Y-5563000D02*
X7659000Y-5613000D01*
X7659000Y-5563000D02*
X7609000Y-5613000D01*
X7609000Y-9627000D02*
X7659000Y-9677000D01*
X7659000Y-9627000D02*
X7609000Y-9677000D01*
X7679294Y-5393294D02*
X7729294Y-5443294D01*
X7729294Y-5393294D02*
X7679294Y-5443294D01*
X7679294Y-5732706D02*
X7729294Y-5782706D01*
X7729294Y-5732706D02*
X7679294Y-5782706D01*
X7679294Y-9457294D02*
X7729294Y-9507294D01*
X7729294Y-9457294D02*
X7679294Y-9507294D01*
X7679294Y-9796706D02*
X7729294Y-9846706D01*
X7729294Y-9796706D02*
X7679294Y-9846706D01*
X7849000Y-5323000D02*
X7899000Y-5373000D01*
X7899000Y-5323000D02*
X7849000Y-5373000D01*
X7849000Y-5803000D02*
X7899000Y-5853000D01*
X7899000Y-5803000D02*
X7849000Y-5853000D01*
X7849000Y-9387000D02*
X7899000Y-9437000D01*
X7899000Y-9387000D02*
X7849000Y-9437000D01*
X7849000Y-9867000D02*
X7899000Y-9917000D01*
X7899000Y-9867000D02*
X7849000Y-9917000D01*
X8018706Y-5393294D02*
X8068706Y-5443294D01*
X8068706Y-5393294D02*
X8018706Y-5443294D01*
X8018706Y-5732706D02*
X8068706Y-5782706D01*
X8068706Y-5732706D02*
X8018706Y-5782706D01*
X8018706Y-9457294D02*
X8068706Y-9507294D01*
X8068706Y-9457294D02*
X8018706Y-9507294D01*
X8018706Y-9796706D02*
X8068706Y-9846706D01*
X8068706Y-9796706D02*
X8018706Y-9846706D01*
X8089000Y-5563000D02*
X8139000Y-5613000D01*
X8139000Y-5563000D02*
X8089000Y-5613000D01*
X8089000Y-9627000D02*
X8139000Y-9677000D01*
X8139000Y-9627000D02*
X8089000Y-9677000D01*
X13197000Y-5549000D02*
X13247000Y-5599000D01*
X13247000Y-5549000D02*
X13197000Y-5599000D01*
X13197000Y-9627000D02*
X13247000Y-9677000D01*
X13247000Y-9627000D02*
X13197000Y-9677000D01*
X13267294Y-5379294D02*
X13317294Y-5429294D01*
X13317294Y-5379294D02*
X13267294Y-5429294D01*
X13267294Y-5718706D02*
X13317294Y-5768706D01*
X13317294Y-5718706D02*
X13267294Y-5768706D01*
X13267294Y-9457294D02*
X13317294Y-9507294D01*
X13317294Y-9457294D02*
X13267294Y-9507294D01*
X13267294Y-9796706D02*
X13317294Y-9846706D01*
X13317294Y-9796706D02*
X13267294Y-9846706D01*
X13437000Y-5309000D02*
X13487000Y-5359000D01*
X13487000Y-5309000D02*
X13437000Y-5359000D01*
X13437000Y-5789000D02*
X13487000Y-5839000D01*
X13487000Y-5789000D02*
X13437000Y-5839000D01*
X13437000Y-9387000D02*
X13487000Y-9437000D01*
X13487000Y-9387000D02*
X13437000Y-9437000D01*
X13437000Y-9867000D02*
X13487000Y-9917000D01*
X13487000Y-9867000D02*
X13437000Y-9917000D01*
X13606706Y-5379294D02*
X13656706Y-5429294D01*
X13656706Y-5379294D02*
X13606706Y-5429294D01*
X13606706Y-5718706D02*
X13656706Y-5768706D01*
X13656706Y-5718706D02*
X13606706Y-5768706D01*
X13606706Y-9457294D02*
X13656706Y-9507294D01*
X13656706Y-9457294D02*
X13606706Y-9507294D01*
X13606706Y-9796706D02*
X13656706Y-9846706D01*
X13656706Y-9796706D02*
X13606706Y-9846706D01*
X13677000Y-5549000D02*
X13727000Y-5599000D01*
X13727000Y-5549000D02*
X13677000Y-5599000D01*
X13677000Y-9627000D02*
X13727000Y-9677000D01*
X13727000Y-9627000D02*
X13677000Y-9677000D01*
D13*
X10581000Y-7493000D02*
G75*
G03*
X10581000Y-7493000I-40000J0D01*
G01*
X10581000Y-7874000D02*
G75*
G03*
X10581000Y-7874000I-40000J0D01*
G01*
X10581000Y-8255000D02*
G75*
G03*
X10581000Y-8255000I-40000J0D01*
G01*
X10581000Y-8636000D02*
G75*
G03*
X10581000Y-8636000I-40000J0D01*
G01*
X10581000Y-9017000D02*
G75*
G03*
X10581000Y-9017000I-40000J0D01*
G01*
X10581000Y-9398000D02*
G75*
G03*
X10581000Y-9398000I-40000J0D01*
G01*
X10581000Y-9779000D02*
G75*
G03*
X10581000Y-9779000I-40000J0D01*
G01*
X11597000Y-7493000D02*
G75*
G03*
X11597000Y-7493000I-40000J0D01*
G01*
X11597000Y-7874000D02*
G75*
G03*
X11597000Y-7874000I-40000J0D01*
G01*
X11597000Y-8255000D02*
G75*
G03*
X11597000Y-8255000I-40000J0D01*
G01*
X11597000Y-8636000D02*
G75*
G03*
X11597000Y-8636000I-40000J0D01*
G01*
X11597000Y-9017000D02*
G75*
G03*
X11597000Y-9017000I-40000J0D01*
G01*
X11597000Y-9398000D02*
G75*
G03*
X11597000Y-9398000I-40000J0D01*
G01*
X11597000Y-9779000D02*
G75*
G03*
X11597000Y-9779000I-40000J0D01*
G01*
X12106500Y-7745500D02*
G75*
G03*
X12106500Y-7745500I-40000J0D01*
G01*
X12106500Y-7999500D02*
G75*
G03*
X12106500Y-7999500I-40000J0D01*
G01*
X12106500Y-8253500D02*
G75*
G03*
X12106500Y-8253500I-40000J0D01*
G01*
X12106500Y-8507500D02*
G75*
G03*
X12106500Y-8507500I-40000J0D01*
G01*
X12106500Y-8761500D02*
G75*
G03*
X12106500Y-8761500I-40000J0D01*
G01*
X12106500Y-9015500D02*
G75*
G03*
X12106500Y-9015500I-40000J0D01*
G01*
X12106500Y-9269500D02*
G75*
G03*
X12106500Y-9269500I-40000J0D01*
G01*
X12106500Y-9523500D02*
G75*
G03*
X12106500Y-9523500I-40000J0D01*
G01*
X12868500Y-7745500D02*
G75*
G03*
X12868500Y-7745500I-40000J0D01*
G01*
X12868500Y-7999500D02*
G75*
G03*
X12868500Y-7999500I-40000J0D01*
G01*
X12868500Y-8253500D02*
G75*
G03*
X12868500Y-8253500I-40000J0D01*
G01*
X12868500Y-8507500D02*
G75*
G03*
X12868500Y-8507500I-40000J0D01*
G01*
X12868500Y-8761500D02*
G75*
G03*
X12868500Y-8761500I-40000J0D01*
G01*
X12868500Y-9015500D02*
G75*
G03*
X12868500Y-9015500I-40000J0D01*
G01*
X12868500Y-9269500D02*
G75*
G03*
X12868500Y-9269500I-40000J0D01*
G01*
X12868500Y-9523500D02*
G75*
G03*
X12868500Y-9523500I-40000J0D01*
G01*
D10*
X8636000Y-7696000D02*
X8636000Y-7796000D01*
X8586000Y-7746000D02*
X8686000Y-7746000D01*
X8636000Y-7950000D02*
X8636000Y-8050000D01*
X8586000Y-8000000D02*
X8686000Y-8000000D01*
X8636000Y-8204000D02*
X8636000Y-8304000D01*
X8586000Y-8254000D02*
X8686000Y-8254000D01*
X8636000Y-8458000D02*
X8636000Y-8558000D01*
X8586000Y-8508000D02*
X8686000Y-8508000D01*
X8890000Y-5410000D02*
X8890000Y-5510000D01*
X8840000Y-5460000D02*
X8940000Y-5460000D01*
X8890000Y-6934000D02*
X8890000Y-7034000D01*
X8840000Y-6984000D02*
X8940000Y-6984000D01*
X9144000Y-5410000D02*
X9144000Y-5510000D01*
X9094000Y-5460000D02*
X9194000Y-5460000D01*
X9144000Y-6934000D02*
X9144000Y-7034000D01*
X9094000Y-6984000D02*
X9194000Y-6984000D01*
X9398000Y-5410000D02*
X9398000Y-5510000D01*
X9348000Y-5460000D02*
X9448000Y-5460000D01*
X9398000Y-6934000D02*
X9398000Y-7034000D01*
X9348000Y-6984000D02*
X9448000Y-6984000D01*
X9524500Y-7570500D02*
X9524500Y-7670500D01*
X9474500Y-7620500D02*
X9574500Y-7620500D01*
X9524500Y-7824500D02*
X9524500Y-7924500D01*
X9474500Y-7874500D02*
X9574500Y-7874500D01*
X9524500Y-8078500D02*
X9524500Y-8178500D01*
X9474500Y-8128500D02*
X9574500Y-8128500D01*
X9524500Y-8332500D02*
X9524500Y-8432500D01*
X9474500Y-8382500D02*
X9574500Y-8382500D01*
X9524500Y-8586500D02*
X9524500Y-8686500D01*
X9474500Y-8636500D02*
X9574500Y-8636500D01*
X9652000Y-5410000D02*
X9652000Y-5510000D01*
X9602000Y-5460000D02*
X9702000Y-5460000D01*
X9652000Y-6934000D02*
X9652000Y-7034000D01*
X9602000Y-6984000D02*
X9702000Y-6984000D01*
X9778500Y-7570500D02*
X9778500Y-7670500D01*
X9728500Y-7620500D02*
X9828500Y-7620500D01*
X9778500Y-7824500D02*
X9778500Y-7924500D01*
X9728500Y-7874500D02*
X9828500Y-7874500D01*
X9778500Y-8078500D02*
X9778500Y-8178500D01*
X9728500Y-8128500D02*
X9828500Y-8128500D01*
X9778500Y-8332500D02*
X9778500Y-8432500D01*
X9728500Y-8382500D02*
X9828500Y-8382500D01*
X9778500Y-8586500D02*
X9778500Y-8686500D01*
X9728500Y-8636500D02*
X9828500Y-8636500D01*
X9906000Y-5410000D02*
X9906000Y-5510000D01*
X9856000Y-5460000D02*
X9956000Y-5460000D01*
X9906000Y-6934000D02*
X9906000Y-7034000D01*
X9856000Y-6984000D02*
X9956000Y-6984000D01*
X10160000Y-5410000D02*
X10160000Y-5510000D01*
X10110000Y-5460000D02*
X10210000Y-5460000D01*
X10160000Y-6934000D02*
X10160000Y-7034000D01*
X10110000Y-6984000D02*
X10210000Y-6984000D01*
X10414000Y-5410000D02*
X10414000Y-5510000D01*
X10364000Y-5460000D02*
X10464000Y-5460000D01*
X10414000Y-6934000D02*
X10414000Y-7034000D01*
X10364000Y-6984000D02*
X10464000Y-6984000D01*
X10668000Y-5410000D02*
X10668000Y-5510000D01*
X10618000Y-5460000D02*
X10718000Y-5460000D01*
X10668000Y-6934000D02*
X10668000Y-7034000D01*
X10618000Y-6984000D02*
X10718000Y-6984000D01*
X10922000Y-5410000D02*
X10922000Y-5510000D01*
X10872000Y-5460000D02*
X10972000Y-5460000D01*
X10922000Y-6934000D02*
X10922000Y-7034000D01*
X10872000Y-6984000D02*
X10972000Y-6984000D01*
X11176000Y-5410000D02*
X11176000Y-5510000D01*
X11126000Y-5460000D02*
X11226000Y-5460000D01*
X11176000Y-6934000D02*
X11176000Y-7034000D01*
X11126000Y-6984000D02*
X11226000Y-6984000D01*
X11430000Y-5410000D02*
X11430000Y-5510000D01*
X11380000Y-5460000D02*
X11480000Y-5460000D01*
X11430000Y-6934000D02*
X11430000Y-7034000D01*
X11380000Y-6984000D02*
X11480000Y-6984000D01*
X11684000Y-5410000D02*
X11684000Y-5510000D01*
X11634000Y-5460000D02*
X11734000Y-5460000D01*
X11684000Y-6934000D02*
X11684000Y-7034000D01*
X11634000Y-6984000D02*
X11734000Y-6984000D01*
X11938000Y-5410000D02*
X11938000Y-5510000D01*
X11888000Y-5460000D02*
X11988000Y-5460000D01*
X11938000Y-6934000D02*
X11938000Y-7034000D01*
X11888000Y-6984000D02*
X11988000Y-6984000D01*
X12192000Y-5410000D02*
X12192000Y-5510000D01*
X12142000Y-5460000D02*
X12242000Y-5460000D01*
X12192000Y-6934000D02*
X12192000Y-7034000D01*
X12142000Y-6984000D02*
X12242000Y-6984000D01*
X12446000Y-5410000D02*
X12446000Y-5510000D01*
X12396000Y-5460000D02*
X12496000Y-5460000D01*
X12446000Y-6934000D02*
X12446000Y-7034000D01*
X12396000Y-6984000D02*
X12496000Y-6984000D01*
D14*
X8801891Y-9690891D02*
X8801891Y-9613109D01*
X8724109Y-9613109D01*
X8724109Y-9690891D01*
X8801891Y-9690891D01*
X9055891Y-9690891D02*
X9055891Y-9613109D01*
X8978109Y-9613109D01*
X8978109Y-9690891D01*
X9055891Y-9690891D01*
X9690891Y-9690891D02*
X9690891Y-9613109D01*
X9613109Y-9613109D01*
X9613109Y-9690891D01*
X9690891Y-9690891D01*
X9944891Y-9690891D02*
X9944891Y-9613109D01*
X9867109Y-9613109D01*
X9867109Y-9690891D01*
X9944891Y-9690891D01*
D15*
X7874000Y-5748000D02*
X8034000Y-5588000D01*
X7874000Y-5428000D01*
X7714000Y-5588000D01*
X7874000Y-5748000D01*
X7874000Y-9812000D02*
X8034000Y-9652000D01*
X7874000Y-9492000D01*
X7714000Y-9652000D01*
X7874000Y-9812000D01*
X13462000Y-5734000D02*
X13622000Y-5574000D01*
X13462000Y-5414000D01*
X13302000Y-5574000D01*
X13462000Y-5734000D01*
X13462000Y-9812000D02*
X13622000Y-9652000D01*
X13462000Y-9492000D01*
X13302000Y-9652000D01*
X13462000Y-9812000D01*
D11*
X7618619Y-10475476D02*
X7618619Y-10275476D01*
X7666238Y-10275476D01*
X7694809Y-10285000D01*
X7713857Y-10304048D01*
X7723381Y-10323095D01*
X7732905Y-10361190D01*
X7732905Y-10389762D01*
X7723381Y-10427857D01*
X7713857Y-10446905D01*
X7694809Y-10465952D01*
X7666238Y-10475476D01*
X7618619Y-10475476D01*
X7818619Y-10475476D02*
X7818619Y-10342143D01*
X7818619Y-10380238D02*
X7828143Y-10361190D01*
X7837667Y-10351667D01*
X7856714Y-10342143D01*
X7875762Y-10342143D01*
X7942428Y-10475476D02*
X7942428Y-10342143D01*
X7942428Y-10275476D02*
X7932905Y-10285000D01*
X7942428Y-10294524D01*
X7951952Y-10285000D01*
X7942428Y-10275476D01*
X7942428Y-10294524D01*
X8066238Y-10475476D02*
X8047190Y-10465952D01*
X8037667Y-10446905D01*
X8037667Y-10275476D01*
X8171000Y-10475476D02*
X8151952Y-10465952D01*
X8142428Y-10446905D01*
X8142428Y-10275476D01*
X8399571Y-10475476D02*
X8399571Y-10275476D01*
X8466238Y-10418333D01*
X8532905Y-10275476D01*
X8532905Y-10475476D01*
X8713857Y-10475476D02*
X8713857Y-10370714D01*
X8704333Y-10351667D01*
X8685286Y-10342143D01*
X8647190Y-10342143D01*
X8628143Y-10351667D01*
X8713857Y-10465952D02*
X8694810Y-10475476D01*
X8647190Y-10475476D01*
X8628143Y-10465952D01*
X8618619Y-10446905D01*
X8618619Y-10427857D01*
X8628143Y-10408810D01*
X8647190Y-10399286D01*
X8694810Y-10399286D01*
X8713857Y-10389762D01*
X8809095Y-10342143D02*
X8809095Y-10542143D01*
X8809095Y-10351667D02*
X8828143Y-10342143D01*
X8866238Y-10342143D01*
X8885286Y-10351667D01*
X8894810Y-10361190D01*
X8904333Y-10380238D01*
X8904333Y-10437381D01*
X8894810Y-10456429D01*
X8885286Y-10465952D01*
X8866238Y-10475476D01*
X8828143Y-10475476D01*
X8809095Y-10465952D01*
X8990048Y-10456429D02*
X8999571Y-10465952D01*
X8990048Y-10475476D01*
X8980524Y-10465952D01*
X8990048Y-10456429D01*
X8990048Y-10475476D01*
X8990048Y-10351667D02*
X8999571Y-10361190D01*
X8990048Y-10370714D01*
X8980524Y-10361190D01*
X8990048Y-10351667D01*
X8990048Y-10370714D01*
D12*
X7311000Y-10780000D02*
X7361000Y-10830000D01*
X7361000Y-10780000D02*
X7311000Y-10830000D01*
D11*
X7656714Y-10695476D02*
X7675762Y-10695476D01*
X7694809Y-10705000D01*
X7704333Y-10714524D01*
X7713857Y-10733571D01*
X7723381Y-10771667D01*
X7723381Y-10819286D01*
X7713857Y-10857381D01*
X7704333Y-10876429D01*
X7694809Y-10885952D01*
X7675762Y-10895476D01*
X7656714Y-10895476D01*
X7637667Y-10885952D01*
X7628143Y-10876429D01*
X7618619Y-10857381D01*
X7609095Y-10819286D01*
X7609095Y-10771667D01*
X7618619Y-10733571D01*
X7628143Y-10714524D01*
X7637667Y-10705000D01*
X7656714Y-10695476D01*
X7809095Y-10876429D02*
X7818619Y-10885952D01*
X7809095Y-10895476D01*
X7799571Y-10885952D01*
X7809095Y-10876429D01*
X7809095Y-10895476D01*
X7999571Y-10695476D02*
X7904333Y-10695476D01*
X7894809Y-10790714D01*
X7904333Y-10781190D01*
X7923381Y-10771667D01*
X7971000Y-10771667D01*
X7990048Y-10781190D01*
X7999571Y-10790714D01*
X8009095Y-10809762D01*
X8009095Y-10857381D01*
X7999571Y-10876429D01*
X7990048Y-10885952D01*
X7971000Y-10895476D01*
X7923381Y-10895476D01*
X7904333Y-10885952D01*
X7894809Y-10876429D01*
X8132905Y-10695476D02*
X8151952Y-10695476D01*
X8171000Y-10705000D01*
X8180524Y-10714524D01*
X8190048Y-10733571D01*
X8199571Y-10771667D01*
X8199571Y-10819286D01*
X8190048Y-10857381D01*
X8180524Y-10876429D01*
X8171000Y-10885952D01*
X8151952Y-10895476D01*
X8132905Y-10895476D01*
X8113857Y-10885952D01*
X8104333Y-10876429D01*
X8094809Y-10857381D01*
X8085286Y-10819286D01*
X8085286Y-10771667D01*
X8094809Y-10733571D01*
X8104333Y-10714524D01*
X8113857Y-10705000D01*
X8132905Y-10695476D01*
X8323381Y-10695476D02*
X8342428Y-10695476D01*
X8361476Y-10705000D01*
X8371000Y-10714524D01*
X8380524Y-10733571D01*
X8390048Y-10771667D01*
X8390048Y-10819286D01*
X8380524Y-10857381D01*
X8371000Y-10876429D01*
X8361476Y-10885952D01*
X8342428Y-10895476D01*
X8323381Y-10895476D01*
X8304333Y-10885952D01*
X8294809Y-10876429D01*
X8285286Y-10857381D01*
X8275762Y-10819286D01*
X8275762Y-10771667D01*
X8285286Y-10733571D01*
X8294809Y-10714524D01*
X8304333Y-10705000D01*
X8323381Y-10695476D01*
X8475762Y-10895476D02*
X8475762Y-10762143D01*
X8475762Y-10781190D02*
X8485286Y-10771667D01*
X8504333Y-10762143D01*
X8532905Y-10762143D01*
X8551952Y-10771667D01*
X8561476Y-10790714D01*
X8561476Y-10895476D01*
X8561476Y-10790714D02*
X8571000Y-10771667D01*
X8590048Y-10762143D01*
X8618619Y-10762143D01*
X8637667Y-10771667D01*
X8647190Y-10790714D01*
X8647190Y-10895476D01*
X8742429Y-10895476D02*
X8742429Y-10762143D01*
X8742429Y-10781190D02*
X8751952Y-10771667D01*
X8771000Y-10762143D01*
X8799571Y-10762143D01*
X8818619Y-10771667D01*
X8828143Y-10790714D01*
X8828143Y-10895476D01*
X8828143Y-10790714D02*
X8837667Y-10771667D01*
X8856714Y-10762143D01*
X8885286Y-10762143D01*
X8904333Y-10771667D01*
X8913857Y-10790714D01*
X8913857Y-10895476D01*
X9304333Y-10685952D02*
X9132905Y-10943095D01*
X9561476Y-10695476D02*
X9580524Y-10695476D01*
X9599571Y-10705000D01*
X9609095Y-10714524D01*
X9618619Y-10733571D01*
X9628143Y-10771667D01*
X9628143Y-10819286D01*
X9618619Y-10857381D01*
X9609095Y-10876429D01*
X9599571Y-10885952D01*
X9580524Y-10895476D01*
X9561476Y-10895476D01*
X9542429Y-10885952D01*
X9532905Y-10876429D01*
X9523381Y-10857381D01*
X9513857Y-10819286D01*
X9513857Y-10771667D01*
X9523381Y-10733571D01*
X9532905Y-10714524D01*
X9542429Y-10705000D01*
X9561476Y-10695476D01*
X9713857Y-10876429D02*
X9723381Y-10885952D01*
X9713857Y-10895476D01*
X9704333Y-10885952D01*
X9713857Y-10876429D01*
X9713857Y-10895476D01*
X9847190Y-10695476D02*
X9866238Y-10695476D01*
X9885286Y-10705000D01*
X9894810Y-10714524D01*
X9904333Y-10733571D01*
X9913857Y-10771667D01*
X9913857Y-10819286D01*
X9904333Y-10857381D01*
X9894810Y-10876429D01*
X9885286Y-10885952D01*
X9866238Y-10895476D01*
X9847190Y-10895476D01*
X9828143Y-10885952D01*
X9818619Y-10876429D01*
X9809095Y-10857381D01*
X9799571Y-10819286D01*
X9799571Y-10771667D01*
X9809095Y-10733571D01*
X9818619Y-10714524D01*
X9828143Y-10705000D01*
X9847190Y-10695476D01*
X10104333Y-10895476D02*
X9990048Y-10895476D01*
X10047190Y-10895476D02*
X10047190Y-10695476D01*
X10028143Y-10724048D01*
X10009095Y-10743095D01*
X9990048Y-10752619D01*
X10199571Y-10895476D02*
X10237667Y-10895476D01*
X10256714Y-10885952D01*
X10266238Y-10876429D01*
X10285286Y-10847857D01*
X10294810Y-10809762D01*
X10294810Y-10733571D01*
X10285286Y-10714524D01*
X10275762Y-10705000D01*
X10256714Y-10695476D01*
X10218619Y-10695476D01*
X10199571Y-10705000D01*
X10190048Y-10714524D01*
X10180524Y-10733571D01*
X10180524Y-10781190D01*
X10190048Y-10800238D01*
X10199571Y-10809762D01*
X10218619Y-10819286D01*
X10256714Y-10819286D01*
X10275762Y-10809762D01*
X10285286Y-10800238D01*
X10294810Y-10781190D01*
X10361476Y-10695476D02*
X10494810Y-10695476D01*
X10409095Y-10895476D01*
X10561476Y-10695476D02*
X10561476Y-10733571D01*
X10637667Y-10695476D02*
X10637667Y-10733571D01*
X10932905Y-10971667D02*
X10923381Y-10962143D01*
X10904333Y-10933571D01*
X10894810Y-10914524D01*
X10885286Y-10885952D01*
X10875762Y-10838333D01*
X10875762Y-10800238D01*
X10885286Y-10752619D01*
X10894810Y-10724048D01*
X10904333Y-10705000D01*
X10923381Y-10676429D01*
X10932905Y-10666905D01*
X10990048Y-10695476D02*
X11113857Y-10695476D01*
X11047190Y-10771667D01*
X11075762Y-10771667D01*
X11094810Y-10781190D01*
X11104333Y-10790714D01*
X11113857Y-10809762D01*
X11113857Y-10857381D01*
X11104333Y-10876429D01*
X11094810Y-10885952D01*
X11075762Y-10895476D01*
X11018619Y-10895476D01*
X10999571Y-10885952D01*
X10990048Y-10876429D01*
X11190048Y-10714524D02*
X11199571Y-10705000D01*
X11218619Y-10695476D01*
X11266238Y-10695476D01*
X11285286Y-10705000D01*
X11294809Y-10714524D01*
X11304333Y-10733571D01*
X11304333Y-10752619D01*
X11294809Y-10781190D01*
X11180524Y-10895476D01*
X11304333Y-10895476D01*
X11542428Y-10895476D02*
X11542428Y-10695476D01*
X11628143Y-10895476D02*
X11628143Y-10790714D01*
X11618619Y-10771667D01*
X11599571Y-10762143D01*
X11571000Y-10762143D01*
X11551952Y-10771667D01*
X11542428Y-10781190D01*
X11751952Y-10895476D02*
X11732905Y-10885952D01*
X11723381Y-10876429D01*
X11713857Y-10857381D01*
X11713857Y-10800238D01*
X11723381Y-10781190D01*
X11732905Y-10771667D01*
X11751952Y-10762143D01*
X11780524Y-10762143D01*
X11799571Y-10771667D01*
X11809095Y-10781190D01*
X11818619Y-10800238D01*
X11818619Y-10857381D01*
X11809095Y-10876429D01*
X11799571Y-10885952D01*
X11780524Y-10895476D01*
X11751952Y-10895476D01*
X11932905Y-10895476D02*
X11913857Y-10885952D01*
X11904333Y-10866905D01*
X11904333Y-10695476D01*
X12085286Y-10885952D02*
X12066238Y-10895476D01*
X12028143Y-10895476D01*
X12009095Y-10885952D01*
X11999571Y-10866905D01*
X11999571Y-10790714D01*
X12009095Y-10771667D01*
X12028143Y-10762143D01*
X12066238Y-10762143D01*
X12085286Y-10771667D01*
X12094809Y-10790714D01*
X12094809Y-10809762D01*
X11999571Y-10828810D01*
X12171000Y-10885952D02*
X12190048Y-10895476D01*
X12228143Y-10895476D01*
X12247190Y-10885952D01*
X12256714Y-10866905D01*
X12256714Y-10857381D01*
X12247190Y-10838333D01*
X12228143Y-10828810D01*
X12199571Y-10828810D01*
X12180524Y-10819286D01*
X12171000Y-10800238D01*
X12171000Y-10790714D01*
X12180524Y-10771667D01*
X12199571Y-10762143D01*
X12228143Y-10762143D01*
X12247190Y-10771667D01*
X12323381Y-10971667D02*
X12332905Y-10962143D01*
X12351952Y-10933571D01*
X12361476Y-10914524D01*
X12371000Y-10885952D01*
X12380524Y-10838333D01*
X12380524Y-10800238D01*
X12371000Y-10752619D01*
X12361476Y-10724048D01*
X12351952Y-10705000D01*
X12332905Y-10676429D01*
X12323381Y-10666905D01*
D13*
X7361000Y-11069000D02*
G75*
G03*
X7361000Y-11069000I-40000J0D01*
G01*
D11*
X7656714Y-10959476D02*
X7675762Y-10959476D01*
X7694809Y-10969000D01*
X7704333Y-10978524D01*
X7713857Y-10997571D01*
X7723381Y-11035667D01*
X7723381Y-11083286D01*
X7713857Y-11121381D01*
X7704333Y-11140429D01*
X7694809Y-11149952D01*
X7675762Y-11159476D01*
X7656714Y-11159476D01*
X7637667Y-11149952D01*
X7628143Y-11140429D01*
X7618619Y-11121381D01*
X7609095Y-11083286D01*
X7609095Y-11035667D01*
X7618619Y-10997571D01*
X7628143Y-10978524D01*
X7637667Y-10969000D01*
X7656714Y-10959476D01*
X7809095Y-11140429D02*
X7818619Y-11149952D01*
X7809095Y-11159476D01*
X7799571Y-11149952D01*
X7809095Y-11140429D01*
X7809095Y-11159476D01*
X7932905Y-11045190D02*
X7913857Y-11035667D01*
X7904333Y-11026143D01*
X7894809Y-11007095D01*
X7894809Y-10997571D01*
X7904333Y-10978524D01*
X7913857Y-10969000D01*
X7932905Y-10959476D01*
X7971000Y-10959476D01*
X7990048Y-10969000D01*
X7999571Y-10978524D01*
X8009095Y-10997571D01*
X8009095Y-11007095D01*
X7999571Y-11026143D01*
X7990048Y-11035667D01*
X7971000Y-11045190D01*
X7932905Y-11045190D01*
X7913857Y-11054714D01*
X7904333Y-11064238D01*
X7894809Y-11083286D01*
X7894809Y-11121381D01*
X7904333Y-11140429D01*
X7913857Y-11149952D01*
X7932905Y-11159476D01*
X7971000Y-11159476D01*
X7990048Y-11149952D01*
X7999571Y-11140429D01*
X8009095Y-11121381D01*
X8009095Y-11083286D01*
X7999571Y-11064238D01*
X7990048Y-11054714D01*
X7971000Y-11045190D01*
X8132905Y-10959476D02*
X8151952Y-10959476D01*
X8171000Y-10969000D01*
X8180524Y-10978524D01*
X8190048Y-10997571D01*
X8199571Y-11035667D01*
X8199571Y-11083286D01*
X8190048Y-11121381D01*
X8180524Y-11140429D01*
X8171000Y-11149952D01*
X8151952Y-11159476D01*
X8132905Y-11159476D01*
X8113857Y-11149952D01*
X8104333Y-11140429D01*
X8094809Y-11121381D01*
X8085286Y-11083286D01*
X8085286Y-11035667D01*
X8094809Y-10997571D01*
X8104333Y-10978524D01*
X8113857Y-10969000D01*
X8132905Y-10959476D01*
X8323381Y-10959476D02*
X8342428Y-10959476D01*
X8361476Y-10969000D01*
X8371000Y-10978524D01*
X8380524Y-10997571D01*
X8390048Y-11035667D01*
X8390048Y-11083286D01*
X8380524Y-11121381D01*
X8371000Y-11140429D01*
X8361476Y-11149952D01*
X8342428Y-11159476D01*
X8323381Y-11159476D01*
X8304333Y-11149952D01*
X8294809Y-11140429D01*
X8285286Y-11121381D01*
X8275762Y-11083286D01*
X8275762Y-11035667D01*
X8285286Y-10997571D01*
X8294809Y-10978524D01*
X8304333Y-10969000D01*
X8323381Y-10959476D01*
X8475762Y-11159476D02*
X8475762Y-11026143D01*
X8475762Y-11045190D02*
X8485286Y-11035667D01*
X8504333Y-11026143D01*
X8532905Y-11026143D01*
X8551952Y-11035667D01*
X8561476Y-11054714D01*
X8561476Y-11159476D01*
X8561476Y-11054714D02*
X8571000Y-11035667D01*
X8590048Y-11026143D01*
X8618619Y-11026143D01*
X8637667Y-11035667D01*
X8647190Y-11054714D01*
X8647190Y-11159476D01*
X8742429Y-11159476D02*
X8742429Y-11026143D01*
X8742429Y-11045190D02*
X8751952Y-11035667D01*
X8771000Y-11026143D01*
X8799571Y-11026143D01*
X8818619Y-11035667D01*
X8828143Y-11054714D01*
X8828143Y-11159476D01*
X8828143Y-11054714D02*
X8837667Y-11035667D01*
X8856714Y-11026143D01*
X8885286Y-11026143D01*
X8904333Y-11035667D01*
X8913857Y-11054714D01*
X8913857Y-11159476D01*
X9304333Y-10949952D02*
X9132905Y-11207095D01*
X9561476Y-10959476D02*
X9580524Y-10959476D01*
X9599571Y-10969000D01*
X9609095Y-10978524D01*
X9618619Y-10997571D01*
X9628143Y-11035667D01*
X9628143Y-11083286D01*
X9618619Y-11121381D01*
X9609095Y-11140429D01*
X9599571Y-11149952D01*
X9580524Y-11159476D01*
X9561476Y-11159476D01*
X9542429Y-11149952D01*
X9532905Y-11140429D01*
X9523381Y-11121381D01*
X9513857Y-11083286D01*
X9513857Y-11035667D01*
X9523381Y-10997571D01*
X9532905Y-10978524D01*
X9542429Y-10969000D01*
X9561476Y-10959476D01*
X9713857Y-11140429D02*
X9723381Y-11149952D01*
X9713857Y-11159476D01*
X9704333Y-11149952D01*
X9713857Y-11140429D01*
X9713857Y-11159476D01*
X9847190Y-10959476D02*
X9866238Y-10959476D01*
X9885286Y-10969000D01*
X9894810Y-10978524D01*
X9904333Y-10997571D01*
X9913857Y-11035667D01*
X9913857Y-11083286D01*
X9904333Y-11121381D01*
X9894810Y-11140429D01*
X9885286Y-11149952D01*
X9866238Y-11159476D01*
X9847190Y-11159476D01*
X9828143Y-11149952D01*
X9818619Y-11140429D01*
X9809095Y-11121381D01*
X9799571Y-11083286D01*
X9799571Y-11035667D01*
X9809095Y-10997571D01*
X9818619Y-10978524D01*
X9828143Y-10969000D01*
X9847190Y-10959476D01*
X9980524Y-10959476D02*
X10104333Y-10959476D01*
X10037667Y-11035667D01*
X10066238Y-11035667D01*
X10085286Y-11045190D01*
X10094810Y-11054714D01*
X10104333Y-11073762D01*
X10104333Y-11121381D01*
X10094810Y-11140429D01*
X10085286Y-11149952D01*
X10066238Y-11159476D01*
X10009095Y-11159476D01*
X9990048Y-11149952D01*
X9980524Y-11140429D01*
X10294810Y-11159476D02*
X10180524Y-11159476D01*
X10237667Y-11159476D02*
X10237667Y-10959476D01*
X10218619Y-10988048D01*
X10199571Y-11007095D01*
X10180524Y-11016619D01*
X10475762Y-10959476D02*
X10380524Y-10959476D01*
X10371000Y-11054714D01*
X10380524Y-11045190D01*
X10399571Y-11035667D01*
X10447190Y-11035667D01*
X10466238Y-11045190D01*
X10475762Y-11054714D01*
X10485286Y-11073762D01*
X10485286Y-11121381D01*
X10475762Y-11140429D01*
X10466238Y-11149952D01*
X10447190Y-11159476D01*
X10399571Y-11159476D01*
X10380524Y-11149952D01*
X10371000Y-11140429D01*
X10561476Y-10959476D02*
X10561476Y-10997571D01*
X10637667Y-10959476D02*
X10637667Y-10997571D01*
X10932905Y-11235667D02*
X10923381Y-11226143D01*
X10904333Y-11197571D01*
X10894810Y-11178524D01*
X10885286Y-11149952D01*
X10875762Y-11102333D01*
X10875762Y-11064238D01*
X10885286Y-11016619D01*
X10894810Y-10988048D01*
X10904333Y-10969000D01*
X10923381Y-10940429D01*
X10932905Y-10930905D01*
X10990048Y-10959476D02*
X11113857Y-10959476D01*
X11047190Y-11035667D01*
X11075762Y-11035667D01*
X11094810Y-11045190D01*
X11104333Y-11054714D01*
X11113857Y-11073762D01*
X11113857Y-11121381D01*
X11104333Y-11140429D01*
X11094810Y-11149952D01*
X11075762Y-11159476D01*
X11018619Y-11159476D01*
X10999571Y-11149952D01*
X10990048Y-11140429D01*
X11237667Y-10959476D02*
X11256714Y-10959476D01*
X11275762Y-10969000D01*
X11285286Y-10978524D01*
X11294809Y-10997571D01*
X11304333Y-11035667D01*
X11304333Y-11083286D01*
X11294809Y-11121381D01*
X11285286Y-11140429D01*
X11275762Y-11149952D01*
X11256714Y-11159476D01*
X11237667Y-11159476D01*
X11218619Y-11149952D01*
X11209095Y-11140429D01*
X11199571Y-11121381D01*
X11190048Y-11083286D01*
X11190048Y-11035667D01*
X11199571Y-10997571D01*
X11209095Y-10978524D01*
X11218619Y-10969000D01*
X11237667Y-10959476D01*
X11542428Y-11159476D02*
X11542428Y-10959476D01*
X11628143Y-11159476D02*
X11628143Y-11054714D01*
X11618619Y-11035667D01*
X11599571Y-11026143D01*
X11571000Y-11026143D01*
X11551952Y-11035667D01*
X11542428Y-11045190D01*
X11751952Y-11159476D02*
X11732905Y-11149952D01*
X11723381Y-11140429D01*
X11713857Y-11121381D01*
X11713857Y-11064238D01*
X11723381Y-11045190D01*
X11732905Y-11035667D01*
X11751952Y-11026143D01*
X11780524Y-11026143D01*
X11799571Y-11035667D01*
X11809095Y-11045190D01*
X11818619Y-11064238D01*
X11818619Y-11121381D01*
X11809095Y-11140429D01*
X11799571Y-11149952D01*
X11780524Y-11159476D01*
X11751952Y-11159476D01*
X11932905Y-11159476D02*
X11913857Y-11149952D01*
X11904333Y-11130905D01*
X11904333Y-10959476D01*
X12085286Y-11149952D02*
X12066238Y-11159476D01*
X12028143Y-11159476D01*
X12009095Y-11149952D01*
X11999571Y-11130905D01*
X11999571Y-11054714D01*
X12009095Y-11035667D01*
X12028143Y-11026143D01*
X12066238Y-11026143D01*
X12085286Y-11035667D01*
X12094809Y-11054714D01*
X12094809Y-11073762D01*
X11999571Y-11092810D01*
X12171000Y-11149952D02*
X12190048Y-11159476D01*
X12228143Y-11159476D01*
X12247190Y-11149952D01*
X12256714Y-11130905D01*
X12256714Y-11121381D01*
X12247190Y-11102333D01*
X12228143Y-11092810D01*
X12199571Y-11092810D01*
X12180524Y-11083286D01*
X12171000Y-11064238D01*
X12171000Y-11054714D01*
X12180524Y-11035667D01*
X12199571Y-11026143D01*
X12228143Y-11026143D01*
X12247190Y-11035667D01*
X12323381Y-11235667D02*
X12332905Y-11226143D01*
X12351952Y-11197571D01*
X12361476Y-11178524D01*
X12371000Y-11149952D01*
X12380524Y-11102333D01*
X12380524Y-11064238D01*
X12371000Y-11016619D01*
X12361476Y-10988048D01*
X12351952Y-10969000D01*
X12332905Y-10940429D01*
X12323381Y-10930905D01*
D10*
X7311000Y-11283000D02*
X7311000Y-11383000D01*
X7261000Y-11333000D02*
X7361000Y-11333000D01*
D11*
X7723381Y-11423476D02*
X7609095Y-11423476D01*
X7666238Y-11423476D02*
X7666238Y-11223476D01*
X7647190Y-11252048D01*
X7628143Y-11271095D01*
X7609095Y-11280619D01*
X7809095Y-11404428D02*
X7818619Y-11413952D01*
X7809095Y-11423476D01*
X7799571Y-11413952D01*
X7809095Y-11404428D01*
X7809095Y-11423476D01*
X7942428Y-11223476D02*
X7961476Y-11223476D01*
X7980524Y-11233000D01*
X7990048Y-11242524D01*
X7999571Y-11261571D01*
X8009095Y-11299667D01*
X8009095Y-11347286D01*
X7999571Y-11385381D01*
X7990048Y-11404428D01*
X7980524Y-11413952D01*
X7961476Y-11423476D01*
X7942428Y-11423476D01*
X7923381Y-11413952D01*
X7913857Y-11404428D01*
X7904333Y-11385381D01*
X7894809Y-11347286D01*
X7894809Y-11299667D01*
X7904333Y-11261571D01*
X7913857Y-11242524D01*
X7923381Y-11233000D01*
X7942428Y-11223476D01*
X8132905Y-11223476D02*
X8151952Y-11223476D01*
X8171000Y-11233000D01*
X8180524Y-11242524D01*
X8190048Y-11261571D01*
X8199571Y-11299667D01*
X8199571Y-11347286D01*
X8190048Y-11385381D01*
X8180524Y-11404428D01*
X8171000Y-11413952D01*
X8151952Y-11423476D01*
X8132905Y-11423476D01*
X8113857Y-11413952D01*
X8104333Y-11404428D01*
X8094809Y-11385381D01*
X8085286Y-11347286D01*
X8085286Y-11299667D01*
X8094809Y-11261571D01*
X8104333Y-11242524D01*
X8113857Y-11233000D01*
X8132905Y-11223476D01*
X8323381Y-11223476D02*
X8342428Y-11223476D01*
X8361476Y-11233000D01*
X8371000Y-11242524D01*
X8380524Y-11261571D01*
X8390048Y-11299667D01*
X8390048Y-11347286D01*
X8380524Y-11385381D01*
X8371000Y-11404428D01*
X8361476Y-11413952D01*
X8342428Y-11423476D01*
X8323381Y-11423476D01*
X8304333Y-11413952D01*
X8294809Y-11404428D01*
X8285286Y-11385381D01*
X8275762Y-11347286D01*
X8275762Y-11299667D01*
X8285286Y-11261571D01*
X8294809Y-11242524D01*
X8304333Y-11233000D01*
X8323381Y-11223476D01*
X8475762Y-11423476D02*
X8475762Y-11290143D01*
X8475762Y-11309190D02*
X8485286Y-11299667D01*
X8504333Y-11290143D01*
X8532905Y-11290143D01*
X8551952Y-11299667D01*
X8561476Y-11318714D01*
X8561476Y-11423476D01*
X8561476Y-11318714D02*
X8571000Y-11299667D01*
X8590048Y-11290143D01*
X8618619Y-11290143D01*
X8637667Y-11299667D01*
X8647190Y-11318714D01*
X8647190Y-11423476D01*
X8742429Y-11423476D02*
X8742429Y-11290143D01*
X8742429Y-11309190D02*
X8751952Y-11299667D01*
X8771000Y-11290143D01*
X8799571Y-11290143D01*
X8818619Y-11299667D01*
X8828143Y-11318714D01*
X8828143Y-11423476D01*
X8828143Y-11318714D02*
X8837667Y-11299667D01*
X8856714Y-11290143D01*
X8885286Y-11290143D01*
X8904333Y-11299667D01*
X8913857Y-11318714D01*
X8913857Y-11423476D01*
X9304333Y-11213952D02*
X9132905Y-11471095D01*
X9561476Y-11223476D02*
X9580524Y-11223476D01*
X9599571Y-11233000D01*
X9609095Y-11242524D01*
X9618619Y-11261571D01*
X9628143Y-11299667D01*
X9628143Y-11347286D01*
X9618619Y-11385381D01*
X9609095Y-11404428D01*
X9599571Y-11413952D01*
X9580524Y-11423476D01*
X9561476Y-11423476D01*
X9542429Y-11413952D01*
X9532905Y-11404428D01*
X9523381Y-11385381D01*
X9513857Y-11347286D01*
X9513857Y-11299667D01*
X9523381Y-11261571D01*
X9532905Y-11242524D01*
X9542429Y-11233000D01*
X9561476Y-11223476D01*
X9713857Y-11404428D02*
X9723381Y-11413952D01*
X9713857Y-11423476D01*
X9704333Y-11413952D01*
X9713857Y-11404428D01*
X9713857Y-11423476D01*
X9847190Y-11223476D02*
X9866238Y-11223476D01*
X9885286Y-11233000D01*
X9894810Y-11242524D01*
X9904333Y-11261571D01*
X9913857Y-11299667D01*
X9913857Y-11347286D01*
X9904333Y-11385381D01*
X9894810Y-11404428D01*
X9885286Y-11413952D01*
X9866238Y-11423476D01*
X9847190Y-11423476D01*
X9828143Y-11413952D01*
X9818619Y-11404428D01*
X9809095Y-11385381D01*
X9799571Y-11347286D01*
X9799571Y-11299667D01*
X9809095Y-11261571D01*
X9818619Y-11242524D01*
X9828143Y-11233000D01*
X9847190Y-11223476D01*
X9980524Y-11223476D02*
X10104333Y-11223476D01*
X10037667Y-11299667D01*
X10066238Y-11299667D01*
X10085286Y-11309190D01*
X10094810Y-11318714D01*
X10104333Y-11337762D01*
X10104333Y-11385381D01*
X10094810Y-11404428D01*
X10085286Y-11413952D01*
X10066238Y-11423476D01*
X10009095Y-11423476D01*
X9990048Y-11413952D01*
X9980524Y-11404428D01*
X10199571Y-11423476D02*
X10237667Y-11423476D01*
X10256714Y-11413952D01*
X10266238Y-11404428D01*
X10285286Y-11375857D01*
X10294810Y-11337762D01*
X10294810Y-11261571D01*
X10285286Y-11242524D01*
X10275762Y-11233000D01*
X10256714Y-11223476D01*
X10218619Y-11223476D01*
X10199571Y-11233000D01*
X10190048Y-11242524D01*
X10180524Y-11261571D01*
X10180524Y-11309190D01*
X10190048Y-11328238D01*
X10199571Y-11337762D01*
X10218619Y-11347286D01*
X10256714Y-11347286D01*
X10275762Y-11337762D01*
X10285286Y-11328238D01*
X10294810Y-11309190D01*
X10466238Y-11290143D02*
X10466238Y-11423476D01*
X10418619Y-11213952D02*
X10371000Y-11356809D01*
X10494810Y-11356809D01*
X10561476Y-11223476D02*
X10561476Y-11261571D01*
X10637667Y-11223476D02*
X10637667Y-11261571D01*
X10932905Y-11499667D02*
X10923381Y-11490143D01*
X10904333Y-11461571D01*
X10894810Y-11442524D01*
X10885286Y-11413952D01*
X10875762Y-11366333D01*
X10875762Y-11328238D01*
X10885286Y-11280619D01*
X10894810Y-11252048D01*
X10904333Y-11233000D01*
X10923381Y-11204428D01*
X10932905Y-11194905D01*
X11094810Y-11290143D02*
X11094810Y-11423476D01*
X11047190Y-11213952D02*
X10999571Y-11356809D01*
X11123381Y-11356809D01*
X11285286Y-11290143D02*
X11285286Y-11423476D01*
X11237667Y-11213952D02*
X11190048Y-11356809D01*
X11313857Y-11356809D01*
X11542428Y-11423476D02*
X11542428Y-11223476D01*
X11628143Y-11423476D02*
X11628143Y-11318714D01*
X11618619Y-11299667D01*
X11599571Y-11290143D01*
X11571000Y-11290143D01*
X11551952Y-11299667D01*
X11542428Y-11309190D01*
X11751952Y-11423476D02*
X11732905Y-11413952D01*
X11723381Y-11404428D01*
X11713857Y-11385381D01*
X11713857Y-11328238D01*
X11723381Y-11309190D01*
X11732905Y-11299667D01*
X11751952Y-11290143D01*
X11780524Y-11290143D01*
X11799571Y-11299667D01*
X11809095Y-11309190D01*
X11818619Y-11328238D01*
X11818619Y-11385381D01*
X11809095Y-11404428D01*
X11799571Y-11413952D01*
X11780524Y-11423476D01*
X11751952Y-11423476D01*
X11932905Y-11423476D02*
X11913857Y-11413952D01*
X11904333Y-11394905D01*
X11904333Y-11223476D01*
X12085286Y-11413952D02*
X12066238Y-11423476D01*
X12028143Y-11423476D01*
X12009095Y-11413952D01*
X11999571Y-11394905D01*
X11999571Y-11318714D01*
X12009095Y-11299667D01*
X12028143Y-11290143D01*
X12066238Y-11290143D01*
X12085286Y-11299667D01*
X12094809Y-11318714D01*
X12094809Y-11337762D01*
X11999571Y-11356809D01*
X12171000Y-11413952D02*
X12190048Y-11423476D01*
X12228143Y-11423476D01*
X12247190Y-11413952D01*
X12256714Y-11394905D01*
X12256714Y-11385381D01*
X12247190Y-11366333D01*
X12228143Y-11356809D01*
X12199571Y-11356809D01*
X12180524Y-11347286D01*
X12171000Y-11328238D01*
X12171000Y-11318714D01*
X12180524Y-11299667D01*
X12199571Y-11290143D01*
X12228143Y-11290143D01*
X12247190Y-11299667D01*
X12323381Y-11499667D02*
X12332905Y-11490143D01*
X12351952Y-11461571D01*
X12361476Y-11442524D01*
X12371000Y-11413952D01*
X12380524Y-11366333D01*
X12380524Y-11328238D01*
X12371000Y-11280619D01*
X12361476Y-11252048D01*
X12351952Y-11233000D01*
X12332905Y-11204428D01*
X12323381Y-11194905D01*
D14*
X7344891Y-11635891D02*
X7344891Y-11558109D01*
X7267109Y-11558109D01*
X7267109Y-11635891D01*
X7344891Y-11635891D01*
D11*
X7723381Y-11687476D02*
X7609095Y-11687476D01*
X7666238Y-11687476D02*
X7666238Y-11487476D01*
X7647190Y-11516048D01*
X7628143Y-11535095D01*
X7609095Y-11544619D01*
X7809095Y-11668428D02*
X7818619Y-11677952D01*
X7809095Y-11687476D01*
X7799571Y-11677952D01*
X7809095Y-11668428D01*
X7809095Y-11687476D01*
X8009095Y-11687476D02*
X7894809Y-11687476D01*
X7951952Y-11687476D02*
X7951952Y-11487476D01*
X7932905Y-11516048D01*
X7913857Y-11535095D01*
X7894809Y-11544619D01*
X8132905Y-11487476D02*
X8151952Y-11487476D01*
X8171000Y-11497000D01*
X8180524Y-11506524D01*
X8190048Y-11525571D01*
X8199571Y-11563667D01*
X8199571Y-11611286D01*
X8190048Y-11649381D01*
X8180524Y-11668428D01*
X8171000Y-11677952D01*
X8151952Y-11687476D01*
X8132905Y-11687476D01*
X8113857Y-11677952D01*
X8104333Y-11668428D01*
X8094809Y-11649381D01*
X8085286Y-11611286D01*
X8085286Y-11563667D01*
X8094809Y-11525571D01*
X8104333Y-11506524D01*
X8113857Y-11497000D01*
X8132905Y-11487476D01*
X8323381Y-11487476D02*
X8342428Y-11487476D01*
X8361476Y-11497000D01*
X8371000Y-11506524D01*
X8380524Y-11525571D01*
X8390048Y-11563667D01*
X8390048Y-11611286D01*
X8380524Y-11649381D01*
X8371000Y-11668428D01*
X8361476Y-11677952D01*
X8342428Y-11687476D01*
X8323381Y-11687476D01*
X8304333Y-11677952D01*
X8294809Y-11668428D01*
X8285286Y-11649381D01*
X8275762Y-11611286D01*
X8275762Y-11563667D01*
X8285286Y-11525571D01*
X8294809Y-11506524D01*
X8304333Y-11497000D01*
X8323381Y-11487476D01*
X8475762Y-11687476D02*
X8475762Y-11554143D01*
X8475762Y-11573190D02*
X8485286Y-11563667D01*
X8504333Y-11554143D01*
X8532905Y-11554143D01*
X8551952Y-11563667D01*
X8561476Y-11582714D01*
X8561476Y-11687476D01*
X8561476Y-11582714D02*
X8571000Y-11563667D01*
X8590048Y-11554143D01*
X8618619Y-11554143D01*
X8637667Y-11563667D01*
X8647190Y-11582714D01*
X8647190Y-11687476D01*
X8742429Y-11687476D02*
X8742429Y-11554143D01*
X8742429Y-11573190D02*
X8751952Y-11563667D01*
X8771000Y-11554143D01*
X8799571Y-11554143D01*
X8818619Y-11563667D01*
X8828143Y-11582714D01*
X8828143Y-11687476D01*
X8828143Y-11582714D02*
X8837667Y-11563667D01*
X8856714Y-11554143D01*
X8885286Y-11554143D01*
X8904333Y-11563667D01*
X8913857Y-11582714D01*
X8913857Y-11687476D01*
X9304333Y-11477952D02*
X9132905Y-11735095D01*
X9561476Y-11487476D02*
X9580524Y-11487476D01*
X9599571Y-11497000D01*
X9609095Y-11506524D01*
X9618619Y-11525571D01*
X9628143Y-11563667D01*
X9628143Y-11611286D01*
X9618619Y-11649381D01*
X9609095Y-11668428D01*
X9599571Y-11677952D01*
X9580524Y-11687476D01*
X9561476Y-11687476D01*
X9542429Y-11677952D01*
X9532905Y-11668428D01*
X9523381Y-11649381D01*
X9513857Y-11611286D01*
X9513857Y-11563667D01*
X9523381Y-11525571D01*
X9532905Y-11506524D01*
X9542429Y-11497000D01*
X9561476Y-11487476D01*
X9713857Y-11668428D02*
X9723381Y-11677952D01*
X9713857Y-11687476D01*
X9704333Y-11677952D01*
X9713857Y-11668428D01*
X9713857Y-11687476D01*
X9847190Y-11487476D02*
X9866238Y-11487476D01*
X9885286Y-11497000D01*
X9894810Y-11506524D01*
X9904333Y-11525571D01*
X9913857Y-11563667D01*
X9913857Y-11611286D01*
X9904333Y-11649381D01*
X9894810Y-11668428D01*
X9885286Y-11677952D01*
X9866238Y-11687476D01*
X9847190Y-11687476D01*
X9828143Y-11677952D01*
X9818619Y-11668428D01*
X9809095Y-11649381D01*
X9799571Y-11611286D01*
X9799571Y-11563667D01*
X9809095Y-11525571D01*
X9818619Y-11506524D01*
X9828143Y-11497000D01*
X9847190Y-11487476D01*
X10085286Y-11554143D02*
X10085286Y-11687476D01*
X10037667Y-11477952D02*
X9990048Y-11620809D01*
X10113857Y-11620809D01*
X10171000Y-11487476D02*
X10294810Y-11487476D01*
X10228143Y-11563667D01*
X10256714Y-11563667D01*
X10275762Y-11573190D01*
X10285286Y-11582714D01*
X10294810Y-11601762D01*
X10294810Y-11649381D01*
X10285286Y-11668428D01*
X10275762Y-11677952D01*
X10256714Y-11687476D01*
X10199571Y-11687476D01*
X10180524Y-11677952D01*
X10171000Y-11668428D01*
X10361476Y-11487476D02*
X10485286Y-11487476D01*
X10418619Y-11563667D01*
X10447190Y-11563667D01*
X10466238Y-11573190D01*
X10475762Y-11582714D01*
X10485286Y-11601762D01*
X10485286Y-11649381D01*
X10475762Y-11668428D01*
X10466238Y-11677952D01*
X10447190Y-11687476D01*
X10390048Y-11687476D01*
X10371000Y-11677952D01*
X10361476Y-11668428D01*
X10561476Y-11487476D02*
X10561476Y-11525571D01*
X10637667Y-11487476D02*
X10637667Y-11525571D01*
X10932905Y-11763667D02*
X10923381Y-11754143D01*
X10904333Y-11725571D01*
X10894810Y-11706524D01*
X10885286Y-11677952D01*
X10875762Y-11630333D01*
X10875762Y-11592238D01*
X10885286Y-11544619D01*
X10894810Y-11516048D01*
X10904333Y-11497000D01*
X10923381Y-11468428D01*
X10932905Y-11458905D01*
X11094810Y-11554143D02*
X11094810Y-11687476D01*
X11047190Y-11477952D02*
X10999571Y-11620809D01*
X11123381Y-11620809D01*
X11351952Y-11687476D02*
X11351952Y-11487476D01*
X11437667Y-11687476D02*
X11437667Y-11582714D01*
X11428143Y-11563667D01*
X11409095Y-11554143D01*
X11380524Y-11554143D01*
X11361476Y-11563667D01*
X11351952Y-11573190D01*
X11561476Y-11687476D02*
X11542428Y-11677952D01*
X11532905Y-11668428D01*
X11523381Y-11649381D01*
X11523381Y-11592238D01*
X11532905Y-11573190D01*
X11542428Y-11563667D01*
X11561476Y-11554143D01*
X11590048Y-11554143D01*
X11609095Y-11563667D01*
X11618619Y-11573190D01*
X11628143Y-11592238D01*
X11628143Y-11649381D01*
X11618619Y-11668428D01*
X11609095Y-11677952D01*
X11590048Y-11687476D01*
X11561476Y-11687476D01*
X11742428Y-11687476D02*
X11723381Y-11677952D01*
X11713857Y-11658905D01*
X11713857Y-11487476D01*
X11894809Y-11677952D02*
X11875762Y-11687476D01*
X11837667Y-11687476D01*
X11818619Y-11677952D01*
X11809095Y-11658905D01*
X11809095Y-11582714D01*
X11818619Y-11563667D01*
X11837667Y-11554143D01*
X11875762Y-11554143D01*
X11894809Y-11563667D01*
X11904333Y-11582714D01*
X11904333Y-11601762D01*
X11809095Y-11620809D01*
X11980524Y-11677952D02*
X11999571Y-11687476D01*
X12037667Y-11687476D01*
X12056714Y-11677952D01*
X12066238Y-11658905D01*
X12066238Y-11649381D01*
X12056714Y-11630333D01*
X12037667Y-11620809D01*
X12009095Y-11620809D01*
X11990048Y-11611286D01*
X11980524Y-11592238D01*
X11980524Y-11582714D01*
X11990048Y-11563667D01*
X12009095Y-11554143D01*
X12037667Y-11554143D01*
X12056714Y-11563667D01*
X12132905Y-11763667D02*
X12142428Y-11754143D01*
X12161476Y-11725571D01*
X12171000Y-11706524D01*
X12180524Y-11677952D01*
X12190048Y-11630333D01*
X12190048Y-11592238D01*
X12180524Y-11544619D01*
X12171000Y-11516048D01*
X12161476Y-11497000D01*
X12142428Y-11468428D01*
X12132905Y-11458905D01*
X7261000Y-11961000D02*
X7361000Y-11861000D01*
X7261000Y-11761000D01*
X7161000Y-11861000D01*
X7261000Y-11961000D01*
X7599571Y-11751476D02*
X7723381Y-11751476D01*
X7656714Y-11827667D01*
X7685286Y-11827667D01*
X7704333Y-11837190D01*
X7713857Y-11846714D01*
X7723381Y-11865762D01*
X7723381Y-11913381D01*
X7713857Y-11932428D01*
X7704333Y-11941952D01*
X7685286Y-11951476D01*
X7628143Y-11951476D01*
X7609095Y-11941952D01*
X7599571Y-11932428D01*
X7809095Y-11932428D02*
X7818619Y-11941952D01*
X7809095Y-11951476D01*
X7799571Y-11941952D01*
X7809095Y-11932428D01*
X7809095Y-11951476D01*
X7894809Y-11770524D02*
X7904333Y-11761000D01*
X7923381Y-11751476D01*
X7971000Y-11751476D01*
X7990048Y-11761000D01*
X7999571Y-11770524D01*
X8009095Y-11789571D01*
X8009095Y-11808619D01*
X7999571Y-11837190D01*
X7885286Y-11951476D01*
X8009095Y-11951476D01*
X8132905Y-11751476D02*
X8151952Y-11751476D01*
X8171000Y-11761000D01*
X8180524Y-11770524D01*
X8190048Y-11789571D01*
X8199571Y-11827667D01*
X8199571Y-11875286D01*
X8190048Y-11913381D01*
X8180524Y-11932428D01*
X8171000Y-11941952D01*
X8151952Y-11951476D01*
X8132905Y-11951476D01*
X8113857Y-11941952D01*
X8104333Y-11932428D01*
X8094809Y-11913381D01*
X8085286Y-11875286D01*
X8085286Y-11827667D01*
X8094809Y-11789571D01*
X8104333Y-11770524D01*
X8113857Y-11761000D01*
X8132905Y-11751476D01*
X8323381Y-11751476D02*
X8342428Y-11751476D01*
X8361476Y-11761000D01*
X8371000Y-11770524D01*
X8380524Y-11789571D01*
X8390048Y-11827667D01*
X8390048Y-11875286D01*
X8380524Y-11913381D01*
X8371000Y-11932428D01*
X8361476Y-11941952D01*
X8342428Y-11951476D01*
X8323381Y-11951476D01*
X8304333Y-11941952D01*
X8294809Y-11932428D01*
X8285286Y-11913381D01*
X8275762Y-11875286D01*
X8275762Y-11827667D01*
X8285286Y-11789571D01*
X8294809Y-11770524D01*
X8304333Y-11761000D01*
X8323381Y-11751476D01*
X8475762Y-11951476D02*
X8475762Y-11818143D01*
X8475762Y-11837190D02*
X8485286Y-11827667D01*
X8504333Y-11818143D01*
X8532905Y-11818143D01*
X8551952Y-11827667D01*
X8561476Y-11846714D01*
X8561476Y-11951476D01*
X8561476Y-11846714D02*
X8571000Y-11827667D01*
X8590048Y-11818143D01*
X8618619Y-11818143D01*
X8637667Y-11827667D01*
X8647190Y-11846714D01*
X8647190Y-11951476D01*
X8742429Y-11951476D02*
X8742429Y-11818143D01*
X8742429Y-11837190D02*
X8751952Y-11827667D01*
X8771000Y-11818143D01*
X8799571Y-11818143D01*
X8818619Y-11827667D01*
X8828143Y-11846714D01*
X8828143Y-11951476D01*
X8828143Y-11846714D02*
X8837667Y-11827667D01*
X8856714Y-11818143D01*
X8885286Y-11818143D01*
X8904333Y-11827667D01*
X8913857Y-11846714D01*
X8913857Y-11951476D01*
X9304333Y-11741952D02*
X9132905Y-11999095D01*
X9561476Y-11751476D02*
X9580524Y-11751476D01*
X9599571Y-11761000D01*
X9609095Y-11770524D01*
X9618619Y-11789571D01*
X9628143Y-11827667D01*
X9628143Y-11875286D01*
X9618619Y-11913381D01*
X9609095Y-11932428D01*
X9599571Y-11941952D01*
X9580524Y-11951476D01*
X9561476Y-11951476D01*
X9542429Y-11941952D01*
X9532905Y-11932428D01*
X9523381Y-11913381D01*
X9513857Y-11875286D01*
X9513857Y-11827667D01*
X9523381Y-11789571D01*
X9532905Y-11770524D01*
X9542429Y-11761000D01*
X9561476Y-11751476D01*
X9713857Y-11932428D02*
X9723381Y-11941952D01*
X9713857Y-11951476D01*
X9704333Y-11941952D01*
X9713857Y-11932428D01*
X9713857Y-11951476D01*
X9913857Y-11951476D02*
X9799571Y-11951476D01*
X9856714Y-11951476D02*
X9856714Y-11751476D01*
X9837667Y-11780048D01*
X9818619Y-11799095D01*
X9799571Y-11808619D01*
X9990048Y-11770524D02*
X9999571Y-11761000D01*
X10018619Y-11751476D01*
X10066238Y-11751476D01*
X10085286Y-11761000D01*
X10094810Y-11770524D01*
X10104333Y-11789571D01*
X10104333Y-11808619D01*
X10094810Y-11837190D01*
X9980524Y-11951476D01*
X10104333Y-11951476D01*
X10275762Y-11751476D02*
X10237667Y-11751476D01*
X10218619Y-11761000D01*
X10209095Y-11770524D01*
X10190048Y-11799095D01*
X10180524Y-11837190D01*
X10180524Y-11913381D01*
X10190048Y-11932428D01*
X10199571Y-11941952D01*
X10218619Y-11951476D01*
X10256714Y-11951476D01*
X10275762Y-11941952D01*
X10285286Y-11932428D01*
X10294810Y-11913381D01*
X10294810Y-11865762D01*
X10285286Y-11846714D01*
X10275762Y-11837190D01*
X10256714Y-11827667D01*
X10218619Y-11827667D01*
X10199571Y-11837190D01*
X10190048Y-11846714D01*
X10180524Y-11865762D01*
X10418619Y-11751476D02*
X10437667Y-11751476D01*
X10456714Y-11761000D01*
X10466238Y-11770524D01*
X10475762Y-11789571D01*
X10485286Y-11827667D01*
X10485286Y-11875286D01*
X10475762Y-11913381D01*
X10466238Y-11932428D01*
X10456714Y-11941952D01*
X10437667Y-11951476D01*
X10418619Y-11951476D01*
X10399571Y-11941952D01*
X10390048Y-11932428D01*
X10380524Y-11913381D01*
X10371000Y-11875286D01*
X10371000Y-11827667D01*
X10380524Y-11789571D01*
X10390048Y-11770524D01*
X10399571Y-11761000D01*
X10418619Y-11751476D01*
X10561476Y-11751476D02*
X10561476Y-11789571D01*
X10637667Y-11751476D02*
X10637667Y-11789571D01*
X10932905Y-12027667D02*
X10923381Y-12018143D01*
X10904333Y-11989571D01*
X10894810Y-11970524D01*
X10885286Y-11941952D01*
X10875762Y-11894333D01*
X10875762Y-11856238D01*
X10885286Y-11808619D01*
X10894810Y-11780048D01*
X10904333Y-11761000D01*
X10923381Y-11732428D01*
X10932905Y-11722905D01*
X11094810Y-11818143D02*
X11094810Y-11951476D01*
X11047190Y-11741952D02*
X10999571Y-11884809D01*
X11123381Y-11884809D01*
X11351952Y-11951476D02*
X11351952Y-11751476D01*
X11437667Y-11951476D02*
X11437667Y-11846714D01*
X11428143Y-11827667D01*
X11409095Y-11818143D01*
X11380524Y-11818143D01*
X11361476Y-11827667D01*
X11351952Y-11837190D01*
X11561476Y-11951476D02*
X11542428Y-11941952D01*
X11532905Y-11932428D01*
X11523381Y-11913381D01*
X11523381Y-11856238D01*
X11532905Y-11837190D01*
X11542428Y-11827667D01*
X11561476Y-11818143D01*
X11590048Y-11818143D01*
X11609095Y-11827667D01*
X11618619Y-11837190D01*
X11628143Y-11856238D01*
X11628143Y-11913381D01*
X11618619Y-11932428D01*
X11609095Y-11941952D01*
X11590048Y-11951476D01*
X11561476Y-11951476D01*
X11742428Y-11951476D02*
X11723381Y-11941952D01*
X11713857Y-11922905D01*
X11713857Y-11751476D01*
X11894809Y-11941952D02*
X11875762Y-11951476D01*
X11837667Y-11951476D01*
X11818619Y-11941952D01*
X11809095Y-11922905D01*
X11809095Y-11846714D01*
X11818619Y-11827667D01*
X11837667Y-11818143D01*
X11875762Y-11818143D01*
X11894809Y-11827667D01*
X11904333Y-11846714D01*
X11904333Y-11865762D01*
X11809095Y-11884809D01*
X11980524Y-11941952D02*
X11999571Y-11951476D01*
X12037667Y-11951476D01*
X12056714Y-11941952D01*
X12066238Y-11922905D01*
X12066238Y-11913381D01*
X12056714Y-11894333D01*
X12037667Y-11884809D01*
X12009095Y-11884809D01*
X11990048Y-11875286D01*
X11980524Y-11856238D01*
X11980524Y-11846714D01*
X11990048Y-11827667D01*
X12009095Y-11818143D01*
X12037667Y-11818143D01*
X12056714Y-11827667D01*
X12132905Y-12027667D02*
X12142428Y-12018143D01*
X12161476Y-11989571D01*
X12171000Y-11970524D01*
X12180524Y-11941952D01*
X12190048Y-11894333D01*
X12190048Y-11856238D01*
X12180524Y-11808619D01*
X12171000Y-11780048D01*
X12161476Y-11761000D01*
X12142428Y-11732428D01*
X12132905Y-11722905D01*
M02*
